<?xml version="1.0" encoding="UTF-8" standalone="no"?>
<!-- Created with Inkscape (http://www.inkscape.org/) -->

<svg
   xmlns:dc="http://purl.org/dc/elements/1.1/"
   xmlns:cc="http://creativecommons.org/ns#"
   xmlns:rdf="http://www.w3.org/1999/02/22-rdf-syntax-ns#"
   xmlns:svg="http://www.w3.org/2000/svg"
   xmlns="http://www.w3.org/2000/svg"
   xmlns:sodipodi="http://sodipodi.sourceforge.net/DTD/sodipodi-0.dtd"
   xmlns:inkscape="http://www.inkscape.org/namespaces/inkscape"
   id="svg4353"
   version="1.1"
   inkscape:version="0.91 r13725"
   xml:space="preserve"
   width="537.18634"
   height="389.73666"
   viewBox="0 0 537.18634 389.73666"
   sodipodi:docname="13_ws_lat.svg"><metadata
     id="metadata4359"><rdf:RDF><cc:Work
         rdf:about=""><dc:format>image/svg+xml</dc:format><dc:type
           rdf:resource="http://purl.org/dc/dcmitype/StillImage" /><dc:title></dc:title></cc:Work></rdf:RDF></metadata><defs
     id="defs4357" /><sodipodi:namedview
     pagecolor="#ffffff"
     bordercolor="#666666"
     borderopacity="1"
     objecttolerance="10"
     gridtolerance="10"
     guidetolerance="10"
     inkscape:pageopacity="0"
     inkscape:pageshadow="2"
     inkscape:window-width="1314"
     inkscape:window-height="692"
     id="namedview4355"
     showgrid="false"
     inkscape:zoom="0.60553708"
     inkscape:cx="675.66981"
     inkscape:cy="194.86833"
     inkscape:window-x="25"
     inkscape:window-y="49"
     inkscape:window-maximized="0"
     inkscape:current-layer="g4361" /><g
     id="g4361"
     inkscape:groupmode="layer"
     inkscape:label="13_watts_strogatz_k2_p0.4"
     transform="matrix(1.25,0,0,-1.25,0,389.73667)"><g
       id="g5776"
       transform="translate(41.6,14.4)"><g
         id="g4363"><path
           inkscape:connector-curvature="0"
           id="path4365"
           style="fill:none;stroke:#000000;stroke-width:1;stroke-linecap:butt;stroke-linejoin:miter;stroke-miterlimit:4;stroke-dasharray:6, 6;stroke-dashoffset:0;stroke-opacity:1"
           d="M 48.602,246.735 8.332,156.125" /><path
           inkscape:connector-curvature="0"
           id="path4367"
           style="fill:none;stroke:#000000;stroke-width:1;stroke-linecap:butt;stroke-linejoin:miter;stroke-miterlimit:4;stroke-dasharray:6, 6;stroke-dashoffset:0;stroke-opacity:1"
           d="M 8.332,154.293 49.52,62.77" /><path
           inkscape:connector-curvature="0"
           id="path4369"
           style="fill:none;stroke:#000000;stroke-width:1;stroke-linecap:butt;stroke-linejoin:miter;stroke-miterlimit:4;stroke-dasharray:6, 6;stroke-dashoffset:0;stroke-opacity:1"
           d="m 421.113,155.207 -39.816,91.071" /><path
           inkscape:connector-curvature="0"
           id="path4371"
           style="fill:none;stroke:#c80000;stroke-width:1;stroke-linecap:butt;stroke-linejoin:miter;stroke-miterlimit:4;stroke-dasharray:none;stroke-opacity:1"
           d="M 151.113,301.649 48.602,66.43" /><path
           inkscape:connector-curvature="0"
           id="path4373"
           style="fill:none;stroke:#c80000;stroke-width:1;stroke-linecap:butt;stroke-linejoin:round;stroke-miterlimit:4;stroke-dasharray:none;stroke-opacity:1"
           d="M 420.59,155.895 151.305,9.16" /><path
           inkscape:connector-curvature="0"
           id="path4375"
           style="fill:none;stroke:#000000;stroke-width:1;stroke-linecap:butt;stroke-linejoin:round;stroke-miterlimit:4;stroke-dasharray:none;stroke-opacity:1"
           d="M 420.59,155.895 381.301,65.207" /><path
           inkscape:connector-curvature="0"
           id="path4377"
           style="fill:none;stroke:#000000;stroke-width:1;stroke-linecap:butt;stroke-linejoin:round;stroke-miterlimit:4;stroke-dasharray:none;stroke-opacity:1"
           d="M 381.301,246.582 278.445,302.629" /><path
           inkscape:connector-curvature="0"
           id="path4379"
           style="fill:#5c5c5c;fill-opacity:1;fill-rule:nonzero;stroke:#c80000;stroke-width:1;stroke-linecap:butt;stroke-linejoin:round;stroke-miterlimit:4;stroke-dasharray:none;stroke-opacity:1"
           d="M 381.301,246.582 9.16,155.895" /><path
           inkscape:connector-curvature="0"
           id="path4381"
           style="fill:none;stroke:#000000;stroke-width:1;stroke-linecap:butt;stroke-linejoin:round;stroke-miterlimit:4;stroke-dasharray:none;stroke-opacity:1"
           d="m 278.445,302.629 -127.14,0" /><path
           inkscape:connector-curvature="0"
           id="path4383"
           style="fill:none;stroke:#000000;stroke-width:1;stroke-linecap:butt;stroke-linejoin:round;stroke-miterlimit:4;stroke-dasharray:none;stroke-opacity:1"
           d="M 151.305,302.629 48.449,246.582" /><path
           inkscape:connector-curvature="0"
           id="path4385"
           style="fill:none;stroke:#000000;stroke-width:1;stroke-linecap:butt;stroke-linejoin:round;stroke-miterlimit:4;stroke-dasharray:none;stroke-opacity:1"
           d="M 48.449,65.207 151.305,9.16" /><path
           inkscape:connector-curvature="0"
           id="path4387"
           style="fill:none;stroke:#000000;stroke-width:1;stroke-linecap:butt;stroke-linejoin:round;stroke-miterlimit:4;stroke-dasharray:none;stroke-opacity:1"
           d="m 151.305,9.16 127.14,0" /><path
           inkscape:connector-curvature="0"
           id="path4389"
           style="fill:none;stroke:#000000;stroke-width:1;stroke-linecap:butt;stroke-linejoin:round;stroke-miterlimit:4;stroke-dasharray:none;stroke-opacity:1"
           d="M 278.445,9.16 381.301,65.207" /><path
           inkscape:connector-curvature="0"
           id="path4391"
           style="fill:#5c5c5c;fill-opacity:1;fill-rule:nonzero;stroke:#000000;stroke-width:1;stroke-linecap:butt;stroke-linejoin:round;stroke-miterlimit:4;stroke-dasharray:none;stroke-opacity:1"
           d="m 420.59,147.235 c 2.297,0 4.5,0.914 6.121,2.535 1.625,1.625 2.539,3.828 2.539,6.125 0,2.297 -0.914,4.5 -2.539,6.125 -1.621,1.621 -3.824,2.535 -6.121,2.535 -2.297,0 -4.5,-0.914 -6.125,-2.535 -1.625,-1.625 -2.535,-3.828 -2.535,-6.125 0,-2.297 0.91,-4.5 2.535,-6.125 1.625,-1.621 3.828,-2.535 6.125,-2.535 z" /><path
           inkscape:connector-curvature="0"
           id="path4393"
           style="fill:#5c5c5c;fill-opacity:1;fill-rule:nonzero;stroke:#000000;stroke-width:1;stroke-linecap:butt;stroke-linejoin:round;stroke-miterlimit:4;stroke-dasharray:none;stroke-opacity:1"
           d="m 381.301,237.922 c 2.297,0 4.5,0.91 6.125,2.535 1.621,1.625 2.535,3.828 2.535,6.125 0,2.297 -0.914,4.5 -2.535,6.121 -1.625,1.625 -3.828,2.539 -6.125,2.539 -2.297,0 -4.5,-0.914 -6.125,-2.539 -1.621,-1.621 -2.535,-3.824 -2.535,-6.121 0,-2.297 0.914,-4.5 2.535,-6.125 1.625,-1.625 3.828,-2.535 6.125,-2.535 z" /><path
           inkscape:connector-curvature="0"
           id="path4395"
           style="fill:#5c5c5c;fill-opacity:1;fill-rule:nonzero;stroke:#000000;stroke-width:1;stroke-linecap:butt;stroke-linejoin:round;stroke-miterlimit:4;stroke-dasharray:none;stroke-opacity:1"
           d="m 278.445,293.969 c 2.297,0 4.5,0.914 6.121,2.535 1.625,1.625 2.539,3.828 2.539,6.125 0,2.297 -0.914,4.5 -2.539,6.125 -1.621,1.621 -3.824,2.535 -6.121,2.535 -2.297,0 -4.5,-0.914 -6.125,-2.535 -1.625,-1.625 -2.535,-3.828 -2.535,-6.125 0,-2.297 0.91,-4.5 2.535,-6.125 1.625,-1.621 3.828,-2.535 6.125,-2.535 z" /><path
           inkscape:connector-curvature="0"
           id="path4397"
           style="fill:#5c5c5c;fill-opacity:1;fill-rule:nonzero;stroke:#000000;stroke-width:1;stroke-linecap:butt;stroke-linejoin:round;stroke-miterlimit:4;stroke-dasharray:none;stroke-opacity:1"
           d="m 151.305,293.969 c 2.297,0 4.5,0.914 6.125,2.535 1.625,1.625 2.535,3.828 2.535,6.125 0,2.297 -0.91,4.5 -2.535,6.125 -1.625,1.621 -3.828,2.535 -6.125,2.535 -2.297,0 -4.5,-0.914 -6.125,-2.535 -1.621,-1.625 -2.535,-3.828 -2.535,-6.125 0,-2.297 0.914,-4.5 2.535,-6.125 1.625,-1.621 3.828,-2.535 6.125,-2.535 z" /><path
           inkscape:connector-curvature="0"
           id="path4399"
           style="fill:#5c5c5c;fill-opacity:1;fill-rule:nonzero;stroke:#000000;stroke-width:1;stroke-linecap:butt;stroke-linejoin:round;stroke-miterlimit:4;stroke-dasharray:none;stroke-opacity:1"
           d="m 48.449,237.922 c 2.297,0 4.5,0.91 6.121,2.535 1.625,1.625 2.539,3.828 2.539,6.125 0,2.297 -0.914,4.5 -2.539,6.121 -1.621,1.625 -3.824,2.539 -6.121,2.539 -2.297,0 -4.5,-0.914 -6.125,-2.539 -1.625,-1.621 -2.535,-3.824 -2.535,-6.121 0,-2.297 0.91,-4.5 2.535,-6.125 1.625,-1.625 3.828,-2.535 6.125,-2.535 z" /><path
           inkscape:connector-curvature="0"
           id="path4401"
           style="fill:#5c5c5c;fill-opacity:1;fill-rule:nonzero;stroke:#000000;stroke-width:1;stroke-linecap:butt;stroke-linejoin:round;stroke-miterlimit:4;stroke-dasharray:none;stroke-opacity:1"
           d="m 9.16,147.235 c 2.297,0 4.5,0.914 6.125,2.535 1.621,1.625 2.535,3.828 2.535,6.125 0,2.297 -0.914,4.5 -2.535,6.125 -1.625,1.621 -3.828,2.535 -6.125,2.535 -2.297,0 -4.5,-0.914 -6.125,-2.535 -1.621,-1.625 -2.535,-3.828 -2.535,-6.125 0,-2.297 0.914,-4.5 2.535,-6.125 1.625,-1.621 3.828,-2.535 6.125,-2.535 z" /><path
           inkscape:connector-curvature="0"
           id="path4403"
           style="fill:#5c5c5c;fill-opacity:1;fill-rule:nonzero;stroke:#000000;stroke-width:1;stroke-linecap:butt;stroke-linejoin:round;stroke-miterlimit:4;stroke-dasharray:none;stroke-opacity:1"
           d="m 48.449,56.547 c 2.297,0 4.5,0.914 6.121,2.535 1.625,1.625 2.539,3.828 2.539,6.125 0,2.297 -0.914,4.5 -2.539,6.125 -1.621,1.625 -3.824,2.535 -6.121,2.535 -2.297,0 -4.5,-0.91 -6.125,-2.535 -1.625,-1.625 -2.535,-3.828 -2.535,-6.125 0,-2.297 0.91,-4.5 2.535,-6.125 1.625,-1.621 3.828,-2.535 6.125,-2.535 z" /><path
           inkscape:connector-curvature="0"
           id="path4405"
           style="fill:#5c5c5c;fill-opacity:1;fill-rule:nonzero;stroke:#000000;stroke-width:1;stroke-linecap:butt;stroke-linejoin:round;stroke-miterlimit:4;stroke-dasharray:none;stroke-opacity:1"
           d="m 151.305,0.5 c 2.297,0 4.5,0.914 6.125,2.535 1.625,1.625 2.535,3.829 2.535,6.125 0,2.297 -0.91,4.5 -2.535,6.125 -1.625,1.622 -3.828,2.536 -6.125,2.536 -2.297,0 -4.5,-0.914 -6.125,-2.536 -1.621,-1.625 -2.535,-3.828 -2.535,-6.125 0,-2.296 0.914,-4.5 2.535,-6.125 1.625,-1.621 3.828,-2.535 6.125,-2.535 z" /><path
           inkscape:connector-curvature="0"
           id="path4407"
           style="fill:#5c5c5c;fill-opacity:1;fill-rule:nonzero;stroke:#000000;stroke-width:1;stroke-linecap:butt;stroke-linejoin:round;stroke-miterlimit:4;stroke-dasharray:none;stroke-opacity:1"
           d="m 278.445,0.5 c 2.297,0 4.5,0.914 6.121,2.535 1.625,1.625 2.539,3.829 2.539,6.125 0,2.297 -0.914,4.5 -2.539,6.125 -1.621,1.622 -3.824,2.536 -6.121,2.536 -2.297,0 -4.5,-0.914 -6.125,-2.536 -1.625,-1.625 -2.535,-3.828 -2.535,-6.125 0,-2.296 0.91,-4.5 2.535,-6.125 1.625,-1.621 3.828,-2.535 6.125,-2.535 z" /><path
           inkscape:connector-curvature="0"
           id="path4409"
           style="fill:#5c5c5c;fill-opacity:1;fill-rule:nonzero;stroke:#000000;stroke-width:1;stroke-linecap:butt;stroke-linejoin:round;stroke-miterlimit:4;stroke-dasharray:none;stroke-opacity:1"
           d="m 381.301,56.547 c 2.297,0 4.5,0.914 6.125,2.535 1.621,1.625 2.535,3.828 2.535,6.125 0,2.297 -0.914,4.5 -2.535,6.125 -1.625,1.625 -3.828,2.535 -6.125,2.535 -2.297,0 -4.5,-0.91 -6.125,-2.535 -1.621,-1.625 -2.535,-3.828 -2.535,-6.125 0,-2.297 0.914,-4.5 2.535,-6.125 1.625,-1.621 3.828,-2.535 6.125,-2.535 z" /></g></g><g
       transform="translate(588.08187,3.6481661)"
       inkscape:label="13_watts_strogatz_k4_p0.2"
       id="g5626"><g
         id="g5628"><path
           inkscape:connector-curvature="0"
           id="path5630"
           style="fill:none;stroke:#000000;stroke-width:1;stroke-linecap:butt;stroke-linejoin:round;stroke-miterlimit:4;stroke-dasharray:none;stroke-opacity:1"
           d="M 420.59,163.447 404.93,222.49" /><path
           inkscape:connector-curvature="0"
           id="path5632"
           style="fill:#b95c5c;fill-opacity:1;fill-rule:nonzero;stroke:#c80000;stroke-width:1;stroke-linecap:butt;stroke-linejoin:round;stroke-miterlimit:4;stroke-dasharray:none;stroke-opacity:1"
           d="M 420.59,163.447 24.82,222.49" /><path
           inkscape:connector-curvature="0"
           id="path5634"
           style="fill:none;stroke:#000000;stroke-width:1;stroke-linecap:butt;stroke-linejoin:round;stroke-miterlimit:4;stroke-dasharray:none;stroke-opacity:1"
           d="M 420.59,163.447 360.336,54.349" /><path
           inkscape:connector-curvature="0"
           id="path5636"
           style="fill:none;stroke:#000000;stroke-width:1;stroke-linecap:butt;stroke-linejoin:round;stroke-miterlimit:4;stroke-dasharray:none;stroke-opacity:1"
           d="M 420.59,163.447 404.93,104.404" /><path
           inkscape:connector-curvature="0"
           id="path5638"
           style="fill:none;stroke:#000000;stroke-width:1;stroke-linecap:butt;stroke-linejoin:round;stroke-miterlimit:4;stroke-dasharray:none;stroke-opacity:1"
           d="m 404.93,222.49 -44.594,50.05" /><path
           inkscape:connector-curvature="0"
           id="path5640"
           style="fill:none;stroke:#000000;stroke-width:1;stroke-linecap:butt;stroke-linejoin:round;stroke-miterlimit:4;stroke-dasharray:none;stroke-opacity:1"
           d="M 404.93,222.49 293.598,305.986" /><path
           inkscape:connector-curvature="0"
           id="path5642"
           style="fill:none;stroke:#000000;stroke-width:1;stroke-linecap:butt;stroke-linejoin:round;stroke-miterlimit:4;stroke-dasharray:none;stroke-opacity:1"
           d="m 404.93,222.49 0,-118.086" /><path
           inkscape:connector-curvature="0"
           id="path5644"
           style="fill:none;stroke:#000000;stroke-width:1;stroke-linecap:butt;stroke-linejoin:round;stroke-miterlimit:4;stroke-dasharray:none;stroke-opacity:1"
           d="M 360.336,272.54 214.875,317.732" /><path
           inkscape:connector-curvature="0"
           id="path5646"
           style="fill:#b95c5c;fill-opacity:1;fill-rule:nonzero;stroke:#c80000;stroke-width:1;stroke-linecap:butt;stroke-linejoin:round;stroke-miterlimit:4;stroke-dasharray:none;stroke-opacity:1"
           d="M 360.336,272.54 214.875,9.161" /><path
           inkscape:connector-curvature="0"
           id="path5648"
           style="fill:none;stroke:#000000;stroke-width:1;stroke-linecap:butt;stroke-linejoin:round;stroke-miterlimit:4;stroke-dasharray:none;stroke-opacity:1"
           d="m 293.598,305.986 -78.723,11.746" /><path
           inkscape:connector-curvature="0"
           id="path5650"
           style="fill:none;stroke:#000000;stroke-width:1;stroke-linecap:butt;stroke-linejoin:round;stroke-miterlimit:4;stroke-dasharray:none;stroke-opacity:1"
           d="m 293.598,305.986 -157.446,0" /><path
           inkscape:connector-curvature="0"
           id="path5652"
           style="fill:none;stroke:#000000;stroke-width:1;stroke-linecap:butt;stroke-linejoin:round;stroke-miterlimit:4;stroke-dasharray:none;stroke-opacity:1"
           d="M 214.875,317.732 136.152,305.986" /><path
           inkscape:connector-curvature="0"
           id="path5654"
           style="fill:none;stroke:#000000;stroke-width:1;stroke-linecap:butt;stroke-linejoin:round;stroke-miterlimit:4;stroke-dasharray:none;stroke-opacity:1"
           d="M 214.875,317.732 69.414,272.54" /><path
           inkscape:connector-curvature="0"
           id="path5656"
           style="fill:#b95c5c;fill-opacity:1;fill-rule:nonzero;stroke:#c80000;stroke-width:1;stroke-linecap:butt;stroke-linejoin:round;stroke-miterlimit:4;stroke-dasharray:none;stroke-opacity:1"
           d="M 136.152,305.986 404.93,104.404" /><path
           inkscape:connector-curvature="0"
           id="path5658"
           style="fill:none;stroke:#000000;stroke-width:1;stroke-linecap:butt;stroke-linejoin:round;stroke-miterlimit:4;stroke-dasharray:none;stroke-opacity:1"
           d="M 136.152,305.986 24.82,222.49" /><path
           inkscape:connector-curvature="0"
           id="path5660"
           style="fill:#b95c5c;fill-opacity:1;fill-rule:nonzero;stroke:#c80000;stroke-width:1;stroke-linecap:butt;stroke-linejoin:round;stroke-miterlimit:4;stroke-dasharray:none;stroke-opacity:1"
           d="M 69.414,272.54 293.598,20.904" /><path
           inkscape:connector-curvature="0"
           id="path5662"
           style="fill:none;stroke:#000000;stroke-width:1;stroke-linecap:butt;stroke-linejoin:round;stroke-miterlimit:4;stroke-dasharray:none;stroke-opacity:1"
           d="M 69.414,272.54 24.82,222.49" /><path
           inkscape:connector-curvature="0"
           id="path5664"
           style="fill:none;stroke:#000000;stroke-width:1;stroke-linecap:butt;stroke-linejoin:round;stroke-miterlimit:4;stroke-dasharray:none;stroke-opacity:1"
           d="M 24.82,222.49 9.16,163.447" /><path
           inkscape:connector-curvature="0"
           id="path5666"
           style="fill:none;stroke:#000000;stroke-width:1;stroke-linecap:butt;stroke-linejoin:round;stroke-miterlimit:4;stroke-dasharray:none;stroke-opacity:1"
           d="m 24.82,222.49 0,-118.086" /><path
           inkscape:connector-curvature="0"
           id="path5668"
           style="fill:#b95c5c;fill-opacity:1;fill-rule:nonzero;stroke:#c80000;stroke-width:1;stroke-linecap:butt;stroke-linejoin:round;stroke-miterlimit:4;stroke-dasharray:none;stroke-opacity:1"
           d="M 24.82,222.49 69.414,54.349" /><path
           inkscape:connector-curvature="0"
           id="path5670"
           style="fill:none;stroke:#000000;stroke-width:1;stroke-linecap:butt;stroke-linejoin:round;stroke-miterlimit:4;stroke-dasharray:none;stroke-opacity:1"
           d="M 9.16,163.447 24.82,104.404" /><path
           inkscape:connector-curvature="0"
           id="path5672"
           style="fill:none;stroke:#000000;stroke-width:1;stroke-linecap:butt;stroke-linejoin:round;stroke-miterlimit:4;stroke-dasharray:none;stroke-opacity:1"
           d="M 9.16,163.447 69.414,54.349" /><path
           inkscape:connector-curvature="0"
           id="path5674"
           style="fill:none;stroke:#000000;stroke-width:1;stroke-linecap:butt;stroke-linejoin:round;stroke-miterlimit:4;stroke-dasharray:none;stroke-opacity:1"
           d="M 24.82,104.404 69.414,54.349" /><path
           inkscape:connector-curvature="0"
           id="path5676"
           style="fill:none;stroke:#000000;stroke-width:1;stroke-linecap:butt;stroke-linejoin:round;stroke-miterlimit:4;stroke-dasharray:none;stroke-opacity:1"
           d="m 24.82,104.404 111.332,-83.5" /><path
           inkscape:connector-curvature="0"
           id="path5678"
           style="fill:none;stroke:#000000;stroke-width:1;stroke-linecap:butt;stroke-linejoin:round;stroke-miterlimit:4;stroke-dasharray:none;stroke-opacity:1"
           d="M 69.414,54.349 136.152,20.904" /><path
           inkscape:connector-curvature="0"
           id="path5680"
           style="fill:none;stroke:#000000;stroke-width:1;stroke-linecap:butt;stroke-linejoin:round;stroke-miterlimit:4;stroke-dasharray:none;stroke-opacity:1"
           d="M 136.152,20.904 214.875,9.161" /><path
           inkscape:connector-curvature="0"
           id="path5682"
           style="fill:none;stroke:#000000;stroke-width:1;stroke-linecap:butt;stroke-linejoin:round;stroke-miterlimit:4;stroke-dasharray:none;stroke-opacity:1"
           d="m 136.152,20.904 157.446,0" /><path
           inkscape:connector-curvature="0"
           id="path5684"
           style="fill:none;stroke:#000000;stroke-width:1;stroke-linecap:butt;stroke-linejoin:round;stroke-miterlimit:4;stroke-dasharray:none;stroke-opacity:1"
           d="m 214.875,9.161 78.723,11.743" /><path
           inkscape:connector-curvature="0"
           id="path5686"
           style="fill:none;stroke:#000000;stroke-width:1;stroke-linecap:butt;stroke-linejoin:round;stroke-miterlimit:4;stroke-dasharray:none;stroke-opacity:1"
           d="M 214.875,9.161 360.336,54.349" /><path
           inkscape:connector-curvature="0"
           id="path5688"
           style="fill:none;stroke:#000000;stroke-width:1;stroke-linecap:butt;stroke-linejoin:round;stroke-miterlimit:4;stroke-dasharray:none;stroke-opacity:1"
           d="m 293.598,20.904 66.738,33.445" /><path
           inkscape:connector-curvature="0"
           id="path5690"
           style="fill:none;stroke:#000000;stroke-width:1;stroke-linecap:butt;stroke-linejoin:round;stroke-miterlimit:4;stroke-dasharray:none;stroke-opacity:1"
           d="m 293.598,20.904 111.332,83.5" /><path
           inkscape:connector-curvature="0"
           id="path5692"
           style="fill:none;stroke:#000000;stroke-width:1;stroke-linecap:butt;stroke-linejoin:round;stroke-miterlimit:4;stroke-dasharray:none;stroke-opacity:1"
           d="m 360.336,54.349 44.594,50.055" /><path
           inkscape:connector-curvature="0"
           id="path5694"
           style="fill:#5c5c5c;fill-opacity:1;fill-rule:nonzero;stroke:#000000;stroke-width:1;stroke-linecap:butt;stroke-linejoin:round;stroke-miterlimit:4;stroke-dasharray:none;stroke-opacity:1"
           d="m 420.59,154.786 c 2.297,0 4.5,0.911 6.121,2.536 1.625,1.625 2.539,3.828 2.539,6.125 0,2.296 -0.914,4.5 -2.539,6.125 -1.621,1.621 -3.824,2.535 -6.121,2.535 -2.297,0 -4.5,-0.914 -6.125,-2.535 -1.625,-1.625 -2.535,-3.829 -2.535,-6.125 0,-2.297 0.91,-4.5 2.535,-6.125 1.625,-1.625 3.828,-2.536 6.125,-2.536 z" /><path
           inkscape:connector-curvature="0"
           id="path5696"
           style="fill:#5c5c5c;fill-opacity:1;fill-rule:nonzero;stroke:#000000;stroke-width:1;stroke-linecap:butt;stroke-linejoin:round;stroke-miterlimit:4;stroke-dasharray:none;stroke-opacity:1"
           d="m 404.93,213.829 c 2.297,0 4.5,0.911 6.125,2.536 1.621,1.625 2.535,3.828 2.535,6.125 0,2.296 -0.914,4.5 -2.535,6.121 -1.625,1.625 -3.828,2.539 -6.125,2.539 -2.297,0 -4.5,-0.914 -6.125,-2.539 -1.621,-1.621 -2.535,-3.825 -2.535,-6.121 0,-2.297 0.914,-4.5 2.535,-6.125 1.625,-1.625 3.828,-2.536 6.125,-2.536 z" /><path
           inkscape:connector-curvature="0"
           id="path5698"
           style="fill:#5c5c5c;fill-opacity:1;fill-rule:nonzero;stroke:#000000;stroke-width:1;stroke-linecap:butt;stroke-linejoin:round;stroke-miterlimit:4;stroke-dasharray:none;stroke-opacity:1"
           d="m 360.336,263.884 c 2.297,0 4.5,0.91 6.125,2.535 1.625,1.625 2.535,3.828 2.535,6.125 0,2.293 -0.91,4.496 -2.535,6.121 -1.625,1.625 -3.828,2.539 -6.125,2.539 -2.297,0 -4.5,-0.914 -6.125,-2.539 -1.621,-1.625 -2.535,-3.828 -2.535,-6.121 0,-2.297 0.914,-4.5 2.535,-6.125 1.625,-1.625 3.828,-2.535 6.125,-2.535 z" /><path
           inkscape:connector-curvature="0"
           id="path5700"
           style="fill:#5c5c5c;fill-opacity:1;fill-rule:nonzero;stroke:#000000;stroke-width:1;stroke-linecap:butt;stroke-linejoin:round;stroke-miterlimit:4;stroke-dasharray:none;stroke-opacity:1"
           d="m 293.598,297.326 c 2.297,0 4.5,0.914 6.125,2.539 1.625,1.625 2.535,3.824 2.535,6.121 0,2.297 -0.91,4.5 -2.535,6.125 -1.625,1.625 -3.828,2.535 -6.125,2.535 -2.297,0 -4.5,-0.91 -6.125,-2.535 -1.621,-1.625 -2.535,-3.828 -2.535,-6.125 0,-2.297 0.914,-4.496 2.535,-6.121 1.625,-1.625 3.828,-2.539 6.125,-2.539 z" /><path
           inkscape:connector-curvature="0"
           id="path5702"
           style="fill:#5c5c5c;fill-opacity:1;fill-rule:nonzero;stroke:#000000;stroke-width:1;stroke-linecap:butt;stroke-linejoin:round;stroke-miterlimit:4;stroke-dasharray:none;stroke-opacity:1"
           d="m 214.875,309.072 c 2.297,0 4.5,0.914 6.125,2.535 1.621,1.625 2.535,3.828 2.535,6.125 0,2.297 -0.914,4.5 -2.535,6.125 -1.625,1.621 -3.828,2.535 -6.125,2.535 -2.297,0 -4.5,-0.914 -6.125,-2.535 -1.625,-1.625 -2.535,-3.828 -2.535,-6.125 0,-2.297 0.91,-4.5 2.535,-6.125 1.625,-1.621 3.828,-2.535 6.125,-2.535 z" /><path
           inkscape:connector-curvature="0"
           id="path5704"
           style="fill:#5c5c5c;fill-opacity:1;fill-rule:nonzero;stroke:#000000;stroke-width:1;stroke-linecap:butt;stroke-linejoin:round;stroke-miterlimit:4;stroke-dasharray:none;stroke-opacity:1"
           d="m 136.152,297.326 c 2.297,0 4.5,0.914 6.121,2.539 1.625,1.625 2.539,3.824 2.539,6.121 0,2.297 -0.914,4.5 -2.539,6.125 -1.621,1.625 -3.824,2.535 -6.121,2.535 -2.297,0 -4.5,-0.91 -6.125,-2.535 -1.625,-1.625 -2.535,-3.828 -2.535,-6.125 0,-2.297 0.91,-4.496 2.535,-6.121 1.625,-1.625 3.828,-2.539 6.125,-2.539 z" /><path
           inkscape:connector-curvature="0"
           id="path5706"
           style="fill:#5c5c5c;fill-opacity:1;fill-rule:nonzero;stroke:#000000;stroke-width:1;stroke-linecap:butt;stroke-linejoin:round;stroke-miterlimit:4;stroke-dasharray:none;stroke-opacity:1"
           d="m 69.414,263.884 c 2.297,0 4.5,0.91 6.121,2.535 1.625,1.625 2.539,3.828 2.539,6.125 0,2.293 -0.914,4.496 -2.539,6.121 -1.621,1.625 -3.824,2.539 -6.121,2.539 -2.297,0 -4.5,-0.914 -6.125,-2.539 -1.625,-1.625 -2.535,-3.828 -2.535,-6.121 0,-2.297 0.91,-4.5 2.535,-6.125 1.625,-1.625 3.828,-2.535 6.125,-2.535 z" /><path
           inkscape:connector-curvature="0"
           id="path5708"
           style="fill:#5c5c5c;fill-opacity:1;fill-rule:nonzero;stroke:#000000;stroke-width:1;stroke-linecap:butt;stroke-linejoin:round;stroke-miterlimit:4;stroke-dasharray:none;stroke-opacity:1"
           d="m 24.82,213.829 c 2.297,0 4.5,0.911 6.121,2.536 1.625,1.625 2.539,3.828 2.539,6.125 0,2.296 -0.914,4.5 -2.539,6.121 -1.621,1.625 -3.824,2.539 -6.121,2.539 -2.297,0 -4.5,-0.914 -6.125,-2.539 -1.625,-1.621 -2.535,-3.825 -2.535,-6.121 0,-2.297 0.91,-4.5 2.535,-6.125 1.625,-1.625 3.828,-2.536 6.125,-2.536 z" /><path
           inkscape:connector-curvature="0"
           id="path5710"
           style="fill:#5c5c5c;fill-opacity:1;fill-rule:nonzero;stroke:#000000;stroke-width:1;stroke-linecap:butt;stroke-linejoin:round;stroke-miterlimit:4;stroke-dasharray:none;stroke-opacity:1"
           d="m 9.16,154.786 c 2.297,0 4.5,0.911 6.125,2.536 1.621,1.625 2.535,3.828 2.535,6.125 0,2.296 -0.914,4.5 -2.535,6.125 -1.625,1.621 -3.828,2.535 -6.125,2.535 -2.297,0 -4.5,-0.914 -6.125,-2.535 -1.621,-1.625 -2.535,-3.829 -2.535,-6.125 0,-2.297 0.914,-4.5 2.535,-6.125 1.625,-1.625 3.828,-2.536 6.125,-2.536 z" /><path
           inkscape:connector-curvature="0"
           id="path5712"
           style="fill:#5c5c5c;fill-opacity:1;fill-rule:nonzero;stroke:#000000;stroke-width:1;stroke-linecap:butt;stroke-linejoin:round;stroke-miterlimit:4;stroke-dasharray:none;stroke-opacity:1"
           d="m 24.82,95.743 c 2.297,0 4.5,0.915 6.121,2.536 1.625,1.625 2.539,3.828 2.539,6.125 0,2.297 -0.914,4.5 -2.539,6.125 -1.621,1.621 -3.824,2.535 -6.121,2.535 -2.297,0 -4.5,-0.914 -6.125,-2.535 -1.625,-1.625 -2.535,-3.828 -2.535,-6.125 0,-2.297 0.91,-4.5 2.535,-6.125 1.625,-1.621 3.828,-2.536 6.125,-2.536 z" /><path
           inkscape:connector-curvature="0"
           id="path5714"
           style="fill:#5c5c5c;fill-opacity:1;fill-rule:nonzero;stroke:#000000;stroke-width:1;stroke-linecap:butt;stroke-linejoin:round;stroke-miterlimit:4;stroke-dasharray:none;stroke-opacity:1"
           d="m 69.414,45.689 c 2.297,0 4.5,0.914 6.121,2.535 1.625,1.625 2.539,3.828 2.539,6.125 0,2.297 -0.914,4.5 -2.539,6.125 -1.621,1.625 -3.824,2.535 -6.121,2.535 -2.297,0 -4.5,-0.91 -6.125,-2.535 -1.625,-1.625 -2.535,-3.828 -2.535,-6.125 0,-2.297 0.91,-4.5 2.535,-6.125 1.625,-1.621 3.828,-2.535 6.125,-2.535 z" /><path
           inkscape:connector-curvature="0"
           id="path5716"
           style="fill:#5c5c5c;fill-opacity:1;fill-rule:nonzero;stroke:#000000;stroke-width:1;stroke-linecap:butt;stroke-linejoin:round;stroke-miterlimit:4;stroke-dasharray:none;stroke-opacity:1"
           d="m 136.152,12.243 c 2.297,0 4.5,0.915 6.121,2.54 1.625,1.621 2.539,3.824 2.539,6.121 0,2.297 -0.914,4.5 -2.539,6.125 -1.621,1.625 -3.824,2.535 -6.121,2.535 -2.297,0 -4.5,-0.91 -6.125,-2.535 -1.625,-1.625 -2.535,-3.828 -2.535,-6.125 0,-2.297 0.91,-4.5 2.535,-6.121 1.625,-1.625 3.828,-2.54 6.125,-2.54 z" /><path
           inkscape:connector-curvature="0"
           id="path5718"
           style="fill:#5c5c5c;fill-opacity:1;fill-rule:nonzero;stroke:#000000;stroke-width:1;stroke-linecap:butt;stroke-linejoin:round;stroke-miterlimit:4;stroke-dasharray:none;stroke-opacity:1"
           d="m 214.875,0.501 c 2.297,0 4.5,0.91 6.125,2.535 1.621,1.625 2.535,3.829 2.535,6.125 0,2.297 -0.914,4.5 -2.535,6.122 -1.625,1.625 -3.828,2.539 -6.125,2.539 -2.297,0 -4.5,-0.914 -6.125,-2.539 -1.625,-1.622 -2.535,-3.825 -2.535,-6.122 0,-2.296 0.91,-4.5 2.535,-6.125 1.625,-1.625 3.828,-2.535 6.125,-2.535 z" /><path
           inkscape:connector-curvature="0"
           id="path5720"
           style="fill:#5c5c5c;fill-opacity:1;fill-rule:nonzero;stroke:#000000;stroke-width:1;stroke-linecap:butt;stroke-linejoin:round;stroke-miterlimit:4;stroke-dasharray:none;stroke-opacity:1"
           d="m 293.598,12.243 c 2.297,0 4.5,0.915 6.125,2.54 1.625,1.621 2.535,3.824 2.535,6.121 0,2.297 -0.91,4.5 -2.535,6.125 -1.625,1.625 -3.828,2.535 -6.125,2.535 -2.297,0 -4.5,-0.91 -6.125,-2.535 -1.621,-1.625 -2.535,-3.828 -2.535,-6.125 0,-2.297 0.914,-4.5 2.535,-6.121 1.625,-1.625 3.828,-2.54 6.125,-2.54 z" /><path
           inkscape:connector-curvature="0"
           id="path5722"
           style="fill:#5c5c5c;fill-opacity:1;fill-rule:nonzero;stroke:#000000;stroke-width:1;stroke-linecap:butt;stroke-linejoin:round;stroke-miterlimit:4;stroke-dasharray:none;stroke-opacity:1"
           d="m 360.336,45.689 c 2.297,0 4.5,0.914 6.125,2.535 1.625,1.625 2.535,3.828 2.535,6.125 0,2.297 -0.91,4.5 -2.535,6.125 -1.625,1.625 -3.828,2.535 -6.125,2.535 -2.297,0 -4.5,-0.91 -6.125,-2.535 -1.621,-1.625 -2.535,-3.828 -2.535,-6.125 0,-2.297 0.914,-4.5 2.535,-6.125 1.625,-1.621 3.828,-2.535 6.125,-2.535 z" /><path
           inkscape:connector-curvature="0"
           id="path5724"
           style="fill:#5c5c5c;fill-opacity:1;fill-rule:nonzero;stroke:#000000;stroke-width:1;stroke-linecap:butt;stroke-linejoin:round;stroke-miterlimit:4;stroke-dasharray:none;stroke-opacity:1"
           d="m 404.93,95.743 c 2.297,0 4.5,0.915 6.125,2.536 1.621,1.625 2.535,3.828 2.535,6.125 0,2.297 -0.914,4.5 -2.535,6.125 -1.625,1.621 -3.828,2.535 -6.125,2.535 -2.297,0 -4.5,-0.914 -6.125,-2.535 -1.621,-1.625 -2.535,-3.828 -2.535,-6.125 0,-2.297 0.914,-4.5 2.535,-6.125 1.625,-1.621 3.828,-2.536 6.125,-2.536 z" /></g></g><rect
       style="opacity:0.42677822;fill:none;fill-opacity:1;stroke:#323232;stroke-width:6.4000001;stroke-linecap:butt;stroke-linejoin:round;stroke-miterlimit:4;stroke-dasharray:none;stroke-dashoffset:0;stroke-opacity:1"
       id="rect7850"
       width="511.83389"
       height="385.36334"
       x="2.8892183"
       y="-361.78775"
       transform="scale(1,-1)" /><rect
       y="-361.78775"
       x="543.68976"
       height="385.36334"
       width="511.83389"
       id="rect7852"
       style="opacity:0.42677822;fill:none;fill-opacity:1;stroke:#323232;stroke-width:6.4000001;stroke-linecap:butt;stroke-linejoin:round;stroke-miterlimit:4;stroke-dasharray:none;stroke-dashoffset:0;stroke-opacity:1"
       transform="scale(1,-1)" /><text
       xml:space="preserve"
       style="font-style:normal;font-weight:normal;font-size:100px;line-height:125%;font-family:Sans;text-align:center;letter-spacing:0px;word-spacing:0px;text-anchor:middle;fill:#000000;fill-opacity:1;stroke:none;stroke-width:1px;stroke-linecap:butt;stroke-linejoin:miter;stroke-opacity:1"
       x="261.82349"
       y="-398.62238"
       id="text12166"
       sodipodi:linespacing="125%"
       transform="scale(1,-1)"><tspan
         sodipodi:role="line"
         id="tspan12168"
         style="font-size:40px;stroke-linecap:butt;stroke-linejoin:round"
         x="261.82349"
         y="-398.62238">\textbf{a)}</tspan></text>
<text
       sodipodi:linespacing="125%"
       id="text7840"
       y="-398.62238"
       x="809.02356"
       style="font-style:normal;font-weight:normal;font-size:100px;line-height:125%;font-family:Sans;text-align:center;letter-spacing:0px;word-spacing:0px;text-anchor:middle;fill:#000000;fill-opacity:1;stroke:none;stroke-width:1px;stroke-linecap:butt;stroke-linejoin:miter;stroke-opacity:1"
       xml:space="preserve"
       transform="scale(1,-1)"><tspan
         y="-398.62238"
         x="809.02356"
         style="font-size:40px;stroke-linecap:butt;stroke-linejoin:round"
         id="tspan7842"
         sodipodi:role="line">\textbf{b)}</tspan></text>
</g></svg>