<?xml version="1.0" encoding="utf-8" standalone="no"?>
<!DOCTYPE svg PUBLIC "-//W3C//DTD SVG 1.1//EN"
  "http://www.w3.org/Graphics/SVG/1.1/DTD/svg11.dtd">
<!-- Created with matplotlib (http://matplotlib.org/) -->
<svg height="432pt" version="1.1" viewBox="0 0 576 432" width="576pt" xmlns="http://www.w3.org/2000/svg" xmlns:xlink="http://www.w3.org/1999/xlink">
 <defs>
  <style type="text/css">
*{stroke-linecap:butt;stroke-linejoin:round;}
  </style>
 </defs>
 <g id="figure_1">
  <g id="patch_1">
   <path d="
M0 432
L576 432
L576 0
L0 0
z
" style="fill:#ffffff;"/>
  </g>
  <g id="axes_1">
   <g id="LineCollection_1">
    <path clip-path="url(#p5a67343740)" d="
M184.53 217.158
L294.824 217.244" style="fill:none;stroke:#000000;stroke-dasharray:6.000000,6.000000;stroke-dashoffset:0.0;stroke-width:0.8;"/>
    <path clip-path="url(#p5a67343740)" d="
M184.53 217.158
L184.33 145.851" style="fill:none;stroke:#000000;stroke-dasharray:6.000000,6.000000;stroke-dashoffset:0.0;stroke-width:0.8;"/>
    <path clip-path="url(#p5a67343740)" d="
M184.53 217.158
L87.8039 219.292" style="fill:none;stroke:#000000;stroke-dasharray:6.000000,6.000000;stroke-dashoffset:0.0;stroke-width:0.8;"/>
    <path clip-path="url(#p5a67343740)" d="
M184.53 217.158
L197.485 293.209" style="fill:none;stroke:#000000;stroke-dasharray:6.000000,6.000000;stroke-dashoffset:0.0;stroke-width:0.8;"/>
    <path clip-path="url(#p5a67343740)" d="
M392.344 209.844
L482.082 217.824" style="fill:none;stroke:#000000;stroke-dasharray:6.000000,6.000000;stroke-dashoffset:0.0;stroke-width:0.8;"/>
    <path clip-path="url(#p5a67343740)" d="
M392.344 209.844
L387.728 289.431" style="fill:none;stroke:#000000;stroke-dasharray:6.000000,6.000000;stroke-dashoffset:0.0;stroke-width:0.8;"/>
    <path clip-path="url(#p5a67343740)" d="
M392.344 209.844
L385.695 143.528" style="fill:none;stroke:#000000;stroke-dasharray:6.000000,6.000000;stroke-dashoffset:0.0;stroke-width:0.8;"/>
    <path clip-path="url(#p5a67343740)" d="
M392.344 209.844
L294.824 217.244" style="fill:none;stroke:#000000;stroke-dasharray:6.000000,6.000000;stroke-dashoffset:0.0;stroke-width:0.8;"/>
    <path clip-path="url(#p5a67343740)" d="
M95.2673 355.056
L94.4074 282.339" style="fill:none;stroke:#000000;stroke-dasharray:6.000000,6.000000;stroke-dashoffset:0.0;stroke-width:0.8;"/>
    <path clip-path="url(#p5a67343740)" d="
M95.2673 355.056
L195.379 353.998" style="fill:none;stroke:#000000;stroke-dasharray:6.000000,6.000000;stroke-dashoffset:0.0;stroke-width:0.8;"/>
    <path clip-path="url(#p5a67343740)" d="
M388.055 357.06
L280.118 356.938" style="fill:none;stroke:#000000;stroke-dasharray:6.000000,6.000000;stroke-dashoffset:0.0;stroke-width:0.8;"/>
    <path clip-path="url(#p5a67343740)" d="
M388.055 357.06
L387.728 289.431" style="fill:none;stroke:#000000;stroke-dasharray:6.000000,6.000000;stroke-dashoffset:0.0;stroke-width:0.8;"/>
    <path clip-path="url(#p5a67343740)" d="
M388.055 357.06
L476.891 353.108" style="fill:none;stroke:#000000;stroke-dasharray:6.000000,6.000000;stroke-dashoffset:0.0;stroke-width:0.8;"/>
    <path clip-path="url(#p5a67343740)" d="
M96.2061 65.8225
L89.5126 137.483" style="fill:none;stroke:#000000;stroke-dasharray:6.000000,6.000000;stroke-dashoffset:0.0;stroke-width:0.8;"/>
    <path clip-path="url(#p5a67343740)" d="
M96.2061 65.8225
L196.703 78.7233" style="fill:none;stroke:#000000;stroke-dasharray:6.000000,6.000000;stroke-dashoffset:0.0;stroke-width:0.8;"/>
    <path clip-path="url(#p5a67343740)" d="
M196.703 78.7233
L184.33 145.851" style="fill:none;stroke:#000000;stroke-dasharray:6.000000,6.000000;stroke-dashoffset:0.0;stroke-width:0.8;"/>
    <path clip-path="url(#p5a67343740)" d="
M196.703 78.7233
L278.778 65.2223" style="fill:none;stroke:#000000;stroke-dasharray:6.000000,6.000000;stroke-dashoffset:0.0;stroke-width:0.8;"/>
    <path clip-path="url(#p5a67343740)" d="
M184.33 145.851
L89.5126 137.483" style="fill:none;stroke:#000000;stroke-dasharray:6.000000,6.000000;stroke-dashoffset:0.0;stroke-width:0.8;"/>
    <path clip-path="url(#p5a67343740)" d="
M184.33 145.851
L282.287 142.398" style="fill:none;stroke:#000000;stroke-dasharray:6.000000,6.000000;stroke-dashoffset:0.0;stroke-width:0.8;"/>
    <path clip-path="url(#p5a67343740)" d="
M282.287 142.398
L385.695 143.528" style="fill:none;stroke:#000000;stroke-dasharray:6.000000,6.000000;stroke-dashoffset:0.0;stroke-width:0.8;"/>
    <path clip-path="url(#p5a67343740)" d="
M282.287 142.398
L278.778 65.2223" style="fill:none;stroke:#000000;stroke-dasharray:6.000000,6.000000;stroke-dashoffset:0.0;stroke-width:0.8;"/>
    <path clip-path="url(#p5a67343740)" d="
M282.287 142.398
L294.824 217.244" style="fill:none;stroke:#000000;stroke-dasharray:6.000000,6.000000;stroke-dashoffset:0.0;stroke-width:0.8;"/>
    <path clip-path="url(#p5a67343740)" d="
M295.326 281.377
L280.118 356.938" style="fill:none;stroke:#000000;stroke-dasharray:6.000000,6.000000;stroke-dashoffset:0.0;stroke-width:0.8;"/>
    <path clip-path="url(#p5a67343740)" d="
M295.326 281.377
L387.728 289.431" style="fill:none;stroke:#000000;stroke-dasharray:6.000000,6.000000;stroke-dashoffset:0.0;stroke-width:0.8;"/>
    <path clip-path="url(#p5a67343740)" d="
M295.326 281.377
L197.485 293.209" style="fill:none;stroke:#000000;stroke-dasharray:6.000000,6.000000;stroke-dashoffset:0.0;stroke-width:0.8;"/>
    <path clip-path="url(#p5a67343740)" d="
M295.326 281.377
L294.824 217.244" style="fill:none;stroke:#000000;stroke-dasharray:6.000000,6.000000;stroke-dashoffset:0.0;stroke-width:0.8;"/>
    <path clip-path="url(#p5a67343740)" d="
M278.778 65.2223
L388.909 68.1493" style="fill:none;stroke:#000000;stroke-dasharray:6.000000,6.000000;stroke-dashoffset:0.0;stroke-width:0.8;"/>
    <path clip-path="url(#p5a67343740)" d="
M482.082 217.824
L482.988 293.524" style="fill:none;stroke:#000000;stroke-dasharray:6.000000,6.000000;stroke-dashoffset:0.0;stroke-width:0.8;"/>
    <path clip-path="url(#p5a67343740)" d="
M482.082 217.824
L478.835 140.614" style="fill:none;stroke:#000000;stroke-dasharray:6.000000,6.000000;stroke-dashoffset:0.0;stroke-width:0.8;"/>
    <path clip-path="url(#p5a67343740)" d="
M195.379 353.998
L280.118 356.938" style="fill:none;stroke:#000000;stroke-dasharray:6.000000,6.000000;stroke-dashoffset:0.0;stroke-width:0.8;"/>
    <path clip-path="url(#p5a67343740)" d="
M195.379 353.998
L197.485 293.209" style="fill:none;stroke:#000000;stroke-dasharray:6.000000,6.000000;stroke-dashoffset:0.0;stroke-width:0.8;"/>
    <path clip-path="url(#p5a67343740)" d="
M89.5126 137.483
L87.8039 219.292" style="fill:none;stroke:#000000;stroke-dasharray:6.000000,6.000000;stroke-dashoffset:0.0;stroke-width:0.8;"/>
    <path clip-path="url(#p5a67343740)" d="
M476.891 353.108
L482.988 293.524" style="fill:none;stroke:#000000;stroke-dasharray:6.000000,6.000000;stroke-dashoffset:0.0;stroke-width:0.8;"/>
    <path clip-path="url(#p5a67343740)" d="
M94.4074 282.339
L87.8039 219.292" style="fill:none;stroke:#000000;stroke-dasharray:6.000000,6.000000;stroke-dashoffset:0.0;stroke-width:0.8;"/>
    <path clip-path="url(#p5a67343740)" d="
M94.4074 282.339
L197.485 293.209" style="fill:none;stroke:#000000;stroke-dasharray:6.000000,6.000000;stroke-dashoffset:0.0;stroke-width:0.8;"/>
    <path clip-path="url(#p5a67343740)" d="
M385.695 143.528
L388.909 68.1493" style="fill:none;stroke:#000000;stroke-dasharray:6.000000,6.000000;stroke-dashoffset:0.0;stroke-width:0.8;"/>
    <path clip-path="url(#p5a67343740)" d="
M385.695 143.528
L478.835 140.614" style="fill:none;stroke:#000000;stroke-dasharray:6.000000,6.000000;stroke-dashoffset:0.0;stroke-width:0.8;"/>
    <path clip-path="url(#p5a67343740)" d="
M482.988 293.524
L387.728 289.431" style="fill:none;stroke:#000000;stroke-dasharray:6.000000,6.000000;stroke-dashoffset:0.0;stroke-width:0.8;"/>
    <path clip-path="url(#p5a67343740)" d="
M471.949 73.7162
L388.909 68.1493" style="fill:none;stroke:#000000;stroke-dasharray:6.000000,6.000000;stroke-dashoffset:0.0;stroke-width:0.8;"/>
    <path clip-path="url(#p5a67343740)" d="
M471.949 73.7162
L478.835 140.614" style="fill:none;stroke:#000000;stroke-dasharray:6.000000,6.000000;stroke-dashoffset:0.0;stroke-width:0.8;"/>
   </g>
   <g id="LineCollection_2">
    <path clip-path="url(#p5a67343740)" d="
M184.53 217.158
L280.118 356.938" style="fill:none;stroke:#800000;"/>
    <path clip-path="url(#p5a67343740)" d="
M184.53 217.158
L184.33 145.851" style="fill:none;stroke:#000080;"/>
    <path clip-path="url(#p5a67343740)" d="
M184.53 217.158
L387.728 289.431" style="fill:none;stroke:#800000;"/>
    <path clip-path="url(#p5a67343740)" d="
M184.53 217.158
L87.8039 219.292" style="fill:none;stroke:#000080;"/>
    <path clip-path="url(#p5a67343740)" d="
M184.53 217.158
L294.824 217.244" style="fill:none;stroke:#000080;"/>
    <path clip-path="url(#p5a67343740)" d="
M392.344 209.844
L482.082 217.824" style="fill:none;stroke:#000080;"/>
    <path clip-path="url(#p5a67343740)" d="
M392.344 209.844
L387.728 289.431" style="fill:none;stroke:#000080;"/>
    <path clip-path="url(#p5a67343740)" d="
M392.344 209.844
L385.695 143.528" style="fill:none;stroke:#000080;"/>
    <path clip-path="url(#p5a67343740)" d="
M392.344 209.844
L294.824 217.244" style="fill:none;stroke:#000080;"/>
    <path clip-path="url(#p5a67343740)" d="
M95.2673 355.056
L195.379 353.998" style="fill:none;stroke:#000080;"/>
    <path clip-path="url(#p5a67343740)" d="
M388.055 357.06
L280.118 356.938" style="fill:none;stroke:#000080;"/>
    <path clip-path="url(#p5a67343740)" d="
M388.055 357.06
L387.728 289.431" style="fill:none;stroke:#000080;"/>
    <path clip-path="url(#p5a67343740)" d="
M388.055 357.06
L478.835 140.614" style="fill:none;stroke:#800000;"/>
    <path clip-path="url(#p5a67343740)" d="
M96.2061 65.8225
L94.4074 282.339" style="fill:none;stroke:#800000;"/>
    <path clip-path="url(#p5a67343740)" d="
M96.2061 65.8225
L89.5126 137.483" style="fill:none;stroke:#000080;"/>
    <path clip-path="url(#p5a67343740)" d="
M96.2061 65.8225
L196.703 78.7233" style="fill:none;stroke:#000080;"/>
    <path clip-path="url(#p5a67343740)" d="
M196.703 78.7233
L278.778 65.2223" style="fill:none;stroke:#000080;"/>
    <path clip-path="url(#p5a67343740)" d="
M184.33 145.851
L280.118 356.938" style="fill:none;stroke:#800000;"/>
    <path clip-path="url(#p5a67343740)" d="
M184.33 145.851
L282.287 142.398" style="fill:none;stroke:#000080;"/>
    <path clip-path="url(#p5a67343740)" d="
M282.287 142.398
L282.287 142.398" style="fill:none;stroke:#800000;"/>
    <path clip-path="url(#p5a67343740)" d="
M282.287 142.398
L278.778 65.2223" style="fill:none;stroke:#000080;"/>
    <path clip-path="url(#p5a67343740)" d="
M282.287 142.398
L385.695 143.528" style="fill:none;stroke:#000080;"/>
    <path clip-path="url(#p5a67343740)" d="
M295.326 281.377
L280.118 356.938" style="fill:none;stroke:#000080;"/>
    <path clip-path="url(#p5a67343740)" d="
M295.326 281.377
L197.485 293.209" style="fill:none;stroke:#000080;"/>
    <path clip-path="url(#p5a67343740)" d="
M295.326 281.377
L294.824 217.244" style="fill:none;stroke:#000080;"/>
    <path clip-path="url(#p5a67343740)" d="
M278.778 65.2223
L388.909 68.1493" style="fill:none;stroke:#000080;"/>
    <path clip-path="url(#p5a67343740)" d="
M482.082 217.824
L482.988 293.524" style="fill:none;stroke:#000080;"/>
    <path clip-path="url(#p5a67343740)" d="
M482.082 217.824
L478.835 140.614" style="fill:none;stroke:#000080;"/>
    <path clip-path="url(#p5a67343740)" d="
M195.379 353.998
L280.118 356.938" style="fill:none;stroke:#000080;"/>
    <path clip-path="url(#p5a67343740)" d="
M195.379 353.998
L197.485 293.209" style="fill:none;stroke:#000080;"/>
    <path clip-path="url(#p5a67343740)" d="
M89.5126 137.483
L87.8039 219.292" style="fill:none;stroke:#000080;"/>
    <path clip-path="url(#p5a67343740)" d="
M476.891 353.108
L482.988 293.524" style="fill:none;stroke:#000080;"/>
    <path clip-path="url(#p5a67343740)" d="
M476.891 353.108
L478.835 140.614" style="fill:none;stroke:#800000;"/>
    <path clip-path="url(#p5a67343740)" d="
M94.4074 282.339
L197.485 293.209" style="fill:none;stroke:#000080;"/>
    <path clip-path="url(#p5a67343740)" d="
M94.4074 282.339
L471.949 73.7162" style="fill:none;stroke:#800000;"/>
    <path clip-path="url(#p5a67343740)" d="
M94.4074 282.339
L87.8039 219.292" style="fill:none;stroke:#800000;"/>
    <path clip-path="url(#p5a67343740)" d="
M385.695 143.528
L388.909 68.1493" style="fill:none;stroke:#000080;"/>
    <path clip-path="url(#p5a67343740)" d="
M482.988 293.524
L387.728 289.431" style="fill:none;stroke:#000080;"/>
    <path clip-path="url(#p5a67343740)" d="
M471.949 73.7162
L478.835 140.614" style="fill:none;stroke:#000080;"/>
   </g>
   <g id="PathCollection_1">
    <defs>
     <path d="
M0 8.66025
C2.29673 8.66025 4.49969 7.74776 6.12372 6.12372
C7.74776 4.49969 8.66025 2.29673 8.66025 0
C8.66025 -2.29673 7.74776 -4.49969 6.12372 -6.12372
C4.49969 -7.74776 2.29673 -8.66025 0 -8.66025
C-2.29673 -8.66025 -4.49969 -7.74776 -6.12372 -6.12372
C-7.74776 -4.49969 -8.66025 -2.29673 -8.66025 0
C-8.66025 2.29673 -7.74776 4.49969 -6.12372 6.12372
C-4.49969 7.74776 -2.29673 8.66025 0 8.66025
z
" id="m601932d95b" style="stroke:#000000;"/>
    </defs>
    <g clip-path="url(#p5a67343740)">
     <use style="fill:#646464;stroke:#000000;" x="184.530438112" xlink:href="#m601932d95b" y="217.157716263"/>
     <use style="fill:#646464;stroke:#000000;" x="392.343552326" xlink:href="#m601932d95b" y="209.844163691"/>
     <use style="fill:#646464;stroke:#000000;" x="95.2673118046" xlink:href="#m601932d95b" y="355.056458427"/>
     <use style="fill:#646464;stroke:#000000;" x="388.055172772" xlink:href="#m601932d95b" y="357.060494416"/>
     <use style="fill:#646464;stroke:#000000;" x="96.2060506927" xlink:href="#m601932d95b" y="65.8225112529"/>
     <use style="fill:#646464;stroke:#000000;" x="196.702508093" xlink:href="#m601932d95b" y="78.7233302456"/>
     <use style="fill:#646464;stroke:#000000;" x="184.330195846" xlink:href="#m601932d95b" y="145.850760987"/>
     <use style="fill:#646464;stroke:#000000;" x="282.287293203" xlink:href="#m601932d95b" y="142.398482695"/>
     <use style="fill:#646464;stroke:#000000;" x="295.325966891" xlink:href="#m601932d95b" y="281.377082543"/>
     <use style="fill:#646464;stroke:#000000;" x="278.777548454" xlink:href="#m601932d95b" y="65.2222772882"/>
     <use style="fill:#646464;stroke:#000000;" x="482.081738283" xlink:href="#m601932d95b" y="217.823679146"/>
     <use style="fill:#646464;stroke:#000000;" x="195.379305758" xlink:href="#m601932d95b" y="353.99833786"/>
     <use style="fill:#646464;stroke:#000000;" x="89.5126004149" xlink:href="#m601932d95b" y="137.483135243"/>
     <use style="fill:#646464;stroke:#000000;" x="476.890528071" xlink:href="#m601932d95b" y="353.108284241"/>
     <use style="fill:#646464;stroke:#000000;" x="94.4073936119" xlink:href="#m601932d95b" y="282.33888574"/>
     <use style="fill:#646464;stroke:#000000;" x="385.694957963" xlink:href="#m601932d95b" y="143.527911726"/>
     <use style="fill:#646464;stroke:#000000;" x="482.987662964" xlink:href="#m601932d95b" y="293.523995061"/>
     <use style="fill:#646464;stroke:#000000;" x="387.727790189" xlink:href="#m601932d95b" y="289.43117777"/>
     <use style="fill:#646464;stroke:#000000;" x="471.948827673" xlink:href="#m601932d95b" y="73.7162063313"/>
     <use style="fill:#646464;stroke:#000000;" x="87.8038692991" xlink:href="#m601932d95b" y="219.292360771"/>
     <use style="fill:#646464;stroke:#000000;" x="280.117977689" xlink:href="#m601932d95b" y="356.937690497"/>
     <use style="fill:#646464;stroke:#000000;" x="478.835419716" xlink:href="#m601932d95b" y="140.61382131"/>
     <use style="fill:#646464;stroke:#000000;" x="294.824427675" xlink:href="#m601932d95b" y="217.244349635"/>
     <use style="fill:#646464;stroke:#000000;" x="388.908675164" xlink:href="#m601932d95b" y="68.1492966942"/>
     <use style="fill:#646464;stroke:#000000;" x="197.485413198" xlink:href="#m601932d95b" y="293.208902202"/>
    </g>
   </g>
   <g id="PathCollection_2">
    <g clip-path="url(#p5a67343740)">
     <use style="fill:#646464;stroke:#000000;" x="184.530438112" xlink:href="#m601932d95b" y="217.157716263"/>
     <use style="fill:#646464;stroke:#000000;" x="392.343552326" xlink:href="#m601932d95b" y="209.844163691"/>
     <use style="fill:#646464;stroke:#000000;" x="95.2673118046" xlink:href="#m601932d95b" y="355.056458427"/>
     <use style="fill:#646464;stroke:#000000;" x="388.055172772" xlink:href="#m601932d95b" y="357.060494416"/>
     <use style="fill:#646464;stroke:#000000;" x="96.2060506927" xlink:href="#m601932d95b" y="65.8225112529"/>
     <use style="fill:#646464;stroke:#000000;" x="196.702508093" xlink:href="#m601932d95b" y="78.7233302456"/>
     <use style="fill:#646464;stroke:#000000;" x="184.330195846" xlink:href="#m601932d95b" y="145.850760987"/>
     <use style="fill:#646464;stroke:#000000;" x="282.287293203" xlink:href="#m601932d95b" y="142.398482695"/>
     <use style="fill:#646464;stroke:#000000;" x="295.325966891" xlink:href="#m601932d95b" y="281.377082543"/>
     <use style="fill:#646464;stroke:#000000;" x="278.777548454" xlink:href="#m601932d95b" y="65.2222772882"/>
     <use style="fill:#646464;stroke:#000000;" x="482.081738283" xlink:href="#m601932d95b" y="217.823679146"/>
     <use style="fill:#646464;stroke:#000000;" x="195.379305758" xlink:href="#m601932d95b" y="353.99833786"/>
     <use style="fill:#646464;stroke:#000000;" x="89.5126004149" xlink:href="#m601932d95b" y="137.483135243"/>
     <use style="fill:#646464;stroke:#000000;" x="476.890528071" xlink:href="#m601932d95b" y="353.108284241"/>
     <use style="fill:#646464;stroke:#000000;" x="94.4073936119" xlink:href="#m601932d95b" y="282.33888574"/>
     <use style="fill:#646464;stroke:#000000;" x="385.694957963" xlink:href="#m601932d95b" y="143.527911726"/>
     <use style="fill:#646464;stroke:#000000;" x="482.987662964" xlink:href="#m601932d95b" y="293.523995061"/>
     <use style="fill:#646464;stroke:#000000;" x="387.727790189" xlink:href="#m601932d95b" y="289.43117777"/>
     <use style="fill:#646464;stroke:#000000;" x="471.948827673" xlink:href="#m601932d95b" y="73.7162063313"/>
     <use style="fill:#646464;stroke:#000000;" x="87.8038692991" xlink:href="#m601932d95b" y="219.292360771"/>
     <use style="fill:#646464;stroke:#000000;" x="280.117977689" xlink:href="#m601932d95b" y="356.937690497"/>
     <use style="fill:#646464;stroke:#000000;" x="478.835419716" xlink:href="#m601932d95b" y="140.61382131"/>
     <use style="fill:#646464;stroke:#000000;" x="294.824427675" xlink:href="#m601932d95b" y="217.244349635"/>
     <use style="fill:#646464;stroke:#000000;" x="388.908675164" xlink:href="#m601932d95b" y="68.1492966942"/>
     <use style="fill:#646464;stroke:#000000;" x="197.485413198" xlink:href="#m601932d95b" y="293.208902202"/>
    </g>
   </g>
  </g>
 </g>
 <defs>
  <clipPath id="p5a67343740">
   <rect height="432.0" width="576.0" x="0.0" y="0.0"/>
  </clipPath>
 </defs>
</svg>
