<?xml version="1.0" encoding="UTF-8" standalone="no"?>
<!-- Created with matplotlib (http://matplotlib.org/) -->

<svg
   xmlns:dc="http://purl.org/dc/elements/1.1/"
   xmlns:cc="http://creativecommons.org/ns#"
   xmlns:rdf="http://www.w3.org/1999/02/22-rdf-syntax-ns#"
   xmlns:svg="http://www.w3.org/2000/svg"
   xmlns="http://www.w3.org/2000/svg"
   xmlns:xlink="http://www.w3.org/1999/xlink"
   xmlns:sodipodi="http://sodipodi.sourceforge.net/DTD/sodipodi-0.dtd"
   xmlns:inkscape="http://www.inkscape.org/namespaces/inkscape"
   height="430pt"
   version="1.1"
   viewBox="0 0 576 430"
   width="576pt"
   id="svg6363"
   inkscape:version="0.91 r13725"
   sodipodi:docname="er_2.svg">
  <metadata
     id="metadata6771">
    <rdf:RDF>
      <cc:Work
         rdf:about="">
        <dc:format>image/svg+xml</dc:format>
        <dc:type
           rdf:resource="http://purl.org/dc/dcmitype/StillImage" />
      </cc:Work>
    </rdf:RDF>
  </metadata>
  <sodipodi:namedview
     pagecolor="#ffffff"
     bordercolor="#666666"
     borderopacity="1"
     objecttolerance="10"
     gridtolerance="10"
     guidetolerance="10"
     inkscape:pageopacity="0"
     inkscape:pageshadow="2"
     inkscape:window-width="640"
     inkscape:window-height="480"
     id="namedview6769"
     showgrid="false" />
  <defs
     id="defs6365">
    <style
       type="text/css"
       id="style6367">
*{stroke-linecap:butt;stroke-linejoin:round;}
  </style>
    <defs
       id="defs6478">
      <path
         style="stroke-linecap:butt;stroke-linejoin:round"
         inkscape:connector-curvature="0"
         id="C1_0_95d0887793"
         d="M 0,5 C 1.32602,5 2.5979,4.47317 3.53553,3.53553 4.47317,2.5979 5,1.32602 5,0 5,-1.32602 4.47317,-2.5979 3.53553,-3.53553 2.5979,-4.47317 1.32602,-5 0,-5 -1.32602,-5 -2.5979,-4.47317 -3.53553,-3.53553 -4.47317,-2.5979 -5,-1.32602 -5,0 -5,1.32602 -4.47317,2.5979 -3.53553,3.53553 -2.5979,4.47317 -1.32602,5 0,5 Z" />
    </defs>
    <defs
       id="defs6375">
      <path
         style="stroke-linecap:butt;stroke-linejoin:round"
         inkscape:connector-curvature="0"
         id="C0_0_6e850205bd"
         d="M 483.399,-260.514 414.893,-94.6404" />
      <path
         style="stroke-linecap:butt;stroke-linejoin:round"
         inkscape:connector-curvature="0"
         id="C0_1_86991dd8ea"
         d="M 456.718,-301.893 361.639,-71.6769" />
      <path
         style="stroke-linecap:butt;stroke-linejoin:round"
         inkscape:connector-curvature="0"
         id="C0_2_81bc83e04e"
         d="M 456.718,-301.893 183.127,-81.6683" />
      <path
         style="stroke-linecap:butt;stroke-linejoin:round"
         inkscape:connector-curvature="0"
         id="C0_3_b7d18bf507"
         d="M 414.893,-335.56 301.689,-61.4571" />
      <path
         style="stroke-linecap:butt;stroke-linejoin:round"
         inkscape:connector-curvature="0"
         id="C0_4_13f911faa4"
         d="M 414.893,-335.56 100.411,-148.25" />
      <path
         style="stroke-linecap:butt;stroke-linejoin:round"
         inkscape:connector-curvature="0"
         id="C0_5_15095d6cd3"
         d="M 414.893,-335.56 135.051,-110.303" />
      <path
         style="stroke-linecap:butt;stroke-linejoin:round"
         inkscape:connector-curvature="0"
         id="C0_6_745a17d1be"
         d="m 361.639,-358.523 121.76,188.837" />
      <path
         style="stroke-linecap:butt;stroke-linejoin:round"
         inkscape:connector-curvature="0"
         id="C0_7_8491f3b60c"
         d="M 361.639,-358.523 100.411,-148.25" />
      <path
         style="stroke-linecap:butt;stroke-linejoin:round"
         inkscape:connector-curvature="0"
         id="C0_8_5d743f3b6f"
         d="m 361.639,-358.523 -178.512,9.991" />
      <path
         style="stroke-linecap:butt;stroke-linejoin:round"
         inkscape:connector-curvature="0"
         id="C0_9_3bc8ba83fa"
         d="m 301.689,-368.743 0,307.2859" />
      <path
         style="stroke-linecap:butt;stroke-linejoin:round"
         inkscape:connector-curvature="0"
         id="C0_a_d9fab8f714"
         d="M 301.689,-368.743 100.411,-281.95" />
      <path
         style="stroke-linecap:butt;stroke-linejoin:round"
         inkscape:connector-curvature="0"
         id="C0_b_3e866dc661"
         d="m 301.689,-368.743 -61.32,303.8538" />
      <path
         style="stroke-linecap:butt;stroke-linejoin:round"
         inkscape:connector-curvature="0"
         id="C0_c_8f3d2791fd"
         d="m 183.127,-348.532 -48.076,28.635" />
      <path
         style="stroke-linecap:butt;stroke-linejoin:round"
         inkscape:connector-curvature="0"
         id="C0_d_2abc6e0cfa"
         d="M 135.051,-319.897 301.689,-61.4571" />
      <path
         style="stroke-linecap:butt;stroke-linejoin:round"
         inkscape:connector-curvature="0"
         id="C0_e_305bc628e0"
         d="m 100.411,-281.95 356.307,153.643" />
      <path
         style="stroke-linecap:butt;stroke-linejoin:round"
         inkscape:connector-curvature="0"
         id="C0_f_2ba1e3358a"
         d="M 100.411,-281.95 240.369,-64.8892" />
      <path
         style="stroke-linecap:butt;stroke-linejoin:round"
         inkscape:connector-curvature="0"
         id="C0_10_f885edfc4f"
         d="M 82.2857,-238.063 456.718,-128.307" />
      <path
         style="stroke-linecap:butt;stroke-linejoin:round"
         inkscape:connector-curvature="0"
         id="C0_11_06e1043fd3"
         d="m 100.411,-148.25 139.958,83.3608" />
      <path
         style="stroke-linecap:butt;stroke-linejoin:round"
         inkscape:connector-curvature="0"
         id="C0_12_747ec39b9f"
         d="m 183.127,-81.6683 178.512,9.9914" />
      <path
         style="stroke-linecap:butt;stroke-linejoin:round"
         inkscape:connector-curvature="0"
         id="C0_13_51e47cf480"
         d="M 183.127,-81.6683 456.718,-128.307" />
    </defs>
  </defs>
  <g
     style="stroke-linecap:butt;stroke-linejoin:round"
     id="g6397"
     clip-path="url(#p96211352e1)"
     transform="translate(10.021186,-6.3771186)">
    <use
       height="100%"
       width="100%"
       id="use6399"
       y="430.20001"
       xlink:href="#C0_0_6e850205bd"
       x="0"
       style="fill:none;stroke:#26d9ff;stroke-linecap:butt;stroke-linejoin:round" />
  </g>
  <g
     style="stroke-linecap:butt;stroke-linejoin:round"
     id="g6401"
     clip-path="url(#p96211352e1)"
     transform="translate(10.021186,-6.3771186)">
    <use
       height="100%"
       width="100%"
       id="use6403"
       y="430.20001"
       xlink:href="#C0_1_86991dd8ea"
       x="0"
       style="fill:none;stroke:#33ccff;stroke-linecap:butt;stroke-linejoin:round" />
  </g>
  <g
     style="stroke-linecap:butt;stroke-linejoin:round"
     id="g6405"
     clip-path="url(#p96211352e1)"
     transform="translate(10.021186,-6.3771186)">
    <use
       height="100%"
       width="100%"
       id="use6407"
       y="430.20001"
       xlink:href="#C0_2_81bc83e04e"
       x="0"
       style="fill:none;stroke:#f30cff;stroke-linecap:butt;stroke-linejoin:round" />
  </g>
  <g
     style="stroke-linecap:butt;stroke-linejoin:round"
     id="g6409"
     clip-path="url(#p96211352e1)"
     transform="translate(10.021186,-6.3771186)">
    <use
       height="100%"
       width="100%"
       id="use6411"
       y="430.20001"
       xlink:href="#C0_3_b7d18bf507"
       x="0"
       style="fill:none;stroke:#a659ff;stroke-linecap:butt;stroke-linejoin:round" />
  </g>
  <g
     style="stroke-linecap:butt;stroke-linejoin:round"
     id="g6413"
     clip-path="url(#p96211352e1)"
     transform="translate(10.021186,-6.3771186)">
    <use
       height="100%"
       width="100%"
       id="use6415"
       y="430.20001"
       xlink:href="#C0_4_13f911faa4"
       x="0"
       style="fill:none;stroke:#d926ff;stroke-linecap:butt;stroke-linejoin:round" />
  </g>
  <g
     style="stroke-linecap:butt;stroke-linejoin:round"
     id="g6417"
     clip-path="url(#p96211352e1)"
     transform="translate(10.021186,-6.3771186)">
    <use
       height="100%"
       width="100%"
       id="use6419"
       y="430.20001"
       xlink:href="#C0_5_15095d6cd3"
       x="0"
       style="fill:none;stroke:#40bfff;stroke-linecap:butt;stroke-linejoin:round" />
  </g>
  <g
     style="stroke-linecap:butt;stroke-linejoin:round"
     id="g6421"
     clip-path="url(#p96211352e1)"
     transform="translate(10.021186,-6.3771186)">
    <use
       height="100%"
       width="100%"
       id="use6423"
       y="430.20001"
       xlink:href="#C0_6_745a17d1be"
       x="0"
       style="fill:none;stroke:#e619ff;stroke-linecap:butt;stroke-linejoin:round" />
  </g>
  <g
     style="stroke-linecap:butt;stroke-linejoin:round"
     id="g6425"
     clip-path="url(#p96211352e1)"
     transform="translate(10.021186,-6.3771186)">
    <use
       height="100%"
       width="100%"
       id="use6427"
       y="430.20001"
       xlink:href="#C0_7_8491f3b60c"
       x="0"
       style="fill:none;stroke:#738cff;stroke-linecap:butt;stroke-linejoin:round" />
  </g>
  <g
     style="stroke-linecap:butt;stroke-linejoin:round"
     id="g6429"
     clip-path="url(#p96211352e1)"
     transform="translate(10.021186,-6.3771186)">
    <use
       height="100%"
       width="100%"
       id="use6431"
       y="430.20001"
       xlink:href="#C0_8_5d743f3b6f"
       x="0"
       style="fill:none;stroke:#8c73ff;stroke-linecap:butt;stroke-linejoin:round" />
  </g>
  <g
     style="stroke-linecap:butt;stroke-linejoin:round"
     id="g6433"
     clip-path="url(#p96211352e1)"
     transform="translate(10.021186,-6.3771186)">
    <use
       height="100%"
       width="100%"
       id="use6435"
       y="430.20001"
       xlink:href="#C0_9_3bc8ba83fa"
       x="0"
       style="fill:none;stroke:#b34cff;stroke-linecap:butt;stroke-linejoin:round" />
  </g>
  <g
     style="stroke-linecap:butt;stroke-linejoin:round"
     id="g6437"
     clip-path="url(#p96211352e1)"
     transform="translate(10.021186,-6.3771186)">
    <use
       height="100%"
       width="100%"
       id="use6439"
       y="430.20001"
       xlink:href="#C0_a_d9fab8f714"
       x="0"
       style="fill:none;stroke:#807fff;stroke-linecap:butt;stroke-linejoin:round" />
  </g>
  <g
     style="stroke-linecap:butt;stroke-linejoin:round"
     id="g6441"
     clip-path="url(#p96211352e1)"
     transform="translate(10.021186,-6.3771186)">
    <use
       height="100%"
       width="100%"
       id="use6443"
       y="430.20001"
       xlink:href="#C0_b_3e866dc661"
       x="0"
       style="fill:none;stroke:#0cf3ff;stroke-linecap:butt;stroke-linejoin:round" />
  </g>
  <g
     style="stroke-linecap:butt;stroke-linejoin:round"
     id="g6445"
     clip-path="url(#p96211352e1)"
     transform="translate(10.021186,-6.3771186)">
    <use
       height="100%"
       width="100%"
       id="use6447"
       y="430.20001"
       xlink:href="#C0_c_8f3d2791fd"
       x="0"
       style="fill:none;stroke:#59a6ff;stroke-linecap:butt;stroke-linejoin:round" />
  </g>
  <g
     style="stroke-linecap:butt;stroke-linejoin:round"
     id="g6449"
     clip-path="url(#p96211352e1)"
     transform="translate(10.021186,-6.3771186)">
    <use
       height="100%"
       width="100%"
       id="use6451"
       y="430.20001"
       xlink:href="#C0_d_2abc6e0cfa"
       x="0"
       style="fill:none;stroke:#6699ff;stroke-linecap:butt;stroke-linejoin:round" />
  </g>
  <g
     style="stroke-linecap:butt;stroke-linejoin:round"
     id="g6453"
     clip-path="url(#p96211352e1)"
     transform="translate(10.021186,-6.3771186)">
    <use
       height="100%"
       width="100%"
       id="use6455"
       y="430.20001"
       xlink:href="#C0_e_305bc628e0"
       x="0"
       style="fill:none;stroke:#cc33ff;stroke-linecap:butt;stroke-linejoin:round" />
  </g>
  <g
     style="stroke-linecap:butt;stroke-linejoin:round"
     id="g6457"
     clip-path="url(#p96211352e1)"
     transform="translate(10.021186,-6.3771186)">
    <use
       height="100%"
       width="100%"
       id="use6459"
       y="430.20001"
       xlink:href="#C0_f_2ba1e3358a"
       x="0"
       style="fill:none;stroke:#19e6ff;stroke-linecap:butt;stroke-linejoin:round" />
  </g>
  <g
     style="stroke-linecap:butt;stroke-linejoin:round"
     id="g6461"
     clip-path="url(#p96211352e1)"
     transform="translate(10.021186,-6.3771186)">
    <use
       height="100%"
       width="100%"
       id="use6463"
       y="430.20001"
       xlink:href="#C0_10_f885edfc4f"
       x="0"
       style="fill:none;stroke:#9966ff;stroke-linecap:butt;stroke-linejoin:round" />
  </g>
  <g
     style="stroke-linecap:butt;stroke-linejoin:round"
     id="g6465"
     clip-path="url(#p96211352e1)"
     transform="translate(10.021186,-6.3771186)">
    <use
       height="100%"
       width="100%"
       id="use6467"
       y="430.20001"
       xlink:href="#C0_11_06e1043fd3"
       x="0"
       style="fill:none;stroke:#4cb3ff;stroke-linecap:butt;stroke-linejoin:round" />
  </g>
  <g
     style="stroke-linecap:butt;stroke-linejoin:round"
     id="g6469"
     clip-path="url(#p96211352e1)"
     transform="translate(10.021186,-6.3771186)">
    <use
       height="100%"
       width="100%"
       id="use6471"
       y="430.20001"
       xlink:href="#C0_12_747ec39b9f"
       x="0"
       style="fill:none;stroke:#c03fff;stroke-linecap:butt;stroke-linejoin:round" />
  </g>
  <g
     style="stroke-linecap:butt;stroke-linejoin:round"
     id="g6473"
     clip-path="url(#p96211352e1)"
     transform="translate(10.021186,-6.3771186)">
    <use
       height="100%"
       width="100%"
       id="use6475"
       y="430.20001"
       xlink:href="#C0_13_51e47cf480"
       x="0"
       style="fill:none;stroke:#00ffff;stroke-linecap:butt;stroke-linejoin:round" />
  </g>
  <g
     style="stroke-linecap:butt;stroke-linejoin:round"
     id="g6481"
     clip-path="url(#p96211352e1)"
     transform="translate(10.021186,-6.3771186)">
    <use
       height="100%"
       width="100%"
       id="use6483"
       y="215.10001"
       xlink:href="#C1_0_95d0887793"
       x="492.56384"
       style="fill:#ff0000;stroke:#000000;stroke-linecap:butt;stroke-linejoin:round" />
  </g>
  <g
     style="stroke-linecap:butt;stroke-linejoin:round"
     id="g6485"
     clip-path="url(#p96211352e1)"
     transform="translate(10.021186,-6.3771186)">
    <use
       height="100%"
       width="100%"
       id="use6487"
       y="169.686"
       xlink:href="#C1_0_95d0887793"
       x="483.3989"
       style="fill:#ff0000;stroke:#000000;stroke-linecap:butt;stroke-linejoin:round" />
  </g>
  <g
     style="stroke-linecap:butt;stroke-linejoin:round"
     id="g6489"
     clip-path="url(#p96211352e1)"
     transform="translate(10.021186,-6.3771186)">
    <use
       height="100%"
       width="100%"
       id="use6491"
       y="128.30721"
       xlink:href="#C1_0_95d0887793"
       x="456.71848"
       style="fill:#ff0000;stroke:#000000;stroke-linecap:butt;stroke-linejoin:round" />
  </g>
  <g
     style="stroke-linecap:butt;stroke-linejoin:round"
     id="g6493"
     clip-path="url(#p96211352e1)"
     transform="translate(10.021186,-6.3771186)">
    <use
       height="100%"
       width="100%"
       id="use6495"
       y="94.64035"
       xlink:href="#C1_0_95d0887793"
       x="414.89316"
       style="fill:#ff0000;stroke:#000000;stroke-linecap:butt;stroke-linejoin:round" />
  </g>
  <g
     style="stroke-linecap:butt;stroke-linejoin:round"
     id="g6497"
     clip-path="url(#p96211352e1)"
     transform="translate(10.021186,-6.3771186)">
    <use
       height="100%"
       width="100%"
       id="use6499"
       y="71.676872"
       xlink:href="#C1_0_95d0887793"
       x="361.63934"
       style="fill:#ff0000;stroke:#000000;stroke-linecap:butt;stroke-linejoin:round" />
  </g>
  <g
     style="stroke-linecap:butt;stroke-linejoin:round"
     id="g6501"
     clip-path="url(#p96211352e1)"
     transform="translate(10.021186,-6.3771186)">
    <use
       height="100%"
       width="100%"
       id="use6503"
       y="61.457142"
       xlink:href="#C1_0_95d0887793"
       x="301.68887"
       style="fill:#ff0000;stroke:#000000;stroke-linecap:butt;stroke-linejoin:round" />
  </g>
  <g
     style="stroke-linecap:butt;stroke-linejoin:round"
     id="g6505"
     clip-path="url(#p96211352e1)"
     transform="translate(10.021186,-6.3771186)">
    <use
       height="100%"
       width="100%"
       id="use6507"
       y="64.889275"
       xlink:href="#C1_0_95d0887793"
       x="240.36864"
       style="fill:#ff0000;stroke:#000000;stroke-linecap:butt;stroke-linejoin:round" />
  </g>
  <g
     style="stroke-linecap:butt;stroke-linejoin:round"
     id="g6509"
     clip-path="url(#p96211352e1)"
     transform="translate(10.021186,-6.3771186)">
    <use
       height="100%"
       width="100%"
       id="use6511"
       y="81.668289"
       xlink:href="#C1_0_95d0887793"
       x="183.12717"
       style="fill:#ff0000;stroke:#000000;stroke-linecap:butt;stroke-linejoin:round" />
  </g>
  <g
     style="stroke-linecap:butt;stroke-linejoin:round"
     id="g6513"
     clip-path="url(#p96211352e1)"
     transform="translate(10.021186,-6.3771186)">
    <use
       height="100%"
       width="100%"
       id="use6515"
       y="110.30329"
       xlink:href="#C1_0_95d0887793"
       x="135.05063"
       style="fill:#ff0000;stroke:#000000;stroke-linecap:butt;stroke-linejoin:round" />
  </g>
  <g
     style="stroke-linecap:butt;stroke-linejoin:round"
     id="g6517"
     clip-path="url(#p96211352e1)"
     transform="translate(10.021186,-6.3771186)">
    <use
       height="100%"
       width="100%"
       id="use6519"
       y="148.24997"
       xlink:href="#C1_0_95d0887793"
       x="100.41086"
       style="fill:#ff0000;stroke:#000000;stroke-linecap:butt;stroke-linejoin:round" />
  </g>
  <g
     style="stroke-linecap:butt;stroke-linejoin:round"
     id="g6521"
     clip-path="url(#p96211352e1)"
     transform="translate(10.021186,-6.3771186)">
    <use
       height="100%"
       width="100%"
       id="use6523"
       y="192.13655"
       xlink:href="#C1_0_95d0887793"
       x="82.285713"
       style="fill:#ff0000;stroke:#000000;stroke-linecap:butt;stroke-linejoin:round" />
  </g>
  <g
     style="stroke-linecap:butt;stroke-linejoin:round"
     id="g6525"
     clip-path="url(#p96211352e1)"
     transform="translate(10.021186,-6.3771186)">
    <use
       height="100%"
       width="100%"
       id="use6527"
       y="238.06352"
       xlink:href="#C1_0_95d0887793"
       x="82.285728"
       style="fill:#ff0000;stroke:#000000;stroke-linecap:butt;stroke-linejoin:round" />
  </g>
  <g
     style="stroke-linecap:butt;stroke-linejoin:round"
     id="g6529"
     clip-path="url(#p96211352e1)"
     transform="translate(10.021186,-6.3771186)">
    <use
       height="100%"
       width="100%"
       id="use6531"
       y="281.95007"
       xlink:href="#C1_0_95d0887793"
       x="100.41087"
       style="fill:#ff0000;stroke:#000000;stroke-linecap:butt;stroke-linejoin:round" />
  </g>
  <g
     style="stroke-linecap:butt;stroke-linejoin:round"
     id="g6533"
     clip-path="url(#p96211352e1)"
     transform="translate(10.021186,-6.3771186)">
    <use
       height="100%"
       width="100%"
       id="use6535"
       y="319.89673"
       xlink:href="#C1_0_95d0887793"
       x="135.05066"
       style="fill:#ff0000;stroke:#000000;stroke-linecap:butt;stroke-linejoin:round" />
  </g>
  <g
     style="stroke-linecap:butt;stroke-linejoin:round"
     id="g6537"
     clip-path="url(#p96211352e1)"
     transform="translate(10.021186,-6.3771186)">
    <use
       height="100%"
       width="100%"
       id="use6539"
       y="348.53174"
       xlink:href="#C1_0_95d0887793"
       x="183.1272"
       style="fill:#ff0000;stroke:#000000;stroke-linecap:butt;stroke-linejoin:round" />
  </g>
  <g
     style="stroke-linecap:butt;stroke-linejoin:round"
     id="g6541"
     clip-path="url(#p96211352e1)"
     transform="translate(10.021186,-6.3771186)">
    <use
       height="100%"
       width="100%"
       id="use6543"
       y="365.31076"
       xlink:href="#C1_0_95d0887793"
       x="240.36873"
       style="fill:#ff0000;stroke:#000000;stroke-linecap:butt;stroke-linejoin:round" />
  </g>
  <g
     style="stroke-linecap:butt;stroke-linejoin:round"
     id="g6545"
     clip-path="url(#p96211352e1)"
     transform="translate(10.021186,-6.3771186)">
    <use
       height="100%"
       width="100%"
       id="use6547"
       y="368.74286"
       xlink:href="#C1_0_95d0887793"
       x="301.68893"
       style="fill:#ff0000;stroke:#000000;stroke-linecap:butt;stroke-linejoin:round" />
  </g>
  <g
     style="stroke-linecap:butt;stroke-linejoin:round"
     id="g6549"
     clip-path="url(#p96211352e1)"
     transform="translate(10.021186,-6.3771186)">
    <use
       height="100%"
       width="100%"
       id="use6551"
       y="358.52316"
       xlink:href="#C1_0_95d0887793"
       x="361.63934"
       style="fill:#ff0000;stroke:#000000;stroke-linecap:butt;stroke-linejoin:round" />
  </g>
  <g
     style="stroke-linecap:butt;stroke-linejoin:round"
     id="g6553"
     clip-path="url(#p96211352e1)"
     transform="translate(10.021186,-6.3771186)">
    <use
       height="100%"
       width="100%"
       id="use6555"
       y="335.55963"
       xlink:href="#C1_0_95d0887793"
       x="414.89319"
       style="fill:#ff0000;stroke:#000000;stroke-linecap:butt;stroke-linejoin:round" />
  </g>
  <g
     style="stroke-linecap:butt;stroke-linejoin:round"
     id="g6557"
     clip-path="url(#p96211352e1)"
     transform="translate(10.021186,-6.3771186)">
    <use
       height="100%"
       width="100%"
       id="use6559"
       y="301.89279"
       xlink:href="#C1_0_95d0887793"
       x="456.71848"
       style="fill:#ff0000;stroke:#000000;stroke-linecap:butt;stroke-linejoin:round" />
  </g>
  <g
     style="stroke-linecap:butt;stroke-linejoin:round"
     id="g6561"
     clip-path="url(#p96211352e1)"
     transform="translate(10.021186,-6.3771186)">
    <use
       height="100%"
       width="100%"
       id="use6563"
       y="260.51395"
       xlink:href="#C1_0_95d0887793"
       x="483.39893"
       style="fill:#ff0000;stroke:#000000;stroke-linecap:butt;stroke-linejoin:round" />
  </g>
  <g
     style="stroke-linecap:butt;stroke-linejoin:round"
     id="g6566"
     clip-path="url(#p96211352e1)"
     transform="translate(10.021186,-6.3771186)">
    <!-- 0 -->
    <defs
       id="defs6568">
      <path
         style="stroke-linecap:butt;stroke-linejoin:round"
         inkscape:connector-curvature="0"
         id="BitstreamVeraSans-Roman-30"
         d="m 31.7812,66.4062 q -7.6093,0 -11.4531,-7.5 Q 16.5,51.4219 16.5,36.375 q 0,-14.9844 3.8281,-22.4844 3.8438,-7.49998 11.4531,-7.49998 7.6719,0 11.5,7.49998 3.8438,7.5 3.8438,22.4844 0,15.0469 -3.8438,22.5312 -3.8281,7.5 -11.5,7.5 m 0,7.8126 q 12.2657,0 18.7344,-9.7032 6.4688,-9.6875 6.4688,-28.1406 0,-18.4062 -6.4688,-28.10938 -6.4687,-9.6875 -18.7344,-9.6875 -12.25,0 -18.7187,9.6875 -6.46875,9.70318 -6.46875,28.10938 0,18.4531 6.46875,28.1406 6.4687,9.7032 18.7187,9.7032" />
    </defs>
    <g
       style="stroke-linecap:butt;stroke-linejoin:round"
       id="g6571"
       transform="matrix(0.12,0,0,-0.12,489.5404,218.41126)">
      <use
         height="100%"
         width="100%"
         y="0"
         x="0"
         style="stroke-linecap:butt;stroke-linejoin:round"
         id="use6573"
         xlink:href="#BitstreamVeraSans-Roman-30" />
    </g>
  </g>
  <g
     style="stroke-linecap:butt;stroke-linejoin:round"
     id="g6576"
     clip-path="url(#p96211352e1)"
     transform="translate(10.021186,-6.3771186)">
    <!-- 1 -->
    <defs
       id="defs6578">
      <path
         style="stroke-linecap:butt;stroke-linejoin:round"
         inkscape:connector-curvature="0"
         id="BitstreamVeraSans-Roman-31"
         d="m 12.4062,8.29688 16.1094,0 0,55.62502 -17.5312,-3.5157 0,8.9844 17.4375,3.5156 9.8593,0 0,-64.60932 16.1094,0 0,-8.29688 -41.9844,0 z" />
    </defs>
    <g
       style="stroke-linecap:butt;stroke-linejoin:round"
       id="g6581"
       transform="matrix(0.12,0,0,-0.12,480.79453,172.99725)">
      <use
         height="100%"
         width="100%"
         y="0"
         x="0"
         style="stroke-linecap:butt;stroke-linejoin:round"
         id="use6583"
         xlink:href="#BitstreamVeraSans-Roman-31" />
    </g>
  </g>
  <g
     style="stroke-linecap:butt;stroke-linejoin:round"
     id="g6586"
     clip-path="url(#p96211352e1)"
     transform="translate(10.021186,-6.3771186)">
    <!-- 2 -->
    <defs
       id="defs6588">
      <path
         style="stroke-linecap:butt;stroke-linejoin:round"
         inkscape:connector-curvature="0"
         id="BitstreamVeraSans-Roman-32"
         d="m 19.1875,8.29688 34.4219,0 0,-8.29688 -46.28128,0 0,8.29688 Q 12.9375,14.1094 22.625,23.8906 q 9.7031,9.7969 12.1875,12.6406 4.7344,5.3126 6.6094,9 1.8906,3.6876 1.8906,7.25 0,5.8126 -4.0781,9.4688 -4.0782,3.6719 -10.625,3.6719 -4.6406,0 -9.7969,-1.6094 -5.1406,-1.6094 -11,-4.8906 l 0,9.9687 q 5.9531,2.3906 11.125,3.6094 5.1875,1.2188 9.4844,1.2188 11.3281,0 18.0625,-5.6719 6.7344,-5.6563 6.7344,-15.125 0,-4.5 -1.6876,-8.5313 Q 49.8594,40.875 45.4062,35.4062 44.1875,33.9844 37.6406,27.2188 31.1094,20.4531 19.1875,8.29688" />
    </defs>
    <g
       style="stroke-linecap:butt;stroke-linejoin:round"
       id="g6591"
       transform="matrix(0.12,0,0,-0.12,453.94159,131.61845)">
      <use
         height="100%"
         width="100%"
         y="0"
         x="0"
         style="stroke-linecap:butt;stroke-linejoin:round"
         id="use6593"
         xlink:href="#BitstreamVeraSans-Roman-32" />
    </g>
  </g>
  <g
     style="stroke-linecap:butt;stroke-linejoin:round"
     id="g6596"
     clip-path="url(#p96211352e1)"
     transform="translate(10.021186,-6.3771186)">
    <!-- 3 -->
    <defs
       id="defs6598">
      <path
         style="stroke-linecap:butt;stroke-linejoin:round"
         inkscape:connector-curvature="0"
         id="BitstreamVeraSans-Roman-33"
         d="M 40.5781,39.3125 Q 47.6562,37.7969 51.625,33 q 3.9844,-4.7812 3.9844,-11.8125 0,-10.7813 -7.4219,-16.70312 -7.4219,-5.90626 -21.0937,-5.90626 -4.5782,0 -9.4376,0.906255 Q 12.7969,0.390625 7.625,2.20312 l 0,9.51568 q 4.0938,-2.39068 8.9688,-3.60942 4.8906,-1.21876 10.2187,-1.21876 9.2656,0 14.125,3.65628 4.8594,3.6562 4.8594,10.6406 0,6.4531 -4.5157,10.0781 -4.5156,3.6406 -12.5624,3.6406 l -8.5,0 0,8.1094 8.8906,0 q 7.2656,0 11.125,2.9063 3.8594,2.9062 3.8594,8.375 0,5.6093 -3.9844,8.6093 -3.9688,3.0157 -11.3906,3.0157 -4.0626,0 -8.7032,-0.8907 -4.6406,-0.875 -10.2031,-2.7187 l 0,8.7813 q 5.625,1.5624 10.5313,2.3437 4.9062,0.7813 9.25,0.7813 11.2343,0 17.7656,-5.1094 6.5468,-5.0938 6.5468,-13.7813 0,-6.0625 -3.4687,-10.2343 -3.4687,-4.1719 -9.8594,-5.7813" />
    </defs>
    <g
       style="stroke-linecap:butt;stroke-linejoin:round"
       id="g6601"
       transform="matrix(0.12,0,0,-0.12,412.01408,97.951599)">
      <use
         height="100%"
         width="100%"
         y="0"
         x="0"
         style="stroke-linecap:butt;stroke-linejoin:round"
         id="use6603"
         xlink:href="#BitstreamVeraSans-Roman-33" />
    </g>
  </g>
  <g
     style="stroke-linecap:butt;stroke-linejoin:round"
     id="g6606"
     clip-path="url(#p96211352e1)"
     transform="translate(10.021186,-6.3771186)">
    <!-- 4 -->
    <defs
       id="defs6608">
      <path
         style="stroke-linecap:butt;stroke-linejoin:round"
         inkscape:connector-curvature="0"
         id="BitstreamVeraSans-Roman-34"
         d="m 37.7969,64.3125 -24.9063,-38.9219 24.9063,0 z m -2.5938,8.5937 12.4063,0 0,-47.5156 10.4062,0 0,-8.2031 -10.4062,0 0,-17.1875 -9.8125,0 0,17.1875 -32.90628,0 0,9.5156 z" />
    </defs>
    <g
       style="stroke-linecap:butt;stroke-linejoin:round"
       id="g6611"
       transform="matrix(0.12,0,0,-0.12,358.45185,74.988126)">
      <use
         height="100%"
         width="100%"
         y="0"
         x="0"
         style="stroke-linecap:butt;stroke-linejoin:round"
         id="use6613"
         xlink:href="#BitstreamVeraSans-Roman-34" />
    </g>
  </g>
  <g
     style="stroke-linecap:butt;stroke-linejoin:round"
     id="g6616"
     clip-path="url(#p96211352e1)"
     transform="translate(10.021186,-6.3771186)">
    <!-- 5 -->
    <defs
       id="defs6618">
      <path
         style="stroke-linecap:butt;stroke-linejoin:round"
         inkscape:connector-curvature="0"
         id="BitstreamVeraSans-Roman-35"
         d="m 10.7969,72.9062 38.7187,0 0,-8.3124 -29.6875,0 0,-17.8594 q 2.1407,0.7344 4.2813,1.0937 2.1562,0.3594 4.3125,0.3594 12.2031,0 19.3281,-6.6875 7.1406,-6.6875 7.1406,-18.1094 0,-11.7656 -7.3281,-18.29685 -7.3281,-6.51563 -20.6563,-6.51563 -4.5937,0 -9.3593,0.781255 -4.75,0.78125 -9.82815,2.343745 l 0,9.92188 q 4.39065,-2.39062 9.07815,-3.5625 4.6875,-1.17188 9.9062,-1.17188 8.4531,0 13.375,4.43748 4.9375,4.4375 4.9375,12.0625 0,7.6094 -4.9375,12.0469 -4.9219,4.4531 -13.375,4.4531 -3.9531,0 -7.8906,-0.875 -3.9219,-0.875 -8.0156,-2.7344 z" />
    </defs>
    <g
       style="stroke-linecap:butt;stroke-linejoin:round"
       id="g6621"
       transform="matrix(0.12,0,0,-0.12,298.85855,64.768393)">
      <use
         height="100%"
         width="100%"
         y="0"
         x="0"
         style="stroke-linecap:butt;stroke-linejoin:round"
         id="use6623"
         xlink:href="#BitstreamVeraSans-Roman-35" />
    </g>
  </g>
  <g
     style="stroke-linecap:butt;stroke-linejoin:round"
     id="g6626"
     clip-path="url(#p96211352e1)"
     transform="translate(10.021186,-6.3771186)">
    <!-- 6 -->
    <defs
       id="defs6628">
      <path
         style="stroke-linecap:butt;stroke-linejoin:round"
         inkscape:connector-curvature="0"
         id="BitstreamVeraSans-Roman-36"
         d="m 33.0156,40.375 q -6.6406,0 -10.5312,-4.5469 -3.875,-4.5312 -3.875,-12.4375 0,-7.8594 3.875,-12.4375 3.8906,-4.56248 10.5312,-4.56248 6.6406,0 10.5156,4.56248 3.875,4.5781 3.875,12.4375 0,7.9063 -3.875,12.4375 -3.875,4.5469 -10.5156,4.5469 m 19.5782,30.9219 0,-8.9844 q -3.7188,1.75 -7.5,2.6719 -3.7813,0.9375 -7.5,0.9375 -9.7657,0 -14.9219,-6.5938 -5.1407,-6.5937 -5.875,-19.9219 2.875,4.25 7.2187,6.5157 4.3594,2.2656 9.5782,2.2656 10.9843,0 17.3593,-6.6719 6.375,-6.6562 6.375,-18.125 0,-11.2344 -6.6406,-18.03122 -6.6406,-6.78126 -17.6719,-6.78126 -12.6562,0 -19.3437,9.6875 -6.68752,9.70318 -6.68752,28.10938 0,17.2812 8.20312,27.5625 8.2031,10.2813 22.0156,10.2813 3.7188,0 7.5,-0.7344 3.7813,-0.7344 7.8907,-2.1875" />
    </defs>
    <g
       style="stroke-linecap:butt;stroke-linejoin:round"
       id="g6631"
       transform="matrix(0.12,0,0,-0.12,237.34801,68.200527)">
      <use
         height="100%"
         width="100%"
         y="0"
         x="0"
         style="stroke-linecap:butt;stroke-linejoin:round"
         id="use6633"
         xlink:href="#BitstreamVeraSans-Roman-36" />
    </g>
  </g>
  <g
     style="stroke-linecap:butt;stroke-linejoin:round"
     id="g6636"
     clip-path="url(#p96211352e1)"
     transform="translate(10.021186,-6.3771186)">
    <!-- 7 -->
    <defs
       id="defs6638">
      <path
         style="stroke-linecap:butt;stroke-linejoin:round"
         inkscape:connector-curvature="0"
         id="BitstreamVeraSans-Roman-37"
         d="m 8.20312,72.9062 46.87498,0 0,-4.2031 L 28.6094,0 18.3125,0 l 24.9063,64.5938 -35.01568,0 z" />
    </defs>
    <g
       style="stroke-linecap:butt;stroke-linejoin:round"
       id="g6641"
       transform="matrix(0.12,0,0,-0.12,180.31467,84.979536)">
      <use
         height="100%"
         width="100%"
         y="0"
         x="0"
         style="stroke-linecap:butt;stroke-linejoin:round"
         id="use6643"
         xlink:href="#BitstreamVeraSans-Roman-37" />
    </g>
  </g>
  <g
     style="stroke-linecap:butt;stroke-linejoin:round"
     id="g6646"
     clip-path="url(#p96211352e1)"
     transform="translate(10.021186,-6.3771186)">
    <!-- 8 -->
    <defs
       id="defs6648">
      <path
         style="stroke-linecap:butt;stroke-linejoin:round"
         inkscape:connector-curvature="0"
         id="BitstreamVeraSans-Roman-38"
         d="m 31.7812,34.625 q -7.0312,0 -11.0624,-3.7656 -4.0157,-3.7656 -4.0157,-10.3438 0,-6.5937 4.0157,-10.3594 4.0312,-3.76558 11.0624,-3.76558 7.0313,0 11.0782,3.78128 4.0625,3.7969 4.0625,10.3437 0,6.5782 -4.0313,10.3438 -4.0156,3.7656 -11.1094,3.7656 m -9.8593,4.1875 Q 15.5781,40.375 12.0312,44.7188 8.5,49.0781 8.5,55.3281 q 0,8.7344 6.2188,13.8125 6.2343,5.0782 17.0624,5.0782 10.8907,0 17.0938,-5.0782 6.2031,-5.0781 6.2031,-13.8125 0,-6.25 -3.5469,-10.6093 Q 48,40.375 41.7031,38.8125 q 7.125,-1.6563 11.0938,-6.5 3.9843,-4.8281 3.9843,-11.7969 0,-10.60935 -6.4687,-16.28122 -6.4687,-5.65626 -18.5313,-5.65626 -12.0468,0 -18.5312,5.65626 -6.46875,5.67187 -6.46875,16.28122 0,6.9688 3.99995,11.7969 4.0157,4.8437 11.1407,6.5 m -3.6094,15.5781 q 0,-5.6562 3.5313,-8.8281 3.5468,-3.1719 9.9374,-3.1719 6.3594,0 9.9376,3.1719 3.5937,3.1719 3.5937,8.8281 0,5.6719 -3.5937,8.8438 -3.5782,3.1718 -9.9376,3.1718 -6.3906,0 -9.9374,-3.1718 -3.5313,-3.1719 -3.5313,-8.8438" />
    </defs>
    <g
       style="stroke-linecap:butt;stroke-linejoin:round"
       id="g6651"
       transform="matrix(0.12,0,0,-0.12,132.05063,113.61454)">
      <use
         height="100%"
         width="100%"
         y="0"
         x="0"
         style="stroke-linecap:butt;stroke-linejoin:round"
         id="use6653"
         xlink:href="#BitstreamVeraSans-Roman-38" />
    </g>
  </g>
  <g
     style="stroke-linecap:butt;stroke-linejoin:round"
     id="g6656"
     clip-path="url(#p96211352e1)"
     transform="translate(10.021186,-6.3771186)">
    <!-- 9 -->
    <defs
       id="defs6658">
      <path
         style="stroke-linecap:butt;stroke-linejoin:round"
         inkscape:connector-curvature="0"
         id="BitstreamVeraSans-Roman-39"
         d="m 10.9844,1.51562 0,8.98438 Q 14.7031,8.73438 18.5,7.8125 q 3.8125,-0.92188 7.4844,-0.92188 9.7656,0 14.9062,6.56248 5.1563,6.5625 5.8906,19.9531 -2.8281,-4.2031 -7.1874,-6.4531 -4.3438,-2.25 -9.6094,-2.25 -10.9375,0 -17.3125,6.6094 -6.37502,6.625 -6.37502,18.1094 0,11.2187 6.64062,18 6.6406,6.7969 17.6719,6.7969 12.6562,0 19.3125,-9.7032 6.6719,-9.6875 6.6719,-28.1406 0,-17.2344 -8.1876,-27.51562 -8.1718,-10.28126 -21.9843,-10.28126 -3.7188,0 -7.5313,0.73438 -3.7968,0.734375 -7.9062,2.20312 m 19.625,30.90628 q 6.6406,0 10.5156,4.5312 3.8906,4.5469 3.8906,12.4688 0,7.8593 -3.8906,12.4219 -3.875,4.5624 -10.5156,4.5624 -6.6406,0 -10.5156,-4.5624 -3.875,-4.5626 -3.875,-12.4219 0,-7.9219 3.875,-12.4688 3.875,-4.5312 10.5156,-4.5312" />
    </defs>
    <g
       style="stroke-linecap:butt;stroke-linejoin:round"
       id="g6661"
       transform="matrix(0.12,0,0,-0.12,97.393043,151.56121)">
      <use
         height="100%"
         width="100%"
         y="0"
         x="0"
         style="stroke-linecap:butt;stroke-linejoin:round"
         id="use6663"
         xlink:href="#BitstreamVeraSans-Roman-39" />
    </g>
  </g>
  <g
     style="stroke-linecap:butt;stroke-linejoin:round"
     id="g6666"
     clip-path="url(#p96211352e1)"
     transform="translate(10.021186,-6.3771186)">
    <!-- 10 -->
    <g
       style="stroke-linecap:butt;stroke-linejoin:round"
       id="g6668"
       transform="matrix(0.12,0,0,-0.12,75.708214,195.4478)">
      <use
         height="100%"
         width="100%"
         y="0"
         x="0"
         style="stroke-linecap:butt;stroke-linejoin:round"
         id="use6670"
         xlink:href="#BitstreamVeraSans-Roman-31" />
      <use
         height="100%"
         width="100%"
         y="0"
         style="stroke-linecap:butt;stroke-linejoin:round"
         id="use6672"
         xlink:href="#BitstreamVeraSans-Roman-30"
         x="63.623047" />
    </g>
  </g>
  <g
     style="stroke-linecap:butt;stroke-linejoin:round"
     id="g6675"
     clip-path="url(#p96211352e1)"
     transform="translate(10.021186,-6.3771186)">
    <!-- 11 -->
    <g
       style="stroke-linecap:butt;stroke-linejoin:round"
       id="g6677"
       transform="matrix(0.12,0,0,-0.12,75.863852,241.37478)">
      <use
         height="100%"
         width="100%"
         y="0"
         x="0"
         style="stroke-linecap:butt;stroke-linejoin:round"
         id="use6679"
         xlink:href="#BitstreamVeraSans-Roman-31" />
      <use
         height="100%"
         width="100%"
         y="0"
         style="stroke-linecap:butt;stroke-linejoin:round"
         id="use6681"
         xlink:href="#BitstreamVeraSans-Roman-31"
         x="63.623047" />
    </g>
  </g>
  <g
     style="stroke-linecap:butt;stroke-linejoin:round"
     id="g6684"
     clip-path="url(#p96211352e1)"
     transform="translate(10.021186,-6.3771186)">
    <!-- 12 -->
    <g
       style="stroke-linecap:butt;stroke-linejoin:round"
       id="g6686"
       transform="matrix(0.12,0,0,-0.12,94.035867,285.26132)">
      <use
         height="100%"
         width="100%"
         y="0"
         x="0"
         style="stroke-linecap:butt;stroke-linejoin:round"
         id="use6688"
         xlink:href="#BitstreamVeraSans-Roman-31" />
      <use
         height="100%"
         width="100%"
         y="0"
         style="stroke-linecap:butt;stroke-linejoin:round"
         id="use6690"
         xlink:href="#BitstreamVeraSans-Roman-32"
         x="63.623047" />
    </g>
  </g>
  <g
     style="stroke-linecap:butt;stroke-linejoin:round"
     id="g6693"
     clip-path="url(#p96211352e1)"
     transform="translate(10.021186,-6.3771186)">
    <!-- 13 -->
    <g
       style="stroke-linecap:butt;stroke-linejoin:round"
       id="g6695"
       transform="matrix(0.12,0,0,-0.12,128.55566,323.20798)">
      <use
         height="100%"
         width="100%"
         y="0"
         x="0"
         style="stroke-linecap:butt;stroke-linejoin:round"
         id="use6697"
         xlink:href="#BitstreamVeraSans-Roman-31" />
      <use
         height="100%"
         width="100%"
         y="0"
         style="stroke-linecap:butt;stroke-linejoin:round"
         id="use6699"
         xlink:href="#BitstreamVeraSans-Roman-33"
         x="63.623047" />
    </g>
  </g>
  <g
     style="stroke-linecap:butt;stroke-linejoin:round"
     id="g6702"
     clip-path="url(#p96211352e1)"
     transform="translate(10.021186,-6.3771186)">
    <!-- 14 -->
    <g
       style="stroke-linecap:butt;stroke-linejoin:round"
       id="g6704"
       transform="matrix(0.12,0,0,-0.12,176.48782,351.84298)">
      <use
         height="100%"
         width="100%"
         y="0"
         x="0"
         style="stroke-linecap:butt;stroke-linejoin:round"
         id="use6706"
         xlink:href="#BitstreamVeraSans-Roman-31" />
      <use
         height="100%"
         width="100%"
         y="0"
         style="stroke-linecap:butt;stroke-linejoin:round"
         id="use6708"
         xlink:href="#BitstreamVeraSans-Roman-34"
         x="63.623047" />
    </g>
  </g>
  <g
     style="stroke-linecap:butt;stroke-linejoin:round"
     id="g6711"
     clip-path="url(#p96211352e1)"
     transform="translate(10.021186,-6.3771186)">
    <!-- 15 -->
    <g
       style="stroke-linecap:butt;stroke-linejoin:round"
       id="g6713"
       transform="matrix(0.12,0,0,-0.12,233.91685,368.622)">
      <use
         height="100%"
         width="100%"
         y="0"
         x="0"
         style="stroke-linecap:butt;stroke-linejoin:round"
         id="use6715"
         xlink:href="#BitstreamVeraSans-Roman-31" />
      <use
         height="100%"
         width="100%"
         y="0"
         style="stroke-linecap:butt;stroke-linejoin:round"
         id="use6717"
         xlink:href="#BitstreamVeraSans-Roman-35"
         x="63.623047" />
    </g>
  </g>
  <g
     style="stroke-linecap:butt;stroke-linejoin:round"
     id="g6720"
     clip-path="url(#p96211352e1)"
     transform="translate(10.021186,-6.3771186)">
    <!-- 16 -->
    <g
       style="stroke-linecap:butt;stroke-linejoin:round"
       id="g6722"
       transform="matrix(0.12,0,0,-0.12,295.09082,372.05411)">
      <use
         height="100%"
         width="100%"
         y="0"
         x="0"
         style="stroke-linecap:butt;stroke-linejoin:round"
         id="use6724"
         xlink:href="#BitstreamVeraSans-Roman-31" />
      <use
         height="100%"
         width="100%"
         y="0"
         style="stroke-linecap:butt;stroke-linejoin:round"
         id="use6726"
         xlink:href="#BitstreamVeraSans-Roman-36"
         x="63.623047" />
    </g>
  </g>
  <g
     style="stroke-linecap:butt;stroke-linejoin:round"
     id="g6729"
     clip-path="url(#p96211352e1)"
     transform="translate(10.021186,-6.3771186)">
    <!-- 17 -->
    <g
       style="stroke-linecap:butt;stroke-linejoin:round"
       id="g6731"
       transform="matrix(0.12,0,0,-0.12,355.17622,361.8344)">
      <use
         height="100%"
         width="100%"
         y="0"
         x="0"
         style="stroke-linecap:butt;stroke-linejoin:round"
         id="use6733"
         xlink:href="#BitstreamVeraSans-Roman-31" />
      <use
         height="100%"
         width="100%"
         y="0"
         style="stroke-linecap:butt;stroke-linejoin:round"
         id="use6735"
         xlink:href="#BitstreamVeraSans-Roman-37"
         x="63.623047" />
    </g>
  </g>
  <g
     style="stroke-linecap:butt;stroke-linejoin:round"
     id="g6738"
     clip-path="url(#p96211352e1)"
     transform="translate(10.021186,-6.3771186)">
    <!-- 18 -->
    <g
       style="stroke-linecap:butt;stroke-linejoin:round"
       id="g6740"
       transform="matrix(0.12,0,0,-0.12,408.32788,338.87088)">
      <use
         height="100%"
         width="100%"
         y="0"
         x="0"
         style="stroke-linecap:butt;stroke-linejoin:round"
         id="use6742"
         xlink:href="#BitstreamVeraSans-Roman-31" />
      <use
         height="100%"
         width="100%"
         y="0"
         style="stroke-linecap:butt;stroke-linejoin:round"
         id="use6744"
         xlink:href="#BitstreamVeraSans-Roman-38"
         x="63.623047" />
    </g>
  </g>
  <g
     style="stroke-linecap:butt;stroke-linejoin:round"
     id="g6747"
     clip-path="url(#p96211352e1)"
     transform="translate(10.021186,-6.3771186)">
    <!-- 19 -->
    <g
       style="stroke-linecap:butt;stroke-linejoin:round"
       id="g6749"
       transform="matrix(0.12,0,0,-0.12,450.1644,305.20404)">
      <use
         height="100%"
         width="100%"
         y="0"
         x="0"
         style="stroke-linecap:butt;stroke-linejoin:round"
         id="use6751"
         xlink:href="#BitstreamVeraSans-Roman-31" />
      <use
         height="100%"
         width="100%"
         y="0"
         style="stroke-linecap:butt;stroke-linejoin:round"
         id="use6753"
         xlink:href="#BitstreamVeraSans-Roman-39"
         x="63.623047" />
    </g>
  </g>
  <g
     style="stroke-linecap:butt;stroke-linejoin:round"
     id="g6756"
     clip-path="url(#p96211352e1)"
     transform="translate(10.021186,-6.3771186)">
    <!-- 20 -->
    <g
       style="stroke-linecap:butt;stroke-linejoin:round"
       id="g6758"
       transform="matrix(0.12,0,0,-0.12,476.60206,263.82521)">
      <use
         height="100%"
         width="100%"
         y="0"
         x="0"
         style="stroke-linecap:butt;stroke-linejoin:round"
         id="use6760"
         xlink:href="#BitstreamVeraSans-Roman-32" />
      <use
         height="100%"
         width="100%"
         y="0"
         style="stroke-linecap:butt;stroke-linejoin:round"
         id="use6762"
         xlink:href="#BitstreamVeraSans-Roman-30"
         x="63.623047" />
    </g>
  </g>
  <defs
     id="defs6764">
    <clipPath
       id="p96211352e1">
      <rect
         height="430.2"
         width="576.0"
         x="0.0"
         y="0.0"
         id="rect6767" />
    </clipPath>
  </defs>
</svg>
