<?xml version="1.0" encoding="utf-8" standalone="no"?>
<!DOCTYPE svg PUBLIC "-//W3C//DTD SVG 1.1//EN"
  "http://www.w3.org/Graphics/SVG/1.1/DTD/svg11.dtd">
<!-- Created with matplotlib (http://matplotlib.org/) -->
<svg height="288pt" version="1.1" viewBox="0 0 288 288" width="288pt" xmlns="http://www.w3.org/2000/svg" xmlns:xlink="http://www.w3.org/1999/xlink">
 <defs>
  <style type="text/css">
*{stroke-linecap:butt;stroke-linejoin:round;}
  </style>
 </defs>
 <g id="figure_1">
  <g id="patch_1">
   <path d="
M0 288
L288 288
L288 0
L0 0
z
" style="fill:#ffffff;"/>
  </g>
  <g id="axes_1">
   <g id="LineCollection_1">
    <path clip-path="url(#pb303bd5eea)" d="
M246.857 149.034
L227.213 88.5763" style="fill:none;stroke:#808080;stroke-width:1.3749543179795296;"/>
    <path clip-path="url(#pb303bd5eea)" d="
M246.857 149.034
L175.785 51.2112" style="fill:none;stroke:#808080;stroke-width:1.7694374031932512;"/>
    <path clip-path="url(#pb303bd5eea)" d="
M246.857 149.034
L112.215 51.2112" style="fill:none;stroke:#808080;stroke-width:2.0;"/>
    <path clip-path="url(#pb303bd5eea)" d="
M246.857 149.034
L41.1429 149.034" style="fill:none;stroke:#808080;stroke-width:1.094144465145746;"/>
    <path clip-path="url(#pb303bd5eea)" d="
M246.857 149.034
L60.7868 209.492" style="fill:none;stroke:#808080;stroke-width:0.22236631424260622;"/>
    <path clip-path="url(#pb303bd5eea)" d="
M246.857 149.034
L112.215 246.857" style="fill:none;stroke:#808080;stroke-width:0.7303720111235634;"/>
    <path clip-path="url(#pb303bd5eea)" d="
M246.857 149.034
L175.785 246.857" style="fill:none;stroke:#808080;stroke-width:1.7712963699964348;"/>
    <path clip-path="url(#pb303bd5eea)" d="
M227.213 88.5763
L175.785 51.2112" style="fill:none;stroke:#808080;stroke-width:0.5073411133533909;"/>
    <path clip-path="url(#pb303bd5eea)" d="
M227.213 88.5763
L60.7868 88.5763" style="fill:none;stroke:#808080;stroke-width:1.415437244811308;"/>
    <path clip-path="url(#pb303bd5eea)" d="
M227.213 88.5763
L60.7868 209.492" style="fill:none;stroke:#808080;stroke-width:0.1992495481132721;"/>
    <path clip-path="url(#pb303bd5eea)" d="
M227.213 88.5763
L112.215 246.857" style="fill:none;stroke:#808080;stroke-width:0.4915956453077257;"/>
    <path clip-path="url(#pb303bd5eea)" d="
M227.213 88.5763
L175.785 246.857" style="fill:none;stroke:#808080;stroke-width:0.700109284496989;"/>
    <path clip-path="url(#pb303bd5eea)" d="
M227.213 88.5763
L227.213 209.492" style="fill:none;stroke:#808080;stroke-width:0.3593243459893074;"/>
    <path clip-path="url(#pb303bd5eea)" d="
M175.785 51.2112
L246.857 149.034" style="fill:none;stroke:#808080;stroke-width:2.0;"/>
    <path clip-path="url(#pb303bd5eea)" d="
M175.785 51.2112
L227.213 209.492" style="fill:none;stroke:#808080;stroke-width:1.960618918962382;"/>
    <path clip-path="url(#pb303bd5eea)" d="
M175.785 51.2112
L60.7868 88.5763" style="fill:none;stroke:#808080;stroke-width:2.0;"/>
    <path clip-path="url(#pb303bd5eea)" d="
M175.785 51.2112
L112.215 246.857" style="fill:none;stroke:#808080;stroke-width:2.0;"/>
    <path clip-path="url(#pb303bd5eea)" d="
M112.215 51.2112
L246.857 149.034" style="fill:none;stroke:#808080;stroke-width:0.46300977552243694;"/>
    <path clip-path="url(#pb303bd5eea)" d="
M112.215 51.2112
L227.213 88.5763" style="fill:none;stroke:#808080;stroke-width:1.8616721654803712;"/>
    <path clip-path="url(#pb303bd5eea)" d="
M112.215 51.2112
L175.785 51.2112" style="fill:none;stroke:#808080;stroke-width:0.6681682959733735;"/>
    <path clip-path="url(#pb303bd5eea)" d="
M112.215 51.2112
L41.1429 149.034" style="fill:none;stroke:#808080;stroke-width:1.840320257484791;"/>
    <path clip-path="url(#pb303bd5eea)" d="
M112.215 51.2112
L60.7868 209.492" style="fill:none;stroke:#808080;stroke-width:2.0;"/>
    <path clip-path="url(#pb303bd5eea)" d="
M112.215 51.2112
L112.215 246.857" style="fill:none;stroke:#808080;stroke-width:0.8373483613362396;"/>
    <path clip-path="url(#pb303bd5eea)" d="
M112.215 51.2112
L175.785 246.857" style="fill:none;stroke:#808080;stroke-width:1.8064454476886453;"/>
    <path clip-path="url(#pb303bd5eea)" d="
M112.215 51.2112
L227.213 209.492" style="fill:none;stroke:#808080;stroke-width:1.2479447946360125;"/>
    <path clip-path="url(#pb303bd5eea)" d="
M60.7868 88.5763
L246.857 149.034" style="fill:none;stroke:#808080;stroke-width:2.0;"/>
    <path clip-path="url(#pb303bd5eea)" d="
M60.7868 88.5763
L227.213 88.5763" style="fill:none;stroke:#808080;stroke-width:1.163543224693393;"/>
    <path clip-path="url(#pb303bd5eea)" d="
M60.7868 88.5763
L175.785 51.2112" style="fill:none;stroke:#808080;stroke-width:2.0;"/>
    <path clip-path="url(#pb303bd5eea)" d="
M60.7868 88.5763
L60.7868 209.492" style="fill:none;stroke:#808080;stroke-width:2.0;"/>
    <path clip-path="url(#pb303bd5eea)" d="
M60.7868 88.5763
L112.215 246.857" style="fill:none;stroke:#808080;stroke-width:2.0;"/>
    <path clip-path="url(#pb303bd5eea)" d="
M60.7868 88.5763
L227.213 209.492" style="fill:none;stroke:#808080;stroke-width:2.0;"/>
    <path clip-path="url(#pb303bd5eea)" d="
M41.1429 149.034
L246.857 149.034" style="fill:none;stroke:#808080;stroke-width:2.0;"/>
    <path clip-path="url(#pb303bd5eea)" d="
M41.1429 149.034
L175.785 51.2112" style="fill:none;stroke:#808080;stroke-width:1.1907717269226339;"/>
    <path clip-path="url(#pb303bd5eea)" d="
M41.1429 149.034
L112.215 51.2112" style="fill:none;stroke:#808080;stroke-width:0.5745254490972513;"/>
    <path clip-path="url(#pb303bd5eea)" d="
M41.1429 149.034
L60.7868 88.5763" style="fill:none;stroke:#808080;stroke-width:0.466278187950806;"/>
    <path clip-path="url(#pb303bd5eea)" d="
M41.1429 149.034
L60.7868 209.492" style="fill:none;stroke:#808080;stroke-width:0.797405193419138;"/>
    <path clip-path="url(#pb303bd5eea)" d="
M41.1429 149.034
L112.215 246.857" style="fill:none;stroke:#808080;stroke-width:1.0676781297429443;"/>
    <path clip-path="url(#pb303bd5eea)" d="
M41.1429 149.034
L175.785 246.857" style="fill:none;stroke:#808080;stroke-width:0.23266249001531492;"/>
    <path clip-path="url(#pb303bd5eea)" d="
M41.1429 149.034
L227.213 209.492" style="fill:none;stroke:#808080;stroke-width:0.22749616306238307;"/>
    <path clip-path="url(#pb303bd5eea)" d="
M60.7868 209.492
L227.213 209.492" style="fill:none;stroke:#808080;stroke-width:0.5859012693996419;"/>
    <path clip-path="url(#pb303bd5eea)" d="
M60.7868 209.492
L112.215 51.2112" style="fill:none;stroke:#808080;stroke-width:0.4013993382791341;"/>
    <path clip-path="url(#pb303bd5eea)" d="
M60.7868 209.492
L41.1429 149.034" style="fill:none;stroke:#808080;stroke-width:0.7491469444566974;"/>
    <path clip-path="url(#pb303bd5eea)" d="
M60.7868 209.492
L112.215 246.857" style="fill:none;stroke:#808080;stroke-width:2.0;"/>
    <path clip-path="url(#pb303bd5eea)" d="
M112.215 246.857
L175.785 246.857" style="fill:none;stroke:#808080;stroke-width:0.9406479414586784;"/>
    <path clip-path="url(#pb303bd5eea)" d="
M112.215 246.857
L175.785 51.2112" style="fill:none;stroke:#808080;stroke-width:0.5595237298579434;"/>
    <path clip-path="url(#pb303bd5eea)" d="
M112.215 246.857
L112.215 51.2112" style="fill:none;stroke:#808080;stroke-width:1.2765042641989055;"/>
    <path clip-path="url(#pb303bd5eea)" d="
M112.215 246.857
L41.1429 149.034" style="fill:none;stroke:#808080;stroke-width:1.3345547879952164;"/>
    <path clip-path="url(#pb303bd5eea)" d="
M175.785 246.857
L227.213 88.5763" style="fill:none;stroke:#808080;stroke-width:0.25455666387350107;"/>
    <path clip-path="url(#pb303bd5eea)" d="
M175.785 246.857
L112.215 51.2112" style="fill:none;stroke:#808080;stroke-width:2.0;"/>
    <path clip-path="url(#pb303bd5eea)" d="
M175.785 246.857
L60.7868 88.5763" style="fill:none;stroke:#808080;stroke-width:0.9551621457138211;"/>
    <path clip-path="url(#pb303bd5eea)" d="
M175.785 246.857
L41.1429 149.034" style="fill:none;stroke:#808080;stroke-width:2.0;"/>
    <path clip-path="url(#pb303bd5eea)" d="
M175.785 246.857
L60.7868 209.492" style="fill:none;stroke:#808080;stroke-width:0.11045013376051926;"/>
    <path clip-path="url(#pb303bd5eea)" d="
M227.213 209.492
L175.785 246.857" style="fill:none;stroke:#808080;stroke-width:0.4606622862315355;"/>
    <path clip-path="url(#pb303bd5eea)" d="
M227.213 209.492
L112.215 51.2112" style="fill:none;stroke:#808080;stroke-width:2.0;"/>
    <path clip-path="url(#pb303bd5eea)" d="
M227.213 209.492
L41.1429 149.034" style="fill:none;stroke:#808080;stroke-width:1.2140670494388814;"/>
   </g>
   <g id="LineCollection_2">
    <path clip-path="url(#pb303bd5eea)" d="
M232.124 103.691
L227.213 88.5763" style="fill:none;stroke:#808080;stroke-width:5.499817271918118;"/>
    <path clip-path="url(#pb303bd5eea)" d="
M193.553 75.667
L175.785 51.2112" style="fill:none;stroke:#808080;stroke-width:7.077749612773005;"/>
    <path clip-path="url(#pb303bd5eea)" d="
M145.876 75.667
L112.215 51.2112" style="fill:none;stroke:#808080;stroke-width:8.0;"/>
    <path clip-path="url(#pb303bd5eea)" d="
M92.5714 149.034
L41.1429 149.034" style="fill:none;stroke:#808080;stroke-width:4.376577860582984;"/>
    <path clip-path="url(#pb303bd5eea)" d="
M107.304 194.378
L60.7868 209.492" style="fill:none;stroke:#808080;stroke-width:0.8894652569704249;"/>
    <path clip-path="url(#pb303bd5eea)" d="
M145.876 222.401
L112.215 246.857" style="fill:none;stroke:#808080;stroke-width:2.9214880444942537;"/>
    <path clip-path="url(#pb303bd5eea)" d="
M193.553 222.401
L175.785 246.857" style="fill:none;stroke:#808080;stroke-width:7.085185479985739;"/>
    <path clip-path="url(#pb303bd5eea)" d="
M188.642 60.5525
L175.785 51.2112" style="fill:none;stroke:#808080;stroke-width:2.0293644534135638;"/>
    <path clip-path="url(#pb303bd5eea)" d="
M102.393 88.5763
L60.7868 88.5763" style="fill:none;stroke:#808080;stroke-width:5.661748979245232;"/>
    <path clip-path="url(#pb303bd5eea)" d="
M102.393 179.263
L60.7868 209.492" style="fill:none;stroke:#808080;stroke-width:0.7969981924530884;"/>
    <path clip-path="url(#pb303bd5eea)" d="
M140.965 207.287
L112.215 246.857" style="fill:none;stroke:#808080;stroke-width:1.9663825812309028;"/>
    <path clip-path="url(#pb303bd5eea)" d="
M188.642 207.287
L175.785 246.857" style="fill:none;stroke:#808080;stroke-width:2.800437137987956;"/>
    <path clip-path="url(#pb303bd5eea)" d="
M227.213 179.263
L227.213 209.492" style="fill:none;stroke:#808080;stroke-width:1.4372973839572296;"/>
    <path clip-path="url(#pb303bd5eea)" d="
M229.089 124.578
L246.857 149.034" style="fill:none;stroke:#808080;stroke-width:8.0;"/>
    <path clip-path="url(#pb303bd5eea)" d="
M214.356 169.922
L227.213 209.492" style="fill:none;stroke:#808080;stroke-width:7.842475675849528;"/>
    <path clip-path="url(#pb303bd5eea)" d="
M89.5363 79.235
L60.7868 88.5763" style="fill:none;stroke:#808080;stroke-width:8.0;"/>
    <path clip-path="url(#pb303bd5eea)" d="
M128.108 197.946
L112.215 246.857" style="fill:none;stroke:#808080;stroke-width:8.0;"/>
    <path clip-path="url(#pb303bd5eea)" d="
M213.197 124.578
L246.857 149.034" style="fill:none;stroke:#808080;stroke-width:1.8520391020897478;"/>
    <path clip-path="url(#pb303bd5eea)" d="
M198.464 79.235
L227.213 88.5763" style="fill:none;stroke:#808080;stroke-width:7.446688661921485;"/>
    <path clip-path="url(#pb303bd5eea)" d="
M159.892 51.2112
L175.785 51.2112" style="fill:none;stroke:#808080;stroke-width:2.672673183893494;"/>
    <path clip-path="url(#pb303bd5eea)" d="
M58.911 124.578
L41.1429 149.034" style="fill:none;stroke:#808080;stroke-width:7.361281029939164;"/>
    <path clip-path="url(#pb303bd5eea)" d="
M73.644 169.922
L60.7868 209.492" style="fill:none;stroke:#808080;stroke-width:8.0;"/>
    <path clip-path="url(#pb303bd5eea)" d="
M112.215 197.946
L112.215 246.857" style="fill:none;stroke:#808080;stroke-width:3.3493934453449583;"/>
    <path clip-path="url(#pb303bd5eea)" d="
M159.892 197.946
L175.785 246.857" style="fill:none;stroke:#808080;stroke-width:7.225781790754581;"/>
    <path clip-path="url(#pb303bd5eea)" d="
M198.464 169.922
L227.213 209.492" style="fill:none;stroke:#808080;stroke-width:4.99177917854405;"/>
    <path clip-path="url(#pb303bd5eea)" d="
M200.34 133.92
L246.857 149.034" style="fill:none;stroke:#808080;stroke-width:8.0;"/>
    <path clip-path="url(#pb303bd5eea)" d="
M185.607 88.5763
L227.213 88.5763" style="fill:none;stroke:#808080;stroke-width:4.654172898773572;"/>
    <path clip-path="url(#pb303bd5eea)" d="
M147.035 60.5525
L175.785 51.2112" style="fill:none;stroke:#808080;stroke-width:8.0;"/>
    <path clip-path="url(#pb303bd5eea)" d="
M60.7868 179.263
L60.7868 209.492" style="fill:none;stroke:#808080;stroke-width:8.0;"/>
    <path clip-path="url(#pb303bd5eea)" d="
M99.3582 207.287
L112.215 246.857" style="fill:none;stroke:#808080;stroke-width:8.0;"/>
    <path clip-path="url(#pb303bd5eea)" d="
M185.607 179.263
L227.213 209.492" style="fill:none;stroke:#808080;stroke-width:8.0;"/>
    <path clip-path="url(#pb303bd5eea)" d="
M195.429 149.034
L246.857 149.034" style="fill:none;stroke:#808080;stroke-width:8.0;"/>
    <path clip-path="url(#pb303bd5eea)" d="
M142.124 75.667
L175.785 51.2112" style="fill:none;stroke:#808080;stroke-width:4.7630869076905356;"/>
    <path clip-path="url(#pb303bd5eea)" d="
M94.4473 75.667
L112.215 51.2112" style="fill:none;stroke:#808080;stroke-width:2.2981017963890054;"/>
    <path clip-path="url(#pb303bd5eea)" d="
M55.8758 103.691
L60.7868 88.5763" style="fill:none;stroke:#808080;stroke-width:1.865112751803224;"/>
    <path clip-path="url(#pb303bd5eea)" d="
M55.8758 194.378
L60.7868 209.492" style="fill:none;stroke:#808080;stroke-width:3.189620773676552;"/>
    <path clip-path="url(#pb303bd5eea)" d="
M94.4473 222.401
L112.215 246.857" style="fill:none;stroke:#808080;stroke-width:4.270712518971777;"/>
    <path clip-path="url(#pb303bd5eea)" d="
M142.124 222.401
L175.785 246.857" style="fill:none;stroke:#808080;stroke-width:0.9306499600612597;"/>
    <path clip-path="url(#pb303bd5eea)" d="
M180.696 194.378
L227.213 209.492" style="fill:none;stroke:#808080;stroke-width:0.9099846522495323;"/>
    <path clip-path="url(#pb303bd5eea)" d="
M185.607 209.492
L227.213 209.492" style="fill:none;stroke:#808080;stroke-width:2.3436050775985677;"/>
    <path clip-path="url(#pb303bd5eea)" d="
M99.3583 90.7815
L112.215 51.2112" style="fill:none;stroke:#808080;stroke-width:1.6055973531165364;"/>
    <path clip-path="url(#pb303bd5eea)" d="
M46.0539 164.149
L41.1429 149.034" style="fill:none;stroke:#808080;stroke-width:2.9965877778267895;"/>
    <path clip-path="url(#pb303bd5eea)" d="
M99.3582 237.516
L112.215 246.857" style="fill:none;stroke:#808080;stroke-width:8.0;"/>
    <path clip-path="url(#pb303bd5eea)" d="
M159.892 246.857
L175.785 246.857" style="fill:none;stroke:#808080;stroke-width:3.7625917658347134;"/>
    <path clip-path="url(#pb303bd5eea)" d="
M159.892 100.123
L175.785 51.2112" style="fill:none;stroke:#808080;stroke-width:2.2380949194317736;"/>
    <path clip-path="url(#pb303bd5eea)" d="
M112.215 100.123
L112.215 51.2112" style="fill:none;stroke:#808080;stroke-width:5.106017056795622;"/>
    <path clip-path="url(#pb303bd5eea)" d="
M58.911 173.49
L41.1429 149.034" style="fill:none;stroke:#808080;stroke-width:5.338219151980866;"/>
    <path clip-path="url(#pb303bd5eea)" d="
M214.356 128.146
L227.213 88.5763" style="fill:none;stroke:#808080;stroke-width:1.0182266554940043;"/>
    <path clip-path="url(#pb303bd5eea)" d="
M128.108 100.123
L112.215 51.2112" style="fill:none;stroke:#808080;stroke-width:8.0;"/>
    <path clip-path="url(#pb303bd5eea)" d="
M89.5363 128.147
L60.7868 88.5763" style="fill:none;stroke:#808080;stroke-width:3.8206485828552843;"/>
    <path clip-path="url(#pb303bd5eea)" d="
M74.8033 173.49
L41.1429 149.034" style="fill:none;stroke:#808080;stroke-width:8.0;"/>
    <path clip-path="url(#pb303bd5eea)" d="
M89.5363 218.833
L60.7868 209.492" style="fill:none;stroke:#808080;stroke-width:0.44180053504207706;"/>
    <path clip-path="url(#pb303bd5eea)" d="
M188.642 237.516
L175.785 246.857" style="fill:none;stroke:#808080;stroke-width:1.842649144926142;"/>
    <path clip-path="url(#pb303bd5eea)" d="
M140.965 90.7814
L112.215 51.2112" style="fill:none;stroke:#808080;stroke-width:8.0;"/>
    <path clip-path="url(#pb303bd5eea)" d="
M87.6604 164.149
L41.1429 149.034" style="fill:none;stroke:#808080;stroke-width:4.856268197755526;"/>
   </g>
   <g id="PathCollection_1">
    <defs>
     <path d="
M0 8.66025
C2.29673 8.66025 4.49969 7.74776 6.12372 6.12372
C7.74776 4.49969 8.66025 2.29673 8.66025 0
C8.66025 -2.29673 7.74776 -4.49969 6.12372 -6.12372
C4.49969 -7.74776 2.29673 -8.66025 0 -8.66025
C-2.29673 -8.66025 -4.49969 -7.74776 -6.12372 -6.12372
C-7.74776 -4.49969 -8.66025 -2.29673 -8.66025 0
C-8.66025 2.29673 -7.74776 4.49969 -6.12372 6.12372
C-4.49969 7.74776 -2.29673 8.66025 0 8.66025
z
" id="m4857a30cb9" style="stroke:#000000;"/>
    </defs>
    <g clip-path="url(#pb303bd5eea)">
     <use style="stroke:#000000;" x="246.857142857" xlink:href="#m4857a30cb9" y="149.034190587"/>
     <use style="stroke:#000000;" x="227.213171278" xlink:href="#m4857a30cb9" y="88.5762797764"/>
     <use style="stroke:#000000;" x="175.784599849" xlink:href="#m4857a30cb9" y="51.2112383161"/>
     <use style="stroke:#000000;" x="112.215387889" xlink:href="#m4857a30cb9" y="51.2112383161"/>
     <use style="stroke:#000000;" x="60.7868164607" xlink:href="#m4857a30cb9" y="88.5762797764"/>
     <use style="stroke:#000000;" x="41.1428571429" xlink:href="#m4857a30cb9" y="149.034196717"/>
     <use style="stroke:#000000;" x="60.7868287223" xlink:href="#m4857a30cb9" y="209.492113658"/>
     <use style="stroke:#000000;" x="112.215387889" xlink:href="#m4857a30cb9" y="246.857142857"/>
     <use style="stroke:#000000;" x="175.784624372" xlink:href="#m4857a30cb9" y="246.857142857"/>
     <use style="stroke:#000000;" x="227.213195801" xlink:href="#m4857a30cb9" y="209.492070743"/>
    </g>
   </g>
  </g>
 </g>
 <defs>
  <clipPath id="pb303bd5eea">
   <rect height="288.0" width="288.0" x="0.0" y="0.0"/>
  </clipPath>
 </defs>
</svg>
