<?xml version="1.0" encoding="utf-8" standalone="no"?>
<!DOCTYPE svg PUBLIC "-//W3C//DTD SVG 1.1//EN"
  "http://www.w3.org/Graphics/SVG/1.1/DTD/svg11.dtd">
<!-- Created with matplotlib (http://matplotlib.org/) -->
<svg height="288pt" version="1.1" viewBox="0 0 288 288" width="288pt" xmlns="http://www.w3.org/2000/svg" xmlns:xlink="http://www.w3.org/1999/xlink">
 <defs>
  <style type="text/css">
*{stroke-linecap:butt;stroke-linejoin:round;}
  </style>
 </defs>
 <g id="figure_1">
  <g id="patch_1">
   <path d="
M0 288
L288 288
L288 0
L0 0
z
" style="fill:#ffffff;"/>
  </g>
  <g id="axes_1">
   <g id="LineCollection_1">
    <path clip-path="url(#pb303bd5eea)" d="
M246.857 149.034
L227.213 88.5763" style="fill:none;stroke:#808080;stroke-width:0.10218578254907285;"/>
    <path clip-path="url(#pb303bd5eea)" d="
M246.857 149.034
L175.785 51.2112" style="fill:none;stroke:#808080;stroke-width:0.20105322977457307;"/>
    <path clip-path="url(#pb303bd5eea)" d="
M246.857 149.034
L112.215 51.2112" style="fill:none;stroke:#808080;stroke-width:0.4879276666835213;"/>
    <path clip-path="url(#pb303bd5eea)" d="
M246.857 149.034
L41.1429 149.034" style="fill:none;stroke:#808080;stroke-width:0.016286231619450087;"/>
    <path clip-path="url(#pb303bd5eea)" d="
M246.857 149.034
L60.7868 209.492" style="fill:none;stroke:#808080;stroke-width:0.22236631424260622;"/>
    <path clip-path="url(#pb303bd5eea)" d="
M246.857 149.034
L112.215 246.857" style="fill:none;stroke:#808080;stroke-width:0.14015135801432332;"/>
    <path clip-path="url(#pb303bd5eea)" d="
M246.857 149.034
L175.785 246.857" style="fill:none;stroke:#808080;stroke-width:0.3234725608527209;"/>
    <path clip-path="url(#pb303bd5eea)" d="
M227.213 88.5763
L175.785 51.2112" style="fill:none;stroke:#808080;stroke-width:0.5073411133533909;"/>
    <path clip-path="url(#pb303bd5eea)" d="
M227.213 88.5763
L60.7868 88.5763" style="fill:none;stroke:#808080;stroke-width:0.17173664655842114;"/>
    <path clip-path="url(#pb303bd5eea)" d="
M227.213 88.5763
L60.7868 209.492" style="fill:none;stroke:#808080;stroke-width:0.1992495481132721;"/>
    <path clip-path="url(#pb303bd5eea)" d="
M227.213 88.5763
L112.215 246.857" style="fill:none;stroke:#808080;stroke-width:0.4915956453077257;"/>
    <path clip-path="url(#pb303bd5eea)" d="
M227.213 88.5763
L175.785 246.857" style="fill:none;stroke:#808080;stroke-width:0.2239328167347066;"/>
    <path clip-path="url(#pb303bd5eea)" d="
M227.213 88.5763
L227.213 209.492" style="fill:none;stroke:#808080;stroke-width:0.3593243459893074;"/>
    <path clip-path="url(#pb303bd5eea)" d="
M175.785 51.2112
L246.857 149.034" style="fill:none;stroke:#808080;stroke-width:2.0;"/>
    <path clip-path="url(#pb303bd5eea)" d="
M175.785 51.2112
L112.215 51.2112" style="fill:none;stroke:#808080;stroke-width:1.906311993196352;"/>
    <path clip-path="url(#pb303bd5eea)" d="
M175.785 51.2112
L60.7868 88.5763" style="fill:none;stroke:#808080;stroke-width:0.24474437018549722;"/>
    <path clip-path="url(#pb303bd5eea)" d="
M175.785 51.2112
L41.1429 149.034" style="fill:none;stroke:#808080;stroke-width:0.42799571077328213;"/>
    <path clip-path="url(#pb303bd5eea)" d="
M175.785 51.2112
L112.215 246.857" style="fill:none;stroke:#808080;stroke-width:0.9750280812855854;"/>
    <path clip-path="url(#pb303bd5eea)" d="
M175.785 51.2112
L175.785 246.857" style="fill:none;stroke:#808080;stroke-width:1.191536196410206;"/>
    <path clip-path="url(#pb303bd5eea)" d="
M175.785 51.2112
L227.213 209.492" style="fill:none;stroke:#808080;stroke-width:1.960618918962382;"/>
    <path clip-path="url(#pb303bd5eea)" d="
M112.215 51.2112
L246.857 149.034" style="fill:none;stroke:#808080;stroke-width:0.3910497177559322;"/>
    <path clip-path="url(#pb303bd5eea)" d="
M112.215 51.2112
L227.213 88.5763" style="fill:none;stroke:#808080;stroke-width:0.13350932639076918;"/>
    <path clip-path="url(#pb303bd5eea)" d="
M112.215 51.2112
L175.785 51.2112" style="fill:none;stroke:#808080;stroke-width:0.24814941196512774;"/>
    <path clip-path="url(#pb303bd5eea)" d="
M112.215 51.2112
L41.1429 149.034" style="fill:none;stroke:#808080;stroke-width:0.15263253290611534;"/>
    <path clip-path="url(#pb303bd5eea)" d="
M112.215 51.2112
L60.7868 209.492" style="fill:none;stroke:#808080;stroke-width:0.02710847199038957;"/>
    <path clip-path="url(#pb303bd5eea)" d="
M112.215 51.2112
L112.215 246.857" style="fill:none;stroke:#808080;stroke-width:0.2626280855327212;"/>
    <path clip-path="url(#pb303bd5eea)" d="
M112.215 51.2112
L175.785 246.857" style="fill:none;stroke:#808080;stroke-width:0.3030470190952079;"/>
    <path clip-path="url(#pb303bd5eea)" d="
M112.215 51.2112
L227.213 209.492" style="fill:none;stroke:#808080;stroke-width:0.12076549922726221;"/>
    <path clip-path="url(#pb303bd5eea)" d="
M60.7868 88.5763
L246.857 149.034" style="fill:none;stroke:#808080;stroke-width:0.7811353777609553;"/>
    <path clip-path="url(#pb303bd5eea)" d="
M60.7868 88.5763
L227.213 88.5763" style="fill:none;stroke:#808080;stroke-width:0.6121085913689335;"/>
    <path clip-path="url(#pb303bd5eea)" d="
M60.7868 88.5763
L175.785 51.2112" style="fill:none;stroke:#808080;stroke-width:0.5052683027052924;"/>
    <path clip-path="url(#pb303bd5eea)" d="
M60.7868 88.5763
L112.215 51.2112" style="fill:none;stroke:#808080;stroke-width:1.1618591223156687;"/>
    <path clip-path="url(#pb303bd5eea)" d="
M60.7868 88.5763
L60.7868 209.492" style="fill:none;stroke:#808080;stroke-width:0.5256842478077459;"/>
    <path clip-path="url(#pb303bd5eea)" d="
M60.7868 88.5763
L112.215 246.857" style="fill:none;stroke:#808080;stroke-width:0.3302241239756012;"/>
    <path clip-path="url(#pb303bd5eea)" d="
M60.7868 88.5763
L175.785 246.857" style="fill:none;stroke:#808080;stroke-width:0.48139685193444604;"/>
    <path clip-path="url(#pb303bd5eea)" d="
M60.7868 88.5763
L227.213 209.492" style="fill:none;stroke:#808080;stroke-width:0.012446878402927908;"/>
    <path clip-path="url(#pb303bd5eea)" d="
M41.1429 149.034
L246.857 149.034" style="fill:none;stroke:#808080;stroke-width:0.5592888767239028;"/>
    <path clip-path="url(#pb303bd5eea)" d="
M41.1429 149.034
L175.785 51.2112" style="fill:none;stroke:#808080;stroke-width:0.10944890725386247;"/>
    <path clip-path="url(#pb303bd5eea)" d="
M41.1429 149.034
L112.215 51.2112" style="fill:none;stroke:#808080;stroke-width:1.0340123523186286;"/>
    <path clip-path="url(#pb303bd5eea)" d="
M41.1429 149.034
L60.7868 88.5763" style="fill:none;stroke:#808080;stroke-width:0.00473962839260017;"/>
    <path clip-path="url(#pb303bd5eea)" d="
M41.1429 149.034
L60.7868 209.492" style="fill:none;stroke:#808080;stroke-width:0.039988539775208665;"/>
    <path clip-path="url(#pb303bd5eea)" d="
M41.1429 149.034
L112.215 246.857" style="fill:none;stroke:#808080;stroke-width:0.022726276877741203;"/>
    <path clip-path="url(#pb303bd5eea)" d="
M41.1429 149.034
L175.785 246.857" style="fill:none;stroke:#808080;stroke-width:0.22875765772407708;"/>
    <path clip-path="url(#pb303bd5eea)" d="
M41.1429 149.034
L227.213 209.492" style="fill:none;stroke:#808080;stroke-width:0.22749616306238307;"/>
    <path clip-path="url(#pb303bd5eea)" d="
M60.7868 209.492
L227.213 209.492" style="fill:none;stroke:#808080;stroke-width:0.020550777591982317;"/>
    <path clip-path="url(#pb303bd5eea)" d="
M60.7868 209.492
L112.215 51.2112" style="fill:none;stroke:#808080;stroke-width:0.0006236809999209947;"/>
    <path clip-path="url(#pb303bd5eea)" d="
M60.7868 209.492
L41.1429 149.034" style="fill:none;stroke:#808080;stroke-width:0.15034346894488437;"/>
    <path clip-path="url(#pb303bd5eea)" d="
M60.7868 209.492
L112.215 246.857" style="fill:none;stroke:#808080;stroke-width:0.017452753322783288;"/>
    <path clip-path="url(#pb303bd5eea)" d="
M112.215 246.857
L175.785 246.857" style="fill:none;stroke:#808080;stroke-width:0.12375198726387326;"/>
    <path clip-path="url(#pb303bd5eea)" d="
M112.215 246.857
L175.785 51.2112" style="fill:none;stroke:#808080;stroke-width:0.04964241624637422;"/>
    <path clip-path="url(#pb303bd5eea)" d="
M112.215 246.857
L112.215 51.2112" style="fill:none;stroke:#808080;stroke-width:0.5007211645542164;"/>
    <path clip-path="url(#pb303bd5eea)" d="
M112.215 246.857
L41.1429 149.034" style="fill:none;stroke:#808080;stroke-width:0.1593004579882482;"/>
    <path clip-path="url(#pb303bd5eea)" d="
M175.785 246.857
L227.213 88.5763" style="fill:none;stroke:#808080;stroke-width:0.25455666387350107;"/>
    <path clip-path="url(#pb303bd5eea)" d="
M175.785 246.857
L112.215 51.2112" style="fill:none;stroke:#808080;stroke-width:2.0;"/>
    <path clip-path="url(#pb303bd5eea)" d="
M175.785 246.857
L60.7868 88.5763" style="fill:none;stroke:#808080;stroke-width:0.020419709100886974;"/>
    <path clip-path="url(#pb303bd5eea)" d="
M175.785 246.857
L41.1429 149.034" style="fill:none;stroke:#808080;stroke-width:2.0;"/>
    <path clip-path="url(#pb303bd5eea)" d="
M175.785 246.857
L60.7868 209.492" style="fill:none;stroke:#808080;stroke-width:0.11045013376051926;"/>
    <path clip-path="url(#pb303bd5eea)" d="
M175.785 246.857
L112.215 246.857" style="fill:none;stroke:#808080;stroke-width:1.8338171781802437;"/>
    <path clip-path="url(#pb303bd5eea)" d="
M227.213 209.492
L175.785 246.857" style="fill:none;stroke:#808080;stroke-width:0.023763641091588072;"/>
    <path clip-path="url(#pb303bd5eea)" d="
M227.213 209.492
L112.215 51.2112" style="fill:none;stroke:#808080;stroke-width:0.027938318429499898;"/>
    <path clip-path="url(#pb303bd5eea)" d="
M227.213 209.492
L41.1429 149.034" style="fill:none;stroke:#808080;stroke-width:0.057290276680898256;"/>
   </g>
   <g id="LineCollection_2">
    <path clip-path="url(#pb303bd5eea)" d="
M232.124 103.691
L227.213 88.5763" style="fill:none;stroke:#808080;stroke-width:0.4087431301962914;"/>
    <path clip-path="url(#pb303bd5eea)" d="
M193.553 75.667
L175.785 51.2112" style="fill:none;stroke:#808080;stroke-width:0.8042129190982923;"/>
    <path clip-path="url(#pb303bd5eea)" d="
M145.876 75.667
L112.215 51.2112" style="fill:none;stroke:#808080;stroke-width:1.951710666734085;"/>
    <path clip-path="url(#pb303bd5eea)" d="
M92.5714 149.034
L41.1429 149.034" style="fill:none;stroke:#808080;stroke-width:0.06514492647780035;"/>
    <path clip-path="url(#pb303bd5eea)" d="
M107.304 194.378
L60.7868 209.492" style="fill:none;stroke:#808080;stroke-width:0.8894652569704249;"/>
    <path clip-path="url(#pb303bd5eea)" d="
M145.876 222.401
L112.215 246.857" style="fill:none;stroke:#808080;stroke-width:0.5606054320572933;"/>
    <path clip-path="url(#pb303bd5eea)" d="
M193.553 222.401
L175.785 246.857" style="fill:none;stroke:#808080;stroke-width:1.2938902434108837;"/>
    <path clip-path="url(#pb303bd5eea)" d="
M188.642 60.5525
L175.785 51.2112" style="fill:none;stroke:#808080;stroke-width:2.0293644534135638;"/>
    <path clip-path="url(#pb303bd5eea)" d="
M102.393 88.5763
L60.7868 88.5763" style="fill:none;stroke:#808080;stroke-width:0.6869465862336845;"/>
    <path clip-path="url(#pb303bd5eea)" d="
M102.393 179.263
L60.7868 209.492" style="fill:none;stroke:#808080;stroke-width:0.7969981924530884;"/>
    <path clip-path="url(#pb303bd5eea)" d="
M140.965 207.287
L112.215 246.857" style="fill:none;stroke:#808080;stroke-width:1.9663825812309028;"/>
    <path clip-path="url(#pb303bd5eea)" d="
M188.642 207.287
L175.785 246.857" style="fill:none;stroke:#808080;stroke-width:0.8957312669388264;"/>
    <path clip-path="url(#pb303bd5eea)" d="
M227.213 179.263
L227.213 209.492" style="fill:none;stroke:#808080;stroke-width:1.4372973839572296;"/>
    <path clip-path="url(#pb303bd5eea)" d="
M229.089 124.578
L246.857 149.034" style="fill:none;stroke:#808080;stroke-width:8.0;"/>
    <path clip-path="url(#pb303bd5eea)" d="
M128.108 51.2112
L112.215 51.2112" style="fill:none;stroke:#808080;stroke-width:7.625247972785408;"/>
    <path clip-path="url(#pb303bd5eea)" d="
M89.5363 79.235
L60.7868 88.5763" style="fill:none;stroke:#808080;stroke-width:0.9789774807419889;"/>
    <path clip-path="url(#pb303bd5eea)" d="
M74.8033 124.578
L41.1429 149.034" style="fill:none;stroke:#808080;stroke-width:1.7119828430931285;"/>
    <path clip-path="url(#pb303bd5eea)" d="
M128.108 197.946
L112.215 246.857" style="fill:none;stroke:#808080;stroke-width:3.9001123251423415;"/>
    <path clip-path="url(#pb303bd5eea)" d="
M175.785 197.946
L175.785 246.857" style="fill:none;stroke:#808080;stroke-width:4.766144785640824;"/>
    <path clip-path="url(#pb303bd5eea)" d="
M214.356 169.922
L227.213 209.492" style="fill:none;stroke:#808080;stroke-width:7.842475675849528;"/>
    <path clip-path="url(#pb303bd5eea)" d="
M213.197 124.578
L246.857 149.034" style="fill:none;stroke:#808080;stroke-width:1.564198871023729;"/>
    <path clip-path="url(#pb303bd5eea)" d="
M198.464 79.235
L227.213 88.5763" style="fill:none;stroke:#808080;stroke-width:0.5340373055630767;"/>
    <path clip-path="url(#pb303bd5eea)" d="
M159.892 51.2112
L175.785 51.2112" style="fill:none;stroke:#808080;stroke-width:0.992597647860511;"/>
    <path clip-path="url(#pb303bd5eea)" d="
M58.911 124.578
L41.1429 149.034" style="fill:none;stroke:#808080;stroke-width:0.6105301316244613;"/>
    <path clip-path="url(#pb303bd5eea)" d="
M73.644 169.922
L60.7868 209.492" style="fill:none;stroke:#808080;stroke-width:0.10843388796155828;"/>
    <path clip-path="url(#pb303bd5eea)" d="
M112.215 197.946
L112.215 246.857" style="fill:none;stroke:#808080;stroke-width:1.0505123421308848;"/>
    <path clip-path="url(#pb303bd5eea)" d="
M159.892 197.946
L175.785 246.857" style="fill:none;stroke:#808080;stroke-width:1.2121880763808317;"/>
    <path clip-path="url(#pb303bd5eea)" d="
M198.464 169.922
L227.213 209.492" style="fill:none;stroke:#808080;stroke-width:0.48306199690904883;"/>
    <path clip-path="url(#pb303bd5eea)" d="
M200.34 133.92
L246.857 149.034" style="fill:none;stroke:#808080;stroke-width:3.1245415110438213;"/>
    <path clip-path="url(#pb303bd5eea)" d="
M185.607 88.5763
L227.213 88.5763" style="fill:none;stroke:#808080;stroke-width:2.448434365475734;"/>
    <path clip-path="url(#pb303bd5eea)" d="
M147.035 60.5525
L175.785 51.2112" style="fill:none;stroke:#808080;stroke-width:2.0210732108211698;"/>
    <path clip-path="url(#pb303bd5eea)" d="
M99.3582 60.5525
L112.215 51.2112" style="fill:none;stroke:#808080;stroke-width:4.647436489262675;"/>
    <path clip-path="url(#pb303bd5eea)" d="
M60.7868 179.263
L60.7868 209.492" style="fill:none;stroke:#808080;stroke-width:2.1027369912309837;"/>
    <path clip-path="url(#pb303bd5eea)" d="
M99.3582 207.287
L112.215 246.857" style="fill:none;stroke:#808080;stroke-width:1.3208964959024048;"/>
    <path clip-path="url(#pb303bd5eea)" d="
M147.035 207.287
L175.785 246.857" style="fill:none;stroke:#808080;stroke-width:1.9255874077377841;"/>
    <path clip-path="url(#pb303bd5eea)" d="
M185.607 179.263
L227.213 209.492" style="fill:none;stroke:#808080;stroke-width:0.04978751361171163;"/>
    <path clip-path="url(#pb303bd5eea)" d="
M195.429 149.034
L246.857 149.034" style="fill:none;stroke:#808080;stroke-width:2.2371555068956113;"/>
    <path clip-path="url(#pb303bd5eea)" d="
M142.124 75.667
L175.785 51.2112" style="fill:none;stroke:#808080;stroke-width:0.4377956290154499;"/>
    <path clip-path="url(#pb303bd5eea)" d="
M94.4473 75.667
L112.215 51.2112" style="fill:none;stroke:#808080;stroke-width:4.136049409274515;"/>
    <path clip-path="url(#pb303bd5eea)" d="
M55.8758 103.691
L60.7868 88.5763" style="fill:none;stroke:#808080;stroke-width:0.01895851357040068;"/>
    <path clip-path="url(#pb303bd5eea)" d="
M55.8758 194.378
L60.7868 209.492" style="fill:none;stroke:#808080;stroke-width:0.15995415910083466;"/>
    <path clip-path="url(#pb303bd5eea)" d="
M94.4473 222.401
L112.215 246.857" style="fill:none;stroke:#808080;stroke-width:0.09090510751096481;"/>
    <path clip-path="url(#pb303bd5eea)" d="
M142.124 222.401
L175.785 246.857" style="fill:none;stroke:#808080;stroke-width:0.9150306308963083;"/>
    <path clip-path="url(#pb303bd5eea)" d="
M180.696 194.378
L227.213 209.492" style="fill:none;stroke:#808080;stroke-width:0.9099846522495323;"/>
    <path clip-path="url(#pb303bd5eea)" d="
M185.607 209.492
L227.213 209.492" style="fill:none;stroke:#808080;stroke-width:0.08220311036792927;"/>
    <path clip-path="url(#pb303bd5eea)" d="
M99.3583 90.7815
L112.215 51.2112" style="fill:none;stroke:#808080;stroke-width:0.0024947239996839787;"/>
    <path clip-path="url(#pb303bd5eea)" d="
M46.0539 164.149
L41.1429 149.034" style="fill:none;stroke:#808080;stroke-width:0.6013738757795375;"/>
    <path clip-path="url(#pb303bd5eea)" d="
M99.3582 237.516
L112.215 246.857" style="fill:none;stroke:#808080;stroke-width:0.06981101329113315;"/>
    <path clip-path="url(#pb303bd5eea)" d="
M159.892 246.857
L175.785 246.857" style="fill:none;stroke:#808080;stroke-width:0.49500794905549306;"/>
    <path clip-path="url(#pb303bd5eea)" d="
M159.892 100.123
L175.785 51.2112" style="fill:none;stroke:#808080;stroke-width:0.19856966498549689;"/>
    <path clip-path="url(#pb303bd5eea)" d="
M112.215 100.123
L112.215 51.2112" style="fill:none;stroke:#808080;stroke-width:2.002884658216866;"/>
    <path clip-path="url(#pb303bd5eea)" d="
M58.911 173.49
L41.1429 149.034" style="fill:none;stroke:#808080;stroke-width:0.6372018319529928;"/>
    <path clip-path="url(#pb303bd5eea)" d="
M214.356 128.146
L227.213 88.5763" style="fill:none;stroke:#808080;stroke-width:1.0182266554940043;"/>
    <path clip-path="url(#pb303bd5eea)" d="
M128.108 100.123
L112.215 51.2112" style="fill:none;stroke:#808080;stroke-width:8.0;"/>
    <path clip-path="url(#pb303bd5eea)" d="
M89.5363 128.147
L60.7868 88.5763" style="fill:none;stroke:#808080;stroke-width:0.0816788364035479;"/>
    <path clip-path="url(#pb303bd5eea)" d="
M74.8033 173.49
L41.1429 149.034" style="fill:none;stroke:#808080;stroke-width:8.0;"/>
    <path clip-path="url(#pb303bd5eea)" d="
M89.5363 218.833
L60.7868 209.492" style="fill:none;stroke:#808080;stroke-width:0.44180053504207706;"/>
    <path clip-path="url(#pb303bd5eea)" d="
M128.108 246.857
L112.215 246.857" style="fill:none;stroke:#808080;stroke-width:7.335268712720975;"/>
    <path clip-path="url(#pb303bd5eea)" d="
M188.642 237.516
L175.785 246.857" style="fill:none;stroke:#808080;stroke-width:0.09505456436635229;"/>
    <path clip-path="url(#pb303bd5eea)" d="
M140.965 90.7814
L112.215 51.2112" style="fill:none;stroke:#808080;stroke-width:0.11175327371799959;"/>
    <path clip-path="url(#pb303bd5eea)" d="
M87.6604 164.149
L41.1429 149.034" style="fill:none;stroke:#808080;stroke-width:0.22916110672359302;"/>
   </g>
   <g id="PathCollection_1">
    <defs>
     <path d="
M0 8.66025
C2.29673 8.66025 4.49969 7.74776 6.12372 6.12372
C7.74776 4.49969 8.66025 2.29673 8.66025 0
C8.66025 -2.29673 7.74776 -4.49969 6.12372 -6.12372
C4.49969 -7.74776 2.29673 -8.66025 0 -8.66025
C-2.29673 -8.66025 -4.49969 -7.74776 -6.12372 -6.12372
C-7.74776 -4.49969 -8.66025 -2.29673 -8.66025 0
C-8.66025 2.29673 -7.74776 4.49969 -6.12372 6.12372
C-4.49969 7.74776 -2.29673 8.66025 0 8.66025
z
" id="m4857a30cb9" style="stroke:#000000;"/>
    </defs>
    <g clip-path="url(#pb303bd5eea)">
     <use style="stroke:#000000;" x="246.857142857" xlink:href="#m4857a30cb9" y="149.034190587"/>
     <use style="stroke:#000000;" x="227.213171278" xlink:href="#m4857a30cb9" y="88.5762797764"/>
     <use style="stroke:#000000;" x="175.784599849" xlink:href="#m4857a30cb9" y="51.2112383161"/>
     <use style="stroke:#000000;" x="112.215387889" xlink:href="#m4857a30cb9" y="51.2112383161"/>
     <use style="stroke:#000000;" x="60.7868164607" xlink:href="#m4857a30cb9" y="88.5762797764"/>
     <use style="stroke:#000000;" x="41.1428571429" xlink:href="#m4857a30cb9" y="149.034196717"/>
     <use style="stroke:#000000;" x="60.7868287223" xlink:href="#m4857a30cb9" y="209.492113658"/>
     <use style="stroke:#000000;" x="112.215387889" xlink:href="#m4857a30cb9" y="246.857142857"/>
     <use style="stroke:#000000;" x="175.784624372" xlink:href="#m4857a30cb9" y="246.857142857"/>
     <use style="stroke:#000000;" x="227.213195801" xlink:href="#m4857a30cb9" y="209.492070743"/>
    </g>
   </g>
  </g>
 </g>
 <defs>
  <clipPath id="pb303bd5eea">
   <rect height="288.0" width="288.0" x="0.0" y="0.0"/>
  </clipPath>
 </defs>
</svg>
