<?xml version="1.0" encoding="utf-8" standalone="no"?>
<!DOCTYPE svg PUBLIC "-//W3C//DTD SVG 1.1//EN"
  "http://www.w3.org/Graphics/SVG/1.1/DTD/svg11.dtd">
<!-- Created with matplotlib (http://matplotlib.org/) -->
<svg height="288pt" version="1.1" viewBox="0 0 288 288" width="288pt" xmlns="http://www.w3.org/2000/svg" xmlns:xlink="http://www.w3.org/1999/xlink">
 <defs>
  <style type="text/css">
*{stroke-linecap:butt;stroke-linejoin:round;}
  </style>
 </defs>
 <g id="figure_1">
  <g id="patch_1">
   <path d="
M0 288
L288 288
L288 0
L0 0
z
" style="fill:#ffffff;"/>
  </g>
  <g id="axes_1">
   <g id="LineCollection_1">
    <path clip-path="url(#pb303bd5eea)" d="
M236.789 144
L162.059 246.857" style="fill:none;stroke:#808080;stroke-width:0.4187799180714338;"/>
    <path clip-path="url(#pb303bd5eea)" d="
M162.059 41.1429
L41.1429 207.569" style="fill:none;stroke:#808080;stroke-width:0.7119699449378333;"/>
    <path clip-path="url(#pb303bd5eea)" d="
M162.059 41.1429
L162.059 246.857" style="fill:none;stroke:#808080;stroke-width:1.6653924035917664;"/>
    <path clip-path="url(#pb303bd5eea)" d="
M41.1429 80.4308
L236.789 144" style="fill:none;stroke:#808080;stroke-width:0.5268878178576535;"/>
    <path clip-path="url(#pb303bd5eea)" d="
M41.1429 80.4308
L162.059 41.1429" style="fill:none;stroke:#808080;stroke-width:1.3707434147361415;"/>
    <path clip-path="url(#pb303bd5eea)" d="
M41.1429 80.4308
L162.059 246.857" style="fill:none;stroke:#808080;stroke-width:1.9929649806669292;"/>
    <path clip-path="url(#pb303bd5eea)" d="
M41.1429 207.569
L162.059 41.1429" style="fill:none;stroke:#808080;stroke-width:0.6877566227313063;"/>
    <path clip-path="url(#pb303bd5eea)" d="
M41.1429 207.569
L162.059 246.857" style="fill:none;stroke:#808080;stroke-width:1.0648859984458792;"/>
    <path clip-path="url(#pb303bd5eea)" d="
M162.059 246.857
L162.059 41.1429" style="fill:none;stroke:#808080;stroke-width:0.7223550450735179;"/>
   </g>
   <g id="LineCollection_2">
    <path clip-path="url(#pb303bd5eea)" d="
M180.741 221.143
L162.059 246.857" style="fill:none;stroke:#808080;stroke-width:1.675119672285735;"/>
    <path clip-path="url(#pb303bd5eea)" d="
M71.3718 165.963
L41.1429 207.569" style="fill:none;stroke:#808080;stroke-width:2.847879779751333;"/>
    <path clip-path="url(#pb303bd5eea)" d="
M162.059 195.429
L162.059 246.857" style="fill:none;stroke:#808080;stroke-width:6.661569614367066;"/>
    <path clip-path="url(#pb303bd5eea)" d="
M187.877 128.108
L236.789 144" style="fill:none;stroke:#808080;stroke-width:2.107551271430614;"/>
    <path clip-path="url(#pb303bd5eea)" d="
M131.83 50.9648
L162.059 41.1429" style="fill:none;stroke:#808080;stroke-width:5.482973658944566;"/>
    <path clip-path="url(#pb303bd5eea)" d="
M131.83 205.251
L162.059 246.857" style="fill:none;stroke:#808080;stroke-width:7.971859922667717;"/>
    <path clip-path="url(#pb303bd5eea)" d="
M131.83 82.7494
L162.059 41.1429" style="fill:none;stroke:#808080;stroke-width:2.7510264909252253;"/>
    <path clip-path="url(#pb303bd5eea)" d="
M131.83 237.035
L162.059 246.857" style="fill:none;stroke:#808080;stroke-width:4.259543993783517;"/>
    <path clip-path="url(#pb303bd5eea)" d="
M162.059 92.5714
L162.059 41.1429" style="fill:none;stroke:#808080;stroke-width:2.8894201802940715;"/>
   </g>
   <g id="PathCollection_1">
    <defs>
     <path d="
M0 8.66025
C2.29673 8.66025 4.49969 7.74776 6.12372 6.12372
C7.74776 4.49969 8.66025 2.29673 8.66025 0
C8.66025 -2.29673 7.74776 -4.49969 6.12372 -6.12372
C4.49969 -7.74776 2.29673 -8.66025 0 -8.66025
C-2.29673 -8.66025 -4.49969 -7.74776 -6.12372 -6.12372
C-7.74776 -4.49969 -8.66025 -2.29673 -8.66025 0
C-8.66025 2.29673 -7.74776 4.49969 -6.12372 6.12372
C-4.49969 7.74776 -2.29673 8.66025 0 8.66025
z
" id="m4857a30cb9" style="stroke:#000000;"/>
    </defs>
    <g clip-path="url(#pb303bd5eea)">
     <use style="stroke:#000000;" x="236.788786207" xlink:href="#m4857a30cb9" y="144.0"/>
     <use style="stroke:#000000;" x="162.058691025" xlink:href="#m4857a30cb9" y="41.1428571429"/>
     <use style="stroke:#000000;" x="41.1428571429" xlink:href="#m4857a30cb9" y="80.4307880402"/>
     <use style="stroke:#000000;" x="41.1428700354" xlink:href="#m4857a30cb9" y="207.569224221"/>
     <use style="stroke:#000000;" x="162.058703286" xlink:href="#m4857a30cb9" y="246.857142857"/>
    </g>
   </g>
  </g>
 </g>
 <defs>
  <clipPath id="pb303bd5eea">
   <rect height="288.0" width="288.0" x="0.0" y="0.0"/>
  </clipPath>
 </defs>
</svg>
