<?xml version="1.0" encoding="utf-8" standalone="no"?>
<!DOCTYPE svg PUBLIC "-//W3C//DTD SVG 1.1//EN"
  "http://www.w3.org/Graphics/SVG/1.1/DTD/svg11.dtd">
<!-- Created with matplotlib (http://matplotlib.org/) -->
<svg height="288pt" version="1.1" viewBox="0 0 288 288" width="288pt" xmlns="http://www.w3.org/2000/svg" xmlns:xlink="http://www.w3.org/1999/xlink">
 <defs>
  <style type="text/css">
*{stroke-linecap:butt;stroke-linejoin:round;}
  </style>
 </defs>
 <g id="figure_1">
  <g id="patch_1">
   <path d="
M0 288
L288 288
L288 0
L0 0
z
" style="fill:#ffffff;"/>
  </g>
  <g id="axes_1">
   <g id="LineCollection_1">
    <path clip-path="url(#pb303bd5eea)" d="
M236.789 144
L162.059 41.1429" style="fill:none;stroke:#808080;stroke-width:0.5376443664203008;"/>
    <path clip-path="url(#pb303bd5eea)" d="
M162.059 41.1429
L41.1429 80.4308" style="fill:none;stroke:#808080;stroke-width:0.6929499013079603;"/>
    <path clip-path="url(#pb303bd5eea)" d="
M162.059 41.1429
L162.059 246.857" style="fill:none;stroke:#808080;stroke-width:0.7903480390694959;"/>
    <path clip-path="url(#pb303bd5eea)" d="
M41.1429 80.4308
L162.059 41.1429" style="fill:none;stroke:#808080;stroke-width:0.5089787106881041;"/>
    <path clip-path="url(#pb303bd5eea)" d="
M41.1429 207.569
L236.789 144" style="fill:none;stroke:#808080;stroke-width:1.4362011387403584;"/>
    <path clip-path="url(#pb303bd5eea)" d="
M41.1429 207.569
L162.059 41.1429" style="fill:none;stroke:#808080;stroke-width:1.4233877020394434;"/>
    <path clip-path="url(#pb303bd5eea)" d="
M41.1429 207.569
L41.1429 80.4308" style="fill:none;stroke:#808080;stroke-width:0.6245489261525372;"/>
    <path clip-path="url(#pb303bd5eea)" d="
M162.059 246.857
L236.789 144" style="fill:none;stroke:#808080;stroke-width:1.776084365600802;"/>
    <path clip-path="url(#pb303bd5eea)" d="
M162.059 246.857
L162.059 41.1429" style="fill:none;stroke:#808080;stroke-width:1.1398678257906916;"/>
    <path clip-path="url(#pb303bd5eea)" d="
M162.059 246.857
L41.1429 207.569" style="fill:none;stroke:#808080;stroke-width:0.33167767325472575;"/>
   </g>
   <g id="LineCollection_2">
    <path clip-path="url(#pb303bd5eea)" d="
M180.741 66.8571
L162.059 41.1429" style="fill:none;stroke:#808080;stroke-width:2.150577465681203;"/>
    <path clip-path="url(#pb303bd5eea)" d="
M71.3718 70.6088
L41.1429 80.4308" style="fill:none;stroke:#808080;stroke-width:2.771799605231841;"/>
    <path clip-path="url(#pb303bd5eea)" d="
M162.059 195.429
L162.059 246.857" style="fill:none;stroke:#808080;stroke-width:3.1613921562779836;"/>
    <path clip-path="url(#pb303bd5eea)" d="
M131.83 50.9648
L162.059 41.1429" style="fill:none;stroke:#808080;stroke-width:2.0359148427524163;"/>
    <path clip-path="url(#pb303bd5eea)" d="
M187.877 159.892
L236.789 144" style="fill:none;stroke:#808080;stroke-width:5.7448045549614335;"/>
    <path clip-path="url(#pb303bd5eea)" d="
M131.83 82.7494
L162.059 41.1429" style="fill:none;stroke:#808080;stroke-width:5.693550808157774;"/>
    <path clip-path="url(#pb303bd5eea)" d="
M41.1429 112.215
L41.1429 80.4308" style="fill:none;stroke:#808080;stroke-width:2.498195704610149;"/>
    <path clip-path="url(#pb303bd5eea)" d="
M218.106 169.714
L236.789 144" style="fill:none;stroke:#808080;stroke-width:7.104337462403208;"/>
    <path clip-path="url(#pb303bd5eea)" d="
M162.059 92.5714
L162.059 41.1429" style="fill:none;stroke:#808080;stroke-width:4.559471303162766;"/>
    <path clip-path="url(#pb303bd5eea)" d="
M71.3718 217.391
L41.1429 207.569" style="fill:none;stroke:#808080;stroke-width:1.326710693018903;"/>
   </g>
   <g id="PathCollection_1">
    <defs>
     <path d="
M0 8.66025
C2.29673 8.66025 4.49969 7.74776 6.12372 6.12372
C7.74776 4.49969 8.66025 2.29673 8.66025 0
C8.66025 -2.29673 7.74776 -4.49969 6.12372 -6.12372
C4.49969 -7.74776 2.29673 -8.66025 0 -8.66025
C-2.29673 -8.66025 -4.49969 -7.74776 -6.12372 -6.12372
C-7.74776 -4.49969 -8.66025 -2.29673 -8.66025 0
C-8.66025 2.29673 -7.74776 4.49969 -6.12372 6.12372
C-4.49969 7.74776 -2.29673 8.66025 0 8.66025
z
" id="m4857a30cb9" style="stroke:#000000;"/>
    </defs>
    <g clip-path="url(#pb303bd5eea)">
     <use style="stroke:#000000;" x="236.788786207" xlink:href="#m4857a30cb9" y="144.0"/>
     <use style="stroke:#000000;" x="162.058691025" xlink:href="#m4857a30cb9" y="41.1428571429"/>
     <use style="stroke:#000000;" x="41.1428571429" xlink:href="#m4857a30cb9" y="80.4307880402"/>
     <use style="stroke:#000000;" x="41.1428700354" xlink:href="#m4857a30cb9" y="207.569224221"/>
     <use style="stroke:#000000;" x="162.058703286" xlink:href="#m4857a30cb9" y="246.857142857"/>
    </g>
   </g>
  </g>
 </g>
 <defs>
  <clipPath id="pb303bd5eea">
   <rect height="288.0" width="288.0" x="0.0" y="0.0"/>
  </clipPath>
 </defs>
</svg>
