<?xml version="1.0" encoding="utf-8" standalone="no"?>
<!DOCTYPE svg PUBLIC "-//W3C//DTD SVG 1.1//EN"
  "http://www.w3.org/Graphics/SVG/1.1/DTD/svg11.dtd">
<!-- Created with matplotlib (http://matplotlib.org/) -->
<svg height="288pt" version="1.1" viewBox="0 0 288 288" width="288pt" xmlns="http://www.w3.org/2000/svg" xmlns:xlink="http://www.w3.org/1999/xlink">
 <defs>
  <style type="text/css">
*{stroke-linecap:butt;stroke-linejoin:round;}
  </style>
 </defs>
 <g id="figure_1">
  <g id="patch_1">
   <path d="
M0 288
L288 288
L288 0
L0 0
z
" style="fill:#ffffff;"/>
  </g>
  <g id="axes_1">
   <g id="LineCollection_1">
    <path clip-path="url(#pb303bd5eea)" d="
M236.789 144
L162.059 41.1429" style="fill:none;stroke:#808080;stroke-width:1.321296393729423;"/>
    <path clip-path="url(#pb303bd5eea)" d="
M236.789 144
L41.1429 80.4308" style="fill:none;stroke:#808080;stroke-width:1.0052752838704548;"/>
    <path clip-path="url(#pb303bd5eea)" d="
M236.789 144
L41.1429 207.569" style="fill:none;stroke:#808080;stroke-width:1.0698261181406064;"/>
    <path clip-path="url(#pb303bd5eea)" d="
M162.059 41.1429
L236.789 144" style="fill:none;stroke:#808080;stroke-width:1.0781666051086811;"/>
    <path clip-path="url(#pb303bd5eea)" d="
M162.059 41.1429
L41.1429 80.4308" style="fill:none;stroke:#808080;stroke-width:0.8052556361738518;"/>
    <path clip-path="url(#pb303bd5eea)" d="
M162.059 41.1429
L162.059 246.857" style="fill:none;stroke:#808080;stroke-width:0.5484353284929988;"/>
    <path clip-path="url(#pb303bd5eea)" d="
M41.1429 80.4308
L236.789 144" style="fill:none;stroke:#808080;stroke-width:1.381863049468315;"/>
    <path clip-path="url(#pb303bd5eea)" d="
M41.1429 80.4308
L162.059 41.1429" style="fill:none;stroke:#808080;stroke-width:1.4865413511879582;"/>
    <path clip-path="url(#pb303bd5eea)" d="
M41.1429 80.4308
L41.1429 207.569" style="fill:none;stroke:#808080;stroke-width:1.2983077741441835;"/>
    <path clip-path="url(#pb303bd5eea)" d="
M41.1429 80.4308
L162.059 246.857" style="fill:none;stroke:#808080;stroke-width:0.780081498768939;"/>
    <path clip-path="url(#pb303bd5eea)" d="
M41.1429 207.569
L236.789 144" style="fill:none;stroke:#808080;stroke-width:0.4448803511884182;"/>
    <path clip-path="url(#pb303bd5eea)" d="
M41.1429 207.569
L41.1429 80.4308" style="fill:none;stroke:#808080;stroke-width:1.9113597393460793;"/>
    <path clip-path="url(#pb303bd5eea)" d="
M41.1429 207.569
L162.059 246.857" style="fill:none;stroke:#808080;stroke-width:0.5349337393574642;"/>
    <path clip-path="url(#pb303bd5eea)" d="
M162.059 246.857
L236.789 144" style="fill:none;stroke:#808080;stroke-width:1.3490724773952099;"/>
    <path clip-path="url(#pb303bd5eea)" d="
M162.059 246.857
L162.059 41.1429" style="fill:none;stroke:#808080;stroke-width:1.3170722620424633;"/>
    <path clip-path="url(#pb303bd5eea)" d="
M162.059 246.857
L41.1429 80.4308" style="fill:none;stroke:#808080;stroke-width:0.5334315231068019;"/>
    <path clip-path="url(#pb303bd5eea)" d="
M162.059 246.857
L41.1429 207.569" style="fill:none;stroke:#808080;stroke-width:0.8048275048453085;"/>
   </g>
   <g id="LineCollection_2">
    <path clip-path="url(#pb303bd5eea)" d="
M180.741 66.8571
L162.059 41.1429" style="fill:none;stroke:#808080;stroke-width:5.285185574917692;"/>
    <path clip-path="url(#pb303bd5eea)" d="
M90.0543 96.3231
L41.1429 80.4308" style="fill:none;stroke:#808080;stroke-width:4.021101135481819;"/>
    <path clip-path="url(#pb303bd5eea)" d="
M90.0544 191.677
L41.1429 207.569" style="fill:none;stroke:#808080;stroke-width:4.279304472562425;"/>
    <path clip-path="url(#pb303bd5eea)" d="
M218.106 118.286
L236.789 144" style="fill:none;stroke:#808080;stroke-width:4.3126664204347245;"/>
    <path clip-path="url(#pb303bd5eea)" d="
M71.3718 70.6088
L41.1429 80.4308" style="fill:none;stroke:#808080;stroke-width:3.221022544695407;"/>
    <path clip-path="url(#pb303bd5eea)" d="
M162.059 195.429
L162.059 246.857" style="fill:none;stroke:#808080;stroke-width:2.1937413139719952;"/>
    <path clip-path="url(#pb303bd5eea)" d="
M187.877 128.108
L236.789 144" style="fill:none;stroke:#808080;stroke-width:5.52745219787326;"/>
    <path clip-path="url(#pb303bd5eea)" d="
M131.83 50.9648
L162.059 41.1429" style="fill:none;stroke:#808080;stroke-width:5.946165404751833;"/>
    <path clip-path="url(#pb303bd5eea)" d="
M41.1429 175.785
L41.1429 207.569" style="fill:none;stroke:#808080;stroke-width:5.193231096576734;"/>
    <path clip-path="url(#pb303bd5eea)" d="
M131.83 205.251
L162.059 246.857" style="fill:none;stroke:#808080;stroke-width:3.120325995075756;"/>
    <path clip-path="url(#pb303bd5eea)" d="
M187.877 159.892
L236.789 144" style="fill:none;stroke:#808080;stroke-width:1.7795214047536727;"/>
    <path clip-path="url(#pb303bd5eea)" d="
M41.1429 112.215
L41.1429 80.4308" style="fill:none;stroke:#808080;stroke-width:7.645438957384317;"/>
    <path clip-path="url(#pb303bd5eea)" d="
M131.83 237.035
L162.059 246.857" style="fill:none;stroke:#808080;stroke-width:2.139734957429857;"/>
    <path clip-path="url(#pb303bd5eea)" d="
M218.106 169.714
L236.789 144" style="fill:none;stroke:#808080;stroke-width:5.396289909580839;"/>
    <path clip-path="url(#pb303bd5eea)" d="
M162.059 92.5714
L162.059 41.1429" style="fill:none;stroke:#808080;stroke-width:5.268289048169853;"/>
    <path clip-path="url(#pb303bd5eea)" d="
M71.3718 122.037
L41.1429 80.4308" style="fill:none;stroke:#808080;stroke-width:2.1337260924272075;"/>
    <path clip-path="url(#pb303bd5eea)" d="
M71.3718 217.391
L41.1429 207.569" style="fill:none;stroke:#808080;stroke-width:3.219310019381234;"/>
   </g>
   <g id="PathCollection_1">
    <defs>
     <path d="
M0 8.66025
C2.29673 8.66025 4.49969 7.74776 6.12372 6.12372
C7.74776 4.49969 8.66025 2.29673 8.66025 0
C8.66025 -2.29673 7.74776 -4.49969 6.12372 -6.12372
C4.49969 -7.74776 2.29673 -8.66025 0 -8.66025
C-2.29673 -8.66025 -4.49969 -7.74776 -6.12372 -6.12372
C-7.74776 -4.49969 -8.66025 -2.29673 -8.66025 0
C-8.66025 2.29673 -7.74776 4.49969 -6.12372 6.12372
C-4.49969 7.74776 -2.29673 8.66025 0 8.66025
z
" id="m4857a30cb9" style="stroke:#000000;"/>
    </defs>
    <g clip-path="url(#pb303bd5eea)">
     <use style="stroke:#000000;" x="236.788786207" xlink:href="#m4857a30cb9" y="144.0"/>
     <use style="stroke:#000000;" x="162.058691025" xlink:href="#m4857a30cb9" y="41.1428571429"/>
     <use style="stroke:#000000;" x="41.1428571429" xlink:href="#m4857a30cb9" y="80.4307880402"/>
     <use style="stroke:#000000;" x="41.1428700354" xlink:href="#m4857a30cb9" y="207.569224221"/>
     <use style="stroke:#000000;" x="162.058703286" xlink:href="#m4857a30cb9" y="246.857142857"/>
    </g>
   </g>
  </g>
 </g>
 <defs>
  <clipPath id="pb303bd5eea">
   <rect height="288.0" width="288.0" x="0.0" y="0.0"/>
  </clipPath>
 </defs>
</svg>
