<?xml version="1.0" encoding="utf-8" standalone="no"?>
<!DOCTYPE svg PUBLIC "-//W3C//DTD SVG 1.1//EN"
  "http://www.w3.org/Graphics/SVG/1.1/DTD/svg11.dtd">
<!-- Created with matplotlib (http://matplotlib.org/) -->
<svg height="288pt" version="1.1" viewBox="0 0 288 288" width="288pt" xmlns="http://www.w3.org/2000/svg" xmlns:xlink="http://www.w3.org/1999/xlink">
 <defs>
  <style type="text/css">
*{stroke-linecap:butt;stroke-linejoin:round;}
  </style>
 </defs>
 <g id="figure_1">
  <g id="patch_1">
   <path d="
M0 288
L288 288
L288 0
L0 0
z
" style="fill:#ffffff;"/>
  </g>
  <g id="axes_1">
   <g id="LineCollection_1">
    <defs>
     <path d="
M122.683 -138.315
L137.111 -69.303" id="C0_0_5d3df6b277"/>
     <path d="
M122.683 -138.315
L119.284 -177.985" id="C0_1_081f1baaa8"/>
     <path d="
M122.683 -138.315
L119.996 -127.501" id="C0_2_d9a1db84c5"/>
     <path d="
M122.683 -138.315
L157.402 -179.093" id="C0_3_42dfb8cda7"/>
     <path d="
M122.683 -138.315
L180.271 -175.574" id="C0_4_58c867a11e"/>
     <path d="
M122.683 -138.315
L136.358 -197.029" id="C0_5_13801d4245"/>
     <path d="
M122.683 -138.315
L162.067 -102.596" id="C0_6_ac82489b47"/>
     <path d="
M122.683 -138.315
L94.4011 -103.881" id="C0_7_84d7964079"/>
     <path d="
M122.683 -138.315
L168.242 -198.271" id="C0_8_79b645a2e3"/>
     <path d="
M122.683 -138.315
L87.2381 -117.189" id="C0_9_b164df1130"/>
     <path d="
M122.683 -138.315
L105.649 -205.159" id="C0_a_545248c813"/>
     <path d="
M122.683 -138.315
L139.95 -107.477" id="C0_b_80c9298e85"/>
     <path d="
M122.683 -138.315
L67.8047 -85.1078" id="C0_c_b829fe0cf9"/>
     <path d="
M122.683 -138.315
L104.337 -116.897" id="C0_d_be52d4a30e"/>
     <path d="
M122.683 -138.315
L88.8554 -171.52" id="C0_e_a94b9be2de"/>
     <path d="
M122.683 -138.315
L88.8376 -74.5644" id="C0_f_941b53cc19"/>
     <path d="
M48.4253 -148.22
L119.284 -177.985" id="C0_10_38ea5f1e16"/>
     <path d="
M48.4253 -148.22
L119.996 -127.501" id="C0_11_585678ebd4"/>
     <path d="
M108.403 -244.149
L128.498 -175.602" id="C0_12_724507fbf7"/>
     <path d="
M108.403 -244.149
L119.284 -177.985" id="C0_13_c8b3af82c3"/>
     <path d="
M108.403 -244.149
L81.8469 -198.751" id="C0_14_bb01aab8b9"/>
     <path d="
M108.403 -244.149
L131.979 -236.048" id="C0_15_ea237be2a8"/>
     <path d="
M119.284 -177.985
L119.996 -127.501" id="C0_16_d0bd63bc2f"/>
     <path d="
M119.284 -177.985
L157.402 -179.093" id="C0_17_8e490415e6"/>
     <path d="
M119.284 -177.985
L98.3924 -163.612" id="C0_18_7bd0c8b963"/>
     <path d="
M119.284 -177.985
L180.271 -175.574" id="C0_19_54d708c81f"/>
     <path d="
M119.284 -177.985
L159.649 -246.781" id="C0_1a_2f67f95942"/>
     <path d="
M119.284 -177.985
L162.067 -102.596" id="C0_1b_7f51f18866"/>
     <path d="
M119.284 -177.985
L43.5476 -210.306" id="C0_1c_b36a0715c9"/>
     <path d="
M119.284 -177.985
L105.649 -205.159" id="C0_1d_e14ba4debf"/>
     <path d="
M119.284 -177.985
L192.627 -138.4" id="C0_1e_3c7014c413"/>
     <path d="
M119.284 -177.985
L69.6724 -132.563" id="C0_1f_1fe4e98772"/>
     <path d="
M119.284 -177.985
L198.219 -203.314" id="C0_20_37df8b9966"/>
     <path d="
M119.284 -177.985
L139.95 -107.477" id="C0_21_65c84edf69"/>
     <path d="
M119.284 -177.985
L159.007 -211.232" id="C0_22_9a73801811"/>
     <path d="
M119.284 -177.985
L78.0996 -239.33" id="C0_23_a48e6c013d"/>
     <path d="
M119.284 -177.985
L41.1429 -171.791" id="C0_24_f4d26d437c"/>
     <path d="
M119.996 -127.501
L159.007 -211.232" id="C0_25_3e9d4bb3c8"/>
     <path d="
M119.996 -127.501
L157.402 -179.093" id="C0_26_ab5e51c564"/>
     <path d="
M119.996 -127.501
L98.3924 -163.612" id="C0_27_5685a6e60a"/>
     <path d="
M119.996 -127.501
L137.111 -69.303" id="C0_28_5603511563"/>
     <path d="
M119.996 -127.501
L162.067 -102.596" id="C0_29_c335b908f4"/>
     <path d="
M119.996 -127.501
L94.4011 -103.881" id="C0_2a_9ff677642e"/>
     <path d="
M119.996 -127.501
L87.2381 -117.189" id="C0_2b_86d406483d"/>
     <path d="
M119.996 -127.501
L69.6724 -132.563" id="C0_2c_97b6a83a21"/>
     <path d="
M119.996 -127.501
L139.95 -107.477" id="C0_2d_ac4db09297"/>
     <path d="
M119.996 -127.501
L175.635 -82.2555" id="C0_2e_390076c581"/>
     <path d="
M119.996 -127.501
L152.393 -93.5572" id="C0_2f_eefa19e765"/>
     <path d="
M119.996 -127.501
L198.3 -119.664" id="C0_30_72c518ec93"/>
     <path d="
M119.996 -127.501
L170.853 -145.405" id="C0_31_26682a96d9"/>
     <path d="
M119.996 -127.501
L77.3178 -58.3402" id="C0_32_c632c844b1"/>
     <path d="
M119.996 -127.501
L88.8554 -171.52" id="C0_33_8b99201acf"/>
     <path d="
M119.996 -127.501
L88.8376 -74.5644" id="C0_34_29efda2a6f"/>
     <path d="
M119.996 -127.501
L58.8304 -191.148" id="C0_35_ef61925473"/>
     <path d="
M157.402 -179.093
L98.3924 -163.612" id="C0_36_c2a6323c09"/>
     <path d="
M157.402 -179.093
L180.271 -175.574" id="C0_37_7aa3b03630"/>
     <path d="
M157.402 -179.093
L159.649 -246.781" id="C0_38_8565b9eaec"/>
     <path d="
M157.402 -179.093
L136.358 -197.029" id="C0_39_8f2a521cce"/>
     <path d="
M157.402 -179.093
L168.242 -198.271" id="C0_3a_275ff00857"/>
     <path d="
M157.402 -179.093
L198.219 -203.314" id="C0_3b_90d9e92c2f"/>
     <path d="
M157.402 -179.093
L198.3 -119.664" id="C0_3c_fec59f0d25"/>
     <path d="
M157.402 -179.093
L81.8469 -198.751" id="C0_3d_01d5d4e4f0"/>
     <path d="
M157.402 -179.093
L189.294 -215.963" id="C0_3e_c5b4da81a6"/>
     <path d="
M157.402 -179.093
L230.477 -190.557" id="C0_3f_9a76a8712d"/>
     <path d="
M157.402 -179.093
L161.61 -121.261" id="C0_40_cd701a1c0e"/>
     <path d="
M157.402 -179.093
L130.462 -219.951" id="C0_41_71c4ef745d"/>
     <path d="
M98.3924 -163.612
L41.1429 -171.791" id="C0_42_656a9a77d9"/>
     <path d="
M98.3924 -163.612
L128.498 -175.602" id="C0_43_f8571dd049"/>
     <path d="
M98.3924 -163.612
L136.358 -197.029" id="C0_44_5d1c34c686"/>
     <path d="
M98.3924 -163.612
L58.8304 -191.148" id="C0_45_f895a61887"/>
     <path d="
M98.3924 -163.612
L43.5476 -210.306" id="C0_46_b0441c0a85"/>
     <path d="
M98.3924 -163.612
L168.242 -198.271" id="C0_47_e34f71d264"/>
     <path d="
M98.3924 -163.612
L63.3073 -160.521" id="C0_48_7bfb1f8eb5"/>
     <path d="
M98.3924 -163.612
L131.993 -143.338" id="C0_49_a503178716"/>
     <path d="
M98.3924 -163.612
L67.8047 -85.1078" id="C0_4a_8aae13f66a"/>
     <path d="
M98.3924 -163.612
L104.337 -116.897" id="C0_4b_b03b9d0aaa"/>
     <path d="
M180.271 -175.574
L128.498 -175.602" id="C0_4c_66e0ad0686"/>
     <path d="
M180.271 -175.574
L204.704 -246.857" id="C0_4d_1c921a7976"/>
     <path d="
M180.271 -175.574
L198.3 -119.664" id="C0_4e_4217ef621f"/>
     <path d="
M180.271 -175.574
L170.853 -145.405" id="C0_4f_f48095dea7"/>
     <path d="
M128.498 -175.602
L94.4011 -103.881" id="C0_50_ac2379e445"/>
     <path d="
M128.498 -175.602
L105.649 -205.159" id="C0_51_1027dd81ec"/>
     <path d="
M128.498 -175.602
L63.3073 -160.521" id="C0_52_2a07f95a61"/>
     <path d="
M128.498 -175.602
L131.993 -143.338" id="C0_53_4e447418b9"/>
     <path d="
M128.498 -175.602
L152.393 -93.5572" id="C0_54_e22f7a1cc3"/>
     <path d="
M128.498 -175.602
L81.8469 -198.751" id="C0_55_7b7b432431"/>
     <path d="
M128.498 -175.602
L189.294 -215.963" id="C0_56_88ccd02d25"/>
     <path d="
M128.498 -175.602
L131.979 -236.048" id="C0_57_6cffaf93c1"/>
     <path d="
M136.358 -197.029
L159.007 -211.232" id="C0_58_8a572dd790"/>
     <path d="
M136.358 -197.029
L88.8554 -171.52" id="C0_59_57c3612f9b"/>
     <path d="
M136.358 -197.029
L189.294 -215.963" id="C0_5a_68ce7ce9c4"/>
     <path d="
M136.358 -197.029
L130.462 -219.951" id="C0_5b_7bc1ba4155"/>
     <path d="
M162.067 -102.596
L208.545 -59.2558" id="C0_5c_ff641db4b3"/>
     <path d="
M162.067 -102.596
L137.111 -69.303" id="C0_5d_37b62f0841"/>
     <path d="
M94.4011 -103.881
L87.2381 -117.189" id="C0_5e_4f62bd53d8"/>
     <path d="
M94.4011 -103.881
L45.8611 -110.89" id="C0_5f_ea142e3421"/>
     <path d="
M94.4011 -103.881
L161.61 -121.261" id="C0_60_2b29d22f74"/>
     <path d="
M94.4011 -103.881
L77.3178 -58.3402" id="C0_61_0919f9f8c0"/>
     <path d="
M94.4011 -103.881
L88.8376 -74.5644" id="C0_62_2995acbb21"/>
     <path d="
M94.4011 -103.881
L42.3206 -129.794" id="C0_63_2009096d58"/>
     <path d="
M168.242 -198.271
L198.219 -203.314" id="C0_64_86c80001f5"/>
     <path d="
M168.242 -198.271
L204.704 -246.857" id="C0_65_3f0c0c992f"/>
     <path d="
M87.2381 -117.189
L95.7161 -41.1429" id="C0_66_e42b8c4137"/>
     <path d="
M87.2381 -117.189
L64.138 -214.436" id="C0_67_e175771357"/>
     <path d="
M87.2381 -117.189
L69.6724 -132.563" id="C0_68_b50a2561db"/>
     <path d="
M87.2381 -117.189
L63.3073 -160.521" id="C0_69_3baa1045c6"/>
     <path d="
M87.2381 -117.189
L131.993 -143.338" id="C0_6a_f759d01d99"/>
     <path d="
M87.2381 -117.189
L152.393 -93.5572" id="C0_6b_8430ad6a85"/>
     <path d="
M87.2381 -117.189
L77.3178 -58.3402" id="C0_6c_79b665be9b"/>
     <path d="
M131.993 -143.338
L45.8611 -110.89" id="C0_6d_37a5202d26"/>
     <path d="
M131.993 -143.338
L161.61 -121.261" id="C0_6e_35bd8be126"/>
     <path d="
M131.993 -143.338
L205.722 -86.7711" id="C0_6f_94c0740a51"/>
     <path d="
M131.993 -143.338
L131.979 -236.048" id="C0_70_34e0b30c37"/>
     <path d="
M152.393 -93.5572
L192.627 -138.4" id="C0_71_d06b4673b8"/>
     <path d="
M152.393 -93.5572
L95.7161 -41.1429" id="C0_72_59d8a080d3"/>
     <path d="
M152.393 -93.5572
L205.722 -86.7711" id="C0_73_e9654c79f0"/>
     <path d="
M152.393 -93.5572
L170.853 -145.405" id="C0_74_c54c8da117"/>
     <path d="
M152.393 -93.5572
L208.545 -59.2558" id="C0_75_9b246529a0"/>
     <path d="
M198.3 -119.664
L208.545 -59.2558" id="C0_76_ece6e2051c"/>
     <path d="
M198.3 -119.664
L205.722 -86.7711" id="C0_77_7a4a0945eb"/>
     <path d="
M81.8469 -198.751
L78.0996 -239.33" id="C0_78_121654e234"/>
     <path d="
M81.8469 -198.751
L41.1429 -171.791" id="C0_79_28784d195a"/>
     <path d="
M81.8469 -198.751
L42.3206 -129.794" id="C0_7a_93239845f9"/>
     <path d="
M170.853 -145.405
L192.627 -138.4" id="C0_7b_09892a69c3"/>
     <path d="
M170.853 -145.405
L175.635 -82.2555" id="C0_7c_b1c3d56b50"/>
     <path d="
M170.853 -145.405
L104.337 -116.897" id="C0_7d_3a25aa3f30"/>
     <path d="
M170.853 -145.405
L230.477 -190.557" id="C0_7e_f741d802fa"/>
     <path d="
M170.853 -145.405
L130.462 -219.951" id="C0_7f_89b2907db5"/>
     <path d="
M104.337 -116.897
L42.3206 -129.794" id="C0_80_65745666ee"/>
     <path d="
M189.294 -215.963
L230.477 -190.557" id="C0_81_6ac667048b"/>
     <path d="
M88.8376 -74.5644
L67.8047 -85.1078" id="C0_82_f994ec6cea"/>
     <path d="
M131.979 -236.048
L78.0996 -239.33" id="C0_83_4f31c887f7"/>
     <path d="
M131.979 -236.048
L159.649 -246.781" id="C0_84_193e9a0db9"/>
     <path d="
M130.462 -219.951
L64.138 -214.436" id="C0_85_9a0522b189"/>
     <path d="
M78.0996 -239.33
L64.138 -214.436" id="C0_86_6d5aa94fed"/>
     <path d="
M78.0996 -239.33
L58.8304 -191.148" id="C0_87_7e08bf833d"/>
     <path d="
M67.8047 -85.1078
L95.7161 -41.1429" id="C0_88_f117a723a8"/>
     <path d="
M159.007 -211.232
L204.704 -246.857" id="C0_89_e4118e44d6"/>
     <path d="
M41.1429 -171.791
L45.8611 -110.89" id="C0_8a_a449315e74"/>
     <path d="
M58.8304 -191.148
L43.5476 -210.306" id="C0_8b_b8c2494e63"/>
     <path d="
M139.95 -107.477
L175.635 -82.2555" id="C0_8c_b8e297d602"/>
    </defs>
    <g clip-path="url(#pb303bd5eea)">
     <use style="fill:none;stroke:#000000;" x="0.0" xlink:href="#C0_0_5d3df6b277" y="288.0"/>
    </g>
    <g clip-path="url(#pb303bd5eea)">
     <use style="fill:none;stroke:#000000;" x="0.0" xlink:href="#C0_1_081f1baaa8" y="288.0"/>
    </g>
    <g clip-path="url(#pb303bd5eea)">
     <use style="fill:none;stroke:#000000;" x="0.0" xlink:href="#C0_2_d9a1db84c5" y="288.0"/>
    </g>
    <g clip-path="url(#pb303bd5eea)">
     <use style="fill:none;stroke:#000000;" x="0.0" xlink:href="#C0_3_42dfb8cda7" y="288.0"/>
    </g>
    <g clip-path="url(#pb303bd5eea)">
     <use style="fill:none;stroke:#000000;" x="0.0" xlink:href="#C0_4_58c867a11e" y="288.0"/>
    </g>
    <g clip-path="url(#pb303bd5eea)">
     <use style="fill:none;stroke:#000000;" x="0.0" xlink:href="#C0_5_13801d4245" y="288.0"/>
    </g>
    <g clip-path="url(#pb303bd5eea)">
     <use style="fill:none;stroke:#000000;" x="0.0" xlink:href="#C0_6_ac82489b47" y="288.0"/>
    </g>
    <g clip-path="url(#pb303bd5eea)">
     <use style="fill:none;stroke:#000000;" x="0.0" xlink:href="#C0_7_84d7964079" y="288.0"/>
    </g>
    <g clip-path="url(#pb303bd5eea)">
     <use style="fill:none;stroke:#000000;" x="0.0" xlink:href="#C0_8_79b645a2e3" y="288.0"/>
    </g>
    <g clip-path="url(#pb303bd5eea)">
     <use style="fill:none;stroke:#000000;" x="0.0" xlink:href="#C0_9_b164df1130" y="288.0"/>
    </g>
    <g clip-path="url(#pb303bd5eea)">
     <use style="fill:none;stroke:#000000;" x="0.0" xlink:href="#C0_a_545248c813" y="288.0"/>
    </g>
    <g clip-path="url(#pb303bd5eea)">
     <use style="fill:none;stroke:#000000;" x="0.0" xlink:href="#C0_b_80c9298e85" y="288.0"/>
    </g>
    <g clip-path="url(#pb303bd5eea)">
     <use style="fill:none;stroke:#000000;" x="0.0" xlink:href="#C0_c_b829fe0cf9" y="288.0"/>
    </g>
    <g clip-path="url(#pb303bd5eea)">
     <use style="fill:none;stroke:#000000;" x="0.0" xlink:href="#C0_d_be52d4a30e" y="288.0"/>
    </g>
    <g clip-path="url(#pb303bd5eea)">
     <use style="fill:none;stroke:#000000;" x="0.0" xlink:href="#C0_e_a94b9be2de" y="288.0"/>
    </g>
    <g clip-path="url(#pb303bd5eea)">
     <use style="fill:none;stroke:#000000;" x="0.0" xlink:href="#C0_f_941b53cc19" y="288.0"/>
    </g>
    <g clip-path="url(#pb303bd5eea)">
     <use style="fill:none;stroke:#000000;" x="0.0" xlink:href="#C0_10_38ea5f1e16" y="288.0"/>
    </g>
    <g clip-path="url(#pb303bd5eea)">
     <use style="fill:none;stroke:#000000;" x="0.0" xlink:href="#C0_11_585678ebd4" y="288.0"/>
    </g>
    <g clip-path="url(#pb303bd5eea)">
     <use style="fill:none;stroke:#000000;" x="0.0" xlink:href="#C0_12_724507fbf7" y="288.0"/>
    </g>
    <g clip-path="url(#pb303bd5eea)">
     <use style="fill:none;stroke:#000000;" x="0.0" xlink:href="#C0_13_c8b3af82c3" y="288.0"/>
    </g>
    <g clip-path="url(#pb303bd5eea)">
     <use style="fill:none;stroke:#000000;" x="0.0" xlink:href="#C0_14_bb01aab8b9" y="288.0"/>
    </g>
    <g clip-path="url(#pb303bd5eea)">
     <use style="fill:none;stroke:#000000;" x="0.0" xlink:href="#C0_15_ea237be2a8" y="288.0"/>
    </g>
    <g clip-path="url(#pb303bd5eea)">
     <use style="fill:none;stroke:#000000;" x="0.0" xlink:href="#C0_16_d0bd63bc2f" y="288.0"/>
    </g>
    <g clip-path="url(#pb303bd5eea)">
     <use style="fill:none;stroke:#000000;" x="0.0" xlink:href="#C0_17_8e490415e6" y="288.0"/>
    </g>
    <g clip-path="url(#pb303bd5eea)">
     <use style="fill:none;stroke:#000000;" x="0.0" xlink:href="#C0_18_7bd0c8b963" y="288.0"/>
    </g>
    <g clip-path="url(#pb303bd5eea)">
     <use style="fill:none;stroke:#000000;" x="0.0" xlink:href="#C0_19_54d708c81f" y="288.0"/>
    </g>
    <g clip-path="url(#pb303bd5eea)">
     <use style="fill:none;stroke:#000000;" x="0.0" xlink:href="#C0_1a_2f67f95942" y="288.0"/>
    </g>
    <g clip-path="url(#pb303bd5eea)">
     <use style="fill:none;stroke:#000000;" x="0.0" xlink:href="#C0_1b_7f51f18866" y="288.0"/>
    </g>
    <g clip-path="url(#pb303bd5eea)">
     <use style="fill:none;stroke:#000000;" x="0.0" xlink:href="#C0_1c_b36a0715c9" y="288.0"/>
    </g>
    <g clip-path="url(#pb303bd5eea)">
     <use style="fill:none;stroke:#000000;" x="0.0" xlink:href="#C0_1d_e14ba4debf" y="288.0"/>
    </g>
    <g clip-path="url(#pb303bd5eea)">
     <use style="fill:none;stroke:#000000;" x="0.0" xlink:href="#C0_1e_3c7014c413" y="288.0"/>
    </g>
    <g clip-path="url(#pb303bd5eea)">
     <use style="fill:none;stroke:#000000;" x="0.0" xlink:href="#C0_1f_1fe4e98772" y="288.0"/>
    </g>
    <g clip-path="url(#pb303bd5eea)">
     <use style="fill:none;stroke:#000000;" x="0.0" xlink:href="#C0_20_37df8b9966" y="288.0"/>
    </g>
    <g clip-path="url(#pb303bd5eea)">
     <use style="fill:none;stroke:#000000;" x="0.0" xlink:href="#C0_21_65c84edf69" y="288.0"/>
    </g>
    <g clip-path="url(#pb303bd5eea)">
     <use style="fill:none;stroke:#000000;" x="0.0" xlink:href="#C0_22_9a73801811" y="288.0"/>
    </g>
    <g clip-path="url(#pb303bd5eea)">
     <use style="fill:none;stroke:#000000;" x="0.0" xlink:href="#C0_23_a48e6c013d" y="288.0"/>
    </g>
    <g clip-path="url(#pb303bd5eea)">
     <use style="fill:none;stroke:#000000;" x="0.0" xlink:href="#C0_24_f4d26d437c" y="288.0"/>
    </g>
    <g clip-path="url(#pb303bd5eea)">
     <use style="fill:none;stroke:#000000;" x="0.0" xlink:href="#C0_25_3e9d4bb3c8" y="288.0"/>
    </g>
    <g clip-path="url(#pb303bd5eea)">
     <use style="fill:none;stroke:#000000;" x="0.0" xlink:href="#C0_26_ab5e51c564" y="288.0"/>
    </g>
    <g clip-path="url(#pb303bd5eea)">
     <use style="fill:none;stroke:#000000;" x="0.0" xlink:href="#C0_27_5685a6e60a" y="288.0"/>
    </g>
    <g clip-path="url(#pb303bd5eea)">
     <use style="fill:none;stroke:#000000;" x="0.0" xlink:href="#C0_28_5603511563" y="288.0"/>
    </g>
    <g clip-path="url(#pb303bd5eea)">
     <use style="fill:none;stroke:#000000;" x="0.0" xlink:href="#C0_29_c335b908f4" y="288.0"/>
    </g>
    <g clip-path="url(#pb303bd5eea)">
     <use style="fill:none;stroke:#000000;" x="0.0" xlink:href="#C0_2a_9ff677642e" y="288.0"/>
    </g>
    <g clip-path="url(#pb303bd5eea)">
     <use style="fill:none;stroke:#000000;" x="0.0" xlink:href="#C0_2b_86d406483d" y="288.0"/>
    </g>
    <g clip-path="url(#pb303bd5eea)">
     <use style="fill:none;stroke:#000000;" x="0.0" xlink:href="#C0_2c_97b6a83a21" y="288.0"/>
    </g>
    <g clip-path="url(#pb303bd5eea)">
     <use style="fill:none;stroke:#000000;" x="0.0" xlink:href="#C0_2d_ac4db09297" y="288.0"/>
    </g>
    <g clip-path="url(#pb303bd5eea)">
     <use style="fill:none;stroke:#000000;" x="0.0" xlink:href="#C0_2e_390076c581" y="288.0"/>
    </g>
    <g clip-path="url(#pb303bd5eea)">
     <use style="fill:none;stroke:#000000;" x="0.0" xlink:href="#C0_2f_eefa19e765" y="288.0"/>
    </g>
    <g clip-path="url(#pb303bd5eea)">
     <use style="fill:none;stroke:#000000;" x="0.0" xlink:href="#C0_30_72c518ec93" y="288.0"/>
    </g>
    <g clip-path="url(#pb303bd5eea)">
     <use style="fill:none;stroke:#000000;" x="0.0" xlink:href="#C0_31_26682a96d9" y="288.0"/>
    </g>
    <g clip-path="url(#pb303bd5eea)">
     <use style="fill:none;stroke:#000000;" x="0.0" xlink:href="#C0_32_c632c844b1" y="288.0"/>
    </g>
    <g clip-path="url(#pb303bd5eea)">
     <use style="fill:none;stroke:#000000;" x="0.0" xlink:href="#C0_33_8b99201acf" y="288.0"/>
    </g>
    <g clip-path="url(#pb303bd5eea)">
     <use style="fill:none;stroke:#000000;" x="0.0" xlink:href="#C0_34_29efda2a6f" y="288.0"/>
    </g>
    <g clip-path="url(#pb303bd5eea)">
     <use style="fill:none;stroke:#000000;" x="0.0" xlink:href="#C0_35_ef61925473" y="288.0"/>
    </g>
    <g clip-path="url(#pb303bd5eea)">
     <use style="fill:none;stroke:#000000;" x="0.0" xlink:href="#C0_36_c2a6323c09" y="288.0"/>
    </g>
    <g clip-path="url(#pb303bd5eea)">
     <use style="fill:none;stroke:#000000;" x="0.0" xlink:href="#C0_37_7aa3b03630" y="288.0"/>
    </g>
    <g clip-path="url(#pb303bd5eea)">
     <use style="fill:none;stroke:#000000;" x="0.0" xlink:href="#C0_38_8565b9eaec" y="288.0"/>
    </g>
    <g clip-path="url(#pb303bd5eea)">
     <use style="fill:none;stroke:#000000;" x="0.0" xlink:href="#C0_39_8f2a521cce" y="288.0"/>
    </g>
    <g clip-path="url(#pb303bd5eea)">
     <use style="fill:none;stroke:#000000;" x="0.0" xlink:href="#C0_3a_275ff00857" y="288.0"/>
    </g>
    <g clip-path="url(#pb303bd5eea)">
     <use style="fill:none;stroke:#000000;" x="0.0" xlink:href="#C0_3b_90d9e92c2f" y="288.0"/>
    </g>
    <g clip-path="url(#pb303bd5eea)">
     <use style="fill:none;stroke:#000000;" x="0.0" xlink:href="#C0_3c_fec59f0d25" y="288.0"/>
    </g>
    <g clip-path="url(#pb303bd5eea)">
     <use style="fill:none;stroke:#000000;" x="0.0" xlink:href="#C0_3d_01d5d4e4f0" y="288.0"/>
    </g>
    <g clip-path="url(#pb303bd5eea)">
     <use style="fill:none;stroke:#000000;" x="0.0" xlink:href="#C0_3e_c5b4da81a6" y="288.0"/>
    </g>
    <g clip-path="url(#pb303bd5eea)">
     <use style="fill:none;stroke:#000000;" x="0.0" xlink:href="#C0_3f_9a76a8712d" y="288.0"/>
    </g>
    <g clip-path="url(#pb303bd5eea)">
     <use style="fill:none;stroke:#000000;" x="0.0" xlink:href="#C0_40_cd701a1c0e" y="288.0"/>
    </g>
    <g clip-path="url(#pb303bd5eea)">
     <use style="fill:none;stroke:#000000;" x="0.0" xlink:href="#C0_41_71c4ef745d" y="288.0"/>
    </g>
    <g clip-path="url(#pb303bd5eea)">
     <use style="fill:none;stroke:#000000;" x="0.0" xlink:href="#C0_42_656a9a77d9" y="288.0"/>
    </g>
    <g clip-path="url(#pb303bd5eea)">
     <use style="fill:none;stroke:#000000;" x="0.0" xlink:href="#C0_43_f8571dd049" y="288.0"/>
    </g>
    <g clip-path="url(#pb303bd5eea)">
     <use style="fill:none;stroke:#000000;" x="0.0" xlink:href="#C0_44_5d1c34c686" y="288.0"/>
    </g>
    <g clip-path="url(#pb303bd5eea)">
     <use style="fill:none;stroke:#000000;" x="0.0" xlink:href="#C0_45_f895a61887" y="288.0"/>
    </g>
    <g clip-path="url(#pb303bd5eea)">
     <use style="fill:none;stroke:#000000;" x="0.0" xlink:href="#C0_46_b0441c0a85" y="288.0"/>
    </g>
    <g clip-path="url(#pb303bd5eea)">
     <use style="fill:none;stroke:#000000;" x="0.0" xlink:href="#C0_47_e34f71d264" y="288.0"/>
    </g>
    <g clip-path="url(#pb303bd5eea)">
     <use style="fill:none;stroke:#000000;" x="0.0" xlink:href="#C0_48_7bfb1f8eb5" y="288.0"/>
    </g>
    <g clip-path="url(#pb303bd5eea)">
     <use style="fill:none;stroke:#000000;" x="0.0" xlink:href="#C0_49_a503178716" y="288.0"/>
    </g>
    <g clip-path="url(#pb303bd5eea)">
     <use style="fill:none;stroke:#000000;" x="0.0" xlink:href="#C0_4a_8aae13f66a" y="288.0"/>
    </g>
    <g clip-path="url(#pb303bd5eea)">
     <use style="fill:none;stroke:#000000;" x="0.0" xlink:href="#C0_4b_b03b9d0aaa" y="288.0"/>
    </g>
    <g clip-path="url(#pb303bd5eea)">
     <use style="fill:none;stroke:#000000;" x="0.0" xlink:href="#C0_4c_66e0ad0686" y="288.0"/>
    </g>
    <g clip-path="url(#pb303bd5eea)">
     <use style="fill:none;stroke:#000000;" x="0.0" xlink:href="#C0_4d_1c921a7976" y="288.0"/>
    </g>
    <g clip-path="url(#pb303bd5eea)">
     <use style="fill:none;stroke:#000000;" x="0.0" xlink:href="#C0_4e_4217ef621f" y="288.0"/>
    </g>
    <g clip-path="url(#pb303bd5eea)">
     <use style="fill:none;stroke:#000000;" x="0.0" xlink:href="#C0_4f_f48095dea7" y="288.0"/>
    </g>
    <g clip-path="url(#pb303bd5eea)">
     <use style="fill:none;stroke:#000000;" x="0.0" xlink:href="#C0_50_ac2379e445" y="288.0"/>
    </g>
    <g clip-path="url(#pb303bd5eea)">
     <use style="fill:none;stroke:#000000;" x="0.0" xlink:href="#C0_51_1027dd81ec" y="288.0"/>
    </g>
    <g clip-path="url(#pb303bd5eea)">
     <use style="fill:none;stroke:#000000;" x="0.0" xlink:href="#C0_52_2a07f95a61" y="288.0"/>
    </g>
    <g clip-path="url(#pb303bd5eea)">
     <use style="fill:none;stroke:#000000;" x="0.0" xlink:href="#C0_53_4e447418b9" y="288.0"/>
    </g>
    <g clip-path="url(#pb303bd5eea)">
     <use style="fill:none;stroke:#000000;" x="0.0" xlink:href="#C0_54_e22f7a1cc3" y="288.0"/>
    </g>
    <g clip-path="url(#pb303bd5eea)">
     <use style="fill:none;stroke:#000000;" x="0.0" xlink:href="#C0_55_7b7b432431" y="288.0"/>
    </g>
    <g clip-path="url(#pb303bd5eea)">
     <use style="fill:none;stroke:#000000;" x="0.0" xlink:href="#C0_56_88ccd02d25" y="288.0"/>
    </g>
    <g clip-path="url(#pb303bd5eea)">
     <use style="fill:none;stroke:#000000;" x="0.0" xlink:href="#C0_57_6cffaf93c1" y="288.0"/>
    </g>
    <g clip-path="url(#pb303bd5eea)">
     <use style="fill:none;stroke:#000000;" x="0.0" xlink:href="#C0_58_8a572dd790" y="288.0"/>
    </g>
    <g clip-path="url(#pb303bd5eea)">
     <use style="fill:none;stroke:#000000;" x="0.0" xlink:href="#C0_59_57c3612f9b" y="288.0"/>
    </g>
    <g clip-path="url(#pb303bd5eea)">
     <use style="fill:none;stroke:#000000;" x="0.0" xlink:href="#C0_5a_68ce7ce9c4" y="288.0"/>
    </g>
    <g clip-path="url(#pb303bd5eea)">
     <use style="fill:none;stroke:#000000;" x="0.0" xlink:href="#C0_5b_7bc1ba4155" y="288.0"/>
    </g>
    <g clip-path="url(#pb303bd5eea)">
     <use style="fill:none;stroke:#000000;" x="0.0" xlink:href="#C0_5c_ff641db4b3" y="288.0"/>
    </g>
    <g clip-path="url(#pb303bd5eea)">
     <use style="fill:none;stroke:#000000;" x="0.0" xlink:href="#C0_5d_37b62f0841" y="288.0"/>
    </g>
    <g clip-path="url(#pb303bd5eea)">
     <use style="fill:none;stroke:#000000;" x="0.0" xlink:href="#C0_5e_4f62bd53d8" y="288.0"/>
    </g>
    <g clip-path="url(#pb303bd5eea)">
     <use style="fill:none;stroke:#000000;" x="0.0" xlink:href="#C0_5f_ea142e3421" y="288.0"/>
    </g>
    <g clip-path="url(#pb303bd5eea)">
     <use style="fill:none;stroke:#000000;" x="0.0" xlink:href="#C0_60_2b29d22f74" y="288.0"/>
    </g>
    <g clip-path="url(#pb303bd5eea)">
     <use style="fill:none;stroke:#000000;" x="0.0" xlink:href="#C0_61_0919f9f8c0" y="288.0"/>
    </g>
    <g clip-path="url(#pb303bd5eea)">
     <use style="fill:none;stroke:#000000;" x="0.0" xlink:href="#C0_62_2995acbb21" y="288.0"/>
    </g>
    <g clip-path="url(#pb303bd5eea)">
     <use style="fill:none;stroke:#000000;" x="0.0" xlink:href="#C0_63_2009096d58" y="288.0"/>
    </g>
    <g clip-path="url(#pb303bd5eea)">
     <use style="fill:none;stroke:#000000;" x="0.0" xlink:href="#C0_64_86c80001f5" y="288.0"/>
    </g>
    <g clip-path="url(#pb303bd5eea)">
     <use style="fill:none;stroke:#000000;" x="0.0" xlink:href="#C0_65_3f0c0c992f" y="288.0"/>
    </g>
    <g clip-path="url(#pb303bd5eea)">
     <use style="fill:none;stroke:#000000;" x="0.0" xlink:href="#C0_66_e42b8c4137" y="288.0"/>
    </g>
    <g clip-path="url(#pb303bd5eea)">
     <use style="fill:none;stroke:#000000;" x="0.0" xlink:href="#C0_67_e175771357" y="288.0"/>
    </g>
    <g clip-path="url(#pb303bd5eea)">
     <use style="fill:none;stroke:#000000;" x="0.0" xlink:href="#C0_68_b50a2561db" y="288.0"/>
    </g>
    <g clip-path="url(#pb303bd5eea)">
     <use style="fill:none;stroke:#000000;" x="0.0" xlink:href="#C0_69_3baa1045c6" y="288.0"/>
    </g>
    <g clip-path="url(#pb303bd5eea)">
     <use style="fill:none;stroke:#000000;" x="0.0" xlink:href="#C0_6a_f759d01d99" y="288.0"/>
    </g>
    <g clip-path="url(#pb303bd5eea)">
     <use style="fill:none;stroke:#000000;" x="0.0" xlink:href="#C0_6b_8430ad6a85" y="288.0"/>
    </g>
    <g clip-path="url(#pb303bd5eea)">
     <use style="fill:none;stroke:#000000;" x="0.0" xlink:href="#C0_6c_79b665be9b" y="288.0"/>
    </g>
    <g clip-path="url(#pb303bd5eea)">
     <use style="fill:none;stroke:#000000;" x="0.0" xlink:href="#C0_6d_37a5202d26" y="288.0"/>
    </g>
    <g clip-path="url(#pb303bd5eea)">
     <use style="fill:none;stroke:#000000;" x="0.0" xlink:href="#C0_6e_35bd8be126" y="288.0"/>
    </g>
    <g clip-path="url(#pb303bd5eea)">
     <use style="fill:none;stroke:#000000;" x="0.0" xlink:href="#C0_6f_94c0740a51" y="288.0"/>
    </g>
    <g clip-path="url(#pb303bd5eea)">
     <use style="fill:none;stroke:#000000;" x="0.0" xlink:href="#C0_70_34e0b30c37" y="288.0"/>
    </g>
    <g clip-path="url(#pb303bd5eea)">
     <use style="fill:none;stroke:#000000;" x="0.0" xlink:href="#C0_71_d06b4673b8" y="288.0"/>
    </g>
    <g clip-path="url(#pb303bd5eea)">
     <use style="fill:none;stroke:#000000;" x="0.0" xlink:href="#C0_72_59d8a080d3" y="288.0"/>
    </g>
    <g clip-path="url(#pb303bd5eea)">
     <use style="fill:none;stroke:#000000;" x="0.0" xlink:href="#C0_73_e9654c79f0" y="288.0"/>
    </g>
    <g clip-path="url(#pb303bd5eea)">
     <use style="fill:none;stroke:#000000;" x="0.0" xlink:href="#C0_74_c54c8da117" y="288.0"/>
    </g>
    <g clip-path="url(#pb303bd5eea)">
     <use style="fill:none;stroke:#000000;" x="0.0" xlink:href="#C0_75_9b246529a0" y="288.0"/>
    </g>
    <g clip-path="url(#pb303bd5eea)">
     <use style="fill:none;stroke:#000000;" x="0.0" xlink:href="#C0_76_ece6e2051c" y="288.0"/>
    </g>
    <g clip-path="url(#pb303bd5eea)">
     <use style="fill:none;stroke:#000000;" x="0.0" xlink:href="#C0_77_7a4a0945eb" y="288.0"/>
    </g>
    <g clip-path="url(#pb303bd5eea)">
     <use style="fill:none;stroke:#000000;" x="0.0" xlink:href="#C0_78_121654e234" y="288.0"/>
    </g>
    <g clip-path="url(#pb303bd5eea)">
     <use style="fill:none;stroke:#000000;" x="0.0" xlink:href="#C0_79_28784d195a" y="288.0"/>
    </g>
    <g clip-path="url(#pb303bd5eea)">
     <use style="fill:none;stroke:#000000;" x="0.0" xlink:href="#C0_7a_93239845f9" y="288.0"/>
    </g>
    <g clip-path="url(#pb303bd5eea)">
     <use style="fill:none;stroke:#000000;" x="0.0" xlink:href="#C0_7b_09892a69c3" y="288.0"/>
    </g>
    <g clip-path="url(#pb303bd5eea)">
     <use style="fill:none;stroke:#000000;" x="0.0" xlink:href="#C0_7c_b1c3d56b50" y="288.0"/>
    </g>
    <g clip-path="url(#pb303bd5eea)">
     <use style="fill:none;stroke:#000000;" x="0.0" xlink:href="#C0_7d_3a25aa3f30" y="288.0"/>
    </g>
    <g clip-path="url(#pb303bd5eea)">
     <use style="fill:none;stroke:#000000;" x="0.0" xlink:href="#C0_7e_f741d802fa" y="288.0"/>
    </g>
    <g clip-path="url(#pb303bd5eea)">
     <use style="fill:none;stroke:#000000;" x="0.0" xlink:href="#C0_7f_89b2907db5" y="288.0"/>
    </g>
    <g clip-path="url(#pb303bd5eea)">
     <use style="fill:none;stroke:#000000;" x="0.0" xlink:href="#C0_80_65745666ee" y="288.0"/>
    </g>
    <g clip-path="url(#pb303bd5eea)">
     <use style="fill:none;stroke:#000000;" x="0.0" xlink:href="#C0_81_6ac667048b" y="288.0"/>
    </g>
    <g clip-path="url(#pb303bd5eea)">
     <use style="fill:none;stroke:#000000;" x="0.0" xlink:href="#C0_82_f994ec6cea" y="288.0"/>
    </g>
    <g clip-path="url(#pb303bd5eea)">
     <use style="fill:none;stroke:#000000;" x="0.0" xlink:href="#C0_83_4f31c887f7" y="288.0"/>
    </g>
    <g clip-path="url(#pb303bd5eea)">
     <use style="fill:none;stroke:#000000;" x="0.0" xlink:href="#C0_84_193e9a0db9" y="288.0"/>
    </g>
    <g clip-path="url(#pb303bd5eea)">
     <use style="fill:none;stroke:#000000;" x="0.0" xlink:href="#C0_85_9a0522b189" y="288.0"/>
    </g>
    <g clip-path="url(#pb303bd5eea)">
     <use style="fill:none;stroke:#000000;" x="0.0" xlink:href="#C0_86_6d5aa94fed" y="288.0"/>
    </g>
    <g clip-path="url(#pb303bd5eea)">
     <use style="fill:none;stroke:#000000;" x="0.0" xlink:href="#C0_87_7e08bf833d" y="288.0"/>
    </g>
    <g clip-path="url(#pb303bd5eea)">
     <use style="fill:none;stroke:#000000;" x="0.0" xlink:href="#C0_88_f117a723a8" y="288.0"/>
    </g>
    <g clip-path="url(#pb303bd5eea)">
     <use style="fill:none;stroke:#000000;" x="0.0" xlink:href="#C0_89_e4118e44d6" y="288.0"/>
    </g>
    <g clip-path="url(#pb303bd5eea)">
     <use style="fill:none;stroke:#000000;" x="0.0" xlink:href="#C0_8a_a449315e74" y="288.0"/>
    </g>
    <g clip-path="url(#pb303bd5eea)">
     <use style="fill:none;stroke:#000000;" x="0.0" xlink:href="#C0_8b_b8c2494e63" y="288.0"/>
    </g>
    <g clip-path="url(#pb303bd5eea)">
     <use style="fill:none;stroke:#000000;" x="0.0" xlink:href="#C0_8c_b8e297d602" y="288.0"/>
    </g>
   </g>
   <g id="PathCollection_1">
    <defs>
     <path d="
M0 8.66025
C2.29673 8.66025 4.49969 7.74776 6.12372 6.12372
C7.74776 4.49969 8.66025 2.29673 8.66025 0
C8.66025 -2.29673 7.74776 -4.49969 6.12372 -6.12372
C4.49969 -7.74776 2.29673 -8.66025 0 -8.66025
C-2.29673 -8.66025 -4.49969 -7.74776 -6.12372 -6.12372
C-7.74776 -4.49969 -8.66025 -2.29673 -8.66025 0
C-8.66025 2.29673 -7.74776 4.49969 -6.12372 6.12372
C-4.49969 7.74776 -2.29673 8.66025 0 8.66025
z
" id="C1_0_2aea4494f3"/>
    </defs>
    <g clip-path="url(#pb303bd5eea)">
     <use style="fill:#008000;stroke:#000000;" x="122.682537455" xlink:href="#C1_0_2aea4494f3" y="149.685037818"/>
    </g>
    <g clip-path="url(#pb303bd5eea)">
     <use style="fill:#008000;stroke:#000000;" x="48.4253138018" xlink:href="#C1_0_2aea4494f3" y="139.78031268"/>
    </g>
    <g clip-path="url(#pb303bd5eea)">
     <use style="fill:#ff0000;stroke:#000000;" x="108.403471005" xlink:href="#C1_0_2aea4494f3" y="43.8513599567"/>
    </g>
    <g clip-path="url(#pb303bd5eea)">
     <use style="fill:#008000;stroke:#000000;" x="119.283789874" xlink:href="#C1_0_2aea4494f3" y="110.01498632"/>
    </g>
    <g clip-path="url(#pb303bd5eea)">
     <use style="fill:#ff0000;stroke:#000000;" x="119.995931898" xlink:href="#C1_0_2aea4494f3" y="160.499278223"/>
    </g>
    <g clip-path="url(#pb303bd5eea)">
     <use style="fill:#008000;stroke:#000000;" x="157.401689645" xlink:href="#C1_0_2aea4494f3" y="108.906966299"/>
    </g>
    <g clip-path="url(#pb303bd5eea)">
     <use style="fill:#008000;stroke:#000000;" x="98.3924182114" xlink:href="#C1_0_2aea4494f3" y="124.387775893"/>
    </g>
    <g clip-path="url(#pb303bd5eea)">
     <use style="fill:#008000;stroke:#000000;" x="180.271457731" xlink:href="#C1_0_2aea4494f3" y="112.426334472"/>
    </g>
    <g clip-path="url(#pb303bd5eea)">
     <use style="fill:#008000;stroke:#000000;" x="128.497982329" xlink:href="#C1_0_2aea4494f3" y="112.397973783"/>
    </g>
    <g clip-path="url(#pb303bd5eea)">
     <use style="fill:#008000;stroke:#000000;" x="136.357929702" xlink:href="#C1_0_2aea4494f3" y="90.9708630402"/>
    </g>
    <g clip-path="url(#pb303bd5eea)">
     <use style="fill:#008000;stroke:#000000;" x="162.066609968" xlink:href="#C1_0_2aea4494f3" y="185.40377361"/>
    </g>
    <g clip-path="url(#pb303bd5eea)">
     <use style="fill:#008000;stroke:#000000;" x="94.4011219466" xlink:href="#C1_0_2aea4494f3" y="184.118936759"/>
    </g>
    <g clip-path="url(#pb303bd5eea)">
     <use style="fill:#008000;stroke:#000000;" x="168.242010601" xlink:href="#C1_0_2aea4494f3" y="89.7286075786"/>
    </g>
    <g clip-path="url(#pb303bd5eea)">
     <use style="fill:#008000;stroke:#000000;" x="87.2380604941" xlink:href="#C1_0_2aea4494f3" y="170.810833016"/>
    </g>
    <g clip-path="url(#pb303bd5eea)">
     <use style="fill:#008000;stroke:#000000;" x="69.6724060021" xlink:href="#C1_0_2aea4494f3" y="155.436984829"/>
    </g>
    <g clip-path="url(#pb303bd5eea)">
     <use style="fill:#008000;stroke:#000000;" x="198.218877912" xlink:href="#C1_0_2aea4494f3" y="84.6863935143"/>
    </g>
    <g clip-path="url(#pb303bd5eea)">
     <use style="fill:#008000;stroke:#000000;" x="63.3073124064" xlink:href="#C1_0_2aea4494f3" y="127.479077774"/>
    </g>
    <g clip-path="url(#pb303bd5eea)">
     <use style="fill:#008000;stroke:#000000;" x="131.993039001" xlink:href="#C1_0_2aea4494f3" y="144.662272101"/>
    </g>
    <g clip-path="url(#pb303bd5eea)">
     <use style="fill:#008000;stroke:#000000;" x="152.393374148" xlink:href="#C1_0_2aea4494f3" y="194.442752327"/>
    </g>
    <g clip-path="url(#pb303bd5eea)">
     <use style="fill:#008000;stroke:#000000;" x="198.299943844" xlink:href="#C1_0_2aea4494f3" y="168.335642162"/>
    </g>
    <g clip-path="url(#pb303bd5eea)">
     <use style="fill:#ff0000;stroke:#000000;" x="81.8469487271" xlink:href="#C1_0_2aea4494f3" y="89.2487835296"/>
    </g>
    <g clip-path="url(#pb303bd5eea)">
     <use style="fill:#008000;stroke:#000000;" x="205.722329674" xlink:href="#C1_0_2aea4494f3" y="201.228934269"/>
    </g>
    <g clip-path="url(#pb303bd5eea)">
     <use style="fill:#008000;stroke:#000000;" x="170.85264377" xlink:href="#C1_0_2aea4494f3" y="142.595354875"/>
    </g>
    <g clip-path="url(#pb303bd5eea)">
     <use style="fill:#008000;stroke:#000000;" x="104.337382625" xlink:href="#C1_0_2aea4494f3" y="171.103490385"/>
    </g>
    <g clip-path="url(#pb303bd5eea)">
     <use style="fill:#008000;stroke:#000000;" x="77.3177787501" xlink:href="#C1_0_2aea4494f3" y="229.659831224"/>
    </g>
    <g clip-path="url(#pb303bd5eea)">
     <use style="fill:#008000;stroke:#000000;" x="189.294052397" xlink:href="#C1_0_2aea4494f3" y="72.036713016"/>
    </g>
    <g clip-path="url(#pb303bd5eea)">
     <use style="fill:#008000;stroke:#000000;" x="230.477276873" xlink:href="#C1_0_2aea4494f3" y="97.4434272008"/>
    </g>
    <g clip-path="url(#pb303bd5eea)">
     <use style="fill:#008000;stroke:#000000;" x="88.8376429386" xlink:href="#C1_0_2aea4494f3" y="213.435628295"/>
    </g>
    <g clip-path="url(#pb303bd5eea)">
     <use style="fill:#ff0000;stroke:#000000;" x="208.545292515" xlink:href="#C1_0_2aea4494f3" y="228.744247742"/>
    </g>
    <g clip-path="url(#pb303bd5eea)">
     <use style="fill:#ff0000;stroke:#000000;" x="42.3205547588" xlink:href="#C1_0_2aea4494f3" y="158.205840527"/>
    </g>
    <g clip-path="url(#pb303bd5eea)">
     <use style="fill:#008000;stroke:#000000;" x="131.978892642" xlink:href="#C1_0_2aea4494f3" y="51.9521088835"/>
    </g>
    <g clip-path="url(#pb303bd5eea)">
     <use style="fill:#008000;stroke:#000000;" x="130.461855281" xlink:href="#C1_0_2aea4494f3" y="68.0493682553"/>
    </g>
    <g clip-path="url(#pb303bd5eea)">
     <use style="fill:#008000;stroke:#000000;" x="137.111042225" xlink:href="#C1_0_2aea4494f3" y="218.697002212"/>
    </g>
    <g clip-path="url(#pb303bd5eea)">
     <use style="fill:#ff0000;stroke:#000000;" x="78.0995506458" xlink:href="#C1_0_2aea4494f3" y="48.6695907719"/>
    </g>
    <g clip-path="url(#pb303bd5eea)">
     <use style="fill:#008000;stroke:#000000;" x="192.626582489" xlink:href="#C1_0_2aea4494f3" y="149.599882568"/>
    </g>
    <g clip-path="url(#pb303bd5eea)">
     <use style="fill:#008000;stroke:#000000;" x="67.8047434571" xlink:href="#C1_0_2aea4494f3" y="202.892193718"/>
    </g>
    <g clip-path="url(#pb303bd5eea)">
     <use style="fill:#008000;stroke:#000000;" x="159.007338861" xlink:href="#C1_0_2aea4494f3" y="76.7681750034"/>
    </g>
    <g clip-path="url(#pb303bd5eea)">
     <use style="fill:#008000;stroke:#000000;" x="95.7161451931" xlink:href="#C1_0_2aea4494f3" y="246.857142857"/>
    </g>
    <g clip-path="url(#pb303bd5eea)">
     <use style="fill:#ff0000;stroke:#000000;" x="41.1428571429" xlink:href="#C1_0_2aea4494f3" y="116.209360834"/>
    </g>
    <g clip-path="url(#pb303bd5eea)">
     <use style="fill:#008000;stroke:#000000;" x="88.8553550948" xlink:href="#C1_0_2aea4494f3" y="116.480280734"/>
    </g>
    <g clip-path="url(#pb303bd5eea)">
     <use style="fill:#008000;stroke:#000000;" x="159.649017154" xlink:href="#C1_0_2aea4494f3" y="41.2190427764"/>
    </g>
    <g clip-path="url(#pb303bd5eea)">
     <use style="fill:#008000;stroke:#000000;" x="64.1380491212" xlink:href="#C1_0_2aea4494f3" y="73.5636242532"/>
    </g>
    <g clip-path="url(#pb303bd5eea)">
     <use style="fill:#008000;stroke:#000000;" x="58.8303966901" xlink:href="#C1_0_2aea4494f3" y="96.8521361833"/>
    </g>
    <g clip-path="url(#pb303bd5eea)">
     <use style="fill:#0000ff;stroke:#000000;" x="43.5476104477" xlink:href="#C1_0_2aea4494f3" y="77.6944099331"/>
    </g>
    <g clip-path="url(#pb303bd5eea)">
     <use style="fill:#008000;stroke:#000000;" x="105.648791743" xlink:href="#C1_0_2aea4494f3" y="82.8414852993"/>
    </g>
    <g clip-path="url(#pb303bd5eea)">
     <use style="fill:#008000;stroke:#000000;" x="204.703559277" xlink:href="#C1_0_2aea4494f3" y="41.1428571429"/>
    </g>
    <g clip-path="url(#pb303bd5eea)">
     <use style="fill:#ff0000;stroke:#000000;" x="45.8610794174" xlink:href="#C1_0_2aea4494f3" y="177.109687681"/>
    </g>
    <g clip-path="url(#pb303bd5eea)">
     <use style="fill:#008000;stroke:#000000;" x="161.610236066" xlink:href="#C1_0_2aea4494f3" y="166.739451396"/>
    </g>
    <g clip-path="url(#pb303bd5eea)">
     <use style="fill:#008000;stroke:#000000;" x="139.950090786" xlink:href="#C1_0_2aea4494f3" y="180.523165826"/>
    </g>
    <g clip-path="url(#pb303bd5eea)">
     <use style="fill:#008000;stroke:#000000;" x="175.63478463" xlink:href="#C1_0_2aea4494f3" y="205.744521646"/>
    </g>
   </g>
  </g>
 </g>
 <defs>
  <clipPath id="pb303bd5eea">
   <rect height="288.0" width="288.0" x="0.0" y="0.0"/>
  </clipPath>
 </defs>
</svg>
