<?xml version="1.0" encoding="utf-8" standalone="no"?>
<!DOCTYPE svg PUBLIC "-//W3C//DTD SVG 1.1//EN"
  "http://www.w3.org/Graphics/SVG/1.1/DTD/svg11.dtd">
<!-- Created with matplotlib (http://matplotlib.org/) -->
<svg height="288pt" version="1.1" viewBox="0 0 288 288" width="288pt" xmlns="http://www.w3.org/2000/svg" xmlns:xlink="http://www.w3.org/1999/xlink">
 <defs>
  <style type="text/css">
*{stroke-linecap:butt;stroke-linejoin:round;}
  </style>
 </defs>
 <g id="figure_1">
  <g id="patch_1">
   <path d="
M0 288
L288 288
L288 0
L0 0
z
" style="fill:#ffffff;"/>
  </g>
  <g id="axes_1">
   <g id="LineCollection_1">
    <defs>
     <path d="
M141.821 -113.01
L92.3864 -68.3742" id="C0_0_6daae269a0"/>
     <path d="
M141.821 -113.01
L175.51 -145.607" id="C0_1_bb2dcb5afb"/>
     <path d="
M141.821 -113.01
L134.218 -117.422" id="C0_2_45c4b7a1c9"/>
     <path d="
M141.821 -113.01
L182.861 -127.731" id="C0_3_f8e2f9f7dd"/>
     <path d="
M141.821 -113.01
L181.893 -102.901" id="C0_4_7bd8c97b9c"/>
     <path d="
M141.821 -113.01
L184.502 -90.6324" id="C0_5_cac59538a6"/>
     <path d="
M141.821 -113.01
L114.64 -84.5668" id="C0_6_e5da542b01"/>
     <path d="
M141.821 -113.01
L95.9835 -167.239" id="C0_7_9b8deb34af"/>
     <path d="
M141.821 -113.01
L213.776 -123.84" id="C0_8_b5ca97d84c"/>
     <path d="
M141.821 -113.01
L100.655 -146.942" id="C0_9_9aa8696ba9"/>
     <path d="
M141.821 -113.01
L199.974 -143.791" id="C0_a_9bc5f589d1"/>
     <path d="
M141.821 -113.01
L144.757 -78.5938" id="C0_b_9488b89739"/>
     <path d="
M141.821 -113.01
L75.2188 -135.103" id="C0_c_f242e16591"/>
     <path d="
M141.821 -113.01
L121.502 -141.935" id="C0_d_f10324ff32"/>
     <path d="
M141.821 -113.01
L151.844 -52.5463" id="C0_e_9605ad2c7d"/>
     <path d="
M141.821 -113.01
L82.5375 -119.622" id="C0_f_6e3358716b"/>
     <path d="
M209.667 -157.374
L175.51 -145.607" id="C0_10_5bdd9cdb5c"/>
     <path d="
M209.667 -157.374
L134.218 -117.422" id="C0_11_37246772cd"/>
     <path d="
M210.993 -202.901
L161.402 -160.876" id="C0_12_5d6f70c4c7"/>
     <path d="
M210.993 -202.901
L175.51 -145.607" id="C0_13_cbaea7a6d7"/>
     <path d="
M210.993 -202.901
L172.018 -206.543" id="C0_14_f34b32e7c1"/>
     <path d="
M210.993 -202.901
L188.836 -209.826" id="C0_15_9f57bc29c8"/>
     <path d="
M175.51 -145.607
L134.218 -117.422" id="C0_16_3fc2e70b1e"/>
     <path d="
M175.51 -145.607
L182.861 -127.731" id="C0_17_3f534e6bc7"/>
     <path d="
M175.51 -145.607
L146.659 -157.699" id="C0_18_0bc9df1819"/>
     <path d="
M175.51 -145.607
L181.893 -102.901" id="C0_19_adc3739add"/>
     <path d="
M175.51 -145.607
L229.771 -179.179" id="C0_1a_4f2f482cde"/>
     <path d="
M175.51 -145.607
L114.64 -84.5668" id="C0_1b_9cf7272a8e"/>
     <path d="
M175.51 -145.607
L149.08 -211.123" id="C0_1c_c521c34731"/>
     <path d="
M175.51 -145.607
L199.974 -143.791" id="C0_1d_c8bb00e87b"/>
     <path d="
M175.51 -145.607
L164.486 -65.0884" id="C0_1e_f8eca774bf"/>
     <path d="
M175.51 -145.607
L131.107 -166.745" id="C0_1f_d861a5b8f9"/>
     <path d="
M175.51 -145.607
L243.995 -140.072" id="C0_20_31f062c52c"/>
     <path d="
M175.51 -145.607
L144.757 -78.5938" id="C0_21_275397fc4a"/>
     <path d="
M175.51 -145.607
L204.486 -83.95" id="C0_22_461f9c118c"/>
     <path d="
M175.51 -145.607
L195.048 -221.923" id="C0_23_cff3fbf06b"/>
     <path d="
M175.51 -145.607
L147.57 -223.768" id="C0_24_eb708485be"/>
     <path d="
M134.218 -117.422
L204.486 -83.95" id="C0_25_f5ca8e1828"/>
     <path d="
M134.218 -117.422
L182.861 -127.731" id="C0_26_d7a06014a4"/>
     <path d="
M134.218 -117.422
L146.659 -157.699" id="C0_27_674e8398e0"/>
     <path d="
M134.218 -117.422
L92.3864 -68.3742" id="C0_28_1a953503a1"/>
     <path d="
M134.218 -117.422
L114.64 -84.5668" id="C0_29_4f20566297"/>
     <path d="
M134.218 -117.422
L95.9835 -167.239" id="C0_2a_4a63877cf6"/>
     <path d="
M134.218 -117.422
L100.655 -146.942" id="C0_2b_5f2e2a3f66"/>
     <path d="
M134.218 -117.422
L131.107 -166.745" id="C0_2c_bab40da662"/>
     <path d="
M134.218 -117.422
L144.757 -78.5938" id="C0_2d_576f122011"/>
     <path d="
M134.218 -117.422
L131.937 -41.1429" id="C0_2e_c8f2067d52"/>
     <path d="
M134.218 -117.422
L106.097 -98.8401" id="C0_2f_61c9f60c53"/>
     <path d="
M134.218 -117.422
L126.03 -76.0835" id="C0_30_b1cc77d36a"/>
     <path d="
M134.218 -117.422
L161.245 -82.5328" id="C0_31_21192df957"/>
     <path d="
M134.218 -117.422
L59.2327 -154.76" id="C0_32_6b3980e29d"/>
     <path d="
M134.218 -117.422
L151.844 -52.5463" id="C0_33_1b61be9e87"/>
     <path d="
M134.218 -117.422
L82.5375 -119.622" id="C0_34_262e1f83e8"/>
     <path d="
M134.218 -117.422
L155.801 -193.139" id="C0_35_358917b568"/>
     <path d="
M182.861 -127.731
L146.659 -157.699" id="C0_36_ae712a4584"/>
     <path d="
M182.861 -127.731
L181.893 -102.901" id="C0_37_5d69d72cc3"/>
     <path d="
M182.861 -127.731
L229.771 -179.179" id="C0_38_8008f84884"/>
     <path d="
M182.861 -127.731
L184.502 -90.6324" id="C0_39_cbde3e5d9f"/>
     <path d="
M182.861 -127.731
L213.776 -123.84" id="C0_3a_d703b321ce"/>
     <path d="
M182.861 -127.731
L243.995 -140.072" id="C0_3b_1f1843b767"/>
     <path d="
M182.861 -127.731
L126.03 -76.0835" id="C0_3c_eecbe94e2e"/>
     <path d="
M182.861 -127.731
L172.018 -206.543" id="C0_3d_fade10437d"/>
     <path d="
M182.861 -127.731
L226.105 -104.454" id="C0_3e_9a0466d221"/>
     <path d="
M182.861 -127.731
L218.669 -62.3845" id="C0_3f_e8dec2b139"/>
     <path d="
M182.861 -127.731
L117.052 -167.244" id="C0_40_ec52af7402"/>
     <path d="
M182.861 -127.731
L209.421 -109.222" id="C0_41_f9111c56e3"/>
     <path d="
M146.659 -157.699
L147.57 -223.768" id="C0_42_25ad0b299c"/>
     <path d="
M146.659 -157.699
L161.402 -160.876" id="C0_43_a1d8c79939"/>
     <path d="
M146.659 -157.699
L184.502 -90.6324" id="C0_44_1c4cb1d819"/>
     <path d="
M146.659 -157.699
L155.801 -193.139" id="C0_45_bb7f96b545"/>
     <path d="
M146.659 -157.699
L149.08 -211.123" id="C0_46_fa5341711b"/>
     <path d="
M146.659 -157.699
L213.776 -123.84" id="C0_47_e2d4ce9726"/>
     <path d="
M146.659 -157.699
L99.9674 -192.958" id="C0_48_6a4f1278e5"/>
     <path d="
M146.659 -157.699
L115.167 -185.278" id="C0_49_616ce96cd6"/>
     <path d="
M146.659 -157.699
L75.2188 -135.103" id="C0_4a_a31526d6e9"/>
     <path d="
M146.659 -157.699
L121.502 -141.935" id="C0_4b_35ec67150a"/>
     <path d="
M181.893 -102.901
L161.402 -160.876" id="C0_4c_c5a419072b"/>
     <path d="
M181.893 -102.901
L246.857 -78.2273" id="C0_4d_0640453273"/>
     <path d="
M181.893 -102.901
L126.03 -76.0835" id="C0_4e_7d55db8f5a"/>
     <path d="
M181.893 -102.901
L161.245 -82.5328" id="C0_4f_ee6a64d20a"/>
     <path d="
M161.402 -160.876
L95.9835 -167.239" id="C0_50_92686de0e0"/>
     <path d="
M161.402 -160.876
L199.974 -143.791" id="C0_51_3c944b2504"/>
     <path d="
M161.402 -160.876
L99.9674 -192.958" id="C0_52_e2e6a5c55d"/>
     <path d="
M161.402 -160.876
L115.167 -185.278" id="C0_53_1f24123e03"/>
     <path d="
M161.402 -160.876
L106.097 -98.8401" id="C0_54_3ca3423da5"/>
     <path d="
M161.402 -160.876
L172.018 -206.543" id="C0_55_63bf6d9c6a"/>
     <path d="
M161.402 -160.876
L226.105 -104.454" id="C0_56_6556961679"/>
     <path d="
M161.402 -160.876
L188.836 -209.826" id="C0_57_83cc51f6a0"/>
     <path d="
M184.502 -90.6324
L204.486 -83.95" id="C0_58_f8cc252ad9"/>
     <path d="
M184.502 -90.6324
L151.844 -52.5463" id="C0_59_5cf3e1dcfe"/>
     <path d="
M184.502 -90.6324
L226.105 -104.454" id="C0_5a_58b2e0d0af"/>
     <path d="
M184.502 -90.6324
L209.421 -109.222" id="C0_5b_917076bf27"/>
     <path d="
M114.64 -84.5668
L85.4785 -44.2333" id="C0_5c_83200d9d64"/>
     <path d="
M114.64 -84.5668
L92.3864 -68.3742" id="C0_5d_a9287fe026"/>
     <path d="
M95.9835 -167.239
L100.655 -146.942" id="C0_5e_669b0670bf"/>
     <path d="
M95.9835 -167.239
L92.6854 -232.568" id="C0_5f_8139455d3a"/>
     <path d="
M95.9835 -167.239
L117.052 -167.244" id="C0_60_46c8ea4c09"/>
     <path d="
M95.9835 -167.239
L59.2327 -154.76" id="C0_61_b9fa9809ca"/>
     <path d="
M95.9835 -167.239
L82.5375 -119.622" id="C0_62_b8c8fad856"/>
     <path d="
M95.9835 -167.239
L108.821 -215.135" id="C0_63_185c0b21b1"/>
     <path d="
M213.776 -123.84
L246.857 -78.2273" id="C0_64_93ef89a877"/>
     <path d="
M213.776 -123.84
L243.995 -140.072" id="C0_65_70e884e59c"/>
     <path d="
M100.655 -146.942
L41.1429 -116.403" id="C0_66_dcda4817fd"/>
     <path d="
M100.655 -146.942
L182.845 -174.713" id="C0_67_4b9661af41"/>
     <path d="
M100.655 -146.942
L131.107 -166.745" id="C0_68_268168d6e4"/>
     <path d="
M100.655 -146.942
L99.9674 -192.958" id="C0_69_37f1495c9b"/>
     <path d="
M100.655 -146.942
L115.167 -185.278" id="C0_6a_592fffd35f"/>
     <path d="
M100.655 -146.942
L106.097 -98.8401" id="C0_6b_0be727713e"/>
     <path d="
M100.655 -146.942
L59.2327 -154.76" id="C0_6c_08cb013f57"/>
     <path d="
M115.167 -185.278
L92.6854 -232.568" id="C0_6d_55c241770d"/>
     <path d="
M115.167 -185.278
L117.052 -167.244" id="C0_6e_34d4a37ebf"/>
     <path d="
M115.167 -185.278
L71.184 -107.743" id="C0_6f_a6300c06e6"/>
     <path d="
M115.167 -185.278
L188.836 -209.826" id="C0_70_dfb5c63325"/>
     <path d="
M106.097 -98.8401
L164.486 -65.0884" id="C0_71_8d3abc42d3"/>
     <path d="
M106.097 -98.8401
L41.1429 -116.403" id="C0_72_be6cb8c416"/>
     <path d="
M106.097 -98.8401
L71.184 -107.743" id="C0_73_0ce789cceb"/>
     <path d="
M106.097 -98.8401
L161.245 -82.5328" id="C0_74_234a642b84"/>
     <path d="
M106.097 -98.8401
L85.4785 -44.2333" id="C0_75_4efb55688f"/>
     <path d="
M126.03 -76.0835
L85.4785 -44.2333" id="C0_76_775fc8da04"/>
     <path d="
M126.03 -76.0835
L71.184 -107.743" id="C0_77_dc461e276d"/>
     <path d="
M172.018 -206.543
L195.048 -221.923" id="C0_78_355eb94935"/>
     <path d="
M172.018 -206.543
L147.57 -223.768" id="C0_79_9034f0e8f7"/>
     <path d="
M172.018 -206.543
L108.821 -215.135" id="C0_7a_404af11621"/>
     <path d="
M161.245 -82.5328
L164.486 -65.0884" id="C0_7b_dcd06a3c05"/>
     <path d="
M161.245 -82.5328
L131.937 -41.1429" id="C0_7c_5b004b39ef"/>
     <path d="
M161.245 -82.5328
L121.502 -141.935" id="C0_7d_9b5b3c842d"/>
     <path d="
M161.245 -82.5328
L218.669 -62.3845" id="C0_7e_cef6f41c12"/>
     <path d="
M161.245 -82.5328
L209.421 -109.222" id="C0_7f_de73651572"/>
     <path d="
M121.502 -141.935
L108.821 -215.135" id="C0_80_4a47f2ab61"/>
     <path d="
M226.105 -104.454
L218.669 -62.3845" id="C0_81_6a7bd1766d"/>
     <path d="
M82.5375 -119.622
L75.2188 -135.103" id="C0_82_cb29942f8a"/>
     <path d="
M188.836 -209.826
L229.771 -179.179" id="C0_83_1b1124eb00"/>
     <path d="
M188.836 -209.826
L195.048 -221.923" id="C0_84_ab1cfa2e11"/>
     <path d="
M209.421 -109.222
L182.845 -174.713" id="C0_85_a9caa2006c"/>
     <path d="
M195.048 -221.923
L182.845 -174.713" id="C0_86_494c531411"/>
     <path d="
M195.048 -221.923
L155.801 -193.139" id="C0_87_3d20bb0a70"/>
     <path d="
M75.2188 -135.103
L41.1429 -116.403" id="C0_88_7fa7a5b7b7"/>
     <path d="
M204.486 -83.95
L246.857 -78.2273" id="C0_89_46dd19d741"/>
     <path d="
M147.57 -223.768
L92.6854 -232.568" id="C0_8a_2b5b47007f"/>
     <path d="
M155.801 -193.139
L149.08 -211.123" id="C0_8b_7c67049ae1"/>
     <path d="
M144.757 -78.5938
L131.937 -41.1429" id="C0_8c_9ef875c8c5"/>
    </defs>
    <g clip-path="url(#pb303bd5eea)">
     <use style="fill:none;stroke:#000000;" x="0.0" xlink:href="#C0_0_6daae269a0" y="288.0"/>
    </g>
    <g clip-path="url(#pb303bd5eea)">
     <use style="fill:none;stroke:#000000;" x="0.0" xlink:href="#C0_1_bb2dcb5afb" y="288.0"/>
    </g>
    <g clip-path="url(#pb303bd5eea)">
     <use style="fill:none;stroke:#000000;" x="0.0" xlink:href="#C0_2_45c4b7a1c9" y="288.0"/>
    </g>
    <g clip-path="url(#pb303bd5eea)">
     <use style="fill:none;stroke:#000000;" x="0.0" xlink:href="#C0_3_f8e2f9f7dd" y="288.0"/>
    </g>
    <g clip-path="url(#pb303bd5eea)">
     <use style="fill:none;stroke:#000000;" x="0.0" xlink:href="#C0_4_7bd8c97b9c" y="288.0"/>
    </g>
    <g clip-path="url(#pb303bd5eea)">
     <use style="fill:none;stroke:#000000;" x="0.0" xlink:href="#C0_5_cac59538a6" y="288.0"/>
    </g>
    <g clip-path="url(#pb303bd5eea)">
     <use style="fill:none;stroke:#000000;" x="0.0" xlink:href="#C0_6_e5da542b01" y="288.0"/>
    </g>
    <g clip-path="url(#pb303bd5eea)">
     <use style="fill:none;stroke:#000000;" x="0.0" xlink:href="#C0_7_9b8deb34af" y="288.0"/>
    </g>
    <g clip-path="url(#pb303bd5eea)">
     <use style="fill:none;stroke:#000000;" x="0.0" xlink:href="#C0_8_b5ca97d84c" y="288.0"/>
    </g>
    <g clip-path="url(#pb303bd5eea)">
     <use style="fill:none;stroke:#000000;" x="0.0" xlink:href="#C0_9_9aa8696ba9" y="288.0"/>
    </g>
    <g clip-path="url(#pb303bd5eea)">
     <use style="fill:none;stroke:#000000;" x="0.0" xlink:href="#C0_a_9bc5f589d1" y="288.0"/>
    </g>
    <g clip-path="url(#pb303bd5eea)">
     <use style="fill:none;stroke:#000000;" x="0.0" xlink:href="#C0_b_9488b89739" y="288.0"/>
    </g>
    <g clip-path="url(#pb303bd5eea)">
     <use style="fill:none;stroke:#000000;" x="0.0" xlink:href="#C0_c_f242e16591" y="288.0"/>
    </g>
    <g clip-path="url(#pb303bd5eea)">
     <use style="fill:none;stroke:#000000;" x="0.0" xlink:href="#C0_d_f10324ff32" y="288.0"/>
    </g>
    <g clip-path="url(#pb303bd5eea)">
     <use style="fill:none;stroke:#000000;" x="0.0" xlink:href="#C0_e_9605ad2c7d" y="288.0"/>
    </g>
    <g clip-path="url(#pb303bd5eea)">
     <use style="fill:none;stroke:#000000;" x="0.0" xlink:href="#C0_f_6e3358716b" y="288.0"/>
    </g>
    <g clip-path="url(#pb303bd5eea)">
     <use style="fill:none;stroke:#000000;" x="0.0" xlink:href="#C0_10_5bdd9cdb5c" y="288.0"/>
    </g>
    <g clip-path="url(#pb303bd5eea)">
     <use style="fill:none;stroke:#000000;" x="0.0" xlink:href="#C0_11_37246772cd" y="288.0"/>
    </g>
    <g clip-path="url(#pb303bd5eea)">
     <use style="fill:none;stroke:#000000;" x="0.0" xlink:href="#C0_12_5d6f70c4c7" y="288.0"/>
    </g>
    <g clip-path="url(#pb303bd5eea)">
     <use style="fill:none;stroke:#000000;" x="0.0" xlink:href="#C0_13_cbaea7a6d7" y="288.0"/>
    </g>
    <g clip-path="url(#pb303bd5eea)">
     <use style="fill:none;stroke:#000000;" x="0.0" xlink:href="#C0_14_f34b32e7c1" y="288.0"/>
    </g>
    <g clip-path="url(#pb303bd5eea)">
     <use style="fill:none;stroke:#000000;" x="0.0" xlink:href="#C0_15_9f57bc29c8" y="288.0"/>
    </g>
    <g clip-path="url(#pb303bd5eea)">
     <use style="fill:none;stroke:#000000;" x="0.0" xlink:href="#C0_16_3fc2e70b1e" y="288.0"/>
    </g>
    <g clip-path="url(#pb303bd5eea)">
     <use style="fill:none;stroke:#000000;" x="0.0" xlink:href="#C0_17_3f534e6bc7" y="288.0"/>
    </g>
    <g clip-path="url(#pb303bd5eea)">
     <use style="fill:none;stroke:#000000;" x="0.0" xlink:href="#C0_18_0bc9df1819" y="288.0"/>
    </g>
    <g clip-path="url(#pb303bd5eea)">
     <use style="fill:none;stroke:#000000;" x="0.0" xlink:href="#C0_19_adc3739add" y="288.0"/>
    </g>
    <g clip-path="url(#pb303bd5eea)">
     <use style="fill:none;stroke:#000000;" x="0.0" xlink:href="#C0_1a_4f2f482cde" y="288.0"/>
    </g>
    <g clip-path="url(#pb303bd5eea)">
     <use style="fill:none;stroke:#000000;" x="0.0" xlink:href="#C0_1b_9cf7272a8e" y="288.0"/>
    </g>
    <g clip-path="url(#pb303bd5eea)">
     <use style="fill:none;stroke:#000000;" x="0.0" xlink:href="#C0_1c_c521c34731" y="288.0"/>
    </g>
    <g clip-path="url(#pb303bd5eea)">
     <use style="fill:none;stroke:#000000;" x="0.0" xlink:href="#C0_1d_c8bb00e87b" y="288.0"/>
    </g>
    <g clip-path="url(#pb303bd5eea)">
     <use style="fill:none;stroke:#000000;" x="0.0" xlink:href="#C0_1e_f8eca774bf" y="288.0"/>
    </g>
    <g clip-path="url(#pb303bd5eea)">
     <use style="fill:none;stroke:#000000;" x="0.0" xlink:href="#C0_1f_d861a5b8f9" y="288.0"/>
    </g>
    <g clip-path="url(#pb303bd5eea)">
     <use style="fill:none;stroke:#000000;" x="0.0" xlink:href="#C0_20_31f062c52c" y="288.0"/>
    </g>
    <g clip-path="url(#pb303bd5eea)">
     <use style="fill:none;stroke:#000000;" x="0.0" xlink:href="#C0_21_275397fc4a" y="288.0"/>
    </g>
    <g clip-path="url(#pb303bd5eea)">
     <use style="fill:none;stroke:#000000;" x="0.0" xlink:href="#C0_22_461f9c118c" y="288.0"/>
    </g>
    <g clip-path="url(#pb303bd5eea)">
     <use style="fill:none;stroke:#000000;" x="0.0" xlink:href="#C0_23_cff3fbf06b" y="288.0"/>
    </g>
    <g clip-path="url(#pb303bd5eea)">
     <use style="fill:none;stroke:#000000;" x="0.0" xlink:href="#C0_24_eb708485be" y="288.0"/>
    </g>
    <g clip-path="url(#pb303bd5eea)">
     <use style="fill:none;stroke:#000000;" x="0.0" xlink:href="#C0_25_f5ca8e1828" y="288.0"/>
    </g>
    <g clip-path="url(#pb303bd5eea)">
     <use style="fill:none;stroke:#000000;" x="0.0" xlink:href="#C0_26_d7a06014a4" y="288.0"/>
    </g>
    <g clip-path="url(#pb303bd5eea)">
     <use style="fill:none;stroke:#000000;" x="0.0" xlink:href="#C0_27_674e8398e0" y="288.0"/>
    </g>
    <g clip-path="url(#pb303bd5eea)">
     <use style="fill:none;stroke:#000000;" x="0.0" xlink:href="#C0_28_1a953503a1" y="288.0"/>
    </g>
    <g clip-path="url(#pb303bd5eea)">
     <use style="fill:none;stroke:#000000;" x="0.0" xlink:href="#C0_29_4f20566297" y="288.0"/>
    </g>
    <g clip-path="url(#pb303bd5eea)">
     <use style="fill:none;stroke:#000000;" x="0.0" xlink:href="#C0_2a_4a63877cf6" y="288.0"/>
    </g>
    <g clip-path="url(#pb303bd5eea)">
     <use style="fill:none;stroke:#000000;" x="0.0" xlink:href="#C0_2b_5f2e2a3f66" y="288.0"/>
    </g>
    <g clip-path="url(#pb303bd5eea)">
     <use style="fill:none;stroke:#000000;" x="0.0" xlink:href="#C0_2c_bab40da662" y="288.0"/>
    </g>
    <g clip-path="url(#pb303bd5eea)">
     <use style="fill:none;stroke:#000000;" x="0.0" xlink:href="#C0_2d_576f122011" y="288.0"/>
    </g>
    <g clip-path="url(#pb303bd5eea)">
     <use style="fill:none;stroke:#000000;" x="0.0" xlink:href="#C0_2e_c8f2067d52" y="288.0"/>
    </g>
    <g clip-path="url(#pb303bd5eea)">
     <use style="fill:none;stroke:#000000;" x="0.0" xlink:href="#C0_2f_61c9f60c53" y="288.0"/>
    </g>
    <g clip-path="url(#pb303bd5eea)">
     <use style="fill:none;stroke:#000000;" x="0.0" xlink:href="#C0_30_b1cc77d36a" y="288.0"/>
    </g>
    <g clip-path="url(#pb303bd5eea)">
     <use style="fill:none;stroke:#000000;" x="0.0" xlink:href="#C0_31_21192df957" y="288.0"/>
    </g>
    <g clip-path="url(#pb303bd5eea)">
     <use style="fill:none;stroke:#000000;" x="0.0" xlink:href="#C0_32_6b3980e29d" y="288.0"/>
    </g>
    <g clip-path="url(#pb303bd5eea)">
     <use style="fill:none;stroke:#000000;" x="0.0" xlink:href="#C0_33_1b61be9e87" y="288.0"/>
    </g>
    <g clip-path="url(#pb303bd5eea)">
     <use style="fill:none;stroke:#000000;" x="0.0" xlink:href="#C0_34_262e1f83e8" y="288.0"/>
    </g>
    <g clip-path="url(#pb303bd5eea)">
     <use style="fill:none;stroke:#000000;" x="0.0" xlink:href="#C0_35_358917b568" y="288.0"/>
    </g>
    <g clip-path="url(#pb303bd5eea)">
     <use style="fill:none;stroke:#000000;" x="0.0" xlink:href="#C0_36_ae712a4584" y="288.0"/>
    </g>
    <g clip-path="url(#pb303bd5eea)">
     <use style="fill:none;stroke:#000000;" x="0.0" xlink:href="#C0_37_5d69d72cc3" y="288.0"/>
    </g>
    <g clip-path="url(#pb303bd5eea)">
     <use style="fill:none;stroke:#000000;" x="0.0" xlink:href="#C0_38_8008f84884" y="288.0"/>
    </g>
    <g clip-path="url(#pb303bd5eea)">
     <use style="fill:none;stroke:#000000;" x="0.0" xlink:href="#C0_39_cbde3e5d9f" y="288.0"/>
    </g>
    <g clip-path="url(#pb303bd5eea)">
     <use style="fill:none;stroke:#000000;" x="0.0" xlink:href="#C0_3a_d703b321ce" y="288.0"/>
    </g>
    <g clip-path="url(#pb303bd5eea)">
     <use style="fill:none;stroke:#000000;" x="0.0" xlink:href="#C0_3b_1f1843b767" y="288.0"/>
    </g>
    <g clip-path="url(#pb303bd5eea)">
     <use style="fill:none;stroke:#000000;" x="0.0" xlink:href="#C0_3c_eecbe94e2e" y="288.0"/>
    </g>
    <g clip-path="url(#pb303bd5eea)">
     <use style="fill:none;stroke:#000000;" x="0.0" xlink:href="#C0_3d_fade10437d" y="288.0"/>
    </g>
    <g clip-path="url(#pb303bd5eea)">
     <use style="fill:none;stroke:#000000;" x="0.0" xlink:href="#C0_3e_9a0466d221" y="288.0"/>
    </g>
    <g clip-path="url(#pb303bd5eea)">
     <use style="fill:none;stroke:#000000;" x="0.0" xlink:href="#C0_3f_e8dec2b139" y="288.0"/>
    </g>
    <g clip-path="url(#pb303bd5eea)">
     <use style="fill:none;stroke:#000000;" x="0.0" xlink:href="#C0_40_ec52af7402" y="288.0"/>
    </g>
    <g clip-path="url(#pb303bd5eea)">
     <use style="fill:none;stroke:#000000;" x="0.0" xlink:href="#C0_41_f9111c56e3" y="288.0"/>
    </g>
    <g clip-path="url(#pb303bd5eea)">
     <use style="fill:none;stroke:#000000;" x="0.0" xlink:href="#C0_42_25ad0b299c" y="288.0"/>
    </g>
    <g clip-path="url(#pb303bd5eea)">
     <use style="fill:none;stroke:#000000;" x="0.0" xlink:href="#C0_43_a1d8c79939" y="288.0"/>
    </g>
    <g clip-path="url(#pb303bd5eea)">
     <use style="fill:none;stroke:#000000;" x="0.0" xlink:href="#C0_44_1c4cb1d819" y="288.0"/>
    </g>
    <g clip-path="url(#pb303bd5eea)">
     <use style="fill:none;stroke:#000000;" x="0.0" xlink:href="#C0_45_bb7f96b545" y="288.0"/>
    </g>
    <g clip-path="url(#pb303bd5eea)">
     <use style="fill:none;stroke:#000000;" x="0.0" xlink:href="#C0_46_fa5341711b" y="288.0"/>
    </g>
    <g clip-path="url(#pb303bd5eea)">
     <use style="fill:none;stroke:#000000;" x="0.0" xlink:href="#C0_47_e2d4ce9726" y="288.0"/>
    </g>
    <g clip-path="url(#pb303bd5eea)">
     <use style="fill:none;stroke:#000000;" x="0.0" xlink:href="#C0_48_6a4f1278e5" y="288.0"/>
    </g>
    <g clip-path="url(#pb303bd5eea)">
     <use style="fill:none;stroke:#000000;" x="0.0" xlink:href="#C0_49_616ce96cd6" y="288.0"/>
    </g>
    <g clip-path="url(#pb303bd5eea)">
     <use style="fill:none;stroke:#000000;" x="0.0" xlink:href="#C0_4a_a31526d6e9" y="288.0"/>
    </g>
    <g clip-path="url(#pb303bd5eea)">
     <use style="fill:none;stroke:#000000;" x="0.0" xlink:href="#C0_4b_35ec67150a" y="288.0"/>
    </g>
    <g clip-path="url(#pb303bd5eea)">
     <use style="fill:none;stroke:#000000;" x="0.0" xlink:href="#C0_4c_c5a419072b" y="288.0"/>
    </g>
    <g clip-path="url(#pb303bd5eea)">
     <use style="fill:none;stroke:#000000;" x="0.0" xlink:href="#C0_4d_0640453273" y="288.0"/>
    </g>
    <g clip-path="url(#pb303bd5eea)">
     <use style="fill:none;stroke:#000000;" x="0.0" xlink:href="#C0_4e_7d55db8f5a" y="288.0"/>
    </g>
    <g clip-path="url(#pb303bd5eea)">
     <use style="fill:none;stroke:#000000;" x="0.0" xlink:href="#C0_4f_ee6a64d20a" y="288.0"/>
    </g>
    <g clip-path="url(#pb303bd5eea)">
     <use style="fill:none;stroke:#000000;" x="0.0" xlink:href="#C0_50_92686de0e0" y="288.0"/>
    </g>
    <g clip-path="url(#pb303bd5eea)">
     <use style="fill:none;stroke:#000000;" x="0.0" xlink:href="#C0_51_3c944b2504" y="288.0"/>
    </g>
    <g clip-path="url(#pb303bd5eea)">
     <use style="fill:none;stroke:#000000;" x="0.0" xlink:href="#C0_52_e2e6a5c55d" y="288.0"/>
    </g>
    <g clip-path="url(#pb303bd5eea)">
     <use style="fill:none;stroke:#000000;" x="0.0" xlink:href="#C0_53_1f24123e03" y="288.0"/>
    </g>
    <g clip-path="url(#pb303bd5eea)">
     <use style="fill:none;stroke:#000000;" x="0.0" xlink:href="#C0_54_3ca3423da5" y="288.0"/>
    </g>
    <g clip-path="url(#pb303bd5eea)">
     <use style="fill:none;stroke:#000000;" x="0.0" xlink:href="#C0_55_63bf6d9c6a" y="288.0"/>
    </g>
    <g clip-path="url(#pb303bd5eea)">
     <use style="fill:none;stroke:#000000;" x="0.0" xlink:href="#C0_56_6556961679" y="288.0"/>
    </g>
    <g clip-path="url(#pb303bd5eea)">
     <use style="fill:none;stroke:#000000;" x="0.0" xlink:href="#C0_57_83cc51f6a0" y="288.0"/>
    </g>
    <g clip-path="url(#pb303bd5eea)">
     <use style="fill:none;stroke:#000000;" x="0.0" xlink:href="#C0_58_f8cc252ad9" y="288.0"/>
    </g>
    <g clip-path="url(#pb303bd5eea)">
     <use style="fill:none;stroke:#000000;" x="0.0" xlink:href="#C0_59_5cf3e1dcfe" y="288.0"/>
    </g>
    <g clip-path="url(#pb303bd5eea)">
     <use style="fill:none;stroke:#000000;" x="0.0" xlink:href="#C0_5a_58b2e0d0af" y="288.0"/>
    </g>
    <g clip-path="url(#pb303bd5eea)">
     <use style="fill:none;stroke:#000000;" x="0.0" xlink:href="#C0_5b_917076bf27" y="288.0"/>
    </g>
    <g clip-path="url(#pb303bd5eea)">
     <use style="fill:none;stroke:#000000;" x="0.0" xlink:href="#C0_5c_83200d9d64" y="288.0"/>
    </g>
    <g clip-path="url(#pb303bd5eea)">
     <use style="fill:none;stroke:#000000;" x="0.0" xlink:href="#C0_5d_a9287fe026" y="288.0"/>
    </g>
    <g clip-path="url(#pb303bd5eea)">
     <use style="fill:none;stroke:#000000;" x="0.0" xlink:href="#C0_5e_669b0670bf" y="288.0"/>
    </g>
    <g clip-path="url(#pb303bd5eea)">
     <use style="fill:none;stroke:#000000;" x="0.0" xlink:href="#C0_5f_8139455d3a" y="288.0"/>
    </g>
    <g clip-path="url(#pb303bd5eea)">
     <use style="fill:none;stroke:#000000;" x="0.0" xlink:href="#C0_60_46c8ea4c09" y="288.0"/>
    </g>
    <g clip-path="url(#pb303bd5eea)">
     <use style="fill:none;stroke:#000000;" x="0.0" xlink:href="#C0_61_b9fa9809ca" y="288.0"/>
    </g>
    <g clip-path="url(#pb303bd5eea)">
     <use style="fill:none;stroke:#000000;" x="0.0" xlink:href="#C0_62_b8c8fad856" y="288.0"/>
    </g>
    <g clip-path="url(#pb303bd5eea)">
     <use style="fill:none;stroke:#000000;" x="0.0" xlink:href="#C0_63_185c0b21b1" y="288.0"/>
    </g>
    <g clip-path="url(#pb303bd5eea)">
     <use style="fill:none;stroke:#000000;" x="0.0" xlink:href="#C0_64_93ef89a877" y="288.0"/>
    </g>
    <g clip-path="url(#pb303bd5eea)">
     <use style="fill:none;stroke:#000000;" x="0.0" xlink:href="#C0_65_70e884e59c" y="288.0"/>
    </g>
    <g clip-path="url(#pb303bd5eea)">
     <use style="fill:none;stroke:#000000;" x="0.0" xlink:href="#C0_66_dcda4817fd" y="288.0"/>
    </g>
    <g clip-path="url(#pb303bd5eea)">
     <use style="fill:none;stroke:#000000;" x="0.0" xlink:href="#C0_67_4b9661af41" y="288.0"/>
    </g>
    <g clip-path="url(#pb303bd5eea)">
     <use style="fill:none;stroke:#000000;" x="0.0" xlink:href="#C0_68_268168d6e4" y="288.0"/>
    </g>
    <g clip-path="url(#pb303bd5eea)">
     <use style="fill:none;stroke:#000000;" x="0.0" xlink:href="#C0_69_37f1495c9b" y="288.0"/>
    </g>
    <g clip-path="url(#pb303bd5eea)">
     <use style="fill:none;stroke:#000000;" x="0.0" xlink:href="#C0_6a_592fffd35f" y="288.0"/>
    </g>
    <g clip-path="url(#pb303bd5eea)">
     <use style="fill:none;stroke:#000000;" x="0.0" xlink:href="#C0_6b_0be727713e" y="288.0"/>
    </g>
    <g clip-path="url(#pb303bd5eea)">
     <use style="fill:none;stroke:#000000;" x="0.0" xlink:href="#C0_6c_08cb013f57" y="288.0"/>
    </g>
    <g clip-path="url(#pb303bd5eea)">
     <use style="fill:none;stroke:#000000;" x="0.0" xlink:href="#C0_6d_55c241770d" y="288.0"/>
    </g>
    <g clip-path="url(#pb303bd5eea)">
     <use style="fill:none;stroke:#000000;" x="0.0" xlink:href="#C0_6e_34d4a37ebf" y="288.0"/>
    </g>
    <g clip-path="url(#pb303bd5eea)">
     <use style="fill:none;stroke:#000000;" x="0.0" xlink:href="#C0_6f_a6300c06e6" y="288.0"/>
    </g>
    <g clip-path="url(#pb303bd5eea)">
     <use style="fill:none;stroke:#000000;" x="0.0" xlink:href="#C0_70_dfb5c63325" y="288.0"/>
    </g>
    <g clip-path="url(#pb303bd5eea)">
     <use style="fill:none;stroke:#000000;" x="0.0" xlink:href="#C0_71_8d3abc42d3" y="288.0"/>
    </g>
    <g clip-path="url(#pb303bd5eea)">
     <use style="fill:none;stroke:#000000;" x="0.0" xlink:href="#C0_72_be6cb8c416" y="288.0"/>
    </g>
    <g clip-path="url(#pb303bd5eea)">
     <use style="fill:none;stroke:#000000;" x="0.0" xlink:href="#C0_73_0ce789cceb" y="288.0"/>
    </g>
    <g clip-path="url(#pb303bd5eea)">
     <use style="fill:none;stroke:#000000;" x="0.0" xlink:href="#C0_74_234a642b84" y="288.0"/>
    </g>
    <g clip-path="url(#pb303bd5eea)">
     <use style="fill:none;stroke:#000000;" x="0.0" xlink:href="#C0_75_4efb55688f" y="288.0"/>
    </g>
    <g clip-path="url(#pb303bd5eea)">
     <use style="fill:none;stroke:#000000;" x="0.0" xlink:href="#C0_76_775fc8da04" y="288.0"/>
    </g>
    <g clip-path="url(#pb303bd5eea)">
     <use style="fill:none;stroke:#000000;" x="0.0" xlink:href="#C0_77_dc461e276d" y="288.0"/>
    </g>
    <g clip-path="url(#pb303bd5eea)">
     <use style="fill:none;stroke:#000000;" x="0.0" xlink:href="#C0_78_355eb94935" y="288.0"/>
    </g>
    <g clip-path="url(#pb303bd5eea)">
     <use style="fill:none;stroke:#000000;" x="0.0" xlink:href="#C0_79_9034f0e8f7" y="288.0"/>
    </g>
    <g clip-path="url(#pb303bd5eea)">
     <use style="fill:none;stroke:#000000;" x="0.0" xlink:href="#C0_7a_404af11621" y="288.0"/>
    </g>
    <g clip-path="url(#pb303bd5eea)">
     <use style="fill:none;stroke:#000000;" x="0.0" xlink:href="#C0_7b_dcd06a3c05" y="288.0"/>
    </g>
    <g clip-path="url(#pb303bd5eea)">
     <use style="fill:none;stroke:#000000;" x="0.0" xlink:href="#C0_7c_5b004b39ef" y="288.0"/>
    </g>
    <g clip-path="url(#pb303bd5eea)">
     <use style="fill:none;stroke:#000000;" x="0.0" xlink:href="#C0_7d_9b5b3c842d" y="288.0"/>
    </g>
    <g clip-path="url(#pb303bd5eea)">
     <use style="fill:none;stroke:#000000;" x="0.0" xlink:href="#C0_7e_cef6f41c12" y="288.0"/>
    </g>
    <g clip-path="url(#pb303bd5eea)">
     <use style="fill:none;stroke:#000000;" x="0.0" xlink:href="#C0_7f_de73651572" y="288.0"/>
    </g>
    <g clip-path="url(#pb303bd5eea)">
     <use style="fill:none;stroke:#000000;" x="0.0" xlink:href="#C0_80_4a47f2ab61" y="288.0"/>
    </g>
    <g clip-path="url(#pb303bd5eea)">
     <use style="fill:none;stroke:#000000;" x="0.0" xlink:href="#C0_81_6a7bd1766d" y="288.0"/>
    </g>
    <g clip-path="url(#pb303bd5eea)">
     <use style="fill:none;stroke:#000000;" x="0.0" xlink:href="#C0_82_cb29942f8a" y="288.0"/>
    </g>
    <g clip-path="url(#pb303bd5eea)">
     <use style="fill:none;stroke:#000000;" x="0.0" xlink:href="#C0_83_1b1124eb00" y="288.0"/>
    </g>
    <g clip-path="url(#pb303bd5eea)">
     <use style="fill:none;stroke:#000000;" x="0.0" xlink:href="#C0_84_ab1cfa2e11" y="288.0"/>
    </g>
    <g clip-path="url(#pb303bd5eea)">
     <use style="fill:none;stroke:#000000;" x="0.0" xlink:href="#C0_85_a9caa2006c" y="288.0"/>
    </g>
    <g clip-path="url(#pb303bd5eea)">
     <use style="fill:none;stroke:#000000;" x="0.0" xlink:href="#C0_86_494c531411" y="288.0"/>
    </g>
    <g clip-path="url(#pb303bd5eea)">
     <use style="fill:none;stroke:#000000;" x="0.0" xlink:href="#C0_87_3d20bb0a70" y="288.0"/>
    </g>
    <g clip-path="url(#pb303bd5eea)">
     <use style="fill:none;stroke:#000000;" x="0.0" xlink:href="#C0_88_7fa7a5b7b7" y="288.0"/>
    </g>
    <g clip-path="url(#pb303bd5eea)">
     <use style="fill:none;stroke:#000000;" x="0.0" xlink:href="#C0_89_46dd19d741" y="288.0"/>
    </g>
    <g clip-path="url(#pb303bd5eea)">
     <use style="fill:none;stroke:#000000;" x="0.0" xlink:href="#C0_8a_2b5b47007f" y="288.0"/>
    </g>
    <g clip-path="url(#pb303bd5eea)">
     <use style="fill:none;stroke:#000000;" x="0.0" xlink:href="#C0_8b_7c67049ae1" y="288.0"/>
    </g>
    <g clip-path="url(#pb303bd5eea)">
     <use style="fill:none;stroke:#000000;" x="0.0" xlink:href="#C0_8c_9ef875c8c5" y="288.0"/>
    </g>
   </g>
   <g id="PathCollection_1">
    <defs>
     <path d="
M0 8.66025
C2.29673 8.66025 4.49969 7.74776 6.12372 6.12372
C7.74776 4.49969 8.66025 2.29673 8.66025 0
C8.66025 -2.29673 7.74776 -4.49969 6.12372 -6.12372
C4.49969 -7.74776 2.29673 -8.66025 0 -8.66025
C-2.29673 -8.66025 -4.49969 -7.74776 -6.12372 -6.12372
C-7.74776 -4.49969 -8.66025 -2.29673 -8.66025 0
C-8.66025 2.29673 -7.74776 4.49969 -6.12372 6.12372
C-4.49969 7.74776 -2.29673 8.66025 0 8.66025
z
" id="C1_0_2aea4494f3"/>
    </defs>
    <g clip-path="url(#pb303bd5eea)">
     <use style="fill:#ff0000;stroke:#000000;" x="141.820701799" xlink:href="#C1_0_2aea4494f3" y="174.989637778"/>
    </g>
    <g clip-path="url(#pb303bd5eea)">
     <use style="fill:#008000;stroke:#000000;" x="209.666571766" xlink:href="#C1_0_2aea4494f3" y="130.626391407"/>
    </g>
    <g clip-path="url(#pb303bd5eea)">
     <use style="fill:#ff0000;stroke:#000000;" x="210.993228953" xlink:href="#C1_0_2aea4494f3" y="85.0990449106"/>
    </g>
    <g clip-path="url(#pb303bd5eea)">
     <use style="fill:#008000;stroke:#000000;" x="175.509659632" xlink:href="#C1_0_2aea4494f3" y="142.392930709"/>
    </g>
    <g clip-path="url(#pb303bd5eea)">
     <use style="fill:#ff0000;stroke:#000000;" x="134.217504597" xlink:href="#C1_0_2aea4494f3" y="170.577921955"/>
    </g>
    <g clip-path="url(#pb303bd5eea)">
     <use style="fill:#008000;stroke:#000000;" x="182.860679419" xlink:href="#C1_0_2aea4494f3" y="160.26853284"/>
    </g>
    <g clip-path="url(#pb303bd5eea)">
     <use style="fill:#008000;stroke:#000000;" x="146.659015929" xlink:href="#C1_0_2aea4494f3" y="130.301194269"/>
    </g>
    <g clip-path="url(#pb303bd5eea)">
     <use style="fill:#008000;stroke:#000000;" x="181.892960012" xlink:href="#C1_0_2aea4494f3" y="185.098733163"/>
    </g>
    <g clip-path="url(#pb303bd5eea)">
     <use style="fill:#008000;stroke:#000000;" x="161.402109892" xlink:href="#C1_0_2aea4494f3" y="127.124180195"/>
    </g>
    <g clip-path="url(#pb303bd5eea)">
     <use style="fill:#008000;stroke:#000000;" x="184.501735621" xlink:href="#C1_0_2aea4494f3" y="197.367577109"/>
    </g>
    <g clip-path="url(#pb303bd5eea)">
     <use style="fill:#008000;stroke:#000000;" x="114.63977253" xlink:href="#C1_0_2aea4494f3" y="203.433229646"/>
    </g>
    <g clip-path="url(#pb303bd5eea)">
     <use style="fill:#ff0000;stroke:#000000;" x="95.9835165568" xlink:href="#C1_0_2aea4494f3" y="120.761497739"/>
    </g>
    <g clip-path="url(#pb303bd5eea)">
     <use style="fill:#ff0000;stroke:#000000;" x="213.776116654" xlink:href="#C1_0_2aea4494f3" y="164.159927734"/>
    </g>
    <g clip-path="url(#pb303bd5eea)">
     <use style="fill:#008000;stroke:#000000;" x="100.655491002" xlink:href="#C1_0_2aea4494f3" y="141.057513431"/>
    </g>
    <g clip-path="url(#pb303bd5eea)">
     <use style="fill:#008000;stroke:#000000;" x="131.107485394" xlink:href="#C1_0_2aea4494f3" y="121.255298187"/>
    </g>
    <g clip-path="url(#pb303bd5eea)">
     <use style="fill:#008000;stroke:#000000;" x="243.994781216" xlink:href="#C1_0_2aea4494f3" y="147.927689534"/>
    </g>
    <g clip-path="url(#pb303bd5eea)">
     <use style="fill:#ff0000;stroke:#000000;" x="99.9674372754" xlink:href="#C1_0_2aea4494f3" y="95.0424877584"/>
    </g>
    <g clip-path="url(#pb303bd5eea)">
     <use style="fill:#ff0000;stroke:#000000;" x="115.166906781" xlink:href="#C1_0_2aea4494f3" y="102.722056179"/>
    </g>
    <g clip-path="url(#pb303bd5eea)">
     <use style="fill:#ff0000;stroke:#000000;" x="106.09743853" xlink:href="#C1_0_2aea4494f3" y="189.159946761"/>
    </g>
    <g clip-path="url(#pb303bd5eea)">
     <use style="fill:#008000;stroke:#000000;" x="126.029530687" xlink:href="#C1_0_2aea4494f3" y="211.916495195"/>
    </g>
    <g clip-path="url(#pb303bd5eea)">
     <use style="fill:#0000ff;stroke:#000000;" x="172.017557377" xlink:href="#C1_0_2aea4494f3" y="81.4567235272"/>
    </g>
    <g clip-path="url(#pb303bd5eea)">
     <use style="fill:#008000;stroke:#000000;" x="71.1839879048" xlink:href="#C1_0_2aea4494f3" y="180.256953782"/>
    </g>
    <g clip-path="url(#pb303bd5eea)">
     <use style="fill:#ff0000;stroke:#000000;" x="161.245107507" xlink:href="#C1_0_2aea4494f3" y="205.467207759"/>
    </g>
    <g clip-path="url(#pb303bd5eea)">
     <use style="fill:#ff0000;stroke:#000000;" x="121.501545516" xlink:href="#C1_0_2aea4494f3" y="146.065243604"/>
    </g>
    <g clip-path="url(#pb303bd5eea)">
     <use style="fill:#ff0000;stroke:#000000;" x="59.2327014124" xlink:href="#C1_0_2aea4494f3" y="133.239621247"/>
    </g>
    <g clip-path="url(#pb303bd5eea)">
     <use style="fill:#008000;stroke:#000000;" x="226.104817444" xlink:href="#C1_0_2aea4494f3" y="183.54616103"/>
    </g>
    <g clip-path="url(#pb303bd5eea)">
     <use style="fill:#008000;stroke:#000000;" x="218.669089174" xlink:href="#C1_0_2aea4494f3" y="225.615518768"/>
    </g>
    <g clip-path="url(#pb303bd5eea)">
     <use style="fill:#008000;stroke:#000000;" x="82.5374986211" xlink:href="#C1_0_2aea4494f3" y="168.37766118"/>
    </g>
    <g clip-path="url(#pb303bd5eea)">
     <use style="fill:#ff0000;stroke:#000000;" x="85.4785177552" xlink:href="#C1_0_2aea4494f3" y="243.766674333"/>
    </g>
    <g clip-path="url(#pb303bd5eea)">
     <use style="fill:#ff0000;stroke:#000000;" x="108.820610398" xlink:href="#C1_0_2aea4494f3" y="72.8651762655"/>
    </g>
    <g clip-path="url(#pb303bd5eea)">
     <use style="fill:#ff0000;stroke:#000000;" x="188.835701394" xlink:href="#C1_0_2aea4494f3" y="78.174218608"/>
    </g>
    <g clip-path="url(#pb303bd5eea)">
     <use style="fill:#008000;stroke:#000000;" x="209.420623532" xlink:href="#C1_0_2aea4494f3" y="178.778073463"/>
    </g>
    <g clip-path="url(#pb303bd5eea)">
     <use style="fill:#008000;stroke:#000000;" x="92.3863600808" xlink:href="#C1_0_2aea4494f3" y="219.625765967"/>
    </g>
    <g clip-path="url(#pb303bd5eea)">
     <use style="fill:#ff0000;stroke:#000000;" x="195.048252229" xlink:href="#C1_0_2aea4494f3" y="66.0773179328"/>
    </g>
    <g clip-path="url(#pb303bd5eea)">
     <use style="fill:#008000;stroke:#000000;" x="164.485884932" xlink:href="#C1_0_2aea4494f3" y="222.911610618"/>
    </g>
    <g clip-path="url(#pb303bd5eea)">
     <use style="fill:#ff0000;stroke:#000000;" x="75.2188074506" xlink:href="#C1_0_2aea4494f3" y="152.897424925"/>
    </g>
    <g clip-path="url(#pb303bd5eea)">
     <use style="fill:#008000;stroke:#000000;" x="204.486226272" xlink:href="#C1_0_2aea4494f3" y="204.050019099"/>
    </g>
    <g clip-path="url(#pb303bd5eea)">
     <use style="fill:#008000;stroke:#000000;" x="41.1428571429" xlink:href="#C1_0_2aea4494f3" y="171.596588755"/>
    </g>
    <g clip-path="url(#pb303bd5eea)">
     <use style="fill:#0000ff;stroke:#000000;" x="147.570001646" xlink:href="#C1_0_2aea4494f3" y="64.2319481095"/>
    </g>
    <g clip-path="url(#pb303bd5eea)">
     <use style="fill:#ff0000;stroke:#000000;" x="151.844237797" xlink:href="#C1_0_2aea4494f3" y="235.453671968"/>
    </g>
    <g clip-path="url(#pb303bd5eea)">
     <use style="fill:#ff0000;stroke:#000000;" x="229.771093769" xlink:href="#C1_0_2aea4494f3" y="108.821130528"/>
    </g>
    <g clip-path="url(#pb303bd5eea)">
     <use style="fill:#ff0000;stroke:#000000;" x="182.844838588" xlink:href="#C1_0_2aea4494f3" y="113.287231016"/>
    </g>
    <g clip-path="url(#pb303bd5eea)">
     <use style="fill:#ff0000;stroke:#000000;" x="155.801184186" xlink:href="#C1_0_2aea4494f3" y="94.860764369"/>
    </g>
    <g clip-path="url(#pb303bd5eea)">
     <use style="fill:#0000ff;stroke:#000000;" x="149.079885531" xlink:href="#C1_0_2aea4494f3" y="76.8768871087"/>
    </g>
    <g clip-path="url(#pb303bd5eea)">
     <use style="fill:#008000;stroke:#000000;" x="199.974383183" xlink:href="#C1_0_2aea4494f3" y="144.209486115"/>
    </g>
    <g clip-path="url(#pb303bd5eea)">
     <use style="fill:#ff0000;stroke:#000000;" x="246.857142857" xlink:href="#C1_0_2aea4494f3" y="209.772712678"/>
    </g>
    <g clip-path="url(#pb303bd5eea)">
     <use style="fill:#ff0000;stroke:#000000;" x="92.6854116385" xlink:href="#C1_0_2aea4494f3" y="55.4320507344"/>
    </g>
    <g clip-path="url(#pb303bd5eea)">
     <use style="fill:#008000;stroke:#000000;" x="117.0518111" xlink:href="#C1_0_2aea4494f3" y="120.756306212"/>
    </g>
    <g clip-path="url(#pb303bd5eea)">
     <use style="fill:#ff0000;stroke:#000000;" x="144.757027461" xlink:href="#C1_0_2aea4494f3" y="209.406212308"/>
    </g>
    <g clip-path="url(#pb303bd5eea)">
     <use style="fill:#008000;stroke:#000000;" x="131.937057537" xlink:href="#C1_0_2aea4494f3" y="246.857142857"/>
    </g>
   </g>
  </g>
 </g>
 <defs>
  <clipPath id="pb303bd5eea">
   <rect height="288.0" width="288.0" x="0.0" y="0.0"/>
  </clipPath>
 </defs>
</svg>
