<?xml version="1.0" encoding="utf-8" standalone="no"?>
<!DOCTYPE svg PUBLIC "-//W3C//DTD SVG 1.1//EN"
  "http://www.w3.org/Graphics/SVG/1.1/DTD/svg11.dtd">
<!-- Created with matplotlib (http://matplotlib.org/) -->
<svg height="288pt" version="1.1" viewBox="0 0 288 288" width="288pt" xmlns="http://www.w3.org/2000/svg" xmlns:xlink="http://www.w3.org/1999/xlink">
 <defs>
  <style type="text/css">
*{stroke-linecap:butt;stroke-linejoin:round;}
  </style>
 </defs>
 <g id="figure_1">
  <g id="patch_1">
   <path d="
M0 288
L288 288
L288 0
L0 0
z
" style="fill:#ffffff;"/>
  </g>
  <g id="axes_1">
   <g id="LineCollection_1">
    <defs>
     <path d="
M133.304 -170.628
L65.0649 -194.607" id="C0_0_8eb2a82452"/>
     <path d="
M133.304 -170.628
L166.462 -155.086" id="C0_1_0c7655144e"/>
     <path d="
M133.304 -170.628
L117.89 -163.737" id="C0_2_236a6750b7"/>
     <path d="
M133.304 -170.628
L183.928 -170.075" id="C0_3_2864731bbe"/>
     <path d="
M133.304 -170.628
L175.961 -201.528" id="C0_4_e227863f6b"/>
     <path d="
M133.304 -170.628
L165.462 -191.889" id="C0_5_24cc8ca601"/>
     <path d="
M133.304 -170.628
L92.7751 -197.828" id="C0_6_898246b536"/>
     <path d="
M133.304 -170.628
L132.712 -105.03" id="C0_7_4b585ca9c1"/>
     <path d="
M133.304 -170.628
L199.762 -193.671" id="C0_8_2c73dabdc3"/>
     <path d="
M133.304 -170.628
L102.66 -121.755" id="C0_9_3f1fea48f3"/>
     <path d="
M133.304 -170.628
L206.313 -164.373" id="C0_a_5dca805ec2"/>
     <path d="
M133.304 -170.628
L126.669 -208.555" id="C0_b_9adf7502e0"/>
     <path d="
M133.304 -170.628
L75.4468 -141.888" id="C0_c_f307d30c84"/>
     <path d="
M133.304 -170.628
L139.479 -126.713" id="C0_d_447cc12da1"/>
     <path d="
M133.304 -170.628
L123.625 -229.146" id="C0_e_174a5b24ea"/>
     <path d="
M133.304 -170.628
L80.5622 -125.961" id="C0_f_3d6ec2550c"/>
     <path d="
M105.878 -107.68
L166.462 -155.086" id="C0_10_69dfeedaf8"/>
     <path d="
M105.878 -107.68
L117.89 -163.737" id="C0_11_a886b127a5"/>
     <path d="
M236.209 -120.477
L185.058 -137.453" id="C0_12_7ee868cb80"/>
     <path d="
M236.209 -120.477
L166.462 -155.086" id="C0_13_fa97c64166"/>
     <path d="
M236.209 -120.477
L211.518 -98.9171" id="C0_14_ee54f61bd4"/>
     <path d="
M236.209 -120.477
L229.853 -93.2506" id="C0_15_ac7eab1d20"/>
     <path d="
M166.462 -155.086
L117.89 -163.737" id="C0_16_de59d804a5"/>
     <path d="
M166.462 -155.086
L183.928 -170.075" id="C0_17_14e58b35c8"/>
     <path d="
M166.462 -155.086
L158.73 -131.948" id="C0_18_2283b55406"/>
     <path d="
M166.462 -155.086
L175.961 -201.528" id="C0_19_f195eab454"/>
     <path d="
M166.462 -155.086
L238.77 -144.185" id="C0_1a_167845bc9f"/>
     <path d="
M166.462 -155.086
L92.7751 -197.828" id="C0_1b_4825e22262"/>
     <path d="
M166.462 -155.086
L180.135 -93.1561" id="C0_1c_1a3e8d6cd9"/>
     <path d="
M166.462 -155.086
L206.313 -164.373" id="C0_1d_31cb67c68f"/>
     <path d="
M166.462 -155.086
L143.793 -227.464" id="C0_1e_1d22e75e59"/>
     <path d="
M166.462 -155.086
L85.5042 -158.736" id="C0_1f_c5dd485bda"/>
     <path d="
M166.462 -155.086
L235.47 -184.48" id="C0_20_67f96b2bbd"/>
     <path d="
M166.462 -155.086
L126.669 -208.555" id="C0_21_02f5d2e66f"/>
     <path d="
M166.462 -155.086
L173.807 -221.592" id="C0_22_6573ea15fa"/>
     <path d="
M166.462 -155.086
L181.699 -73.7845" id="C0_23_d0ecbeec22"/>
     <path d="
M166.462 -155.086
L199.074 -81.4529" id="C0_24_a0ef51b707"/>
     <path d="
M117.89 -163.737
L173.807 -221.592" id="C0_25_f953549be7"/>
     <path d="
M117.89 -163.737
L183.928 -170.075" id="C0_26_6c6f23a85e"/>
     <path d="
M117.89 -163.737
L158.73 -131.948" id="C0_27_8ed8079d1b"/>
     <path d="
M117.89 -163.737
L65.0649 -194.607" id="C0_28_775254ee87"/>
     <path d="
M117.89 -163.737
L92.7751 -197.828" id="C0_29_55ec6ea675"/>
     <path d="
M117.89 -163.737
L132.712 -105.03" id="C0_2a_01fa3ddeb7"/>
     <path d="
M117.89 -163.737
L102.66 -121.755" id="C0_2b_a72b9565b4"/>
     <path d="
M117.89 -163.737
L85.5042 -158.736" id="C0_2c_f8ff106d23"/>
     <path d="
M117.89 -163.737
L126.669 -208.555" id="C0_2d_5a7215343b"/>
     <path d="
M117.89 -163.737
L101.113 -237.313" id="C0_2e_51e41c2a53"/>
     <path d="
M117.89 -163.737
L102.038 -177.968" id="C0_2f_5ee0546e52"/>
     <path d="
M117.89 -163.737
L114.861 -202.261" id="C0_30_cb979e0047"/>
     <path d="
M117.89 -163.737
L142.481 -199.333" id="C0_31_5c7c20e3f5"/>
     <path d="
M117.89 -163.737
L73.5255 -98.6714" id="C0_32_21abc85b6f"/>
     <path d="
M117.89 -163.737
L123.625 -229.146" id="C0_33_6715c5d925"/>
     <path d="
M117.89 -163.737
L80.5622 -125.961" id="C0_34_56bc01c819"/>
     <path d="
M117.89 -163.737
L136.122 -87.0303" id="C0_35_6f9b37a362"/>
     <path d="
M183.928 -170.075
L158.73 -131.948" id="C0_36_b19836f730"/>
     <path d="
M183.928 -170.075
L175.961 -201.528" id="C0_37_daeae45b49"/>
     <path d="
M183.928 -170.075
L238.77 -144.185" id="C0_38_2df18e0897"/>
     <path d="
M183.928 -170.075
L165.462 -191.889" id="C0_39_e9902554dd"/>
     <path d="
M183.928 -170.075
L199.762 -193.671" id="C0_3a_ecaf99ace8"/>
     <path d="
M183.928 -170.075
L235.47 -184.48" id="C0_3b_74587212e0"/>
     <path d="
M183.928 -170.075
L114.861 -202.261" id="C0_3c_2a062d5165"/>
     <path d="
M183.928 -170.075
L211.518 -98.9171" id="C0_3d_fb8ffe80fb"/>
     <path d="
M183.928 -170.075
L219.494 -201.657" id="C0_3e_f4d87b6c69"/>
     <path d="
M183.928 -170.075
L200.228 -234.639" id="C0_3f_52fc30a4fb"/>
     <path d="
M183.928 -170.075
L195.196 -113.642" id="C0_40_a58b7492cc"/>
     <path d="
M183.928 -170.075
L144.613 -148.13" id="C0_41_60594a0137"/>
     <path d="
M158.73 -131.948
L199.074 -81.4529" id="C0_42_669a868f1d"/>
     <path d="
M158.73 -131.948
L185.058 -137.453" id="C0_43_70820f1d2d"/>
     <path d="
M158.73 -131.948
L165.462 -191.889" id="C0_44_0c1ee48c47"/>
     <path d="
M158.73 -131.948
L136.122 -87.0303" id="C0_45_0881c4ede3"/>
     <path d="
M158.73 -131.948
L180.135 -93.1561" id="C0_46_b89b5cc967"/>
     <path d="
M158.73 -131.948
L199.762 -193.671" id="C0_47_bbb91217e3"/>
     <path d="
M158.73 -131.948
L149.696 -84.4589" id="C0_48_1b55ec9a94"/>
     <path d="
M158.73 -131.948
L162.696 -100.193" id="C0_49_5729aeee3e"/>
     <path d="
M158.73 -131.948
L75.4468 -141.888" id="C0_4a_23043df7d2"/>
     <path d="
M158.73 -131.948
L139.479 -126.713" id="C0_4b_430bfbb0dd"/>
     <path d="
M175.961 -201.528
L185.058 -137.453" id="C0_4c_4ac3747d04"/>
     <path d="
M175.961 -201.528
L216.688 -246.857" id="C0_4d_36a43c1848"/>
     <path d="
M175.961 -201.528
L114.861 -202.261" id="C0_4e_217e8a3c98"/>
     <path d="
M175.961 -201.528
L142.481 -199.333" id="C0_4f_bbc877af24"/>
     <path d="
M185.058 -137.453
L132.712 -105.03" id="C0_50_f6d7fe6fa0"/>
     <path d="
M185.058 -137.453
L206.313 -164.373" id="C0_51_8160cb82b2"/>
     <path d="
M185.058 -137.453
L149.696 -84.4589" id="C0_52_cb3a64db4d"/>
     <path d="
M185.058 -137.453
L162.696 -100.193" id="C0_53_36d8b3941a"/>
     <path d="
M185.058 -137.453
L102.038 -177.968" id="C0_54_10f4422b57"/>
     <path d="
M185.058 -137.453
L211.518 -98.9171" id="C0_55_ea5692287b"/>
     <path d="
M185.058 -137.453
L219.494 -201.657" id="C0_56_36b8cd6f12"/>
     <path d="
M185.058 -137.453
L229.853 -93.2506" id="C0_57_6654640377"/>
     <path d="
M165.462 -191.889
L173.807 -221.592" id="C0_58_e7ad2460ba"/>
     <path d="
M165.462 -191.889
L123.625 -229.146" id="C0_59_3e013ae89a"/>
     <path d="
M165.462 -191.889
L219.494 -201.657" id="C0_5a_7195af03be"/>
     <path d="
M165.462 -191.889
L144.613 -148.13" id="C0_5b_3a0f1212dc"/>
     <path d="
M92.7751 -197.828
L62.2736 -229.287" id="C0_5c_560efd783d"/>
     <path d="
M92.7751 -197.828
L65.0649 -194.607" id="C0_5d_61601f033c"/>
     <path d="
M132.712 -105.03
L102.66 -121.755" id="C0_5e_32b64e78e1"/>
     <path d="
M132.712 -105.03
L169.024 -41.1429" id="C0_5f_472c8aeb58"/>
     <path d="
M132.712 -105.03
L195.196 -113.642" id="C0_60_947be7cff3"/>
     <path d="
M132.712 -105.03
L73.5255 -98.6714" id="C0_61_cad4ba1ace"/>
     <path d="
M132.712 -105.03
L80.5622 -125.961" id="C0_62_09a72e4b54"/>
     <path d="
M132.712 -105.03
L161.425 -60.6166" id="C0_63_6975904b13"/>
     <path d="
M199.762 -193.671
L235.47 -184.48" id="C0_64_024e453d2d"/>
     <path d="
M199.762 -193.671
L216.688 -246.857" id="C0_65_6fb2463ca6"/>
     <path d="
M102.66 -121.755
L41.1429 -144.774" id="C0_66_0dce58f14e"/>
     <path d="
M102.66 -121.755
L119.644 -70.4245" id="C0_67_8ca175335a"/>
     <path d="
M102.66 -121.755
L85.5042 -158.736" id="C0_68_ba76a70ebb"/>
     <path d="
M102.66 -121.755
L149.696 -84.4589" id="C0_69_6a2a3b36d6"/>
     <path d="
M102.66 -121.755
L162.696 -100.193" id="C0_6a_a19170920c"/>
     <path d="
M102.66 -121.755
L102.038 -177.968" id="C0_6b_f59b336e6f"/>
     <path d="
M102.66 -121.755
L73.5255 -98.6714" id="C0_6c_bcc1eed319"/>
     <path d="
M162.696 -100.193
L169.024 -41.1429" id="C0_6d_48e2a6aa49"/>
     <path d="
M162.696 -100.193
L195.196 -113.642" id="C0_6e_eaa32efaf6"/>
     <path d="
M162.696 -100.193
L103.363 -146.015" id="C0_6f_752990cc6b"/>
     <path d="
M162.696 -100.193
L229.853 -93.2506" id="C0_70_3b3bd257d6"/>
     <path d="
M102.038 -177.968
L143.793 -227.464" id="C0_71_b4ddb77e45"/>
     <path d="
M102.038 -177.968
L41.1429 -144.774" id="C0_72_6326b386f4"/>
     <path d="
M102.038 -177.968
L103.363 -146.015" id="C0_73_072764b469"/>
     <path d="
M102.038 -177.968
L142.481 -199.333" id="C0_74_1f956da417"/>
     <path d="
M102.038 -177.968
L62.2736 -229.287" id="C0_75_cc5f4ddd28"/>
     <path d="
M114.861 -202.261
L62.2736 -229.287" id="C0_76_6cef110db7"/>
     <path d="
M114.861 -202.261
L103.363 -146.015" id="C0_77_925a5da973"/>
     <path d="
M211.518 -98.9171
L181.699 -73.7845" id="C0_78_d26aa5f77b"/>
     <path d="
M211.518 -98.9171
L199.074 -81.4529" id="C0_79_491e6b4601"/>
     <path d="
M211.518 -98.9171
L161.425 -60.6166" id="C0_7a_f9f7627352"/>
     <path d="
M142.481 -199.333
L143.793 -227.464" id="C0_7b_cc447ac23a"/>
     <path d="
M142.481 -199.333
L101.113 -237.313" id="C0_7c_7b7968cd3f"/>
     <path d="
M142.481 -199.333
L139.479 -126.713" id="C0_7d_6c8e80d029"/>
     <path d="
M142.481 -199.333
L200.228 -234.639" id="C0_7e_9b11b40769"/>
     <path d="
M142.481 -199.333
L144.613 -148.13" id="C0_7f_60aa9bf82c"/>
     <path d="
M139.479 -126.713
L161.425 -60.6166" id="C0_80_8753d5a830"/>
     <path d="
M219.494 -201.657
L200.228 -234.639" id="C0_81_768f7d38fc"/>
     <path d="
M80.5622 -125.961
L75.4468 -141.888" id="C0_82_137d65c357"/>
     <path d="
M229.853 -93.2506
L181.699 -73.7845" id="C0_83_16b951f971"/>
     <path d="
M229.853 -93.2506
L238.77 -144.185" id="C0_84_cf1b0c4dbd"/>
     <path d="
M144.613 -148.13
L119.644 -70.4245" id="C0_85_ec5cb24316"/>
     <path d="
M181.699 -73.7845
L119.644 -70.4245" id="C0_86_097be1a740"/>
     <path d="
M181.699 -73.7845
L136.122 -87.0303" id="C0_87_429e5e624a"/>
     <path d="
M75.4468 -141.888
L41.1429 -144.774" id="C0_88_18ca931612"/>
     <path d="
M173.807 -221.592
L216.688 -246.857" id="C0_89_bd8b090800"/>
     <path d="
M199.074 -81.4529
L169.024 -41.1429" id="C0_8a_44acb2f591"/>
     <path d="
M136.122 -87.0303
L180.135 -93.1561" id="C0_8b_b3c0ab07be"/>
     <path d="
M126.669 -208.555
L101.113 -237.313" id="C0_8c_e119dde84c"/>
    </defs>
    <g clip-path="url(#pb303bd5eea)">
     <use style="fill:none;stroke:#000000;" x="0.0" xlink:href="#C0_0_8eb2a82452" y="288.0"/>
    </g>
    <g clip-path="url(#pb303bd5eea)">
     <use style="fill:none;stroke:#000000;" x="0.0" xlink:href="#C0_1_0c7655144e" y="288.0"/>
    </g>
    <g clip-path="url(#pb303bd5eea)">
     <use style="fill:none;stroke:#000000;" x="0.0" xlink:href="#C0_2_236a6750b7" y="288.0"/>
    </g>
    <g clip-path="url(#pb303bd5eea)">
     <use style="fill:none;stroke:#000000;" x="0.0" xlink:href="#C0_3_2864731bbe" y="288.0"/>
    </g>
    <g clip-path="url(#pb303bd5eea)">
     <use style="fill:none;stroke:#000000;" x="0.0" xlink:href="#C0_4_e227863f6b" y="288.0"/>
    </g>
    <g clip-path="url(#pb303bd5eea)">
     <use style="fill:none;stroke:#000000;" x="0.0" xlink:href="#C0_5_24cc8ca601" y="288.0"/>
    </g>
    <g clip-path="url(#pb303bd5eea)">
     <use style="fill:none;stroke:#000000;" x="0.0" xlink:href="#C0_6_898246b536" y="288.0"/>
    </g>
    <g clip-path="url(#pb303bd5eea)">
     <use style="fill:none;stroke:#000000;" x="0.0" xlink:href="#C0_7_4b585ca9c1" y="288.0"/>
    </g>
    <g clip-path="url(#pb303bd5eea)">
     <use style="fill:none;stroke:#000000;" x="0.0" xlink:href="#C0_8_2c73dabdc3" y="288.0"/>
    </g>
    <g clip-path="url(#pb303bd5eea)">
     <use style="fill:none;stroke:#000000;" x="0.0" xlink:href="#C0_9_3f1fea48f3" y="288.0"/>
    </g>
    <g clip-path="url(#pb303bd5eea)">
     <use style="fill:none;stroke:#000000;" x="0.0" xlink:href="#C0_a_5dca805ec2" y="288.0"/>
    </g>
    <g clip-path="url(#pb303bd5eea)">
     <use style="fill:none;stroke:#000000;" x="0.0" xlink:href="#C0_b_9adf7502e0" y="288.0"/>
    </g>
    <g clip-path="url(#pb303bd5eea)">
     <use style="fill:none;stroke:#000000;" x="0.0" xlink:href="#C0_c_f307d30c84" y="288.0"/>
    </g>
    <g clip-path="url(#pb303bd5eea)">
     <use style="fill:none;stroke:#000000;" x="0.0" xlink:href="#C0_d_447cc12da1" y="288.0"/>
    </g>
    <g clip-path="url(#pb303bd5eea)">
     <use style="fill:none;stroke:#000000;" x="0.0" xlink:href="#C0_e_174a5b24ea" y="288.0"/>
    </g>
    <g clip-path="url(#pb303bd5eea)">
     <use style="fill:none;stroke:#000000;" x="0.0" xlink:href="#C0_f_3d6ec2550c" y="288.0"/>
    </g>
    <g clip-path="url(#pb303bd5eea)">
     <use style="fill:none;stroke:#000000;" x="0.0" xlink:href="#C0_10_69dfeedaf8" y="288.0"/>
    </g>
    <g clip-path="url(#pb303bd5eea)">
     <use style="fill:none;stroke:#000000;" x="0.0" xlink:href="#C0_11_a886b127a5" y="288.0"/>
    </g>
    <g clip-path="url(#pb303bd5eea)">
     <use style="fill:none;stroke:#000000;" x="0.0" xlink:href="#C0_12_7ee868cb80" y="288.0"/>
    </g>
    <g clip-path="url(#pb303bd5eea)">
     <use style="fill:none;stroke:#000000;" x="0.0" xlink:href="#C0_13_fa97c64166" y="288.0"/>
    </g>
    <g clip-path="url(#pb303bd5eea)">
     <use style="fill:none;stroke:#000000;" x="0.0" xlink:href="#C0_14_ee54f61bd4" y="288.0"/>
    </g>
    <g clip-path="url(#pb303bd5eea)">
     <use style="fill:none;stroke:#000000;" x="0.0" xlink:href="#C0_15_ac7eab1d20" y="288.0"/>
    </g>
    <g clip-path="url(#pb303bd5eea)">
     <use style="fill:none;stroke:#000000;" x="0.0" xlink:href="#C0_16_de59d804a5" y="288.0"/>
    </g>
    <g clip-path="url(#pb303bd5eea)">
     <use style="fill:none;stroke:#000000;" x="0.0" xlink:href="#C0_17_14e58b35c8" y="288.0"/>
    </g>
    <g clip-path="url(#pb303bd5eea)">
     <use style="fill:none;stroke:#000000;" x="0.0" xlink:href="#C0_18_2283b55406" y="288.0"/>
    </g>
    <g clip-path="url(#pb303bd5eea)">
     <use style="fill:none;stroke:#000000;" x="0.0" xlink:href="#C0_19_f195eab454" y="288.0"/>
    </g>
    <g clip-path="url(#pb303bd5eea)">
     <use style="fill:none;stroke:#000000;" x="0.0" xlink:href="#C0_1a_167845bc9f" y="288.0"/>
    </g>
    <g clip-path="url(#pb303bd5eea)">
     <use style="fill:none;stroke:#000000;" x="0.0" xlink:href="#C0_1b_4825e22262" y="288.0"/>
    </g>
    <g clip-path="url(#pb303bd5eea)">
     <use style="fill:none;stroke:#000000;" x="0.0" xlink:href="#C0_1c_1a3e8d6cd9" y="288.0"/>
    </g>
    <g clip-path="url(#pb303bd5eea)">
     <use style="fill:none;stroke:#000000;" x="0.0" xlink:href="#C0_1d_31cb67c68f" y="288.0"/>
    </g>
    <g clip-path="url(#pb303bd5eea)">
     <use style="fill:none;stroke:#000000;" x="0.0" xlink:href="#C0_1e_1d22e75e59" y="288.0"/>
    </g>
    <g clip-path="url(#pb303bd5eea)">
     <use style="fill:none;stroke:#000000;" x="0.0" xlink:href="#C0_1f_c5dd485bda" y="288.0"/>
    </g>
    <g clip-path="url(#pb303bd5eea)">
     <use style="fill:none;stroke:#000000;" x="0.0" xlink:href="#C0_20_67f96b2bbd" y="288.0"/>
    </g>
    <g clip-path="url(#pb303bd5eea)">
     <use style="fill:none;stroke:#000000;" x="0.0" xlink:href="#C0_21_02f5d2e66f" y="288.0"/>
    </g>
    <g clip-path="url(#pb303bd5eea)">
     <use style="fill:none;stroke:#000000;" x="0.0" xlink:href="#C0_22_6573ea15fa" y="288.0"/>
    </g>
    <g clip-path="url(#pb303bd5eea)">
     <use style="fill:none;stroke:#000000;" x="0.0" xlink:href="#C0_23_d0ecbeec22" y="288.0"/>
    </g>
    <g clip-path="url(#pb303bd5eea)">
     <use style="fill:none;stroke:#000000;" x="0.0" xlink:href="#C0_24_a0ef51b707" y="288.0"/>
    </g>
    <g clip-path="url(#pb303bd5eea)">
     <use style="fill:none;stroke:#000000;" x="0.0" xlink:href="#C0_25_f953549be7" y="288.0"/>
    </g>
    <g clip-path="url(#pb303bd5eea)">
     <use style="fill:none;stroke:#000000;" x="0.0" xlink:href="#C0_26_6c6f23a85e" y="288.0"/>
    </g>
    <g clip-path="url(#pb303bd5eea)">
     <use style="fill:none;stroke:#000000;" x="0.0" xlink:href="#C0_27_8ed8079d1b" y="288.0"/>
    </g>
    <g clip-path="url(#pb303bd5eea)">
     <use style="fill:none;stroke:#000000;" x="0.0" xlink:href="#C0_28_775254ee87" y="288.0"/>
    </g>
    <g clip-path="url(#pb303bd5eea)">
     <use style="fill:none;stroke:#000000;" x="0.0" xlink:href="#C0_29_55ec6ea675" y="288.0"/>
    </g>
    <g clip-path="url(#pb303bd5eea)">
     <use style="fill:none;stroke:#000000;" x="0.0" xlink:href="#C0_2a_01fa3ddeb7" y="288.0"/>
    </g>
    <g clip-path="url(#pb303bd5eea)">
     <use style="fill:none;stroke:#000000;" x="0.0" xlink:href="#C0_2b_a72b9565b4" y="288.0"/>
    </g>
    <g clip-path="url(#pb303bd5eea)">
     <use style="fill:none;stroke:#000000;" x="0.0" xlink:href="#C0_2c_f8ff106d23" y="288.0"/>
    </g>
    <g clip-path="url(#pb303bd5eea)">
     <use style="fill:none;stroke:#000000;" x="0.0" xlink:href="#C0_2d_5a7215343b" y="288.0"/>
    </g>
    <g clip-path="url(#pb303bd5eea)">
     <use style="fill:none;stroke:#000000;" x="0.0" xlink:href="#C0_2e_51e41c2a53" y="288.0"/>
    </g>
    <g clip-path="url(#pb303bd5eea)">
     <use style="fill:none;stroke:#000000;" x="0.0" xlink:href="#C0_2f_5ee0546e52" y="288.0"/>
    </g>
    <g clip-path="url(#pb303bd5eea)">
     <use style="fill:none;stroke:#000000;" x="0.0" xlink:href="#C0_30_cb979e0047" y="288.0"/>
    </g>
    <g clip-path="url(#pb303bd5eea)">
     <use style="fill:none;stroke:#000000;" x="0.0" xlink:href="#C0_31_5c7c20e3f5" y="288.0"/>
    </g>
    <g clip-path="url(#pb303bd5eea)">
     <use style="fill:none;stroke:#000000;" x="0.0" xlink:href="#C0_32_21abc85b6f" y="288.0"/>
    </g>
    <g clip-path="url(#pb303bd5eea)">
     <use style="fill:none;stroke:#000000;" x="0.0" xlink:href="#C0_33_6715c5d925" y="288.0"/>
    </g>
    <g clip-path="url(#pb303bd5eea)">
     <use style="fill:none;stroke:#000000;" x="0.0" xlink:href="#C0_34_56bc01c819" y="288.0"/>
    </g>
    <g clip-path="url(#pb303bd5eea)">
     <use style="fill:none;stroke:#000000;" x="0.0" xlink:href="#C0_35_6f9b37a362" y="288.0"/>
    </g>
    <g clip-path="url(#pb303bd5eea)">
     <use style="fill:none;stroke:#000000;" x="0.0" xlink:href="#C0_36_b19836f730" y="288.0"/>
    </g>
    <g clip-path="url(#pb303bd5eea)">
     <use style="fill:none;stroke:#000000;" x="0.0" xlink:href="#C0_37_daeae45b49" y="288.0"/>
    </g>
    <g clip-path="url(#pb303bd5eea)">
     <use style="fill:none;stroke:#000000;" x="0.0" xlink:href="#C0_38_2df18e0897" y="288.0"/>
    </g>
    <g clip-path="url(#pb303bd5eea)">
     <use style="fill:none;stroke:#000000;" x="0.0" xlink:href="#C0_39_e9902554dd" y="288.0"/>
    </g>
    <g clip-path="url(#pb303bd5eea)">
     <use style="fill:none;stroke:#000000;" x="0.0" xlink:href="#C0_3a_ecaf99ace8" y="288.0"/>
    </g>
    <g clip-path="url(#pb303bd5eea)">
     <use style="fill:none;stroke:#000000;" x="0.0" xlink:href="#C0_3b_74587212e0" y="288.0"/>
    </g>
    <g clip-path="url(#pb303bd5eea)">
     <use style="fill:none;stroke:#000000;" x="0.0" xlink:href="#C0_3c_2a062d5165" y="288.0"/>
    </g>
    <g clip-path="url(#pb303bd5eea)">
     <use style="fill:none;stroke:#000000;" x="0.0" xlink:href="#C0_3d_fb8ffe80fb" y="288.0"/>
    </g>
    <g clip-path="url(#pb303bd5eea)">
     <use style="fill:none;stroke:#000000;" x="0.0" xlink:href="#C0_3e_f4d87b6c69" y="288.0"/>
    </g>
    <g clip-path="url(#pb303bd5eea)">
     <use style="fill:none;stroke:#000000;" x="0.0" xlink:href="#C0_3f_52fc30a4fb" y="288.0"/>
    </g>
    <g clip-path="url(#pb303bd5eea)">
     <use style="fill:none;stroke:#000000;" x="0.0" xlink:href="#C0_40_a58b7492cc" y="288.0"/>
    </g>
    <g clip-path="url(#pb303bd5eea)">
     <use style="fill:none;stroke:#000000;" x="0.0" xlink:href="#C0_41_60594a0137" y="288.0"/>
    </g>
    <g clip-path="url(#pb303bd5eea)">
     <use style="fill:none;stroke:#000000;" x="0.0" xlink:href="#C0_42_669a868f1d" y="288.0"/>
    </g>
    <g clip-path="url(#pb303bd5eea)">
     <use style="fill:none;stroke:#000000;" x="0.0" xlink:href="#C0_43_70820f1d2d" y="288.0"/>
    </g>
    <g clip-path="url(#pb303bd5eea)">
     <use style="fill:none;stroke:#000000;" x="0.0" xlink:href="#C0_44_0c1ee48c47" y="288.0"/>
    </g>
    <g clip-path="url(#pb303bd5eea)">
     <use style="fill:none;stroke:#000000;" x="0.0" xlink:href="#C0_45_0881c4ede3" y="288.0"/>
    </g>
    <g clip-path="url(#pb303bd5eea)">
     <use style="fill:none;stroke:#000000;" x="0.0" xlink:href="#C0_46_b89b5cc967" y="288.0"/>
    </g>
    <g clip-path="url(#pb303bd5eea)">
     <use style="fill:none;stroke:#000000;" x="0.0" xlink:href="#C0_47_bbb91217e3" y="288.0"/>
    </g>
    <g clip-path="url(#pb303bd5eea)">
     <use style="fill:none;stroke:#000000;" x="0.0" xlink:href="#C0_48_1b55ec9a94" y="288.0"/>
    </g>
    <g clip-path="url(#pb303bd5eea)">
     <use style="fill:none;stroke:#000000;" x="0.0" xlink:href="#C0_49_5729aeee3e" y="288.0"/>
    </g>
    <g clip-path="url(#pb303bd5eea)">
     <use style="fill:none;stroke:#000000;" x="0.0" xlink:href="#C0_4a_23043df7d2" y="288.0"/>
    </g>
    <g clip-path="url(#pb303bd5eea)">
     <use style="fill:none;stroke:#000000;" x="0.0" xlink:href="#C0_4b_430bfbb0dd" y="288.0"/>
    </g>
    <g clip-path="url(#pb303bd5eea)">
     <use style="fill:none;stroke:#000000;" x="0.0" xlink:href="#C0_4c_4ac3747d04" y="288.0"/>
    </g>
    <g clip-path="url(#pb303bd5eea)">
     <use style="fill:none;stroke:#000000;" x="0.0" xlink:href="#C0_4d_36a43c1848" y="288.0"/>
    </g>
    <g clip-path="url(#pb303bd5eea)">
     <use style="fill:none;stroke:#000000;" x="0.0" xlink:href="#C0_4e_217e8a3c98" y="288.0"/>
    </g>
    <g clip-path="url(#pb303bd5eea)">
     <use style="fill:none;stroke:#000000;" x="0.0" xlink:href="#C0_4f_bbc877af24" y="288.0"/>
    </g>
    <g clip-path="url(#pb303bd5eea)">
     <use style="fill:none;stroke:#000000;" x="0.0" xlink:href="#C0_50_f6d7fe6fa0" y="288.0"/>
    </g>
    <g clip-path="url(#pb303bd5eea)">
     <use style="fill:none;stroke:#000000;" x="0.0" xlink:href="#C0_51_8160cb82b2" y="288.0"/>
    </g>
    <g clip-path="url(#pb303bd5eea)">
     <use style="fill:none;stroke:#000000;" x="0.0" xlink:href="#C0_52_cb3a64db4d" y="288.0"/>
    </g>
    <g clip-path="url(#pb303bd5eea)">
     <use style="fill:none;stroke:#000000;" x="0.0" xlink:href="#C0_53_36d8b3941a" y="288.0"/>
    </g>
    <g clip-path="url(#pb303bd5eea)">
     <use style="fill:none;stroke:#000000;" x="0.0" xlink:href="#C0_54_10f4422b57" y="288.0"/>
    </g>
    <g clip-path="url(#pb303bd5eea)">
     <use style="fill:none;stroke:#000000;" x="0.0" xlink:href="#C0_55_ea5692287b" y="288.0"/>
    </g>
    <g clip-path="url(#pb303bd5eea)">
     <use style="fill:none;stroke:#000000;" x="0.0" xlink:href="#C0_56_36b8cd6f12" y="288.0"/>
    </g>
    <g clip-path="url(#pb303bd5eea)">
     <use style="fill:none;stroke:#000000;" x="0.0" xlink:href="#C0_57_6654640377" y="288.0"/>
    </g>
    <g clip-path="url(#pb303bd5eea)">
     <use style="fill:none;stroke:#000000;" x="0.0" xlink:href="#C0_58_e7ad2460ba" y="288.0"/>
    </g>
    <g clip-path="url(#pb303bd5eea)">
     <use style="fill:none;stroke:#000000;" x="0.0" xlink:href="#C0_59_3e013ae89a" y="288.0"/>
    </g>
    <g clip-path="url(#pb303bd5eea)">
     <use style="fill:none;stroke:#000000;" x="0.0" xlink:href="#C0_5a_7195af03be" y="288.0"/>
    </g>
    <g clip-path="url(#pb303bd5eea)">
     <use style="fill:none;stroke:#000000;" x="0.0" xlink:href="#C0_5b_3a0f1212dc" y="288.0"/>
    </g>
    <g clip-path="url(#pb303bd5eea)">
     <use style="fill:none;stroke:#000000;" x="0.0" xlink:href="#C0_5c_560efd783d" y="288.0"/>
    </g>
    <g clip-path="url(#pb303bd5eea)">
     <use style="fill:none;stroke:#000000;" x="0.0" xlink:href="#C0_5d_61601f033c" y="288.0"/>
    </g>
    <g clip-path="url(#pb303bd5eea)">
     <use style="fill:none;stroke:#000000;" x="0.0" xlink:href="#C0_5e_32b64e78e1" y="288.0"/>
    </g>
    <g clip-path="url(#pb303bd5eea)">
     <use style="fill:none;stroke:#000000;" x="0.0" xlink:href="#C0_5f_472c8aeb58" y="288.0"/>
    </g>
    <g clip-path="url(#pb303bd5eea)">
     <use style="fill:none;stroke:#000000;" x="0.0" xlink:href="#C0_60_947be7cff3" y="288.0"/>
    </g>
    <g clip-path="url(#pb303bd5eea)">
     <use style="fill:none;stroke:#000000;" x="0.0" xlink:href="#C0_61_cad4ba1ace" y="288.0"/>
    </g>
    <g clip-path="url(#pb303bd5eea)">
     <use style="fill:none;stroke:#000000;" x="0.0" xlink:href="#C0_62_09a72e4b54" y="288.0"/>
    </g>
    <g clip-path="url(#pb303bd5eea)">
     <use style="fill:none;stroke:#000000;" x="0.0" xlink:href="#C0_63_6975904b13" y="288.0"/>
    </g>
    <g clip-path="url(#pb303bd5eea)">
     <use style="fill:none;stroke:#000000;" x="0.0" xlink:href="#C0_64_024e453d2d" y="288.0"/>
    </g>
    <g clip-path="url(#pb303bd5eea)">
     <use style="fill:none;stroke:#000000;" x="0.0" xlink:href="#C0_65_6fb2463ca6" y="288.0"/>
    </g>
    <g clip-path="url(#pb303bd5eea)">
     <use style="fill:none;stroke:#000000;" x="0.0" xlink:href="#C0_66_0dce58f14e" y="288.0"/>
    </g>
    <g clip-path="url(#pb303bd5eea)">
     <use style="fill:none;stroke:#000000;" x="0.0" xlink:href="#C0_67_8ca175335a" y="288.0"/>
    </g>
    <g clip-path="url(#pb303bd5eea)">
     <use style="fill:none;stroke:#000000;" x="0.0" xlink:href="#C0_68_ba76a70ebb" y="288.0"/>
    </g>
    <g clip-path="url(#pb303bd5eea)">
     <use style="fill:none;stroke:#000000;" x="0.0" xlink:href="#C0_69_6a2a3b36d6" y="288.0"/>
    </g>
    <g clip-path="url(#pb303bd5eea)">
     <use style="fill:none;stroke:#000000;" x="0.0" xlink:href="#C0_6a_a19170920c" y="288.0"/>
    </g>
    <g clip-path="url(#pb303bd5eea)">
     <use style="fill:none;stroke:#000000;" x="0.0" xlink:href="#C0_6b_f59b336e6f" y="288.0"/>
    </g>
    <g clip-path="url(#pb303bd5eea)">
     <use style="fill:none;stroke:#000000;" x="0.0" xlink:href="#C0_6c_bcc1eed319" y="288.0"/>
    </g>
    <g clip-path="url(#pb303bd5eea)">
     <use style="fill:none;stroke:#000000;" x="0.0" xlink:href="#C0_6d_48e2a6aa49" y="288.0"/>
    </g>
    <g clip-path="url(#pb303bd5eea)">
     <use style="fill:none;stroke:#000000;" x="0.0" xlink:href="#C0_6e_eaa32efaf6" y="288.0"/>
    </g>
    <g clip-path="url(#pb303bd5eea)">
     <use style="fill:none;stroke:#000000;" x="0.0" xlink:href="#C0_6f_752990cc6b" y="288.0"/>
    </g>
    <g clip-path="url(#pb303bd5eea)">
     <use style="fill:none;stroke:#000000;" x="0.0" xlink:href="#C0_70_3b3bd257d6" y="288.0"/>
    </g>
    <g clip-path="url(#pb303bd5eea)">
     <use style="fill:none;stroke:#000000;" x="0.0" xlink:href="#C0_71_b4ddb77e45" y="288.0"/>
    </g>
    <g clip-path="url(#pb303bd5eea)">
     <use style="fill:none;stroke:#000000;" x="0.0" xlink:href="#C0_72_6326b386f4" y="288.0"/>
    </g>
    <g clip-path="url(#pb303bd5eea)">
     <use style="fill:none;stroke:#000000;" x="0.0" xlink:href="#C0_73_072764b469" y="288.0"/>
    </g>
    <g clip-path="url(#pb303bd5eea)">
     <use style="fill:none;stroke:#000000;" x="0.0" xlink:href="#C0_74_1f956da417" y="288.0"/>
    </g>
    <g clip-path="url(#pb303bd5eea)">
     <use style="fill:none;stroke:#000000;" x="0.0" xlink:href="#C0_75_cc5f4ddd28" y="288.0"/>
    </g>
    <g clip-path="url(#pb303bd5eea)">
     <use style="fill:none;stroke:#000000;" x="0.0" xlink:href="#C0_76_6cef110db7" y="288.0"/>
    </g>
    <g clip-path="url(#pb303bd5eea)">
     <use style="fill:none;stroke:#000000;" x="0.0" xlink:href="#C0_77_925a5da973" y="288.0"/>
    </g>
    <g clip-path="url(#pb303bd5eea)">
     <use style="fill:none;stroke:#000000;" x="0.0" xlink:href="#C0_78_d26aa5f77b" y="288.0"/>
    </g>
    <g clip-path="url(#pb303bd5eea)">
     <use style="fill:none;stroke:#000000;" x="0.0" xlink:href="#C0_79_491e6b4601" y="288.0"/>
    </g>
    <g clip-path="url(#pb303bd5eea)">
     <use style="fill:none;stroke:#000000;" x="0.0" xlink:href="#C0_7a_f9f7627352" y="288.0"/>
    </g>
    <g clip-path="url(#pb303bd5eea)">
     <use style="fill:none;stroke:#000000;" x="0.0" xlink:href="#C0_7b_cc447ac23a" y="288.0"/>
    </g>
    <g clip-path="url(#pb303bd5eea)">
     <use style="fill:none;stroke:#000000;" x="0.0" xlink:href="#C0_7c_7b7968cd3f" y="288.0"/>
    </g>
    <g clip-path="url(#pb303bd5eea)">
     <use style="fill:none;stroke:#000000;" x="0.0" xlink:href="#C0_7d_6c8e80d029" y="288.0"/>
    </g>
    <g clip-path="url(#pb303bd5eea)">
     <use style="fill:none;stroke:#000000;" x="0.0" xlink:href="#C0_7e_9b11b40769" y="288.0"/>
    </g>
    <g clip-path="url(#pb303bd5eea)">
     <use style="fill:none;stroke:#000000;" x="0.0" xlink:href="#C0_7f_60aa9bf82c" y="288.0"/>
    </g>
    <g clip-path="url(#pb303bd5eea)">
     <use style="fill:none;stroke:#000000;" x="0.0" xlink:href="#C0_80_8753d5a830" y="288.0"/>
    </g>
    <g clip-path="url(#pb303bd5eea)">
     <use style="fill:none;stroke:#000000;" x="0.0" xlink:href="#C0_81_768f7d38fc" y="288.0"/>
    </g>
    <g clip-path="url(#pb303bd5eea)">
     <use style="fill:none;stroke:#000000;" x="0.0" xlink:href="#C0_82_137d65c357" y="288.0"/>
    </g>
    <g clip-path="url(#pb303bd5eea)">
     <use style="fill:none;stroke:#000000;" x="0.0" xlink:href="#C0_83_16b951f971" y="288.0"/>
    </g>
    <g clip-path="url(#pb303bd5eea)">
     <use style="fill:none;stroke:#000000;" x="0.0" xlink:href="#C0_84_cf1b0c4dbd" y="288.0"/>
    </g>
    <g clip-path="url(#pb303bd5eea)">
     <use style="fill:none;stroke:#000000;" x="0.0" xlink:href="#C0_85_ec5cb24316" y="288.0"/>
    </g>
    <g clip-path="url(#pb303bd5eea)">
     <use style="fill:none;stroke:#000000;" x="0.0" xlink:href="#C0_86_097be1a740" y="288.0"/>
    </g>
    <g clip-path="url(#pb303bd5eea)">
     <use style="fill:none;stroke:#000000;" x="0.0" xlink:href="#C0_87_429e5e624a" y="288.0"/>
    </g>
    <g clip-path="url(#pb303bd5eea)">
     <use style="fill:none;stroke:#000000;" x="0.0" xlink:href="#C0_88_18ca931612" y="288.0"/>
    </g>
    <g clip-path="url(#pb303bd5eea)">
     <use style="fill:none;stroke:#000000;" x="0.0" xlink:href="#C0_89_bd8b090800" y="288.0"/>
    </g>
    <g clip-path="url(#pb303bd5eea)">
     <use style="fill:none;stroke:#000000;" x="0.0" xlink:href="#C0_8a_44acb2f591" y="288.0"/>
    </g>
    <g clip-path="url(#pb303bd5eea)">
     <use style="fill:none;stroke:#000000;" x="0.0" xlink:href="#C0_8b_b3c0ab07be" y="288.0"/>
    </g>
    <g clip-path="url(#pb303bd5eea)">
     <use style="fill:none;stroke:#000000;" x="0.0" xlink:href="#C0_8c_e119dde84c" y="288.0"/>
    </g>
   </g>
   <g id="PathCollection_1">
    <defs>
     <path d="
M0 8.66025
C2.29673 8.66025 4.49969 7.74776 6.12372 6.12372
C7.74776 4.49969 8.66025 2.29673 8.66025 0
C8.66025 -2.29673 7.74776 -4.49969 6.12372 -6.12372
C4.49969 -7.74776 2.29673 -8.66025 0 -8.66025
C-2.29673 -8.66025 -4.49969 -7.74776 -6.12372 -6.12372
C-7.74776 -4.49969 -8.66025 -2.29673 -8.66025 0
C-8.66025 2.29673 -7.74776 4.49969 -6.12372 6.12372
C-4.49969 7.74776 -2.29673 8.66025 0 8.66025
z
" id="C1_0_2aea4494f3"/>
    </defs>
    <g clip-path="url(#pb303bd5eea)">
     <use style="fill:#ff0000;stroke:#000000;" x="133.303879769" xlink:href="#C1_0_2aea4494f3" y="117.371981525"/>
    </g>
    <g clip-path="url(#pb303bd5eea)">
     <use style="fill:#008000;stroke:#000000;" x="105.877673761" xlink:href="#C1_0_2aea4494f3" y="180.319857508"/>
    </g>
    <g clip-path="url(#pb303bd5eea)">
     <use style="fill:#0000ff;stroke:#000000;" x="236.20926213" xlink:href="#C1_0_2aea4494f3" y="167.523485468"/>
    </g>
    <g clip-path="url(#pb303bd5eea)">
     <use style="fill:#008000;stroke:#000000;" x="166.461862485" xlink:href="#C1_0_2aea4494f3" y="132.914426728"/>
    </g>
    <g clip-path="url(#pb303bd5eea)">
     <use style="fill:#ff0000;stroke:#000000;" x="117.890287599" xlink:href="#C1_0_2aea4494f3" y="124.262720272"/>
    </g>
    <g clip-path="url(#pb303bd5eea)">
     <use style="fill:#ff0000;stroke:#000000;" x="183.927864729" xlink:href="#C1_0_2aea4494f3" y="117.924591265"/>
    </g>
    <g clip-path="url(#pb303bd5eea)">
     <use style="fill:#008000;stroke:#000000;" x="158.730396154" xlink:href="#C1_0_2aea4494f3" y="156.051849298"/>
    </g>
    <g clip-path="url(#pb303bd5eea)">
     <use style="fill:#ff0000;stroke:#000000;" x="175.960982835" xlink:href="#C1_0_2aea4494f3" y="86.4720739844"/>
    </g>
    <g clip-path="url(#pb303bd5eea)">
     <use style="fill:#ff0000;stroke:#000000;" x="185.058468951" xlink:href="#C1_0_2aea4494f3" y="150.546963894"/>
    </g>
    <g clip-path="url(#pb303bd5eea)">
     <use style="fill:#ff0000;stroke:#000000;" x="165.4623638" xlink:href="#C1_0_2aea4494f3" y="96.1111272833"/>
    </g>
    <g clip-path="url(#pb303bd5eea)">
     <use style="fill:#ff0000;stroke:#000000;" x="92.7751141147" xlink:href="#C1_0_2aea4494f3" y="90.1718989064"/>
    </g>
    <g clip-path="url(#pb303bd5eea)">
     <use style="fill:#ff0000;stroke:#000000;" x="132.711703306" xlink:href="#C1_0_2aea4494f3" y="182.970483845"/>
    </g>
    <g clip-path="url(#pb303bd5eea)">
     <use style="fill:#ff0000;stroke:#000000;" x="199.761882778" xlink:href="#C1_0_2aea4494f3" y="94.3288043293"/>
    </g>
    <g clip-path="url(#pb303bd5eea)">
     <use style="fill:#008000;stroke:#000000;" x="102.66048672" xlink:href="#C1_0_2aea4494f3" y="166.244738777"/>
    </g>
    <g clip-path="url(#pb303bd5eea)">
     <use style="fill:#008000;stroke:#000000;" x="85.5041535536" xlink:href="#C1_0_2aea4494f3" y="129.263734129"/>
    </g>
    <g clip-path="url(#pb303bd5eea)">
     <use style="fill:#ff0000;stroke:#000000;" x="235.470417348" xlink:href="#C1_0_2aea4494f3" y="103.519666978"/>
    </g>
    <g clip-path="url(#pb303bd5eea)">
     <use style="fill:#ff0000;stroke:#000000;" x="149.695597477" xlink:href="#C1_0_2aea4494f3" y="203.541136287"/>
    </g>
    <g clip-path="url(#pb303bd5eea)">
     <use style="fill:#0000ff;stroke:#000000;" x="162.695514724" xlink:href="#C1_0_2aea4494f3" y="187.80673047"/>
    </g>
    <g clip-path="url(#pb303bd5eea)">
     <use style="fill:#ff0000;stroke:#000000;" x="102.037730025" xlink:href="#C1_0_2aea4494f3" y="110.031535331"/>
    </g>
    <g clip-path="url(#pb303bd5eea)">
     <use style="fill:#008000;stroke:#000000;" x="114.860859605" xlink:href="#C1_0_2aea4494f3" y="85.7385980789"/>
    </g>
    <g clip-path="url(#pb303bd5eea)">
     <use style="fill:#0000ff;stroke:#000000;" x="211.517969461" xlink:href="#C1_0_2aea4494f3" y="189.082921174"/>
    </g>
    <g clip-path="url(#pb303bd5eea)">
     <use style="fill:#ff0000;stroke:#000000;" x="103.363178437" xlink:href="#C1_0_2aea4494f3" y="141.985365135"/>
    </g>
    <g clip-path="url(#pb303bd5eea)">
     <use style="fill:#ff0000;stroke:#000000;" x="142.480761869" xlink:href="#C1_0_2aea4494f3" y="88.6671641841"/>
    </g>
    <g clip-path="url(#pb303bd5eea)">
     <use style="fill:#0000ff;stroke:#000000;" x="139.47877052" xlink:href="#C1_0_2aea4494f3" y="161.286813357"/>
    </g>
    <g clip-path="url(#pb303bd5eea)">
     <use style="fill:#ff0000;stroke:#000000;" x="73.525496139" xlink:href="#C1_0_2aea4494f3" y="189.32860972"/>
    </g>
    <g clip-path="url(#pb303bd5eea)">
     <use style="fill:#ff0000;stroke:#000000;" x="219.493889713" xlink:href="#C1_0_2aea4494f3" y="86.343066974"/>
    </g>
    <g clip-path="url(#pb303bd5eea)">
     <use style="fill:#ff0000;stroke:#000000;" x="200.227862104" xlink:href="#C1_0_2aea4494f3" y="53.3607439802"/>
    </g>
    <g clip-path="url(#pb303bd5eea)">
     <use style="fill:#008000;stroke:#000000;" x="80.5622296346" xlink:href="#C1_0_2aea4494f3" y="162.038879647"/>
    </g>
    <g clip-path="url(#pb303bd5eea)">
     <use style="fill:#ff0000;stroke:#000000;" x="62.2736207843" xlink:href="#C1_0_2aea4494f3" y="58.7127835591"/>
    </g>
    <g clip-path="url(#pb303bd5eea)">
     <use style="fill:#0000ff;stroke:#000000;" x="161.425481179" xlink:href="#C1_0_2aea4494f3" y="227.383449658"/>
    </g>
    <g clip-path="url(#pb303bd5eea)">
     <use style="fill:#ff0000;stroke:#000000;" x="229.853106096" xlink:href="#C1_0_2aea4494f3" y="194.74938225"/>
    </g>
    <g clip-path="url(#pb303bd5eea)">
     <use style="fill:#ff0000;stroke:#000000;" x="144.612963471" xlink:href="#C1_0_2aea4494f3" y="139.869661965"/>
    </g>
    <g clip-path="url(#pb303bd5eea)">
     <use style="fill:#ff0000;stroke:#000000;" x="65.0649163706" xlink:href="#C1_0_2aea4494f3" y="93.3926751128"/>
    </g>
    <g clip-path="url(#pb303bd5eea)">
     <use style="fill:#0000ff;stroke:#000000;" x="181.698828696" xlink:href="#C1_0_2aea4494f3" y="214.215526507"/>
    </g>
    <g clip-path="url(#pb303bd5eea)">
     <use style="fill:#ff0000;stroke:#000000;" x="143.793306201" xlink:href="#C1_0_2aea4494f3" y="60.5364870101"/>
    </g>
    <g clip-path="url(#pb303bd5eea)">
     <use style="fill:#0000ff;stroke:#000000;" x="75.4467931472" xlink:href="#C1_0_2aea4494f3" y="146.111714259"/>
    </g>
    <g clip-path="url(#pb303bd5eea)">
     <use style="fill:#008000;stroke:#000000;" x="173.806777647" xlink:href="#C1_0_2aea4494f3" y="66.4083361083"/>
    </g>
    <g clip-path="url(#pb303bd5eea)">
     <use style="fill:#ff0000;stroke:#000000;" x="41.1428571429" xlink:href="#C1_0_2aea4494f3" y="143.225865064"/>
    </g>
    <g clip-path="url(#pb303bd5eea)">
     <use style="fill:#0000ff;stroke:#000000;" x="199.073810547" xlink:href="#C1_0_2aea4494f3" y="206.547068912"/>
    </g>
    <g clip-path="url(#pb303bd5eea)">
     <use style="fill:#ff0000;stroke:#000000;" x="123.625481128" xlink:href="#C1_0_2aea4494f3" y="58.8536020308"/>
    </g>
    <g clip-path="url(#pb303bd5eea)">
     <use style="fill:#ff0000;stroke:#000000;" x="238.770105047" xlink:href="#C1_0_2aea4494f3" y="143.814910256"/>
    </g>
    <g clip-path="url(#pb303bd5eea)">
     <use style="fill:#ff0000;stroke:#000000;" x="119.644333254" xlink:href="#C1_0_2aea4494f3" y="217.575523336"/>
    </g>
    <g clip-path="url(#pb303bd5eea)">
     <use style="fill:#0000ff;stroke:#000000;" x="136.122189597" xlink:href="#C1_0_2aea4494f3" y="200.969707884"/>
    </g>
    <g clip-path="url(#pb303bd5eea)">
     <use style="fill:#0000ff;stroke:#000000;" x="180.134989797" xlink:href="#C1_0_2aea4494f3" y="194.843863024"/>
    </g>
    <g clip-path="url(#pb303bd5eea)">
     <use style="fill:#ff0000;stroke:#000000;" x="206.312588868" xlink:href="#C1_0_2aea4494f3" y="123.626598171"/>
    </g>
    <g clip-path="url(#pb303bd5eea)">
     <use style="fill:#ff0000;stroke:#000000;" x="216.687571994" xlink:href="#C1_0_2aea4494f3" y="41.1428571429"/>
    </g>
    <g clip-path="url(#pb303bd5eea)">
     <use style="fill:#0000ff;stroke:#000000;" x="169.023607556" xlink:href="#C1_0_2aea4494f3" y="246.857142857"/>
    </g>
    <g clip-path="url(#pb303bd5eea)">
     <use style="fill:#ff0000;stroke:#000000;" x="195.195714051" xlink:href="#C1_0_2aea4494f3" y="174.357609201"/>
    </g>
    <g clip-path="url(#pb303bd5eea)">
     <use style="fill:#ff0000;stroke:#000000;" x="126.668580754" xlink:href="#C1_0_2aea4494f3" y="79.4445629021"/>
    </g>
    <g clip-path="url(#pb303bd5eea)">
     <use style="fill:#ff0000;stroke:#000000;" x="101.11292277" xlink:href="#C1_0_2aea4494f3" y="50.6871064167"/>
    </g>
   </g>
  </g>
 </g>
 <defs>
  <clipPath id="pb303bd5eea">
   <rect height="288.0" width="288.0" x="0.0" y="0.0"/>
  </clipPath>
 </defs>
</svg>
