<?xml version="1.0" encoding="utf-8" standalone="no"?>
<!DOCTYPE svg PUBLIC "-//W3C//DTD SVG 1.1//EN"
  "http://www.w3.org/Graphics/SVG/1.1/DTD/svg11.dtd">
<!-- Created with matplotlib (http://matplotlib.org/) -->
<svg height="288pt" version="1.1" viewBox="0 0 288 288" width="288pt" xmlns="http://www.w3.org/2000/svg" xmlns:xlink="http://www.w3.org/1999/xlink">
 <defs>
  <style type="text/css">
*{stroke-linecap:butt;stroke-linejoin:round;}
  </style>
 </defs>
 <g id="figure_1">
  <g id="patch_1">
   <path d="
M0 288
L288 288
L288 0
L0 0
z
" style="fill:#ffffff;"/>
  </g>
  <g id="axes_1">
   <g id="LineCollection_1">
    <path clip-path="url(#pb303bd5eea)" d="
M246.857 149.034
L175.785 246.857" style="fill:none;stroke:#808080;stroke-width:0.682288687263167;"/>
    <path clip-path="url(#pb303bd5eea)" d="
M246.857 149.034
L227.213 88.5763" style="fill:none;stroke:#808080;stroke-width:0.3991278760338446;"/>
    <path clip-path="url(#pb303bd5eea)" d="
M246.857 149.034
L60.7868 209.492" style="fill:none;stroke:#808080;stroke-width:0.3647270338768749;"/>
    <path clip-path="url(#pb303bd5eea)" d="
M246.857 149.034
L112.215 246.857" style="fill:none;stroke:#808080;stroke-width:2.303;"/>
    <path clip-path="url(#pb303bd5eea)" d="
M227.213 88.5763
L246.857 149.034" style="fill:none;stroke:#808080;stroke-width:2.303;"/>
    <path clip-path="url(#pb303bd5eea)" d="
M227.213 88.5763
L175.785 246.857" style="fill:none;stroke:#808080;stroke-width:0.29561850552346414;"/>
    <path clip-path="url(#pb303bd5eea)" d="
M227.213 88.5763
L227.213 209.492" style="fill:none;stroke:#808080;stroke-width:2.303;"/>
    <path clip-path="url(#pb303bd5eea)" d="
M227.213 88.5763
L41.1429 149.034" style="fill:none;stroke:#808080;stroke-width:2.303;"/>
    <path clip-path="url(#pb303bd5eea)" d="
M227.213 88.5763
L112.215 246.857" style="fill:none;stroke:#808080;stroke-width:1.7108497371934845;"/>
    <path clip-path="url(#pb303bd5eea)" d="
M175.785 51.2112
L246.857 149.034" style="fill:none;stroke:#808080;stroke-width:2.303;"/>
    <path clip-path="url(#pb303bd5eea)" d="
M175.785 51.2112
L227.213 88.5763" style="fill:none;stroke:#808080;stroke-width:0.6815136403711222;"/>
    <path clip-path="url(#pb303bd5eea)" d="
M175.785 51.2112
L112.215 51.2112" style="fill:none;stroke:#808080;stroke-width:0.6713342353563121;"/>
    <path clip-path="url(#pb303bd5eea)" d="
M175.785 51.2112
L60.7868 88.5763" style="fill:none;stroke:#808080;stroke-width:2.303;"/>
    <path clip-path="url(#pb303bd5eea)" d="
M175.785 51.2112
L60.7868 209.492" style="fill:none;stroke:#808080;stroke-width:2.303;"/>
    <path clip-path="url(#pb303bd5eea)" d="
M175.785 51.2112
L112.215 246.857" style="fill:none;stroke:#808080;stroke-width:2.303;"/>
    <path clip-path="url(#pb303bd5eea)" d="
M175.785 51.2112
L175.785 246.857" style="fill:none;stroke:#808080;stroke-width:0.8358102568438994;"/>
    <path clip-path="url(#pb303bd5eea)" d="
M112.215 51.2112
L246.857 149.034" style="fill:none;stroke:#808080;stroke-width:2.303;"/>
    <path clip-path="url(#pb303bd5eea)" d="
M112.215 51.2112
L227.213 209.492" style="fill:none;stroke:#808080;stroke-width:2.303;"/>
    <path clip-path="url(#pb303bd5eea)" d="
M112.215 51.2112
L112.215 246.857" style="fill:none;stroke:#808080;stroke-width:2.303;"/>
    <path clip-path="url(#pb303bd5eea)" d="
M60.7868 88.5763
L227.213 88.5763" style="fill:none;stroke:#808080;stroke-width:1.9765503663600157;"/>
    <path clip-path="url(#pb303bd5eea)" d="
M60.7868 88.5763
L175.785 51.2112" style="fill:none;stroke:#808080;stroke-width:1.476541935442583;"/>
    <path clip-path="url(#pb303bd5eea)" d="
M60.7868 88.5763
L112.215 51.2112" style="fill:none;stroke:#808080;stroke-width:0.20873645165920607;"/>
    <path clip-path="url(#pb303bd5eea)" d="
M60.7868 88.5763
L41.1429 149.034" style="fill:none;stroke:#808080;stroke-width:2.303;"/>
    <path clip-path="url(#pb303bd5eea)" d="
M60.7868 88.5763
L175.785 246.857" style="fill:none;stroke:#808080;stroke-width:1.8581120456993858;"/>
    <path clip-path="url(#pb303bd5eea)" d="
M60.7868 88.5763
L227.213 209.492" style="fill:none;stroke:#808080;stroke-width:0.5367310490328236;"/>
    <path clip-path="url(#pb303bd5eea)" d="
M41.1429 149.034
L227.213 88.5763" style="fill:none;stroke:#808080;stroke-width:1.1989805231814898;"/>
    <path clip-path="url(#pb303bd5eea)" d="
M41.1429 149.034
L175.785 51.2112" style="fill:none;stroke:#808080;stroke-width:0.2713833681300457;"/>
    <path clip-path="url(#pb303bd5eea)" d="
M41.1429 149.034
L112.215 51.2112" style="fill:none;stroke:#808080;stroke-width:0.9278814502267778;"/>
    <path clip-path="url(#pb303bd5eea)" d="
M41.1429 149.034
L60.7868 88.5763" style="fill:none;stroke:#808080;stroke-width:0.13544449285200244;"/>
    <path clip-path="url(#pb303bd5eea)" d="
M41.1429 149.034
L60.7868 209.492" style="fill:none;stroke:#808080;stroke-width:1.6258077826093995;"/>
    <path clip-path="url(#pb303bd5eea)" d="
M41.1429 149.034
L112.215 246.857" style="fill:none;stroke:#808080;stroke-width:1.7208768210475682;"/>
    <path clip-path="url(#pb303bd5eea)" d="
M41.1429 149.034
L175.785 246.857" style="fill:none;stroke:#808080;stroke-width:1.7306291525135293;"/>
    <path clip-path="url(#pb303bd5eea)" d="
M41.1429 149.034
L227.213 209.492" style="fill:none;stroke:#808080;stroke-width:0.29871652133601856;"/>
    <path clip-path="url(#pb303bd5eea)" d="
M60.7868 209.492
L246.857 149.034" style="fill:none;stroke:#808080;stroke-width:2.303;"/>
    <path clip-path="url(#pb303bd5eea)" d="
M60.7868 209.492
L175.785 246.857" style="fill:none;stroke:#808080;stroke-width:0.5243233871872235;"/>
    <path clip-path="url(#pb303bd5eea)" d="
M60.7868 209.492
L227.213 209.492" style="fill:none;stroke:#808080;stroke-width:2.303;"/>
    <path clip-path="url(#pb303bd5eea)" d="
M60.7868 209.492
L112.215 246.857" style="fill:none;stroke:#808080;stroke-width:2.303;"/>
    <path clip-path="url(#pb303bd5eea)" d="
M112.215 246.857
L246.857 149.034" style="fill:none;stroke:#808080;stroke-width:2.303;"/>
    <path clip-path="url(#pb303bd5eea)" d="
M112.215 246.857
L227.213 88.5763" style="fill:none;stroke:#808080;stroke-width:1.7529806856451842;"/>
    <path clip-path="url(#pb303bd5eea)" d="
M112.215 246.857
L112.215 51.2112" style="fill:none;stroke:#808080;stroke-width:1.3912384448557873;"/>
    <path clip-path="url(#pb303bd5eea)" d="
M112.215 246.857
L60.7868 209.492" style="fill:none;stroke:#808080;stroke-width:2.303;"/>
    <path clip-path="url(#pb303bd5eea)" d="
M112.215 246.857
L175.785 246.857" style="fill:none;stroke:#808080;stroke-width:1.8949563199112163;"/>
    <path clip-path="url(#pb303bd5eea)" d="
M175.785 246.857
L227.213 88.5763" style="fill:none;stroke:#808080;stroke-width:1.0976571051340898;"/>
    <path clip-path="url(#pb303bd5eea)" d="
M175.785 246.857
L227.213 209.492" style="fill:none;stroke:#808080;stroke-width:2.303;"/>
    <path clip-path="url(#pb303bd5eea)" d="
M175.785 246.857
L41.1429 149.034" style="fill:none;stroke:#808080;stroke-width:0.1485951080619543;"/>
    <path clip-path="url(#pb303bd5eea)" d="
M175.785 246.857
L112.215 246.857" style="fill:none;stroke:#808080;stroke-width:2.303;"/>
    <path clip-path="url(#pb303bd5eea)" d="
M227.213 209.492
L246.857 149.034" style="fill:none;stroke:#808080;stroke-width:2.303;"/>
    <path clip-path="url(#pb303bd5eea)" d="
M227.213 209.492
L175.785 246.857" style="fill:none;stroke:#808080;stroke-width:0.22064138616082118;"/>
    <path clip-path="url(#pb303bd5eea)" d="
M227.213 209.492
L60.7868 209.492" style="fill:none;stroke:#808080;stroke-width:2.303;"/>
    <path clip-path="url(#pb303bd5eea)" d="
M227.213 209.492
L112.215 246.857" style="fill:none;stroke:#808080;stroke-width:2.303;"/>
   </g>
   <g id="LineCollection_2">
    <path clip-path="url(#pb303bd5eea)" d="
M193.553 222.401
L175.785 246.857" style="fill:none;stroke:#808080;stroke-width:2.729154749052668;"/>
    <path clip-path="url(#pb303bd5eea)" d="
M232.124 103.691
L227.213 88.5763" style="fill:none;stroke:#808080;stroke-width:1.5965115041353783;"/>
    <path clip-path="url(#pb303bd5eea)" d="
M107.304 194.378
L60.7868 209.492" style="fill:none;stroke:#808080;stroke-width:1.4589081355074995;"/>
    <path clip-path="url(#pb303bd5eea)" d="
M145.876 222.401
L112.215 246.857" style="fill:none;stroke:#808080;stroke-width:9.212;"/>
    <path clip-path="url(#pb303bd5eea)" d="
M241.946 133.92
L246.857 149.034" style="fill:none;stroke:#808080;stroke-width:9.212;"/>
    <path clip-path="url(#pb303bd5eea)" d="
M188.642 207.287
L175.785 246.857" style="fill:none;stroke:#808080;stroke-width:1.1824740220938565;"/>
    <path clip-path="url(#pb303bd5eea)" d="
M227.213 179.263
L227.213 209.492" style="fill:none;stroke:#808080;stroke-width:9.212;"/>
    <path clip-path="url(#pb303bd5eea)" d="
M87.6604 133.92
L41.1429 149.034" style="fill:none;stroke:#808080;stroke-width:9.212;"/>
    <path clip-path="url(#pb303bd5eea)" d="
M140.965 207.287
L112.215 246.857" style="fill:none;stroke:#808080;stroke-width:6.843398948773938;"/>
    <path clip-path="url(#pb303bd5eea)" d="
M229.089 124.578
L246.857 149.034" style="fill:none;stroke:#808080;stroke-width:9.212;"/>
    <path clip-path="url(#pb303bd5eea)" d="
M214.356 79.235
L227.213 88.5763" style="fill:none;stroke:#808080;stroke-width:2.7260545614844887;"/>
    <path clip-path="url(#pb303bd5eea)" d="
M128.108 51.2112
L112.215 51.2112" style="fill:none;stroke:#808080;stroke-width:2.6853369414252484;"/>
    <path clip-path="url(#pb303bd5eea)" d="
M89.5363 79.235
L60.7868 88.5763" style="fill:none;stroke:#808080;stroke-width:9.212;"/>
    <path clip-path="url(#pb303bd5eea)" d="
M89.5363 169.922
L60.7868 209.492" style="fill:none;stroke:#808080;stroke-width:9.212;"/>
    <path clip-path="url(#pb303bd5eea)" d="
M128.108 197.946
L112.215 246.857" style="fill:none;stroke:#808080;stroke-width:9.212;"/>
    <path clip-path="url(#pb303bd5eea)" d="
M175.785 197.946
L175.785 246.857" style="fill:none;stroke:#808080;stroke-width:3.3432410273755977;"/>
    <path clip-path="url(#pb303bd5eea)" d="
M213.197 124.578
L246.857 149.034" style="fill:none;stroke:#808080;stroke-width:9.212;"/>
    <path clip-path="url(#pb303bd5eea)" d="
M198.464 169.922
L227.213 209.492" style="fill:none;stroke:#808080;stroke-width:9.212;"/>
    <path clip-path="url(#pb303bd5eea)" d="
M112.215 197.946
L112.215 246.857" style="fill:none;stroke:#808080;stroke-width:9.212;"/>
    <path clip-path="url(#pb303bd5eea)" d="
M185.607 88.5763
L227.213 88.5763" style="fill:none;stroke:#808080;stroke-width:7.906201465440063;"/>
    <path clip-path="url(#pb303bd5eea)" d="
M147.035 60.5525
L175.785 51.2112" style="fill:none;stroke:#808080;stroke-width:5.906167741770332;"/>
    <path clip-path="url(#pb303bd5eea)" d="
M99.3582 60.5525
L112.215 51.2112" style="fill:none;stroke:#808080;stroke-width:0.8349458066368243;"/>
    <path clip-path="url(#pb303bd5eea)" d="
M46.0538 133.92
L41.1429 149.034" style="fill:none;stroke:#808080;stroke-width:9.212;"/>
    <path clip-path="url(#pb303bd5eea)" d="
M147.035 207.287
L175.785 246.857" style="fill:none;stroke:#808080;stroke-width:7.432448182797543;"/>
    <path clip-path="url(#pb303bd5eea)" d="
M185.607 179.263
L227.213 209.492" style="fill:none;stroke:#808080;stroke-width:2.1469241961312946;"/>
    <path clip-path="url(#pb303bd5eea)" d="
M180.696 103.691
L227.213 88.5763" style="fill:none;stroke:#808080;stroke-width:4.795922092725959;"/>
    <path clip-path="url(#pb303bd5eea)" d="
M142.124 75.667
L175.785 51.2112" style="fill:none;stroke:#808080;stroke-width:1.0855334725201828;"/>
    <path clip-path="url(#pb303bd5eea)" d="
M94.4473 75.667
L112.215 51.2112" style="fill:none;stroke:#808080;stroke-width:3.7115258009071113;"/>
    <path clip-path="url(#pb303bd5eea)" d="
M55.8758 103.691
L60.7868 88.5763" style="fill:none;stroke:#808080;stroke-width:0.5417779714080098;"/>
    <path clip-path="url(#pb303bd5eea)" d="
M55.8758 194.378
L60.7868 209.492" style="fill:none;stroke:#808080;stroke-width:6.503231130437598;"/>
    <path clip-path="url(#pb303bd5eea)" d="
M94.4473 222.401
L112.215 246.857" style="fill:none;stroke:#808080;stroke-width:6.883507284190273;"/>
    <path clip-path="url(#pb303bd5eea)" d="
M142.124 222.401
L175.785 246.857" style="fill:none;stroke:#808080;stroke-width:6.922516610054117;"/>
    <path clip-path="url(#pb303bd5eea)" d="
M180.696 194.378
L227.213 209.492" style="fill:none;stroke:#808080;stroke-width:1.1948660853440742;"/>
    <path clip-path="url(#pb303bd5eea)" d="
M200.34 164.149
L246.857 149.034" style="fill:none;stroke:#808080;stroke-width:9.212;"/>
    <path clip-path="url(#pb303bd5eea)" d="
M147.035 237.516
L175.785 246.857" style="fill:none;stroke:#808080;stroke-width:2.097293548748894;"/>
    <path clip-path="url(#pb303bd5eea)" d="
M185.607 209.492
L227.213 209.492" style="fill:none;stroke:#808080;stroke-width:9.212;"/>
    <path clip-path="url(#pb303bd5eea)" d="
M99.3582 237.516
L112.215 246.857" style="fill:none;stroke:#808080;stroke-width:9.212;"/>
    <path clip-path="url(#pb303bd5eea)" d="
M213.197 173.49
L246.857 149.034" style="fill:none;stroke:#808080;stroke-width:9.212;"/>
    <path clip-path="url(#pb303bd5eea)" d="
M198.464 128.146
L227.213 88.5763" style="fill:none;stroke:#808080;stroke-width:7.011922742580737;"/>
    <path clip-path="url(#pb303bd5eea)" d="
M112.215 100.123
L112.215 51.2112" style="fill:none;stroke:#808080;stroke-width:5.564953779423149;"/>
    <path clip-path="url(#pb303bd5eea)" d="
M73.644 218.833
L60.7868 209.492" style="fill:none;stroke:#808080;stroke-width:9.212;"/>
    <path clip-path="url(#pb303bd5eea)" d="
M159.892 246.857
L175.785 246.857" style="fill:none;stroke:#808080;stroke-width:7.579825279644865;"/>
    <path clip-path="url(#pb303bd5eea)" d="
M214.356 128.146
L227.213 88.5763" style="fill:none;stroke:#808080;stroke-width:4.390628420536359;"/>
    <path clip-path="url(#pb303bd5eea)" d="
M214.356 218.833
L227.213 209.492" style="fill:none;stroke:#808080;stroke-width:9.212;"/>
    <path clip-path="url(#pb303bd5eea)" d="
M74.8033 173.49
L41.1429 149.034" style="fill:none;stroke:#808080;stroke-width:0.5943804322478172;"/>
    <path clip-path="url(#pb303bd5eea)" d="
M128.108 246.857
L112.215 246.857" style="fill:none;stroke:#808080;stroke-width:9.212;"/>
    <path clip-path="url(#pb303bd5eea)" d="
M241.946 164.149
L246.857 149.034" style="fill:none;stroke:#808080;stroke-width:9.212;"/>
    <path clip-path="url(#pb303bd5eea)" d="
M188.642 237.516
L175.785 246.857" style="fill:none;stroke:#808080;stroke-width:0.8825655446432847;"/>
    <path clip-path="url(#pb303bd5eea)" d="
M102.393 209.492
L60.7868 209.492" style="fill:none;stroke:#808080;stroke-width:9.212;"/>
    <path clip-path="url(#pb303bd5eea)" d="
M140.965 237.516
L112.215 246.857" style="fill:none;stroke:#808080;stroke-width:9.212;"/>
   </g>
   <g id="PathCollection_1">
    <defs>
     <path d="
M0 8.66025
C2.29673 8.66025 4.49969 7.74776 6.12372 6.12372
C7.74776 4.49969 8.66025 2.29673 8.66025 0
C8.66025 -2.29673 7.74776 -4.49969 6.12372 -6.12372
C4.49969 -7.74776 2.29673 -8.66025 0 -8.66025
C-2.29673 -8.66025 -4.49969 -7.74776 -6.12372 -6.12372
C-7.74776 -4.49969 -8.66025 -2.29673 -8.66025 0
C-8.66025 2.29673 -7.74776 4.49969 -6.12372 6.12372
C-4.49969 7.74776 -2.29673 8.66025 0 8.66025
z
" id="m4857a30cb9" style="stroke:#000000;"/>
    </defs>
    <g clip-path="url(#pb303bd5eea)">
     <use style="stroke:#000000;" x="246.857142857" xlink:href="#m4857a30cb9" y="149.034190587"/>
     <use style="stroke:#000000;" x="227.213171278" xlink:href="#m4857a30cb9" y="88.5762797764"/>
     <use style="stroke:#000000;" x="175.784599849" xlink:href="#m4857a30cb9" y="51.2112383161"/>
     <use style="stroke:#000000;" x="112.215387889" xlink:href="#m4857a30cb9" y="51.2112383161"/>
     <use style="stroke:#000000;" x="60.7868164607" xlink:href="#m4857a30cb9" y="88.5762797764"/>
     <use style="stroke:#000000;" x="41.1428571429" xlink:href="#m4857a30cb9" y="149.034196717"/>
     <use style="stroke:#000000;" x="60.7868287223" xlink:href="#m4857a30cb9" y="209.492113658"/>
     <use style="stroke:#000000;" x="112.215387889" xlink:href="#m4857a30cb9" y="246.857142857"/>
     <use style="stroke:#000000;" x="175.784624372" xlink:href="#m4857a30cb9" y="246.857142857"/>
     <use style="stroke:#000000;" x="227.213195801" xlink:href="#m4857a30cb9" y="209.492070743"/>
    </g>
   </g>
  </g>
 </g>
 <defs>
  <clipPath id="pb303bd5eea">
   <rect height="288.0" width="288.0" x="0.0" y="0.0"/>
  </clipPath>
 </defs>
</svg>
