<?xml version="1.0" encoding="utf-8" standalone="no"?>
<!DOCTYPE svg PUBLIC "-//W3C//DTD SVG 1.1//EN"
  "http://www.w3.org/Graphics/SVG/1.1/DTD/svg11.dtd">
<!-- Created with matplotlib (http://matplotlib.org/) -->
<svg height="288pt" version="1.1" viewBox="0 0 288 288" width="288pt" xmlns="http://www.w3.org/2000/svg" xmlns:xlink="http://www.w3.org/1999/xlink">
 <defs>
  <style type="text/css">
*{stroke-linecap:butt;stroke-linejoin:round;}
  </style>
 </defs>
 <g id="figure_1">
  <g id="patch_1">
   <path d="
M0 288
L288 288
L288 0
L0 0
z
" style="fill:#ffffff;"/>
  </g>
  <g id="axes_1">
   <g id="LineCollection_1">
    <path clip-path="url(#pb303bd5eea)" d="
M246.857 149.034
L175.785 246.857" style="fill:none;stroke:#808080;stroke-width:0.5193504429540244;"/>
    <path clip-path="url(#pb303bd5eea)" d="
M246.857 149.034
L227.213 209.492" style="fill:none;stroke:#808080;stroke-width:1.6281295331876815;"/>
    <path clip-path="url(#pb303bd5eea)" d="
M246.857 149.034
L175.785 51.2112" style="fill:none;stroke:#808080;stroke-width:1.414109015558417;"/>
    <path clip-path="url(#pb303bd5eea)" d="
M227.213 88.5763
L175.785 51.2112" style="fill:none;stroke:#808080;stroke-width:1.1648135506355537;"/>
    <path clip-path="url(#pb303bd5eea)" d="
M227.213 88.5763
L60.7868 209.492" style="fill:none;stroke:#808080;stroke-width:1.4352594093559072;"/>
    <path clip-path="url(#pb303bd5eea)" d="
M175.785 51.2112
L227.213 209.492" style="fill:none;stroke:#808080;stroke-width:0.46163218560069397;"/>
    <path clip-path="url(#pb303bd5eea)" d="
M175.785 51.2112
L60.7868 88.5763" style="fill:none;stroke:#808080;stroke-width:0.9544948816870316;"/>
    <path clip-path="url(#pb303bd5eea)" d="
M175.785 51.2112
L41.1429 149.034" style="fill:none;stroke:#808080;stroke-width:1.703663256084608;"/>
    <path clip-path="url(#pb303bd5eea)" d="
M175.785 51.2112
L60.7868 209.492" style="fill:none;stroke:#808080;stroke-width:0.48035061486530517;"/>
    <path clip-path="url(#pb303bd5eea)" d="
M175.785 51.2112
L112.215 246.857" style="fill:none;stroke:#808080;stroke-width:1.52948939400433;"/>
    <path clip-path="url(#pb303bd5eea)" d="
M112.215 51.2112
L175.785 246.857" style="fill:none;stroke:#808080;stroke-width:0.9616580087130459;"/>
    <path clip-path="url(#pb303bd5eea)" d="
M112.215 51.2112
L60.7868 209.492" style="fill:none;stroke:#808080;stroke-width:1.7736189523654327;"/>
    <path clip-path="url(#pb303bd5eea)" d="
M60.7868 88.5763
L175.785 51.2112" style="fill:none;stroke:#808080;stroke-width:1.7776733096099129;"/>
    <path clip-path="url(#pb303bd5eea)" d="
M60.7868 88.5763
L112.215 51.2112" style="fill:none;stroke:#808080;stroke-width:0.6272476111496847;"/>
    <path clip-path="url(#pb303bd5eea)" d="
M60.7868 88.5763
L41.1429 149.034" style="fill:none;stroke:#808080;stroke-width:1.2299275184058152;"/>
    <path clip-path="url(#pb303bd5eea)" d="
M60.7868 88.5763
L60.7868 209.492" style="fill:none;stroke:#808080;stroke-width:1.488024870066441;"/>
    <path clip-path="url(#pb303bd5eea)" d="
M60.7868 88.5763
L175.785 246.857" style="fill:none;stroke:#808080;stroke-width:1.5208022899692746;"/>
    <path clip-path="url(#pb303bd5eea)" d="
M60.7868 88.5763
L227.213 209.492" style="fill:none;stroke:#808080;stroke-width:1.316986437960347;"/>
    <path clip-path="url(#pb303bd5eea)" d="
M41.1429 149.034
L246.857 149.034" style="fill:none;stroke:#808080;stroke-width:0.5433777040803799;"/>
    <path clip-path="url(#pb303bd5eea)" d="
M41.1429 149.034
L227.213 209.492" style="fill:none;stroke:#808080;stroke-width:1.9840092705537553;"/>
    <path clip-path="url(#pb303bd5eea)" d="
M41.1429 149.034
L175.785 51.2112" style="fill:none;stroke:#808080;stroke-width:0.5484770920827572;"/>
    <path clip-path="url(#pb303bd5eea)" d="
M41.1429 149.034
L112.215 51.2112" style="fill:none;stroke:#808080;stroke-width:1.8719923148400017;"/>
    <path clip-path="url(#pb303bd5eea)" d="
M41.1429 149.034
L60.7868 209.492" style="fill:none;stroke:#808080;stroke-width:0.5586743506005853;"/>
    <path clip-path="url(#pb303bd5eea)" d="
M60.7868 209.492
L246.857 149.034" style="fill:none;stroke:#808080;stroke-width:1.3968104218934028;"/>
    <path clip-path="url(#pb303bd5eea)" d="
M60.7868 209.492
L175.785 51.2112" style="fill:none;stroke:#808080;stroke-width:0.5806526694942055;"/>
    <path clip-path="url(#pb303bd5eea)" d="
M60.7868 209.492
L60.7868 88.5763" style="fill:none;stroke:#808080;stroke-width:1.9169375646973092;"/>
    <path clip-path="url(#pb303bd5eea)" d="
M60.7868 209.492
L41.1429 149.034" style="fill:none;stroke:#808080;stroke-width:1.7457333301870759;"/>
    <path clip-path="url(#pb303bd5eea)" d="
M60.7868 209.492
L112.215 246.857" style="fill:none;stroke:#808080;stroke-width:0.5853448268262094;"/>
    <path clip-path="url(#pb303bd5eea)" d="
M60.7868 209.492
L175.785 246.857" style="fill:none;stroke:#808080;stroke-width:1.5716924706945723;"/>
    <path clip-path="url(#pb303bd5eea)" d="
M112.215 246.857
L246.857 149.034" style="fill:none;stroke:#808080;stroke-width:1.4405748548605724;"/>
    <path clip-path="url(#pb303bd5eea)" d="
M112.215 246.857
L60.7868 88.5763" style="fill:none;stroke:#808080;stroke-width:1.3305197346388458;"/>
    <path clip-path="url(#pb303bd5eea)" d="
M112.215 246.857
L41.1429 149.034" style="fill:none;stroke:#808080;stroke-width:1.0391733788143835;"/>
    <path clip-path="url(#pb303bd5eea)" d="
M112.215 246.857
L60.7868 209.492" style="fill:none;stroke:#808080;stroke-width:0.4082746633685746;"/>
    <path clip-path="url(#pb303bd5eea)" d="
M175.785 246.857
L227.213 88.5763" style="fill:none;stroke:#808080;stroke-width:1.5131097701407414;"/>
    <path clip-path="url(#pb303bd5eea)" d="
M175.785 246.857
L112.215 51.2112" style="fill:none;stroke:#808080;stroke-width:1.639143476128924;"/>
    <path clip-path="url(#pb303bd5eea)" d="
M175.785 246.857
L41.1429 149.034" style="fill:none;stroke:#808080;stroke-width:1.2111823971414568;"/>
    <path clip-path="url(#pb303bd5eea)" d="
M175.785 246.857
L60.7868 209.492" style="fill:none;stroke:#808080;stroke-width:1.1833697310795925;"/>
    <path clip-path="url(#pb303bd5eea)" d="
M227.213 209.492
L246.857 149.034" style="fill:none;stroke:#808080;stroke-width:0.44035520561294916;"/>
    <path clip-path="url(#pb303bd5eea)" d="
M227.213 209.492
L227.213 88.5763" style="fill:none;stroke:#808080;stroke-width:0.555963513621998;"/>
    <path clip-path="url(#pb303bd5eea)" d="
M227.213 209.492
L175.785 51.2112" style="fill:none;stroke:#808080;stroke-width:1.8474094682647042;"/>
    <path clip-path="url(#pb303bd5eea)" d="
M227.213 209.492
L60.7868 88.5763" style="fill:none;stroke:#808080;stroke-width:0.9291325705469579;"/>
    <path clip-path="url(#pb303bd5eea)" d="
M227.213 209.492
L41.1429 149.034" style="fill:none;stroke:#808080;stroke-width:1.9036259562528346;"/>
    <path clip-path="url(#pb303bd5eea)" d="
M227.213 209.492
L112.215 246.857" style="fill:none;stroke:#808080;stroke-width:0.4825789457800035;"/>
    <path clip-path="url(#pb303bd5eea)" d="
M227.213 209.492
L175.785 246.857" style="fill:none;stroke:#808080;stroke-width:0.6754652817407847;"/>
   </g>
   <g id="LineCollection_2">
    <path clip-path="url(#pb303bd5eea)" d="
M193.553 222.401
L175.785 246.857" style="fill:none;stroke:#808080;stroke-width:2.0774017718160978;"/>
    <path clip-path="url(#pb303bd5eea)" d="
M232.124 194.378
L227.213 209.492" style="fill:none;stroke:#808080;stroke-width:6.512518132750726;"/>
    <path clip-path="url(#pb303bd5eea)" d="
M193.553 75.667
L175.785 51.2112" style="fill:none;stroke:#808080;stroke-width:5.656436062233668;"/>
    <path clip-path="url(#pb303bd5eea)" d="
M188.642 60.5525
L175.785 51.2112" style="fill:none;stroke:#808080;stroke-width:4.659254202542215;"/>
    <path clip-path="url(#pb303bd5eea)" d="
M102.393 179.263
L60.7868 209.492" style="fill:none;stroke:#808080;stroke-width:5.741037637423629;"/>
    <path clip-path="url(#pb303bd5eea)" d="
M214.356 169.922
L227.213 209.492" style="fill:none;stroke:#808080;stroke-width:1.8465287424027759;"/>
    <path clip-path="url(#pb303bd5eea)" d="
M89.5363 79.235
L60.7868 88.5763" style="fill:none;stroke:#808080;stroke-width:3.8179795267481262;"/>
    <path clip-path="url(#pb303bd5eea)" d="
M74.8033 124.578
L41.1429 149.034" style="fill:none;stroke:#808080;stroke-width:6.814653024338432;"/>
    <path clip-path="url(#pb303bd5eea)" d="
M89.5363 169.922
L60.7868 209.492" style="fill:none;stroke:#808080;stroke-width:1.9214024594612207;"/>
    <path clip-path="url(#pb303bd5eea)" d="
M128.108 197.946
L112.215 246.857" style="fill:none;stroke:#808080;stroke-width:6.11795757601732;"/>
    <path clip-path="url(#pb303bd5eea)" d="
M159.892 197.946
L175.785 246.857" style="fill:none;stroke:#808080;stroke-width:3.8466320348521834;"/>
    <path clip-path="url(#pb303bd5eea)" d="
M73.644 169.922
L60.7868 209.492" style="fill:none;stroke:#808080;stroke-width:7.094475809461731;"/>
    <path clip-path="url(#pb303bd5eea)" d="
M147.035 60.5525
L175.785 51.2112" style="fill:none;stroke:#808080;stroke-width:7.1106932384396515;"/>
    <path clip-path="url(#pb303bd5eea)" d="
M99.3582 60.5525
L112.215 51.2112" style="fill:none;stroke:#808080;stroke-width:2.508990444598739;"/>
    <path clip-path="url(#pb303bd5eea)" d="
M46.0538 133.92
L41.1429 149.034" style="fill:none;stroke:#808080;stroke-width:4.919710073623261;"/>
    <path clip-path="url(#pb303bd5eea)" d="
M60.7868 179.263
L60.7868 209.492" style="fill:none;stroke:#808080;stroke-width:5.952099480265764;"/>
    <path clip-path="url(#pb303bd5eea)" d="
M147.035 207.287
L175.785 246.857" style="fill:none;stroke:#808080;stroke-width:6.083209159877098;"/>
    <path clip-path="url(#pb303bd5eea)" d="
M185.607 179.263
L227.213 209.492" style="fill:none;stroke:#808080;stroke-width:5.267945751841388;"/>
    <path clip-path="url(#pb303bd5eea)" d="
M195.429 149.034
L246.857 149.034" style="fill:none;stroke:#808080;stroke-width:2.1735108163215195;"/>
    <path clip-path="url(#pb303bd5eea)" d="
M180.696 194.378
L227.213 209.492" style="fill:none;stroke:#808080;stroke-width:7.936037082215021;"/>
    <path clip-path="url(#pb303bd5eea)" d="
M142.124 75.667
L175.785 51.2112" style="fill:none;stroke:#808080;stroke-width:2.1939083683310288;"/>
    <path clip-path="url(#pb303bd5eea)" d="
M94.4473 75.667
L112.215 51.2112" style="fill:none;stroke:#808080;stroke-width:7.487969259360007;"/>
    <path clip-path="url(#pb303bd5eea)" d="
M55.8758 194.378
L60.7868 209.492" style="fill:none;stroke:#808080;stroke-width:2.2346974024023414;"/>
    <path clip-path="url(#pb303bd5eea)" d="
M200.34 164.149
L246.857 149.034" style="fill:none;stroke:#808080;stroke-width:5.587241687573611;"/>
    <path clip-path="url(#pb303bd5eea)" d="
M147.035 90.7815
L175.785 51.2112" style="fill:none;stroke:#808080;stroke-width:2.322610677976822;"/>
    <path clip-path="url(#pb303bd5eea)" d="
M60.7868 118.805
L60.7868 88.5763" style="fill:none;stroke:#808080;stroke-width:7.667750258789237;"/>
    <path clip-path="url(#pb303bd5eea)" d="
M46.0539 164.149
L41.1429 149.034" style="fill:none;stroke:#808080;stroke-width:6.9829333207483035;"/>
    <path clip-path="url(#pb303bd5eea)" d="
M99.3582 237.516
L112.215 246.857" style="fill:none;stroke:#808080;stroke-width:2.3413793073048375;"/>
    <path clip-path="url(#pb303bd5eea)" d="
M147.035 237.516
L175.785 246.857" style="fill:none;stroke:#808080;stroke-width:6.286769882778289;"/>
    <path clip-path="url(#pb303bd5eea)" d="
M213.197 173.49
L246.857 149.034" style="fill:none;stroke:#808080;stroke-width:5.762299419442289;"/>
    <path clip-path="url(#pb303bd5eea)" d="
M73.644 128.146
L60.7868 88.5763" style="fill:none;stroke:#808080;stroke-width:5.322078938555383;"/>
    <path clip-path="url(#pb303bd5eea)" d="
M58.911 173.49
L41.1429 149.034" style="fill:none;stroke:#808080;stroke-width:4.156693515257534;"/>
    <path clip-path="url(#pb303bd5eea)" d="
M73.644 218.833
L60.7868 209.492" style="fill:none;stroke:#808080;stroke-width:1.6330986534742984;"/>
    <path clip-path="url(#pb303bd5eea)" d="
M214.356 128.146
L227.213 88.5763" style="fill:none;stroke:#808080;stroke-width:6.052439080562966;"/>
    <path clip-path="url(#pb303bd5eea)" d="
M128.108 100.123
L112.215 51.2112" style="fill:none;stroke:#808080;stroke-width:6.556573904515696;"/>
    <path clip-path="url(#pb303bd5eea)" d="
M74.8033 173.49
L41.1429 149.034" style="fill:none;stroke:#808080;stroke-width:4.844729588565827;"/>
    <path clip-path="url(#pb303bd5eea)" d="
M89.5363 218.833
L60.7868 209.492" style="fill:none;stroke:#808080;stroke-width:4.73347892431837;"/>
    <path clip-path="url(#pb303bd5eea)" d="
M241.946 164.149
L246.857 149.034" style="fill:none;stroke:#808080;stroke-width:1.7614208224517967;"/>
    <path clip-path="url(#pb303bd5eea)" d="
M227.213 118.805
L227.213 88.5763" style="fill:none;stroke:#808080;stroke-width:2.223854054487992;"/>
    <path clip-path="url(#pb303bd5eea)" d="
M188.642 90.7814
L175.785 51.2112" style="fill:none;stroke:#808080;stroke-width:7.389637873058817;"/>
    <path clip-path="url(#pb303bd5eea)" d="
M102.393 118.805
L60.7868 88.5763" style="fill:none;stroke:#808080;stroke-width:3.7165302821878314;"/>
    <path clip-path="url(#pb303bd5eea)" d="
M87.6604 164.149
L41.1429 149.034" style="fill:none;stroke:#808080;stroke-width:7.614503825011338;"/>
    <path clip-path="url(#pb303bd5eea)" d="
M140.965 237.516
L112.215 246.857" style="fill:none;stroke:#808080;stroke-width:1.930315783120014;"/>
    <path clip-path="url(#pb303bd5eea)" d="
M188.642 237.516
L175.785 246.857" style="fill:none;stroke:#808080;stroke-width:2.7018611269631387;"/>
   </g>
   <g id="PathCollection_1">
    <defs>
     <path d="
M0 8.66025
C2.29673 8.66025 4.49969 7.74776 6.12372 6.12372
C7.74776 4.49969 8.66025 2.29673 8.66025 0
C8.66025 -2.29673 7.74776 -4.49969 6.12372 -6.12372
C4.49969 -7.74776 2.29673 -8.66025 0 -8.66025
C-2.29673 -8.66025 -4.49969 -7.74776 -6.12372 -6.12372
C-7.74776 -4.49969 -8.66025 -2.29673 -8.66025 0
C-8.66025 2.29673 -7.74776 4.49969 -6.12372 6.12372
C-4.49969 7.74776 -2.29673 8.66025 0 8.66025
z
" id="m4857a30cb9" style="stroke:#000000;"/>
    </defs>
    <g clip-path="url(#pb303bd5eea)">
     <use style="stroke:#000000;" x="246.857142857" xlink:href="#m4857a30cb9" y="149.034190587"/>
     <use style="stroke:#000000;" x="227.213171278" xlink:href="#m4857a30cb9" y="88.5762797764"/>
     <use style="stroke:#000000;" x="175.784599849" xlink:href="#m4857a30cb9" y="51.2112383161"/>
     <use style="stroke:#000000;" x="112.215387889" xlink:href="#m4857a30cb9" y="51.2112383161"/>
     <use style="stroke:#000000;" x="60.7868164607" xlink:href="#m4857a30cb9" y="88.5762797764"/>
     <use style="stroke:#000000;" x="41.1428571429" xlink:href="#m4857a30cb9" y="149.034196717"/>
     <use style="stroke:#000000;" x="60.7868287223" xlink:href="#m4857a30cb9" y="209.492113658"/>
     <use style="stroke:#000000;" x="112.215387889" xlink:href="#m4857a30cb9" y="246.857142857"/>
     <use style="stroke:#000000;" x="175.784624372" xlink:href="#m4857a30cb9" y="246.857142857"/>
     <use style="stroke:#000000;" x="227.213195801" xlink:href="#m4857a30cb9" y="209.492070743"/>
    </g>
   </g>
  </g>
 </g>
 <defs>
  <clipPath id="pb303bd5eea">
   <rect height="288.0" width="288.0" x="0.0" y="0.0"/>
  </clipPath>
 </defs>
</svg>
