<?xml version="1.0" encoding="utf-8" standalone="no"?>
<!DOCTYPE svg PUBLIC "-//W3C//DTD SVG 1.1//EN"
  "http://www.w3.org/Graphics/SVG/1.1/DTD/svg11.dtd">
<!-- Created with matplotlib (http://matplotlib.org/) -->
<svg height="288pt" version="1.1" viewBox="0 0 288 288" width="288pt" xmlns="http://www.w3.org/2000/svg" xmlns:xlink="http://www.w3.org/1999/xlink">
 <defs>
  <style type="text/css">
*{stroke-linecap:butt;stroke-linejoin:round;}
  </style>
 </defs>
 <g id="figure_1">
  <g id="patch_1">
   <path d="
M0 288
L288 288
L288 0
L0 0
z
" style="fill:#ffffff;"/>
  </g>
  <g id="axes_1">
   <g id="LineCollection_1">
    <path clip-path="url(#pb303bd5eea)" d="
M246.857 149.034
L175.785 246.857" style="fill:none;stroke:#808080;stroke-width:0.6879528707001903;"/>
    <path clip-path="url(#pb303bd5eea)" d="
M246.857 149.034
L227.213 88.5763" style="fill:none;stroke:#808080;stroke-width:0.9095949429594455;"/>
    <path clip-path="url(#pb303bd5eea)" d="
M246.857 149.034
L175.785 51.2112" style="fill:none;stroke:#808080;stroke-width:0.8827654044384611;"/>
    <path clip-path="url(#pb303bd5eea)" d="
M246.857 149.034
L112.215 51.2112" style="fill:none;stroke:#808080;stroke-width:0.5108771391210069;"/>
    <path clip-path="url(#pb303bd5eea)" d="
M246.857 149.034
L60.7868 88.5763" style="fill:none;stroke:#808080;stroke-width:1.5555356708754187;"/>
    <path clip-path="url(#pb303bd5eea)" d="
M227.213 88.5763
L246.857 149.034" style="fill:none;stroke:#808080;stroke-width:0.8908675807465898;"/>
    <path clip-path="url(#pb303bd5eea)" d="
M227.213 88.5763
L175.785 51.2112" style="fill:none;stroke:#808080;stroke-width:1.0077107676309276;"/>
    <path clip-path="url(#pb303bd5eea)" d="
M227.213 88.5763
L60.7868 88.5763" style="fill:none;stroke:#808080;stroke-width:1.8323655096104439;"/>
    <path clip-path="url(#pb303bd5eea)" d="
M227.213 88.5763
L41.1429 149.034" style="fill:none;stroke:#808080;stroke-width:0.6408131054024617;"/>
    <path clip-path="url(#pb303bd5eea)" d="
M175.785 51.2112
L246.857 149.034" style="fill:none;stroke:#808080;stroke-width:1.3059652137268292;"/>
    <path clip-path="url(#pb303bd5eea)" d="
M175.785 51.2112
L227.213 88.5763" style="fill:none;stroke:#808080;stroke-width:1.962732004001277;"/>
    <path clip-path="url(#pb303bd5eea)" d="
M175.785 51.2112
L112.215 51.2112" style="fill:none;stroke:#808080;stroke-width:0.5007220423395362;"/>
    <path clip-path="url(#pb303bd5eea)" d="
M175.785 51.2112
L60.7868 88.5763" style="fill:none;stroke:#808080;stroke-width:1.288204032450567;"/>
    <path clip-path="url(#pb303bd5eea)" d="
M175.785 51.2112
L60.7868 209.492" style="fill:none;stroke:#808080;stroke-width:1.721145559371997;"/>
    <path clip-path="url(#pb303bd5eea)" d="
M175.785 51.2112
L175.785 246.857" style="fill:none;stroke:#808080;stroke-width:0.4737715403456886;"/>
    <path clip-path="url(#pb303bd5eea)" d="
M112.215 51.2112
L246.857 149.034" style="fill:none;stroke:#808080;stroke-width:0.48651266721177894;"/>
    <path clip-path="url(#pb303bd5eea)" d="
M112.215 51.2112
L227.213 88.5763" style="fill:none;stroke:#808080;stroke-width:1.1968508384476295;"/>
    <path clip-path="url(#pb303bd5eea)" d="
M112.215 51.2112
L175.785 51.2112" style="fill:none;stroke:#808080;stroke-width:1.075151001749751;"/>
    <path clip-path="url(#pb303bd5eea)" d="
M112.215 51.2112
L60.7868 88.5763" style="fill:none;stroke:#808080;stroke-width:0.941520224157946;"/>
    <path clip-path="url(#pb303bd5eea)" d="
M112.215 51.2112
L112.215 246.857" style="fill:none;stroke:#808080;stroke-width:1.4760582533875564;"/>
    <path clip-path="url(#pb303bd5eea)" d="
M60.7868 88.5763
L175.785 246.857" style="fill:none;stroke:#808080;stroke-width:1.7938476023433334;"/>
    <path clip-path="url(#pb303bd5eea)" d="
M60.7868 88.5763
L227.213 88.5763" style="fill:none;stroke:#808080;stroke-width:1.668004939191365;"/>
    <path clip-path="url(#pb303bd5eea)" d="
M60.7868 88.5763
L41.1429 149.034" style="fill:none;stroke:#808080;stroke-width:1.5178237060759314;"/>
    <path clip-path="url(#pb303bd5eea)" d="
M60.7868 88.5763
L112.215 246.857" style="fill:none;stroke:#808080;stroke-width:0.8797612576690388;"/>
    <path clip-path="url(#pb303bd5eea)" d="
M41.1429 149.034
L175.785 246.857" style="fill:none;stroke:#808080;stroke-width:1.6854946566895657;"/>
    <path clip-path="url(#pb303bd5eea)" d="
M41.1429 149.034
L227.213 88.5763" style="fill:none;stroke:#808080;stroke-width:1.1233627379042619;"/>
    <path clip-path="url(#pb303bd5eea)" d="
M41.1429 149.034
L112.215 51.2112" style="fill:none;stroke:#808080;stroke-width:0.9032700788920565;"/>
    <path clip-path="url(#pb303bd5eea)" d="
M41.1429 149.034
L60.7868 209.492" style="fill:none;stroke:#808080;stroke-width:1.6589064039382104;"/>
    <path clip-path="url(#pb303bd5eea)" d="
M41.1429 149.034
L112.215 246.857" style="fill:none;stroke:#808080;stroke-width:1.8033630665202027;"/>
    <path clip-path="url(#pb303bd5eea)" d="
M60.7868 209.492
L227.213 209.492" style="fill:none;stroke:#808080;stroke-width:1.4181940058701037;"/>
    <path clip-path="url(#pb303bd5eea)" d="
M60.7868 209.492
L112.215 51.2112" style="fill:none;stroke:#808080;stroke-width:0.5283186947648887;"/>
    <path clip-path="url(#pb303bd5eea)" d="
M60.7868 209.492
L60.7868 88.5763" style="fill:none;stroke:#808080;stroke-width:0.7489957785139485;"/>
    <path clip-path="url(#pb303bd5eea)" d="
M60.7868 209.492
L112.215 246.857" style="fill:none;stroke:#808080;stroke-width:0.5424895874110629;"/>
    <path clip-path="url(#pb303bd5eea)" d="
M112.215 246.857
L175.785 246.857" style="fill:none;stroke:#808080;stroke-width:1.7122159180083028;"/>
    <path clip-path="url(#pb303bd5eea)" d="
M112.215 246.857
L227.213 88.5763" style="fill:none;stroke:#808080;stroke-width:1.6126612762233288;"/>
    <path clip-path="url(#pb303bd5eea)" d="
M112.215 246.857
L112.215 51.2112" style="fill:none;stroke:#808080;stroke-width:1.2475992330135828;"/>
    <path clip-path="url(#pb303bd5eea)" d="
M112.215 246.857
L227.213 209.492" style="fill:none;stroke:#808080;stroke-width:0.709028601273311;"/>
    <path clip-path="url(#pb303bd5eea)" d="
M175.785 246.857
L227.213 88.5763" style="fill:none;stroke:#808080;stroke-width:1.0506752921963578;"/>
    <path clip-path="url(#pb303bd5eea)" d="
M175.785 246.857
L175.785 51.2112" style="fill:none;stroke:#808080;stroke-width:0.8167701377703133;"/>
    <path clip-path="url(#pb303bd5eea)" d="
M227.213 209.492
L246.857 149.034" style="fill:none;stroke:#808080;stroke-width:1.5633615527617986;"/>
    <path clip-path="url(#pb303bd5eea)" d="
M227.213 209.492
L175.785 51.2112" style="fill:none;stroke:#808080;stroke-width:0.8112536884691259;"/>
    <path clip-path="url(#pb303bd5eea)" d="
M227.213 209.492
L112.215 51.2112" style="fill:none;stroke:#808080;stroke-width:1.155315060926003;"/>
    <path clip-path="url(#pb303bd5eea)" d="
M227.213 209.492
L60.7868 88.5763" style="fill:none;stroke:#808080;stroke-width:1.5353074224525156;"/>
    <path clip-path="url(#pb303bd5eea)" d="
M227.213 209.492
L60.7868 209.492" style="fill:none;stroke:#808080;stroke-width:1.2757231263772981;"/>
   </g>
   <g id="LineCollection_2">
    <path clip-path="url(#pb303bd5eea)" d="
M193.553 222.401
L175.785 246.857" style="fill:none;stroke:#808080;stroke-width:2.751811482800761;"/>
    <path clip-path="url(#pb303bd5eea)" d="
M232.124 103.691
L227.213 88.5763" style="fill:none;stroke:#808080;stroke-width:3.638379771837782;"/>
    <path clip-path="url(#pb303bd5eea)" d="
M193.553 75.667
L175.785 51.2112" style="fill:none;stroke:#808080;stroke-width:3.5310616177538443;"/>
    <path clip-path="url(#pb303bd5eea)" d="
M145.876 75.667
L112.215 51.2112" style="fill:none;stroke:#808080;stroke-width:2.0435085564840274;"/>
    <path clip-path="url(#pb303bd5eea)" d="
M107.304 103.691
L60.7868 88.5763" style="fill:none;stroke:#808080;stroke-width:6.222142683501675;"/>
    <path clip-path="url(#pb303bd5eea)" d="
M241.946 133.92
L246.857 149.034" style="fill:none;stroke:#808080;stroke-width:3.563470322986359;"/>
    <path clip-path="url(#pb303bd5eea)" d="
M188.642 60.5525
L175.785 51.2112" style="fill:none;stroke:#808080;stroke-width:4.03084307052371;"/>
    <path clip-path="url(#pb303bd5eea)" d="
M102.393 88.5763
L60.7868 88.5763" style="fill:none;stroke:#808080;stroke-width:7.3294620384417755;"/>
    <path clip-path="url(#pb303bd5eea)" d="
M87.6604 133.92
L41.1429 149.034" style="fill:none;stroke:#808080;stroke-width:2.563252421609847;"/>
    <path clip-path="url(#pb303bd5eea)" d="
M229.089 124.578
L246.857 149.034" style="fill:none;stroke:#808080;stroke-width:5.223860854907317;"/>
    <path clip-path="url(#pb303bd5eea)" d="
M214.356 79.235
L227.213 88.5763" style="fill:none;stroke:#808080;stroke-width:7.850928016005108;"/>
    <path clip-path="url(#pb303bd5eea)" d="
M128.108 51.2112
L112.215 51.2112" style="fill:none;stroke:#808080;stroke-width:2.002888169358145;"/>
    <path clip-path="url(#pb303bd5eea)" d="
M89.5363 79.235
L60.7868 88.5763" style="fill:none;stroke:#808080;stroke-width:5.152816129802268;"/>
    <path clip-path="url(#pb303bd5eea)" d="
M89.5363 169.922
L60.7868 209.492" style="fill:none;stroke:#808080;stroke-width:6.884582237487988;"/>
    <path clip-path="url(#pb303bd5eea)" d="
M175.785 197.946
L175.785 246.857" style="fill:none;stroke:#808080;stroke-width:1.8950861613827543;"/>
    <path clip-path="url(#pb303bd5eea)" d="
M213.197 124.578
L246.857 149.034" style="fill:none;stroke:#808080;stroke-width:1.9460506688471157;"/>
    <path clip-path="url(#pb303bd5eea)" d="
M198.464 79.235
L227.213 88.5763" style="fill:none;stroke:#808080;stroke-width:4.787403353790518;"/>
    <path clip-path="url(#pb303bd5eea)" d="
M159.892 51.2112
L175.785 51.2112" style="fill:none;stroke:#808080;stroke-width:4.300604006999004;"/>
    <path clip-path="url(#pb303bd5eea)" d="
M73.644 79.235
L60.7868 88.5763" style="fill:none;stroke:#808080;stroke-width:3.766080896631784;"/>
    <path clip-path="url(#pb303bd5eea)" d="
M112.215 197.946
L112.215 246.857" style="fill:none;stroke:#808080;stroke-width:5.9042330135502255;"/>
    <path clip-path="url(#pb303bd5eea)" d="
M147.035 207.287
L175.785 246.857" style="fill:none;stroke:#808080;stroke-width:7.175390409373334;"/>
    <path clip-path="url(#pb303bd5eea)" d="
M185.607 88.5763
L227.213 88.5763" style="fill:none;stroke:#808080;stroke-width:6.67201975676546;"/>
    <path clip-path="url(#pb303bd5eea)" d="
M46.0538 133.92
L41.1429 149.034" style="fill:none;stroke:#808080;stroke-width:6.071294824303726;"/>
    <path clip-path="url(#pb303bd5eea)" d="
M99.3582 207.287
L112.215 246.857" style="fill:none;stroke:#808080;stroke-width:3.519045030676155;"/>
    <path clip-path="url(#pb303bd5eea)" d="
M142.124 222.401
L175.785 246.857" style="fill:none;stroke:#808080;stroke-width:6.741978626758263;"/>
    <path clip-path="url(#pb303bd5eea)" d="
M180.696 103.691
L227.213 88.5763" style="fill:none;stroke:#808080;stroke-width:4.4934509516170476;"/>
    <path clip-path="url(#pb303bd5eea)" d="
M94.4473 75.667
L112.215 51.2112" style="fill:none;stroke:#808080;stroke-width:3.613080315568226;"/>
    <path clip-path="url(#pb303bd5eea)" d="
M55.8758 194.378
L60.7868 209.492" style="fill:none;stroke:#808080;stroke-width:6.635625615752842;"/>
    <path clip-path="url(#pb303bd5eea)" d="
M94.4473 222.401
L112.215 246.857" style="fill:none;stroke:#808080;stroke-width:7.213452266080811;"/>
    <path clip-path="url(#pb303bd5eea)" d="
M185.607 209.492
L227.213 209.492" style="fill:none;stroke:#808080;stroke-width:5.672776023480415;"/>
    <path clip-path="url(#pb303bd5eea)" d="
M99.3583 90.7815
L112.215 51.2112" style="fill:none;stroke:#808080;stroke-width:2.1132747790595547;"/>
    <path clip-path="url(#pb303bd5eea)" d="
M60.7868 118.805
L60.7868 88.5763" style="fill:none;stroke:#808080;stroke-width:2.995983114055794;"/>
    <path clip-path="url(#pb303bd5eea)" d="
M99.3582 237.516
L112.215 246.857" style="fill:none;stroke:#808080;stroke-width:2.1699583496442516;"/>
    <path clip-path="url(#pb303bd5eea)" d="
M159.892 246.857
L175.785 246.857" style="fill:none;stroke:#808080;stroke-width:6.848863672033211;"/>
    <path clip-path="url(#pb303bd5eea)" d="
M198.464 128.146
L227.213 88.5763" style="fill:none;stroke:#808080;stroke-width:6.450645104893315;"/>
    <path clip-path="url(#pb303bd5eea)" d="
M112.215 100.123
L112.215 51.2112" style="fill:none;stroke:#808080;stroke-width:4.990396932054331;"/>
    <path clip-path="url(#pb303bd5eea)" d="
M198.464 218.833
L227.213 209.492" style="fill:none;stroke:#808080;stroke-width:2.836114405093244;"/>
    <path clip-path="url(#pb303bd5eea)" d="
M214.356 128.146
L227.213 88.5763" style="fill:none;stroke:#808080;stroke-width:4.202701168785431;"/>
    <path clip-path="url(#pb303bd5eea)" d="
M175.785 100.123
L175.785 51.2112" style="fill:none;stroke:#808080;stroke-width:3.267080551081253;"/>
    <path clip-path="url(#pb303bd5eea)" d="
M241.946 164.149
L246.857 149.034" style="fill:none;stroke:#808080;stroke-width:6.253446211047194;"/>
    <path clip-path="url(#pb303bd5eea)" d="
M188.642 90.7814
L175.785 51.2112" style="fill:none;stroke:#808080;stroke-width:3.2450147538765037;"/>
    <path clip-path="url(#pb303bd5eea)" d="
M140.965 90.7814
L112.215 51.2112" style="fill:none;stroke:#808080;stroke-width:4.621260243704012;"/>
    <path clip-path="url(#pb303bd5eea)" d="
M102.393 118.805
L60.7868 88.5763" style="fill:none;stroke:#808080;stroke-width:6.1412296898100625;"/>
    <path clip-path="url(#pb303bd5eea)" d="
M102.393 209.492
L60.7868 209.492" style="fill:none;stroke:#808080;stroke-width:5.1028925055091925;"/>
   </g>
   <g id="PathCollection_1">
    <defs>
     <path d="
M0 8.66025
C2.29673 8.66025 4.49969 7.74776 6.12372 6.12372
C7.74776 4.49969 8.66025 2.29673 8.66025 0
C8.66025 -2.29673 7.74776 -4.49969 6.12372 -6.12372
C4.49969 -7.74776 2.29673 -8.66025 0 -8.66025
C-2.29673 -8.66025 -4.49969 -7.74776 -6.12372 -6.12372
C-7.74776 -4.49969 -8.66025 -2.29673 -8.66025 0
C-8.66025 2.29673 -7.74776 4.49969 -6.12372 6.12372
C-4.49969 7.74776 -2.29673 8.66025 0 8.66025
z
" id="m4857a30cb9" style="stroke:#000000;"/>
    </defs>
    <g clip-path="url(#pb303bd5eea)">
     <use style="stroke:#000000;" x="246.857142857" xlink:href="#m4857a30cb9" y="149.034190587"/>
     <use style="stroke:#000000;" x="227.213171278" xlink:href="#m4857a30cb9" y="88.5762797764"/>
     <use style="stroke:#000000;" x="175.784599849" xlink:href="#m4857a30cb9" y="51.2112383161"/>
     <use style="stroke:#000000;" x="112.215387889" xlink:href="#m4857a30cb9" y="51.2112383161"/>
     <use style="stroke:#000000;" x="60.7868164607" xlink:href="#m4857a30cb9" y="88.5762797764"/>
     <use style="stroke:#000000;" x="41.1428571429" xlink:href="#m4857a30cb9" y="149.034196717"/>
     <use style="stroke:#000000;" x="60.7868287223" xlink:href="#m4857a30cb9" y="209.492113658"/>
     <use style="stroke:#000000;" x="112.215387889" xlink:href="#m4857a30cb9" y="246.857142857"/>
     <use style="stroke:#000000;" x="175.784624372" xlink:href="#m4857a30cb9" y="246.857142857"/>
     <use style="stroke:#000000;" x="227.213195801" xlink:href="#m4857a30cb9" y="209.492070743"/>
    </g>
   </g>
  </g>
 </g>
 <defs>
  <clipPath id="pb303bd5eea">
   <rect height="288.0" width="288.0" x="0.0" y="0.0"/>
  </clipPath>
 </defs>
</svg>
