<?xml version="1.0" encoding="utf-8" standalone="no"?>
<!DOCTYPE svg PUBLIC "-//W3C//DTD SVG 1.1//EN"
  "http://www.w3.org/Graphics/SVG/1.1/DTD/svg11.dtd">
<!-- Created with matplotlib (http://matplotlib.org/) -->
<svg height="288pt" version="1.1" viewBox="0 0 288 288" width="288pt" xmlns="http://www.w3.org/2000/svg" xmlns:xlink="http://www.w3.org/1999/xlink">
 <defs>
  <style type="text/css">
*{stroke-linecap:butt;stroke-linejoin:round;}
  </style>
 </defs>
 <g id="figure_1">
  <g id="patch_1">
   <path d="
M0 288
L288 288
L288 0
L0 0
z
" style="fill:#ffffff;"/>
  </g>
  <g id="axes_1">
   <g id="LineCollection_1">
    <path clip-path="url(#pb303bd5eea)" d="
M236.789 144
L41.1429 80.4308" style="fill:none;stroke:#808080;stroke-width:0.007025280723229277;"/>
    <path clip-path="url(#pb303bd5eea)" d="
M236.789 144
L41.1429 207.569" style="fill:none;stroke:#808080;stroke-width:0.003534504951933748;"/>
    <path clip-path="url(#pb303bd5eea)" d="
M162.059 41.1429
L236.789 144" style="fill:none;stroke:#808080;stroke-width:0.018040237204004717;"/>
    <path clip-path="url(#pb303bd5eea)" d="
M162.059 41.1429
L41.1429 80.4308" style="fill:none;stroke:#808080;stroke-width:0.03016610276317444;"/>
    <path clip-path="url(#pb303bd5eea)" d="
M162.059 41.1429
L41.1429 207.569" style="fill:none;stroke:#808080;stroke-width:0.018038099870857027;"/>
    <path clip-path="url(#pb303bd5eea)" d="
M41.1429 80.4308
L162.059 41.1429" style="fill:none;stroke:#808080;stroke-width:0.026958188301002384;"/>
    <path clip-path="url(#pb303bd5eea)" d="
M41.1429 80.4308
L41.1429 207.569" style="fill:none;stroke:#808080;stroke-width:0.014760137897598335;"/>
    <path clip-path="url(#pb303bd5eea)" d="
M41.1429 207.569
L236.789 144" style="fill:none;stroke:#808080;stroke-width:0.037616702071077146;"/>
    <path clip-path="url(#pb303bd5eea)" d="
M41.1429 207.569
L162.059 41.1429" style="fill:none;stroke:#808080;stroke-width:0.023546240880490954;"/>
    <path clip-path="url(#pb303bd5eea)" d="
M41.1429 207.569
L162.059 246.857" style="fill:none;stroke:#808080;stroke-width:0.3168685948865777;"/>
    <path clip-path="url(#pb303bd5eea)" d="
M162.059 246.857
L236.789 144" style="fill:none;stroke:#808080;stroke-width:0.015817154314497928;"/>
    <path clip-path="url(#pb303bd5eea)" d="
M162.059 246.857
L162.059 41.1429" style="fill:none;stroke:#808080;stroke-width:0.03565718313201893;"/>
    <path clip-path="url(#pb303bd5eea)" d="
M162.059 246.857
L41.1429 207.569" style="fill:none;stroke:#808080;stroke-width:0.014082861198705054;"/>
   </g>
   <g id="LineCollection_2">
    <path clip-path="url(#pb303bd5eea)" d="
M90.0543 96.3231
L41.1429 80.4308" style="fill:none;stroke:#808080;stroke-width:0.028101122892917108;"/>
    <path clip-path="url(#pb303bd5eea)" d="
M90.0544 191.677
L41.1429 207.569" style="fill:none;stroke:#808080;stroke-width:0.014138019807734992;"/>
    <path clip-path="url(#pb303bd5eea)" d="
M218.106 118.286
L236.789 144" style="fill:none;stroke:#808080;stroke-width:0.07216094881601887;"/>
    <path clip-path="url(#pb303bd5eea)" d="
M71.3718 70.6088
L41.1429 80.4308" style="fill:none;stroke:#808080;stroke-width:0.12066441105269776;"/>
    <path clip-path="url(#pb303bd5eea)" d="
M71.3718 165.963
L41.1429 207.569" style="fill:none;stroke:#808080;stroke-width:0.07215239948342811;"/>
    <path clip-path="url(#pb303bd5eea)" d="
M131.83 50.9648
L162.059 41.1429" style="fill:none;stroke:#808080;stroke-width:0.10783275320400953;"/>
    <path clip-path="url(#pb303bd5eea)" d="
M41.1429 175.785
L41.1429 207.569" style="fill:none;stroke:#808080;stroke-width:0.05904055159039334;"/>
    <path clip-path="url(#pb303bd5eea)" d="
M187.877 159.892
L236.789 144" style="fill:none;stroke:#808080;stroke-width:0.15046680828430858;"/>
    <path clip-path="url(#pb303bd5eea)" d="
M131.83 82.7494
L162.059 41.1429" style="fill:none;stroke:#808080;stroke-width:0.09418496352196382;"/>
    <path clip-path="url(#pb303bd5eea)" d="
M131.83 237.035
L162.059 246.857" style="fill:none;stroke:#808080;stroke-width:1.2674743795463108;"/>
    <path clip-path="url(#pb303bd5eea)" d="
M218.106 169.714
L236.789 144" style="fill:none;stroke:#808080;stroke-width:0.06326861725799171;"/>
    <path clip-path="url(#pb303bd5eea)" d="
M162.059 92.5714
L162.059 41.1429" style="fill:none;stroke:#808080;stroke-width:0.14262873252807573;"/>
    <path clip-path="url(#pb303bd5eea)" d="
M71.3718 217.391
L41.1429 207.569" style="fill:none;stroke:#808080;stroke-width:0.05633144479482022;"/>
   </g>
   <g id="PathCollection_1">
    <defs>
     <path d="
M0 8.66025
C2.29673 8.66025 4.49969 7.74776 6.12372 6.12372
C7.74776 4.49969 8.66025 2.29673 8.66025 0
C8.66025 -2.29673 7.74776 -4.49969 6.12372 -6.12372
C4.49969 -7.74776 2.29673 -8.66025 0 -8.66025
C-2.29673 -8.66025 -4.49969 -7.74776 -6.12372 -6.12372
C-7.74776 -4.49969 -8.66025 -2.29673 -8.66025 0
C-8.66025 2.29673 -7.74776 4.49969 -6.12372 6.12372
C-4.49969 7.74776 -2.29673 8.66025 0 8.66025
z
" id="m4857a30cb9" style="stroke:#000000;"/>
    </defs>
    <g clip-path="url(#pb303bd5eea)">
     <use style="stroke:#000000;" x="236.788786207" xlink:href="#m4857a30cb9" y="144.0"/>
     <use style="stroke:#000000;" x="162.058691025" xlink:href="#m4857a30cb9" y="41.1428571429"/>
     <use style="stroke:#000000;" x="41.1428571429" xlink:href="#m4857a30cb9" y="80.4307880402"/>
     <use style="stroke:#000000;" x="41.1428700354" xlink:href="#m4857a30cb9" y="207.569224221"/>
     <use style="stroke:#000000;" x="162.058703286" xlink:href="#m4857a30cb9" y="246.857142857"/>
    </g>
   </g>
  </g>
 </g>
 <defs>
  <clipPath id="pb303bd5eea">
   <rect height="288.0" width="288.0" x="0.0" y="0.0"/>
  </clipPath>
 </defs>
</svg>
