<?xml version="1.0" encoding="utf-8" standalone="no"?>
<!DOCTYPE svg PUBLIC "-//W3C//DTD SVG 1.1//EN"
  "http://www.w3.org/Graphics/SVG/1.1/DTD/svg11.dtd">
<!-- Created with matplotlib (http://matplotlib.org/) -->
<svg height="288pt" version="1.1" viewBox="0 0 288 288" width="288pt" xmlns="http://www.w3.org/2000/svg" xmlns:xlink="http://www.w3.org/1999/xlink">
 <defs>
  <style type="text/css">
*{stroke-linecap:butt;stroke-linejoin:round;}
  </style>
 </defs>
 <g id="figure_1">
  <g id="patch_1">
   <path d="
M0 288
L288 288
L288 0
L0 0
z
" style="fill:#ffffff;"/>
  </g>
  <g id="axes_1">
   <g id="LineCollection_1">
    <path clip-path="url(#pb303bd5eea)" d="
M236.789 144
L162.059 41.1429" style="fill:none;stroke:#808080;stroke-width:0.7935931837772329;"/>
    <path clip-path="url(#pb303bd5eea)" d="
M162.059 41.1429
L236.789 144" style="fill:none;stroke:#808080;stroke-width:0.6368347434251126;"/>
    <path clip-path="url(#pb303bd5eea)" d="
M162.059 41.1429
L162.059 246.857" style="fill:none;stroke:#808080;stroke-width:0.9754637705448066;"/>
    <path clip-path="url(#pb303bd5eea)" d="
M41.1429 80.4308
L236.789 144" style="fill:none;stroke:#808080;stroke-width:1.3599696774910994;"/>
    <path clip-path="url(#pb303bd5eea)" d="
M41.1429 207.569
L236.789 144" style="fill:none;stroke:#808080;stroke-width:1.0594874197535438;"/>
    <path clip-path="url(#pb303bd5eea)" d="
M41.1429 207.569
L41.1429 80.4308" style="fill:none;stroke:#808080;stroke-width:1.7575992199493649;"/>
    <path clip-path="url(#pb303bd5eea)" d="
M41.1429 207.569
L162.059 246.857" style="fill:none;stroke:#808080;stroke-width:0.5501427691996844;"/>
    <path clip-path="url(#pb303bd5eea)" d="
M162.059 246.857
L236.789 144" style="fill:none;stroke:#808080;stroke-width:1.5883317947739215;"/>
    <path clip-path="url(#pb303bd5eea)" d="
M162.059 246.857
L162.059 41.1429" style="fill:none;stroke:#808080;stroke-width:0.8359371616516267;"/>
    <path clip-path="url(#pb303bd5eea)" d="
M162.059 246.857
L41.1429 80.4308" style="fill:none;stroke:#808080;stroke-width:1.4141574637730563;"/>
   </g>
   <g id="LineCollection_2">
    <path clip-path="url(#pb303bd5eea)" d="
M180.741 66.8571
L162.059 41.1429" style="fill:none;stroke:#808080;stroke-width:3.1743727351089315;"/>
    <path clip-path="url(#pb303bd5eea)" d="
M218.106 118.286
L236.789 144" style="fill:none;stroke:#808080;stroke-width:2.5473389737004504;"/>
    <path clip-path="url(#pb303bd5eea)" d="
M162.059 195.429
L162.059 246.857" style="fill:none;stroke:#808080;stroke-width:3.9018550821792264;"/>
    <path clip-path="url(#pb303bd5eea)" d="
M187.877 128.108
L236.789 144" style="fill:none;stroke:#808080;stroke-width:5.439878709964398;"/>
    <path clip-path="url(#pb303bd5eea)" d="
M187.877 159.892
L236.789 144" style="fill:none;stroke:#808080;stroke-width:4.237949679014175;"/>
    <path clip-path="url(#pb303bd5eea)" d="
M41.1429 112.215
L41.1429 80.4308" style="fill:none;stroke:#808080;stroke-width:7.030396879797459;"/>
    <path clip-path="url(#pb303bd5eea)" d="
M131.83 237.035
L162.059 246.857" style="fill:none;stroke:#808080;stroke-width:2.2005710767987376;"/>
    <path clip-path="url(#pb303bd5eea)" d="
M218.106 169.714
L236.789 144" style="fill:none;stroke:#808080;stroke-width:6.353327179095686;"/>
    <path clip-path="url(#pb303bd5eea)" d="
M162.059 92.5714
L162.059 41.1429" style="fill:none;stroke:#808080;stroke-width:3.3437486466065067;"/>
    <path clip-path="url(#pb303bd5eea)" d="
M71.3718 122.037
L41.1429 80.4308" style="fill:none;stroke:#808080;stroke-width:5.656629855092225;"/>
   </g>
   <g id="PathCollection_1">
    <defs>
     <path d="
M0 8.66025
C2.29673 8.66025 4.49969 7.74776 6.12372 6.12372
C7.74776 4.49969 8.66025 2.29673 8.66025 0
C8.66025 -2.29673 7.74776 -4.49969 6.12372 -6.12372
C4.49969 -7.74776 2.29673 -8.66025 0 -8.66025
C-2.29673 -8.66025 -4.49969 -7.74776 -6.12372 -6.12372
C-7.74776 -4.49969 -8.66025 -2.29673 -8.66025 0
C-8.66025 2.29673 -7.74776 4.49969 -6.12372 6.12372
C-4.49969 7.74776 -2.29673 8.66025 0 8.66025
z
" id="m4857a30cb9" style="stroke:#000000;"/>
    </defs>
    <g clip-path="url(#pb303bd5eea)">
     <use style="stroke:#000000;" x="236.788786207" xlink:href="#m4857a30cb9" y="144.0"/>
     <use style="stroke:#000000;" x="162.058691025" xlink:href="#m4857a30cb9" y="41.1428571429"/>
     <use style="stroke:#000000;" x="41.1428571429" xlink:href="#m4857a30cb9" y="80.4307880402"/>
     <use style="stroke:#000000;" x="41.1428700354" xlink:href="#m4857a30cb9" y="207.569224221"/>
     <use style="stroke:#000000;" x="162.058703286" xlink:href="#m4857a30cb9" y="246.857142857"/>
    </g>
   </g>
  </g>
 </g>
 <defs>
  <clipPath id="pb303bd5eea">
   <rect height="288.0" width="288.0" x="0.0" y="0.0"/>
  </clipPath>
 </defs>
</svg>
