<?xml version="1.0" encoding="utf-8" standalone="no"?>
<!DOCTYPE svg PUBLIC "-//W3C//DTD SVG 1.1//EN"
  "http://www.w3.org/Graphics/SVG/1.1/DTD/svg11.dtd">
<!-- Created with matplotlib (http://matplotlib.org/) -->
<svg height="288pt" version="1.1" viewBox="0 0 288 288" width="288pt" xmlns="http://www.w3.org/2000/svg" xmlns:xlink="http://www.w3.org/1999/xlink">
 <defs>
  <style type="text/css">
*{stroke-linecap:butt;stroke-linejoin:round;}
  </style>
 </defs>
 <g id="figure_1">
  <g id="patch_1">
   <path d="
M0 288
L288 288
L288 0
L0 0
z
" style="fill:#ffffff;"/>
  </g>
  <g id="axes_1">
   <g id="LineCollection_1">
    <path clip-path="url(#pb303bd5eea)" d="
M236.789 144
L41.1429 80.4308" style="fill:none;stroke:#808080;stroke-width:0.5715759523290466;"/>
    <path clip-path="url(#pb303bd5eea)" d="
M236.789 144
L41.1429 207.569" style="fill:none;stroke:#808080;stroke-width:0.41660645941068375;"/>
    <path clip-path="url(#pb303bd5eea)" d="
M162.059 41.1429
L236.789 144" style="fill:none;stroke:#808080;stroke-width:1.1570568655580031;"/>
    <path clip-path="url(#pb303bd5eea)" d="
M162.059 41.1429
L41.1429 80.4308" style="fill:none;stroke:#808080;stroke-width:0.6701560942225226;"/>
    <path clip-path="url(#pb303bd5eea)" d="
M162.059 41.1429
L41.1429 207.569" style="fill:none;stroke:#808080;stroke-width:0.7977606967599962;"/>
    <path clip-path="url(#pb303bd5eea)" d="
M41.1429 80.4308
L162.059 41.1429" style="fill:none;stroke:#808080;stroke-width:1.7309901752519945;"/>
    <path clip-path="url(#pb303bd5eea)" d="
M41.1429 80.4308
L41.1429 207.569" style="fill:none;stroke:#808080;stroke-width:0.4804809388953357;"/>
    <path clip-path="url(#pb303bd5eea)" d="
M41.1429 207.569
L236.789 144" style="fill:none;stroke:#808080;stroke-width:1.5239182323830178;"/>
    <path clip-path="url(#pb303bd5eea)" d="
M41.1429 207.569
L162.059 41.1429" style="fill:none;stroke:#808080;stroke-width:1.4182811450418669;"/>
    <path clip-path="url(#pb303bd5eea)" d="
M41.1429 207.569
L162.059 246.857" style="fill:none;stroke:#808080;stroke-width:2.303;"/>
    <path clip-path="url(#pb303bd5eea)" d="
M162.059 246.857
L236.789 144" style="fill:none;stroke:#808080;stroke-width:0.7085862912926899;"/>
    <path clip-path="url(#pb303bd5eea)" d="
M162.059 246.857
L162.059 41.1429" style="fill:none;stroke:#808080;stroke-width:1.6667338816388075;"/>
    <path clip-path="url(#pb303bd5eea)" d="
M162.059 246.857
L41.1429 207.569" style="fill:none;stroke:#808080;stroke-width:0.6301494640290781;"/>
   </g>
   <g id="LineCollection_2">
    <path clip-path="url(#pb303bd5eea)" d="
M90.0543 96.3231
L41.1429 80.4308" style="fill:none;stroke:#808080;stroke-width:2.2863038093161863;"/>
    <path clip-path="url(#pb303bd5eea)" d="
M90.0544 191.677
L41.1429 207.569" style="fill:none;stroke:#808080;stroke-width:1.666425837642735;"/>
    <path clip-path="url(#pb303bd5eea)" d="
M218.106 118.286
L236.789 144" style="fill:none;stroke:#808080;stroke-width:4.6282274622320125;"/>
    <path clip-path="url(#pb303bd5eea)" d="
M71.3718 70.6088
L41.1429 80.4308" style="fill:none;stroke:#808080;stroke-width:2.6806243768900906;"/>
    <path clip-path="url(#pb303bd5eea)" d="
M71.3718 165.963
L41.1429 207.569" style="fill:none;stroke:#808080;stroke-width:3.1910427870399847;"/>
    <path clip-path="url(#pb303bd5eea)" d="
M131.83 50.9648
L162.059 41.1429" style="fill:none;stroke:#808080;stroke-width:6.923960701007978;"/>
    <path clip-path="url(#pb303bd5eea)" d="
M41.1429 175.785
L41.1429 207.569" style="fill:none;stroke:#808080;stroke-width:1.9219237555813429;"/>
    <path clip-path="url(#pb303bd5eea)" d="
M187.877 159.892
L236.789 144" style="fill:none;stroke:#808080;stroke-width:6.095672929532071;"/>
    <path clip-path="url(#pb303bd5eea)" d="
M131.83 82.7494
L162.059 41.1429" style="fill:none;stroke:#808080;stroke-width:5.6731245801674675;"/>
    <path clip-path="url(#pb303bd5eea)" d="
M131.83 237.035
L162.059 246.857" style="fill:none;stroke:#808080;stroke-width:9.212;"/>
    <path clip-path="url(#pb303bd5eea)" d="
M218.106 169.714
L236.789 144" style="fill:none;stroke:#808080;stroke-width:2.8343451651707596;"/>
    <path clip-path="url(#pb303bd5eea)" d="
M162.059 92.5714
L162.059 41.1429" style="fill:none;stroke:#808080;stroke-width:6.66693552655523;"/>
    <path clip-path="url(#pb303bd5eea)" d="
M71.3718 217.391
L41.1429 207.569" style="fill:none;stroke:#808080;stroke-width:2.5205978561163125;"/>
   </g>
   <g id="PathCollection_1">
    <defs>
     <path d="
M0 8.66025
C2.29673 8.66025 4.49969 7.74776 6.12372 6.12372
C7.74776 4.49969 8.66025 2.29673 8.66025 0
C8.66025 -2.29673 7.74776 -4.49969 6.12372 -6.12372
C4.49969 -7.74776 2.29673 -8.66025 0 -8.66025
C-2.29673 -8.66025 -4.49969 -7.74776 -6.12372 -6.12372
C-7.74776 -4.49969 -8.66025 -2.29673 -8.66025 0
C-8.66025 2.29673 -7.74776 4.49969 -6.12372 6.12372
C-4.49969 7.74776 -2.29673 8.66025 0 8.66025
z
" id="m4857a30cb9" style="stroke:#000000;"/>
    </defs>
    <g clip-path="url(#pb303bd5eea)">
     <use style="stroke:#000000;" x="236.788786207" xlink:href="#m4857a30cb9" y="144.0"/>
     <use style="stroke:#000000;" x="162.058691025" xlink:href="#m4857a30cb9" y="41.1428571429"/>
     <use style="stroke:#000000;" x="41.1428571429" xlink:href="#m4857a30cb9" y="80.4307880402"/>
     <use style="stroke:#000000;" x="41.1428700354" xlink:href="#m4857a30cb9" y="207.569224221"/>
     <use style="stroke:#000000;" x="162.058703286" xlink:href="#m4857a30cb9" y="246.857142857"/>
    </g>
   </g>
  </g>
 </g>
 <defs>
  <clipPath id="pb303bd5eea">
   <rect height="288.0" width="288.0" x="0.0" y="0.0"/>
  </clipPath>
 </defs>
</svg>
